<?xml version="1.0" encoding="utf-8"?>
<!-- Generator: Adobe Illustrator 17.0.0, SVG Export Plug-In . SVG Version: 6.00 Build 0)  -->
<!DOCTYPE svg PUBLIC "-//W3C//DTD SVG 1.1//EN" "http://www.w3.org/Graphics/SVG/1.1/DTD/svg11.dtd">
<svg version="1.1" id="Capa_1" xmlns="http://www.w3.org/2000/svg" xmlns:xlink="http://www.w3.org/1999/xlink" x="0px" y="0px"
	 width="595.28px" height="595.243px" viewBox="0 123.342 595.28 595.243" enable-background="new 0 123.342 595.28 595.243"
	 xml:space="preserve">
<circle fill="#54C0EB" cx="297.64" cy="420.945" r="297.64"/>
<path fill="#F2F2F2" d="M297.64,644.175c-122.777,0-223.23-100.454-223.23-223.23s100.453-223.23,223.23-223.23
	s223.23,100.453,223.23,223.23S420.417,644.175,297.64,644.175z"/>
<path fill="#FF7058" d="M297.64,569.765c-81.851,0-148.82-66.969-148.82-148.82s66.969-148.82,148.82-148.82
	s148.82,66.969,148.82,148.82S379.491,569.765,297.64,569.765z"/>
<path fill="#CDD6E0" d="M297.64,495.355c-40.926,0-74.41-33.484-74.41-74.41s33.484-74.41,74.41-74.41s74.41,33.484,74.41,74.41
	S338.566,495.355,297.64,495.355z"/>
<path fill="#FFD15C" d="M297.64,495.355c-40.926,0-74.41-33.484-74.41-74.41s33.484-74.41,74.41-74.41s74.41,33.484,74.41,74.41
	S338.566,495.355,297.64,495.355z"/>
<path opacity="0.2" fill="#334A5E" enable-background="new    " d="M592.8,458.15c-4.961,37.205-16.123,71.93-33.484,104.174
	l-16.123-6.2l-21.082-44.646l-223.23-80.61c-9.921-3.721-14.882-14.882-11.161-24.803c3.72-9.921,14.882-14.882,24.803-11.161
	l223.23,80.61l44.646-21.082L592.8,458.15z"/>
<path fill="#40596B" d="M501.027,243.602L318.722,425.906c-7.441,7.441-19.843,7.441-27.284,0l0,0
	c-7.441-7.441-7.441-19.843,0-27.284l183.545-181.064c7.441-7.441,19.843-7.441,27.284,0l0,0
	C508.468,224.999,508.468,236.161,501.027,243.602z"/>
<polygon fill="#FF7058" points="518.39,200.195 460.101,258.484 460.101,181.592 518.39,123.305 "/>
<polygon fill="#F1543F" points="536.993,258.484 595.28,200.195 518.39,200.195 460.101,258.484 "/>
</svg>
