<?xml version="1.0" encoding="iso-8859-1"?>
<!-- Generator: Adobe Illustrator 18.1.1, SVG Export Plug-In . SVG Version: 6.00 Build 0)  -->
<svg xmlns="http://www.w3.org/2000/svg" xmlns:xlink="http://www.w3.org/1999/xlink" version="1.1" id="Capa_1" x="0px" y="0px" viewBox="0 0 30 30" style="enable-background:new 0 0 30 30;" xml:space="preserve" width="512px" height="512px">
<g>
	<g>
		<path d="M28,15.35V0H0v28h2.414l6.002-6h3.643c0.498,4.498,4.309,7.998,8.941,8    c4.971-0.002,8.998-4.029,9-9C29.999,18.857,29.248,16.895,28,15.35z M12.059,20H7.584L2,25.583V2h24v11.518    C24.568,12.56,22.852,12,21,12c-2.143,0-4.105,0.751-5.652,2H6v2h7.517C12.735,17.169,12.221,18.531,12.059,20z M21,27.882    c-3.801-0.008-6.876-3.083-6.884-6.882c0.008-3.801,3.083-6.876,6.884-6.885c3.799,0.009,6.874,3.084,6.882,6.885    C27.874,24.799,24.799,27.874,21,27.882z" fill="#686b66"/>
		<rect x="6" y="6" width="18" height="2" fill="#686b66"/>
		<polygon points="24,10 6,10 6,12 21,12 24,12   " fill="#686b66"/>
		<polygon points="22.002,16 20,16 20,20 16,20 16,22 20,22 20,26 22.002,26 22.002,22 26,22 26,20     22.002,20   " fill="#686b66"/>
	</g>
</g>
<g>
</g>
<g>
</g>
<g>
</g>
<g>
</g>
<g>
</g>
<g>
</g>
<g>
</g>
<g>
</g>
<g>
</g>
<g>
</g>
<g>
</g>
<g>
</g>
<g>
</g>
<g>
</g>
<g>
</g>
</svg>
