<?xml version="1.0" encoding="utf-8"?>
<!-- Generator: Adobe Illustrator 17.0.0, SVG Export Plug-In . SVG Version: 6.00 Build 0)  -->
<!DOCTYPE svg PUBLIC "-//W3C//DTD SVG 1.1//EN" "http://www.w3.org/Graphics/SVG/1.1/DTD/svg11.dtd">
<svg version="1.1" id="Capa_1" xmlns="http://www.w3.org/2000/svg" xmlns:xlink="http://www.w3.org/1999/xlink" x="0px" y="0px"
	 width="170px" height="170px" viewBox="0 0 170 170" enable-background="new 0 0 170 170" xml:space="preserve">
<g>
	<path d="M102.953,32.594c-2.826-0.355-4.83-2.934-4.475-5.76s2.934-4.83,5.76-4.475l28.861,3.624
		c-1.217-9.241-8.501-16.872-18.183-18.088l-44.358-5.57c-9.681-1.216-18.626,4.378-22.089,13.031l28.86,3.624
		c2.827,0.355,4.83,2.934,4.476,5.76c-0.355,2.826-2.934,4.83-5.761,4.475l-29.519-3.706c-0.015-0.002-0.027-0.008-0.042-0.009
		l-1.286,10.244c0.014,0.002,0.028-0.001,0.042,0.001l29.519,3.706c2.827,0.355,4.83,2.934,4.476,5.76
		c-0.355,2.826-2.934,4.83-5.761,4.475L43.954,45.98c-0.015-0.002-0.027-0.008-0.042-0.009l-1.286,10.244
		c0.015,0.002,0.028-0.001,0.042,0.001l29.519,3.706c2.827,0.355,4.83,2.934,4.476,5.76c-0.355,2.826-2.934,4.83-5.761,4.475
		l-29.519-3.706c-0.015-0.002-0.027-0.007-0.042-0.009l-1.286,10.244c0.015,0.002,0.028-0.001,0.042,0.001l29.52,3.706
		c2.826,0.355,4.83,2.934,4.475,5.76s-2.934,4.83-5.76,4.475l-29.52-3.706c-0.015-0.002-0.027-0.008-0.042-0.009l-1.286,10.244
		c0.015,0.002,0.028-0.001,0.042,0.001l29.52,3.706c2.826,0.355,4.83,2.934,4.475,5.76s-2.934,4.83-5.76,4.475l-28.861-3.624
		c1.217,9.241,8.501,16.872,18.182,18.088l11.537,1.448v10.058h-1.656c-1.104,0-2,0.895-2,2v9.529c0,1.105,0.896,2,2,2h1.656v11.164
		c0,5.874,5.752,6.078,12.848,6.078s12.848-0.204,12.848-6.078v-11.164h1.656c1.104,0,2-0.895,2-2v-9.529c0-1.105-0.896-2-2-2
		h-1.656v-6.832l7.125,0.895c9.681,1.216,18.626-4.377,22.09-13.031l-28.861-3.624c-2.826-0.355-4.83-2.934-4.475-5.76
		s2.934-4.83,5.76-4.475l29.52,3.706c0.014,0.002,0.026,0.008,0.041,0.009l1.286-10.244c-0.014-0.002-0.028,0.001-0.042-0.001
		l-29.52-3.706c-2.826-0.355-4.83-2.934-4.475-5.76s2.934-4.83,5.76-4.475l29.52,3.706c0.014,0.002,0.026,0.007,0.041,0.009
		l1.286-10.244c-0.014-0.002-0.028,0.001-0.042-0.001l-29.52-3.706c-2.826-0.355-4.83-2.934-4.475-5.76s2.934-4.83,5.76-4.475
		l29.52,3.706c0.014,0.002,0.026,0.007,0.041,0.009l1.286-10.244c-0.014-0.002-0.028,0.001-0.042-0.001l-29.52-3.706
		c-2.826-0.355-4.83-2.934-4.475-5.76s2.934-4.83,5.76-4.475l29.52,3.706c0.014,0.002,0.026,0.008,0.041,0.009l1.286-10.244
		c-0.014-0.002-0.028,0.001-0.042-0.001L102.953,32.594z"/>
</g>
</svg>
