<?xml version="1.0" encoding="utf-8"?>
<!-- Generator: Adobe Illustrator 17.0.0, SVG Export Plug-In . SVG Version: 6.00 Build 0)  -->
<!DOCTYPE svg PUBLIC "-//W3C//DTD SVG 1.1//EN" "http://www.w3.org/Graphics/SVG/1.1/DTD/svg11.dtd">
<svg version="1.1" id="Capa_1" xmlns="http://www.w3.org/2000/svg" xmlns:xlink="http://www.w3.org/1999/xlink" x="0px" y="0px"
	 width="56.693px" height="56.693px" viewBox="227.654 227.654 56.693 56.693"
	 enable-background="new 227.654 227.654 56.693 56.693" xml:space="preserve">
<g>
	<g>
		<path fill="#FFFFFF" d="M284.346,275.488c0,4.872-3.986,8.858-8.858,8.858h-38.976c-4.872,0-8.858-3.986-8.858-8.858v-38.976
			c0-4.872,3.986-8.858,8.858-8.858h38.976c4.872,0,8.858,3.986,8.858,8.858V275.488z"/>
	</g>
	<g>
		<g>
			<path fill="#201A1B" d="M241.487,245.356c-0.086-0.265-0.133-0.548-0.133-0.841c0-1.528,1.257-2.767,2.807-2.767
				c1.11,0,2.067,0.637,2.522,1.56c0.393-0.105,0.79-0.2,1.191-0.285c-0.598-1.444-2.034-2.462-3.713-2.462
				c-2.215,0-4.011,1.77-4.011,3.954c0,0.509,0.101,0.994,0.278,1.44C240.776,245.747,241.129,245.547,241.487,245.356z"/>
			<path fill="#201A1B" d="M245.551,243.639c-0.294-0.452-0.806-0.752-1.39-0.752c-0.912,0-1.651,0.729-1.651,1.628
				c0,0.106,0.011,0.21,0.031,0.311C243.511,244.367,244.516,243.969,245.551,243.639z"/>
			<g>
				<path fill="#201A1B" d="M270.513,245.356c0.086-0.265,0.133-0.548,0.133-0.841c0-1.528-1.257-2.767-2.807-2.767
					c-1.11,0-2.067,0.637-2.522,1.56c-0.393-0.105-0.79-0.2-1.191-0.285c0.598-1.444,2.034-2.462,3.713-2.462
					c2.215,0,4.011,1.77,4.011,3.954c0,0.509-0.101,0.994-0.278,1.44C271.224,245.747,270.871,245.547,270.513,245.356z"/>
				<path fill="#201A1B" d="M266.449,243.639c0.294-0.452,0.806-0.752,1.39-0.752c0.912,0,1.651,0.729,1.651,1.628
					c0,0.106-0.011,0.21-0.031,0.311C268.489,244.367,267.484,243.969,266.449,243.639z"/>
			</g>
		</g>
		<g>
			<g>
				<path d="M258.18,229.618c-2.045-0.258-13.173,3.262-14.192,4.01c-1.019,0.748,11.797,9.421,13.144,9.798
					c1.346,0.377,13.706-6.66,14.189-7.585C271.803,234.915,260.904,229.962,258.18,229.618z"/>
				<path d="M249.073,239.101c0,0,6.549,4.897,8.043,5.148c1.494,0.251,7.081-2.716,8.251-3.636c0,0-0.384,5.058-0.429,5.651
					c-0.106,1.39-16.481,0.353-16.36-1.242C248.664,243.883,249.073,239.101,249.073,239.101z"/>
			</g>
			<path fill="#3AAA35" d="M258.26,234.974c-0.778-0.006-1.549,0.266-2.318,0.399c-0.946,0.165-1.905,0.256-2.859,0.359
				c-1.94,0.209-3.847,0.463-5.699,1.101c-0.102,0.035-0.193,0.174-0.191,0.281c0.033,1.639-0.335,3.231-0.685,4.826
				c-0.271-0.018-0.571-0.015-0.764,0.185c-0.078,0.081-0.078,0.197,0.014,0.268c0.127,0.099,0.271,0.126,0.42,0.14
				c-1.025,1.303-1.242,2.81-0.157,4.298c0.123,0.169,0.343,0.063,0.389-0.099c0.064-0.03,0.107-0.091,0.133-0.169
				c0.375-0.323,0.5-1.037,0.595-1.456c0.15-0.665,0.266-1.616,0.077-2.369c0.074,0.016,0.149,0.028,0.225,0.032
				c0.305,0.016,0.46-0.388,0.2-0.566c-0.14-0.096-0.301-0.151-0.469-0.188c0.067-0.325,0.134-0.651,0.205-0.978
				c0.149-0.697,0.277-1.395,0.383-2.1c0.069-0.462,0.101-0.927,0.123-1.393c0.015-0.331,1.3-0.54,1.547-0.599
				c1.706-0.404,3.48-0.514,5.216-0.721c1.136-0.135,2.951-0.107,3.681-1.113C258.363,235.06,258.327,234.975,258.26,234.974z"/>
		</g>
		<g>
			<g>
				<path d="M253.262,251.203c-1.147-1.315-2.404-1.624-4.486-1.166c-2.101,0.463-3.806,1.513-5.584,3.493
					c-1.754,1.975-2.92,3.715-3.618,6.138c-0.501,2.472-0.337,4.351,0.385,5.753c0.385,0.188,0.8,0.385,1.267,0.737
					c0.805,0.612,1.084,1.046,1.219,1.219c4.057,1.378,7.372-2.091,8.884-4.331c1.701-2.515,2.505-4.052,2.867-6.442
					C254.548,254.267,254.409,252.494,253.262,251.203z M251.243,257.697c-0.222,1.378-0.809,2.674-1.763,3.888
					c-1.021,1.296-2.168,2.096-3.435,2.399c-1.262,0.299-2.221-0.005-2.872-0.915c-0.617-0.853-0.785-1.985-0.52-3.387
					c0.27-1.412,0.896-2.703,1.865-3.869c1.007-1.195,2.125-1.927,3.363-2.207c1.229-0.275,2.154,0.005,2.785,0.833
					C251.272,255.23,251.47,256.314,251.243,257.697z"/>
				<path d="M249.762,257.892c0.133-0.821,0.017-1.462-0.344-1.929c-0.372-0.493-0.921-0.657-1.649-0.494
					c-0.731,0.164-1.393,0.598-1.99,1.307c-0.574,0.69-0.943,1.453-1.103,2.289c-0.159,0.831-0.058,1.501,0.307,2.007
					c0.385,0.538,0.953,0.719,1.701,0.542c0.751-0.178,1.43-0.654,2.033-1.42C249.283,259.475,249.63,258.707,249.762,257.892z"/>
			</g>
			<g>
				<path d="M257.803,256.604c0.361,2.39,1.166,3.927,2.867,6.442c1.513,2.24,4.828,5.709,8.884,4.331
					c0.135-0.173,0.414-0.607,1.219-1.219c0.467-0.352,0.882-0.549,1.267-0.737c0.723-1.402,0.887-3.281,0.385-5.753
					c-0.699-2.423-1.865-4.163-3.618-6.138c-1.778-1.98-3.483-3.031-5.584-3.493c-2.081-0.458-3.339-0.149-4.486,1.166
					C257.591,252.494,257.452,254.267,257.803,256.604z M261.335,254.44c0.631-0.829,1.556-1.108,2.785-0.833
					c1.238,0.279,2.356,1.012,3.363,2.207c0.968,1.166,1.595,2.457,1.865,3.869c0.265,1.402,0.096,2.534-0.52,3.387
					c-0.65,0.911-1.609,1.214-2.872,0.915c-1.267-0.303-2.414-1.103-3.435-2.399c-0.954-1.214-1.542-2.51-1.763-3.888
					C260.53,256.314,260.728,255.23,261.335,254.44z"/>
				<path d="M263.284,260.193c0.603,0.767,1.281,1.242,2.033,1.42c0.748,0.177,1.316-0.004,1.701-0.542
					c0.365-0.506,0.466-1.176,0.307-2.007c-0.16-0.836-0.529-1.598-1.103-2.289c-0.597-0.709-1.26-1.143-1.99-1.307
					c-0.728-0.163-1.277,0.001-1.649,0.494c-0.362,0.467-0.477,1.108-0.344,1.929C262.37,258.707,262.717,259.475,263.284,260.193z"
					/>
			</g>
		</g>
		<ellipse cx="255.664" cy="269.227" rx="6.293" ry="2.912"/>
	</g>
	<g>
		<path d="M232.528,271.558h1.27v7.784h4.813v1.105h-6.083V271.558z"/>
		<path d="M240.883,280.079c-0.533-0.296-0.95-0.705-1.251-1.225c-0.301-0.521-0.451-1.111-0.451-1.771
			c0-0.66,0.15-1.251,0.451-1.771c0.3-0.521,0.717-0.927,1.251-1.219c0.533-0.292,1.134-0.438,1.803-0.438
			c0.669,0,1.268,0.146,1.797,0.438c0.529,0.292,0.944,0.698,1.244,1.219c0.3,0.521,0.451,1.111,0.451,1.771
			c0,0.66-0.15,1.251-0.451,1.771c-0.301,0.521-0.716,0.929-1.244,1.225c-0.529,0.296-1.128,0.444-1.797,0.444
			C242.018,280.523,241.417,280.375,240.883,280.079z M243.848,279.158c0.343-0.199,0.611-0.478,0.806-0.838
			c0.195-0.36,0.292-0.772,0.292-1.238c0-0.466-0.097-0.878-0.292-1.238c-0.195-0.36-0.464-0.637-0.806-0.832
			c-0.343-0.195-0.73-0.292-1.162-0.292s-0.819,0.097-1.162,0.292c-0.343,0.195-0.614,0.472-0.813,0.832
			c-0.199,0.36-0.298,0.773-0.298,1.238c0,0.466,0.099,0.878,0.298,1.238c0.199,0.36,0.47,0.639,0.813,0.838
			c0.343,0.199,0.73,0.298,1.162,0.298S243.505,279.357,243.848,279.158z"/>
		<path d="M254.305,273.717v5.816c0,1.177-0.292,2.046-0.876,2.609c-0.584,0.563-1.456,0.844-2.616,0.844
			c-0.635,0-1.24-0.087-1.816-0.26c-0.576-0.174-1.041-0.421-1.397-0.743l0.584-0.94c0.313,0.271,0.7,0.485,1.162,0.641
			c0.461,0.156,0.938,0.235,1.429,0.235c0.787,0,1.369-0.186,1.746-0.559c0.376-0.373,0.565-0.94,0.565-1.702v-0.533
			c-0.288,0.347-0.641,0.608-1.06,0.781c-0.419,0.174-0.874,0.26-1.365,0.26c-0.643,0-1.225-0.138-1.746-0.413
			c-0.521-0.275-0.929-0.66-1.225-1.156c-0.296-0.495-0.444-1.06-0.444-1.695s0.148-1.2,0.444-1.695
			c0.296-0.495,0.705-0.878,1.225-1.149c0.521-0.271,1.103-0.406,1.746-0.406c0.508,0,0.98,0.093,1.416,0.279
			c0.436,0.186,0.794,0.462,1.073,0.825v-1.041L254.305,273.717L254.305,273.717z M251.988,278.821
			c0.351-0.186,0.626-0.446,0.825-0.781c0.199-0.334,0.298-0.713,0.298-1.137c0-0.652-0.216-1.179-0.648-1.581
			c-0.432-0.402-0.986-0.603-1.663-0.603c-0.686,0-1.244,0.201-1.676,0.603c-0.432,0.402-0.648,0.929-0.648,1.581
			c0,0.423,0.099,0.802,0.298,1.137c0.199,0.335,0.474,0.595,0.825,0.781c0.351,0.186,0.751,0.279,1.2,0.279
			C251.24,279.101,251.636,279.008,251.988,278.821z"/>
		<path d="M261.124,280.079c-0.533-0.296-0.95-0.705-1.251-1.225c-0.301-0.521-0.451-1.111-0.451-1.771
			c0-0.66,0.15-1.251,0.451-1.771c0.3-0.521,0.717-0.927,1.251-1.219c0.533-0.292,1.134-0.438,1.803-0.438
			c0.669,0,1.268,0.146,1.797,0.438c0.529,0.292,0.944,0.698,1.244,1.219c0.3,0.521,0.451,1.111,0.451,1.771
			c0,0.66-0.15,1.251-0.451,1.771c-0.301,0.521-0.716,0.929-1.244,1.225c-0.529,0.296-1.128,0.444-1.797,0.444
			C262.258,280.523,261.657,280.375,261.124,280.079z M264.089,279.158c0.343-0.199,0.611-0.478,0.806-0.838
			c0.195-0.36,0.292-0.772,0.292-1.238c0-0.466-0.097-0.878-0.292-1.238c-0.195-0.36-0.464-0.637-0.806-0.832
			c-0.343-0.195-0.73-0.292-1.162-0.292s-0.819,0.097-1.162,0.292c-0.343,0.195-0.614,0.472-0.813,0.832
			c-0.199,0.36-0.298,0.773-0.298,1.238c0,0.466,0.099,0.878,0.298,1.238c0.199,0.36,0.47,0.639,0.813,0.838
			c0.343,0.199,0.73,0.298,1.162,0.298S263.746,279.357,264.089,279.158z"/>
		<path d="M274.381,273.717v6.73h-1.156v-1.016c-0.246,0.347-0.569,0.616-0.971,0.806c-0.402,0.191-0.84,0.286-1.314,0.286
			c-0.897,0-1.604-0.248-2.121-0.743c-0.516-0.495-0.775-1.225-0.775-2.19v-3.873h1.219v3.733c0,0.652,0.157,1.145,0.47,1.479
			c0.313,0.335,0.762,0.502,1.346,0.502c0.643,0,1.151-0.195,1.524-0.584c0.372-0.389,0.559-0.94,0.559-1.651v-3.479
			L274.381,273.717L274.381,273.717z"/>
		<path d="M280.488,280.053c-0.178,0.152-0.398,0.269-0.66,0.349c-0.262,0.08-0.533,0.121-0.813,0.121
			c-0.677,0-1.202-0.182-1.575-0.546c-0.373-0.364-0.559-0.884-0.559-1.562v-3.695h-1.143v-1.003h1.143v-1.473h1.219v1.473h1.93
			v1.003h-1.93v3.644c0,0.364,0.091,0.644,0.273,0.838c0.182,0.195,0.442,0.292,0.781,0.292c0.372,0,0.69-0.106,0.952-0.317
			L280.488,280.053z"/>
	</g>
</g>
</svg>
