<?xml version="1.0" encoding="utf-8"?>
<!-- Generator: Adobe Illustrator 17.0.0, SVG Export Plug-In . SVG Version: 6.00 Build 0)  -->
<!DOCTYPE svg PUBLIC "-//W3C//DTD SVG 1.1//EN" "http://www.w3.org/Graphics/SVG/1.1/DTD/svg11.dtd">
<svg version="1.1" id="Capa_1" xmlns="http://www.w3.org/2000/svg" xmlns:xlink="http://www.w3.org/1999/xlink" x="0px" y="0px"
	 width="512px" height="512px" viewBox="0 0 512 512" enable-background="new 0 0 512 512" xml:space="preserve">
<g>
	<path fill="#FFFFFF" d="M512,432c0,44-36,80-80,80H80c-44,0-80-36-80-80V80C0,36,36,0,80,0h352c44,0,80,36,80,80V432z"/>
</g>
<g>
	<g>
		<path fill="#201A1B" d="M86.129,191.444c-1.004-3.105-1.555-6.409-1.555-9.842c0-17.888,14.707-32.389,32.85-32.389
			c12.997,0,24.197,7.461,29.524,18.258c4.601-1.226,9.246-2.34,13.935-3.339c-6.995-16.898-23.805-28.817-43.459-28.817
			c-25.927,0-46.945,20.723-46.945,46.286c0,5.956,1.181,11.629,3.259,16.859C77.803,196.021,81.935,193.683,86.129,191.444z"/>
		<path fill="#201A1B" d="M133.698,171.345c-3.435-5.288-9.432-8.802-16.274-8.802c-10.675,0-19.329,8.532-19.329,19.058
			c0,1.245,0.13,2.459,0.361,3.637C109.813,179.862,121.58,175.212,133.698,171.345z"/>
		<g>
			<path fill="#201A1B" d="M425.871,191.444c1.004-3.105,1.555-6.409,1.555-9.842c0-17.888-14.707-32.389-32.85-32.389
				c-12.997,0-24.197,7.461-29.524,18.258c-4.601-1.226-9.246-2.34-13.935-3.339c6.995-16.898,23.805-28.817,43.459-28.817
				c25.927,0,46.945,20.723,46.945,46.286c0,5.956-1.181,11.629-3.259,16.859C434.197,196.021,430.065,193.683,425.871,191.444z"/>
			<path fill="#201A1B" d="M378.302,171.345c3.435-5.288,9.432-8.802,16.274-8.802c10.675,0,19.329,8.532,19.329,19.058
				c0,1.245-0.13,2.459-0.361,3.637C402.187,179.862,390.42,175.212,378.302,171.345z"/>
		</g>
	</g>
	<g>
		<g>
			<path d="M281.521,7.224c-23.935-3.026-154.188,38.186-166.118,46.937s138.088,110.27,153.847,114.686
				c15.759,4.415,160.426-77.949,166.077-88.786C440.978,69.224,313.404,11.255,281.521,7.224z"/>
			<path d="M174.916,118.23c0,0,76.657,57.322,94.138,60.259c17.481,2.937,82.887-31.797,96.58-42.56c0,0-4.495,59.208-5.022,66.143
				c-1.235,16.269-192.912,4.13-191.494-14.539C170.131,174.197,174.916,118.23,174.916,118.23z"/>
		</g>
		<path fill="#3AAA35" d="M282.452,69.924c-9.101-0.069-18.127,3.108-27.128,4.675c-11.069,1.927-22.298,2.996-33.463,4.197
			c-22.71,2.442-45.033,5.419-66.712,12.886c-1.193,0.411-2.256,2.043-2.231,3.285c0.392,19.182-3.921,37.819-8.018,56.491
			c-3.17-0.206-6.679-0.174-8.939,2.163c-0.914,0.945-0.91,2.301,0.164,3.132c1.49,1.153,3.169,1.473,4.913,1.64
			c-12.003,15.252-14.539,32.893-1.84,50.306c1.44,1.974,4.01,0.74,4.551-1.161c0.747-0.355,1.255-1.065,1.551-1.979
			c4.389-3.783,5.857-12.135,6.965-17.042c1.758-7.789,3.116-18.91,0.9-27.732c0.871,0.183,1.747,0.332,2.639,0.38
			c3.576,0.192,5.385-4.541,2.346-6.626c-1.633-1.121-3.527-1.773-5.495-2.196c0.781-3.807,1.571-7.615,2.394-11.449
			c1.75-8.153,3.243-16.329,4.481-24.575c0.812-5.405,1.183-10.851,1.436-16.305c0.18-3.868,15.21-6.323,18.109-7.01
			c19.968-4.733,40.729-6.021,61.057-8.439c13.293-1.581,34.545-1.248,43.088-13.032C283.657,70.93,283.235,69.93,282.452,69.924z"
			/>
	</g>
	<g>
		<g>
			<path d="M223.951,259.875c-13.422-15.396-28.141-19.005-52.504-13.647c-24.588,5.414-44.552,17.708-65.361,40.886
				c-20.528,23.122-34.175,43.48-42.352,71.847c-5.865,28.93-3.948,50.924,4.512,67.335c4.512,2.199,9.362,4.512,14.832,8.629
				c9.418,7.162,12.689,12.238,14.268,14.268c47.484,16.129,86.284-24.475,103.992-50.699c19.907-29.438,29.325-47.428,33.555-75.4
				C239.008,295.743,237.372,274.99,223.951,259.875z M200.321,335.896c-2.594,16.129-9.475,31.299-20.641,45.51
				c-11.956,15.17-25.378,24.532-40.209,28.084c-14.775,3.496-25.998-0.056-33.611-10.715c-7.219-9.982-9.192-23.235-6.091-39.645
				c3.158-16.524,10.489-31.637,21.825-45.285c11.786-13.986,24.87-22.558,39.363-25.828c14.381-3.215,25.209,0.056,32.596,9.756
				C200.66,307.022,202.972,319.71,200.321,335.896z"/>
			<path d="M182.99,338.171c1.555-9.605,0.203-17.114-4.028-22.575c-4.358-5.769-10.781-7.69-19.305-5.778
				c-8.552,1.918-16.309,7-23.297,15.302c-6.721,8.078-11.035,17.003-12.909,26.787c-1.862,9.723-0.677,17.571,3.591,23.491
				c4.508,6.299,11.158,8.419,19.911,6.341c8.794-2.088,16.735-7.65,23.793-16.625C177.375,356.7,181.445,347.715,182.99,338.171z"
				/>
		</g>
		<g>
			<path d="M277.109,323.094c4.23,27.972,13.647,45.962,33.555,75.4c17.708,26.224,56.508,66.828,103.992,50.699
				c1.579-2.03,4.85-7.106,14.268-14.268c5.47-4.117,10.32-6.429,14.832-8.629c8.459-16.411,10.376-38.405,4.512-67.335
				c-8.177-28.366-21.825-48.725-42.352-71.847c-20.81-23.178-40.773-35.472-65.361-40.886
				c-24.363-5.358-39.082-1.748-52.504,13.647C274.628,274.99,272.992,295.743,277.109,323.094z M318.446,297.773
				c7.388-9.7,18.216-12.971,32.596-9.756c14.493,3.271,27.577,11.843,39.363,25.828c11.335,13.648,18.667,28.761,21.825,45.285
				c3.102,16.411,1.128,29.664-6.091,39.645c-7.613,10.659-18.836,14.212-33.611,10.715c-14.832-3.553-28.254-12.914-40.209-28.084
				c-11.166-14.212-18.046-29.382-20.641-45.51C309.028,319.71,311.34,307.022,318.446,297.773z"/>
			<path d="M341.255,365.113c7.058,8.975,14.999,14.538,23.793,16.625c8.752,2.078,15.403-0.042,19.911-6.341
				c4.268-5.92,5.453-13.768,3.591-23.491c-1.874-9.784-6.188-18.709-12.909-26.787c-6.988-8.301-14.745-13.384-23.298-15.302
				c-8.524-1.912-14.947,0.009-19.305,5.778c-4.231,5.461-5.583,12.97-4.028,22.575C330.555,347.715,334.625,356.7,341.255,365.113z
				"/>
		</g>
	</g>
	<ellipse cx="252.071" cy="470.854" rx="73.657" ry="34.08"/>
</g>
</svg>
