<?xml version="1.0" encoding="utf-8"?>
<!-- Generator: Adobe Illustrator 17.0.0, SVG Export Plug-In . SVG Version: 6.00 Build 0)  -->
<!DOCTYPE svg PUBLIC "-//W3C//DTD SVG 1.1//EN" "http://www.w3.org/Graphics/SVG/1.1/DTD/svg11.dtd">
<svg version="1.1" id="Capa_1" xmlns="http://www.w3.org/2000/svg" xmlns:xlink="http://www.w3.org/1999/xlink" x="0px" y="0px"
	 width="640.745px" height="201.474px" viewBox="0 0 640.745 201.474" enable-background="new 0 0 640.745 201.474"
	 xml:space="preserve">
<g>
	<path fill="#3AAA35" d="M159.184,141.126c0,9.139-2.757,16.993-8.272,23.557c-5.83,6.881-13.236,10.321-22.217,10.321
		c-3.361,0-8.416-0.079-15.165-0.236c-6.749-0.158-11.805-0.236-15.166-0.236c-2.469,0-6.185,0.106-11.148,0.315
		c-4.963,0.211-8.68,0.315-11.148,0.315c-1.313,0-1.97-0.603-1.97-1.812c0-5.776,0.276-14.457,0.827-26.039
		c0.551-11.581,0.827-20.26,0.827-26.038c0-6.091-0.276-15.245-0.827-27.456c-0.551-12.211-0.827-21.363-0.827-27.456
		c0-1.155,0.656-1.733,1.97-1.733c4.674,0,11.712,0.027,21.114,0.079c9.401,0.054,16.466,0.079,21.193,0.079
		c11.029,0,19.828,2.048,26.392,6.145c7.982,4.99,11.975,12.738,11.975,23.241c0,3.624-1.049,7.393-3.151,11.305
		c-2.102,3.914-4.648,6.869-7.642,8.863c-1.522,0.999-2.285,1.654-2.285,1.97c0,0.315,0.763,0.893,2.285,1.733
		c3.993,2.206,7.194,5.45,9.612,9.73C157.977,132.053,159.184,136.504,159.184,141.126z M137.046,95.904
		c0-7.406-3.309-12.394-9.926-14.969c-3.992-1.522-10.531-2.285-19.617-2.285c-8.824,0-13.236,0.657-13.236,1.97
		c0,1.733-0.079,4.333-0.236,7.8c-0.158,3.466-0.236,6.093-0.236,7.878c0,1.209,0.026,3.073,0.079,5.594
		c0.052,2.521,0.079,4.412,0.079,5.672c0,1.524,5.935,2.285,17.805,2.285C128.616,109.848,137.046,105.2,137.046,95.904z
		 M139.173,140.338c0-6.407-2.861-10.74-8.587-12.999c-3.623-1.47-9.27-2.206-16.938-2.206c-13.236,0-19.854,0.709-19.854,2.127
		v12.921c0,1.891,0.052,4.781,0.158,8.666c0.105,3.887,0.158,6.803,0.158,8.746c0,0.526,1.68,0.92,5.042,1.182
		c3.361,0.263,8.351,0.394,14.969,0.394c8.298,0,14.259-1.076,17.883-3.23C136.784,153.101,139.173,147.901,139.173,140.338z"/>
	<path fill="#3AAA35" d="M249.076,103.861c0,0.211-0.079,0.684-0.236,1.418c-2.048,12.029-3.073,22.401-3.073,31.12
		c0,0.526,0.655,12.317,1.97,35.375l0.079,1.103c0.052,1.524-0.645,2.285-2.088,2.285c-1.445,0-3.624,0.17-6.539,0.512
		c-2.915,0.34-5.082,0.512-6.5,0.512c-0.999,0-1.76-1.837-2.285-5.515c-0.526-3.676-1.024-5.515-1.497-5.515
		c-0.315,0-1.733,1.024-4.254,3.073c-3.099,2.521-5.988,4.439-8.666,5.751c-4.15,2.1-8.299,3.151-12.448,3.151
		c-10.19,0-18.777-4.07-25.762-12.211c-6.618-7.773-9.927-16.834-9.927-27.181c0-11.66,3.334-21.297,10.006-28.914
		c6.985-7.93,16.176-11.896,27.574-11.896c8.036,0,15.048,2.784,21.035,8.351c0.892,1.051,2.285,2.575,4.176,4.569
		c0.158,0.158,0.315,0.236,0.473,0.236c0.315,0,0.761-1.654,1.339-4.963c0.577-3.309,1.312-4.963,2.206-4.963
		c1.418,0,4.07,0.394,7.957,1.182C246.922,102.285,249.076,103.127,249.076,103.861z M228.987,136.792c0-6.46-1.918-12-5.751-16.623
		c-4.045-4.988-9.218-7.484-15.52-7.484s-11.556,2.469-15.757,7.406c-4.045,4.727-6.066,10.296-6.066,16.702
		c0,6.356,2.022,11.871,6.066,16.545c4.201,4.885,9.454,7.328,15.757,7.328c6.145,0,11.291-2.494,15.442-7.485
		C227.042,148.506,228.987,143.043,228.987,136.792z"/>
	<path fill="#3AAA35" d="M381.67,172.246c0,2.048-0.605,3.073-1.812,3.073c-0.788,0-1.984-0.079-3.585-0.236
		c-1.603-0.158-2.824-0.236-3.663-0.236c-0.893,0-2.233,0.054-4.018,0.158c-1.787,0.106-3.126,0.158-4.018,0.158
		c-1.103,0-1.654-1.234-1.654-3.703c0-2.415,0.091-6.027,0.276-10.833c0.183-4.806,0.276-8.416,0.276-10.834
		c0-13.288-0.054-20.693-0.158-22.217c-0.421-5.409-1.524-9.139-3.309-11.187c-2.048-2.206-5.699-3.309-10.951-3.309
		c-3.309,0-7.039,1.576-11.187,4.727c-4.308,3.309-6.539,6.566-6.697,9.769c-0.211,4.097-0.315,11.581-0.315,22.453
		c0,2.575,0.104,6.436,0.315,11.582c0.21,5.148,0.315,9.008,0.315,11.581c0,1.418-0.473,2.127-1.418,2.127s-2.324-0.079-4.136-0.236
		c-1.812-0.158-3.191-0.236-4.136-0.236c-0.842,0-2.075,0.054-3.703,0.158c-1.629,0.106-2.863,0.158-3.703,0.158
		c-1.051,0-1.576-0.761-1.576-2.285c0-2.521,0.079-6.315,0.236-11.384c0.158-5.067,0.236-8.864,0.236-11.385V131.12
		c0-5.934-0.709-10.163-2.127-12.684c-1.996-3.57-5.805-5.357-11.424-5.357c-3.309,0-7.248,1.393-11.818,4.176
		c-5.042,3.048-7.563,6.12-7.563,9.218v23.005c0,2.627,0.025,6.54,0.079,11.74c0.052,5.2,0.079,9.087,0.079,11.66
		c0,1.524-0.605,2.285-1.812,2.285h-14.654c-1.051,0-1.576-0.709-1.576-2.127c0-4.254,0.025-10.648,0.079-19.185
		c0.052-8.534,0.079-14.93,0.079-19.184c0-9.612-1.024-19.196-3.073-28.756c-0.158-0.682-0.236-1.234-0.236-1.654
		c0-0.682,0.236-1.076,0.709-1.182c1.943-0.209,4.779-0.603,8.509-1.182c1.733-0.525,4.333-1.103,7.8-1.733l0.63-0.079
		c0.63,0,1.221,1.851,1.773,5.554c0.551,3.703,1.037,5.554,1.457,5.554l3.939-3.466c3.098-2.679,6.197-4.806,9.296-6.381
		c4.464-2.31,8.928-3.466,13.393-3.466c12.079,0,19.775,4.938,23.084,14.811c3.255-4.201,7.3-7.667,12.133-10.399
		c5.146-2.94,10.242-4.412,15.284-4.412c9.715,0,16.439,2.836,20.169,8.509c2.679,4.202,4.018,10.847,4.018,19.932
		c0,1.733-0.054,4.412-0.158,8.036c-0.106,3.624-0.158,6.303-0.158,8.036c0,3.309,0.079,8.287,0.236,14.93
		C381.591,163.961,381.67,168.937,381.67,172.246z"/>
	<path fill="#3AAA35" d="M475.422,137.108c0,10.399-3.23,19.46-9.69,27.181c-6.881,8.194-15.442,12.29-25.684,12.29
		c-6.829,0-12.842-1.733-18.041-5.2c-2.102-1.785-4.202-3.545-6.303-5.279c-0.578,0.158-0.96,1.733-1.142,4.727
		c-0.184,2.994-0.618,4.491-1.3,4.491h-16.623c-0.63,0-0.945-0.34-0.945-1.024c0,0.054,0.052-0.419,0.158-1.418
		c0.84-8.403,1.261-24.476,1.261-48.217c0-9.715-0.421-23.975-1.261-42.78c-0.526-11.975-0.788-17.227-0.788-15.757
		c0-1.364,0.682-2.127,2.048-2.285c1.891-0.052,4.7-0.158,8.43-0.315c0.734-0.052,2.231-0.236,4.491-0.551
		c1.891-0.315,3.413-0.473,4.569-0.473c0.84,0,1.261,0.605,1.261,1.812c0,1.787-0.133,4.518-0.394,8.194
		c-0.263,3.678-0.394,6.435-0.394,8.272c0,2.732-0.118,6.842-0.355,12.33c-0.236,5.49-0.355,9.599-0.355,12.33
		c0,1.996,0.367,2.994,1.103,2.994c0.367,0,0.761-0.288,1.182-0.867c5.776-7.194,13.418-10.793,22.926-10.793
		c10.872,0,19.669,4.072,26.393,12.211C472.271,116.651,475.422,126.026,475.422,137.108z M457.617,136.398
		c0-6.249-1.97-11.764-5.909-16.545c-4.202-5.094-9.375-7.642-15.52-7.642c-6.303,0-11.556,2.496-15.757,7.484
		c-4.045,4.727-6.066,10.296-6.066,16.702c0,6.514,2.022,12.133,6.066,16.86c4.201,4.939,9.506,7.407,15.914,7.407
		c6.197,0,11.37-2.546,15.52-7.643C455.699,148.295,457.617,142.755,457.617,136.398z"/>
	<g>
		<g>
			<path fill="#201A1B" d="M498.659,85.894c-0.326-1.01-0.506-2.084-0.506-3.2c0-5.816,4.782-10.53,10.68-10.53
				c4.226,0,7.867,2.426,9.599,5.936c1.496-0.398,3.006-0.761,4.531-1.086c-2.274-5.494-7.74-9.369-14.13-9.369
				c-8.429,0-15.263,6.738-15.263,15.049c0,1.936,0.384,3.781,1.06,5.481C495.952,87.382,497.295,86.622,498.659,85.894z"/>
			<path fill="#201A1B" d="M514.125,79.36c-1.117-1.719-3.067-2.862-5.291-2.862c-3.471,0-6.284,2.774-6.284,6.196
				c0,0.405,0.042,0.799,0.117,1.183C506.359,82.129,510.185,80.617,514.125,79.36z"/>
			<g>
				<path fill="#201A1B" d="M609.117,85.894c0.326-1.01,0.506-2.084,0.506-3.2c0-5.816-4.782-10.53-10.68-10.53
					c-4.226,0-7.867,2.426-9.599,5.936c-1.496-0.398-3.006-0.761-4.531-1.086c2.274-5.494,7.74-9.369,14.13-9.369
					c8.429,0,15.263,6.738,15.263,15.049c0,1.936-0.384,3.781-1.06,5.481C611.823,87.382,610.48,86.622,609.117,85.894z"/>
				<path fill="#201A1B" d="M593.651,79.36c1.117-1.719,3.067-2.862,5.291-2.862c3.471,0,6.284,2.774,6.284,6.196
					c0,0.405-0.042,0.799-0.117,1.183C601.416,82.129,597.591,80.617,593.651,79.36z"/>
			</g>
		</g>
		<g>
			<g>
				<path d="M562.185,26c-7.782-0.984-50.13,12.415-54.009,15.26c-3.879,2.845,44.895,35.851,50.019,37.287
					c5.124,1.436,52.158-25.343,53.995-28.866C614.028,46.158,572.551,27.311,562.185,26z"/>
				<path d="M527.526,62.091c0,0,24.923,18.637,30.606,19.592c5.683,0.955,26.948-10.338,31.4-13.837c0,0-1.462,19.25-1.633,21.504
					c-0.402,5.289-62.72,1.343-62.259-4.727C525.97,80.287,527.526,62.091,527.526,62.091z"/>
			</g>
			<path fill="#3AAA35" d="M562.488,46.385c-2.959-0.022-5.894,1.01-8.82,1.52c-3.599,0.627-7.25,0.974-10.88,1.365
				c-7.383,0.794-14.641,1.762-21.689,4.19c-0.388,0.134-0.733,0.664-0.725,1.068c0.127,6.237-1.275,12.296-2.607,18.367
				c-1.031-0.067-2.171-0.056-2.906,0.703c-0.297,0.307-0.296,0.748,0.053,1.018c0.485,0.375,1.03,0.479,1.597,0.533
				c-3.902,4.959-4.727,10.694-0.598,16.356c0.468,0.642,1.304,0.241,1.479-0.377c0.243-0.115,0.408-0.346,0.504-0.643
				c1.427-1.23,1.904-3.945,2.264-5.541c0.572-2.533,1.013-6.148,0.293-9.016c0.283,0.059,0.568,0.108,0.858,0.123
				c1.163,0.062,1.751-1.476,0.763-2.154c-0.531-0.365-1.147-0.577-1.787-0.714c0.254-1.238,0.511-2.476,0.778-3.722
				c0.569-2.651,1.054-5.309,1.457-7.99c0.264-1.757,0.384-3.528,0.467-5.301c0.058-1.258,4.945-2.056,5.887-2.279
				c6.492-1.539,13.242-1.957,19.851-2.744c4.322-0.514,11.231-0.406,14.009-4.237C562.88,46.712,562.742,46.387,562.488,46.385z"/>
		</g>
		<g>
			<g>
				<path d="M543.468,108.143c-4.364-5.005-9.149-6.179-17.07-4.437c-7.994,1.76-14.485,5.757-21.25,13.293
					c-6.674,7.517-11.111,14.136-13.77,23.359c-1.907,9.406-1.283,16.557,1.467,21.892c1.467,0.715,3.044,1.467,4.822,2.805
					c3.062,2.328,4.125,3.979,4.639,4.639c15.438,5.244,28.053-7.957,33.81-16.483c6.472-9.571,9.534-15.42,10.909-24.514
					C548.363,119.804,547.831,113.057,543.468,108.143z M535.785,132.859c-0.843,5.244-3.08,10.176-6.711,14.796
					c-3.887,4.932-8.251,7.976-13.073,9.131c-4.804,1.137-8.452-0.018-10.928-3.484c-2.347-3.245-2.989-7.554-1.98-12.89
					c1.027-5.372,3.41-10.286,7.096-14.723c3.832-4.547,8.086-7.334,12.798-8.397c4.675-1.045,8.196,0.018,10.598,3.172
					C535.895,123.471,536.647,127.597,535.785,132.859z"/>
				<path d="M530.151,133.598c0.506-3.123,0.066-5.564-1.31-7.34c-1.417-1.876-3.505-2.5-6.276-1.879
					c-2.781,0.624-5.302,2.276-7.575,4.975c-2.185,2.626-3.588,5.528-4.197,8.709c-0.605,3.161-0.22,5.713,1.167,7.637
					c1.465,2.048,3.628,2.737,6.473,2.062c2.859-0.679,5.441-2.487,7.736-5.405C528.325,139.623,529.648,136.701,530.151,133.598z"
					/>
			</g>
			<g>
				<path d="M560.751,128.697c1.375,9.094,4.437,14.943,10.909,24.514c5.757,8.526,18.372,21.727,33.81,16.483
					c0.513-0.66,1.577-2.31,4.639-4.639c1.778-1.339,3.355-2.09,4.822-2.805c2.75-5.335,3.374-12.486,1.467-21.892
					c-2.659-9.223-7.096-15.841-13.77-23.359c-6.766-7.536-13.256-11.533-21.25-13.293c-7.921-1.742-12.706-0.568-17.07,4.437
					C559.944,113.057,559.412,119.804,560.751,128.697z M574.19,120.464c2.402-3.154,5.922-4.217,10.598-3.172
					c4.712,1.063,8.966,3.85,12.798,8.397c3.685,4.437,6.069,9.351,7.096,14.723c1.008,5.335,0.367,9.644-1.98,12.89
					c-2.475,3.465-6.124,4.62-10.928,3.484c-4.822-1.155-9.186-4.199-13.073-9.131c-3.63-4.62-5.867-9.553-6.711-14.796
					C571.128,127.597,571.88,123.471,574.19,120.464z"/>
				<path d="M581.606,142.358c2.295,2.918,4.877,4.726,7.736,5.405c2.846,0.676,5.008-0.014,6.473-2.062
					c1.388-1.925,1.773-4.476,1.167-7.637c-0.609-3.181-2.012-6.083-4.197-8.709c-2.272-2.699-4.794-4.351-7.575-4.975
					c-2.771-0.621-4.859,0.003-6.276,1.879c-1.376,1.775-1.815,4.217-1.31,7.34C578.127,136.701,579.451,139.623,581.606,142.358z"
					/>
			</g>
		</g>
		<ellipse cx="552.61" cy="176.737" rx="23.947" ry="11.08"/>
	</g>
	<path fill="#FFFFFF" d="M415.835,98.347c0.079,3.148-3.939,1.102-10.136,1.102s-11.221,1.967-11.221-1.172
		c0-3.139,5.024-0.807,11.221-0.807S415.744,94.743,415.835,98.347z"/>
	<path fill="#FFFFFF" d="M382.673,119.949c0.085,3.148-4.233,1.102-10.893,1.102s-12.059,1.967-12.059-1.172
		c0-3.139,5.399-0.807,12.059-0.807S382.576,116.345,382.673,119.949z"/>
	<path fill="#FFFFFF" d="M333.169,125.449c0.085,3.148-4.233,1.102-10.893,1.102c-6.66,0-12.059,1.967-12.059-1.172
		s5.399-0.807,12.059-0.807C328.936,124.572,333.071,121.846,333.169,125.449z"/>
	<path fill="#FFFFFF" d="M282.9,127.26c0.085,3.148-4.233,1.102-10.893,1.102s-12.059,1.967-12.059-1.172
		c0-3.139,5.399-0.807,12.059-0.807S282.802,123.656,282.9,127.26z"/>
	<path fill="#FFFFFF" d="M95.803,81.742c0.085,3.148-4.233,1.102-10.893,1.102s-12.059,1.967-12.059-1.172
		c0-3.139,5.399-0.807,12.059-0.807S95.706,78.139,95.803,81.742z"/>
	<path fill="#FFFFFF" d="M97.636,156.232c0.097,3.148-4.838,1.102-12.451,1.102c-7.613,0-13.784,1.967-13.784-1.172
		c0-3.139,6.171-0.807,13.784-0.807C92.798,155.355,97.525,152.629,97.636,156.232z"/>
	<path fill="#FFFFFF" d="M247.475,136.651c0.076,3.148-3.793,1.102-9.762,1.102s-10.807,1.967-10.807-1.172
		s4.838-0.807,10.807-0.807S247.388,133.048,247.475,136.651z"/>
	<path fill="#FFFFFF" d="M477.105,136.974c0.079,3.148-3.939,1.102-10.136,1.102s-11.221,1.967-11.221-1.172
		s5.024-0.807,11.221-0.807S477.014,133.37,477.105,136.974z"/>
	<path fill="#FFFFFF" d="M415.835,166.31c0.079,3.148-3.939,1.102-10.136,1.102s-11.221,1.967-11.221-1.172
		s5.024-0.807,11.221-0.807S415.744,162.707,415.835,166.31z"/>
	<path fill="#3AAA35" d="M75.071,63.734c10.484-16.387,9.364-37.049,0-50.077C75.071,31.808,64.486,47.856,75.071,63.734z"/>
	<path opacity="0.7" fill="#3AAA35" d="M72.182,64.376c-13.199-14.291-33.96-17.552-48.935-11.792
		C40.471,56.414,54.141,70.597,72.182,64.376z"/>
	<g opacity="0.7">
		<path fill="#3AAA35" d="M276.274,88.89l-9.38-36.973h5.046l4.389,18.706c1.098,4.607,2.085,9.216,2.743,12.781h0.109
			c0.604-3.676,1.756-8.063,3.018-12.836l4.937-18.651h4.992l4.498,18.761c1.042,4.389,2.029,8.776,2.578,12.672h0.109
			c0.769-4.06,1.811-8.174,2.962-12.781l4.883-18.651h4.882L301.562,88.89h-4.991l-4.663-19.254
			c-1.152-4.718-1.92-8.338-2.414-12.068h-0.109c-0.658,3.675-1.481,7.296-2.853,12.068l-5.266,19.254H276.274z"/>
		<path fill="#3AAA35" d="M335.794,71.556h-14.372v13.329h16.018v4.005h-20.79V51.917h19.968v4.005h-15.195v11.684h14.372V71.556z"
			/>
		<path fill="#3AAA35" d="M343.639,52.411c2.085-0.439,5.376-0.769,8.722-0.769c4.772,0,7.845,0.823,10.148,2.688
			c1.92,1.426,3.072,3.62,3.072,6.527c0,3.565-2.359,6.692-6.254,8.119v0.109c3.511,0.878,7.625,3.785,7.625,9.271
			c0,3.182-1.262,5.596-3.127,7.405c-2.578,2.359-6.747,3.456-12.781,3.456c-3.291,0-5.814-0.22-7.405-0.438V52.411z
			 M348.411,67.551h4.334c5.046,0,8.009-2.633,8.009-6.198c0-4.334-3.292-6.034-8.119-6.034c-2.194,0-3.456,0.164-4.224,0.329
			V67.551z M348.411,85.27c0.933,0.164,2.304,0.219,4.005,0.219c4.937,0,9.489-1.81,9.489-7.186c0-5.047-4.333-7.132-9.545-7.132
			h-3.949V85.27z"/>
	</g>
</g>
</svg>
