<?xml version="1.0" encoding="utf-8"?>
<!-- Generator: Adobe Illustrator 16.0.0, SVG Export Plug-In . SVG Version: 6.00 Build 0)  -->
<!DOCTYPE svg PUBLIC "-//W3C//DTD SVG 1.1//EN" "http://www.w3.org/Graphics/SVG/1.1/DTD/svg11.dtd">
<svg version="1.1" xmlns="http://www.w3.org/2000/svg" xmlns:xlink="http://www.w3.org/1999/xlink" x="0px" y="0px"
	 width="90.984px" height="90.984px" viewBox="0 0 90.984 90.984" enable-background="new 0 0 90.984 90.984" xml:space="preserve">
<g id="Background">
</g>
<g id="Icons">
	<path fill="#CC6666" d="M80.114,0H10.87C4.876,0,0,4.876,0,10.869v69.245c0,5.994,4.876,10.87,10.87,10.87h69.244
		c5.994,0,10.87-4.876,10.87-10.87V10.869C90.984,4.876,86.108,0,80.114,0z"/>
	<g>
		<defs>
			<path id="SVGID_27_" d="M80.114,0H10.87C4.876,0,0,4.876,0,10.869v69.245c0,5.994,4.876,10.87,10.87,10.87h69.244
				c5.994,0,10.87-4.876,10.87-10.87V10.869C90.984,4.876,86.108,0,80.114,0z"/>
		</defs>
		<clipPath id="SVGID_2_">
			<use xlink:href="#SVGID_27_"  overflow="visible"/>
		</clipPath>
		<g opacity="0.65" clip-path="url(#SVGID_2_)">
			<g>
				<polygon fill="#939598" points="27.493,31.205 45.335,49.048 63.181,31.205 				"/>
				<polygon fill="#939598" points="45.39,53.646 45.337,53.589 45.281,53.646 24.194,32.558 24.194,59.763 66.466,59.761 
					66.466,32.57 				"/>
			</g>
			<g>
				<polygon fill="#939598" points="27.796,31.508 45.638,49.351 63.483,31.507 				"/>
				<polygon fill="#939598" points="45.692,53.948 45.639,53.892 45.583,53.948 24.497,32.86 24.497,60.065 66.767,60.063 
					66.769,32.873 				"/>
			</g>
			<g>
				<polygon fill="#939598" points="28.099,31.81 45.941,49.652 63.786,31.81 				"/>
				<polygon fill="#939598" points="45.996,54.25 45.941,54.193 45.887,54.251 24.801,33.163 24.8,60.368 67.071,60.366 
					67.071,33.176 				"/>
			</g>
			<g>
				<polygon fill="#939598" points="28.401,32.112 46.243,49.955 64.089,32.112 				"/>
				<polygon fill="#939598" points="46.298,54.553 46.244,54.496 46.188,54.554 25.103,33.466 25.103,60.67 67.374,60.668 
					67.374,33.478 				"/>
			</g>
			<g>
				<polygon fill="#939598" points="28.704,32.415 46.545,50.258 64.39,32.415 				"/>
				<polygon fill="#939598" points="46.601,54.855 46.546,54.799 46.491,54.855 25.404,33.769 25.404,60.973 67.675,60.971 
					67.675,33.78 				"/>
			</g>
			<g>
				<polygon fill="#939598" points="29.007,32.718 46.849,50.561 64.694,32.717 				"/>
				<polygon fill="#939598" points="46.903,55.157 46.849,55.101 46.794,55.158 25.708,34.07 25.707,61.275 67.978,61.273 
					67.978,34.083 				"/>
			</g>
			<g>
				<polygon fill="#939598" points="29.309,33.021 47.149,50.862 64.995,33.02 				"/>
				<polygon fill="#939598" points="47.206,55.46 47.151,55.403 47.097,55.46 26.009,34.373 26.009,61.577 68.279,61.576 
					68.28,34.385 				"/>
			</g>
			<g>
				<polygon fill="#939598" points="29.612,33.322 47.453,51.165 65.298,33.322 				"/>
				<polygon fill="#939598" points="47.509,55.763 47.453,55.706 47.399,55.763 26.313,34.675 26.312,61.88 68.583,61.879 
					68.583,34.688 				"/>
			</g>
			<g>
				<polygon fill="#939598" points="29.914,33.625 47.756,51.467 65.601,33.624 				"/>
				<polygon fill="#939598" points="47.812,56.065 47.756,56.009 47.7,56.065 26.614,34.978 26.614,62.183 68.886,62.181 
					68.886,34.989 				"/>
			</g>
			<g>
				<polygon fill="#939598" points="30.216,33.927 48.058,51.77 65.902,33.927 				"/>
				<polygon fill="#939598" points="48.112,56.367 48.058,56.311 48.003,56.368 26.917,35.28 26.917,62.484 69.187,62.483 
					69.188,35.292 				"/>
			</g>
			<g>
				<polygon fill="#939598" points="30.52,34.229 48.36,52.072 66.206,34.229 				"/>
				<polygon fill="#939598" points="48.415,56.67 48.36,56.613 48.306,56.67 27.22,35.583 27.22,62.787 69.49,62.785 69.49,35.595 
									"/>
			</g>
			<g>
				<polygon fill="#939598" points="30.821,34.532 48.663,52.374 66.508,34.531 				"/>
				<polygon fill="#939598" points="48.718,56.972 48.663,56.916 48.608,56.973 27.522,35.885 27.522,63.09 69.793,63.088 
					69.793,35.897 				"/>
			</g>
			<g>
				<polygon fill="#939598" points="31.123,34.834 48.966,52.678 66.811,34.835 				"/>
				<polygon fill="#939598" points="49.021,57.275 48.966,57.218 48.91,57.275 27.823,36.188 27.823,63.393 70.095,63.391 
					70.095,36.199 				"/>
			</g>
			<g>
				<polygon fill="#939598" points="31.426,35.137 49.269,52.979 67.113,35.137 				"/>
				<polygon fill="#939598" points="49.323,57.577 49.269,57.521 49.213,57.577 28.128,36.49 28.126,63.694 70.397,63.693 
					70.397,36.502 				"/>
			</g>
			<g>
				<polygon fill="#939598" points="31.729,35.439 49.569,53.282 67.415,35.439 				"/>
				<polygon fill="#939598" points="49.625,57.88 49.571,57.823 49.516,57.88 28.429,36.792 28.429,63.997 70.7,63.995 70.7,36.805 
									"/>
			</g>
			<g>
				<polygon fill="#939598" points="32.031,35.742 49.872,53.585 67.718,35.742 				"/>
				<polygon fill="#939598" points="49.928,58.183 49.874,58.126 49.818,58.183 28.731,37.095 28.731,64.299 71.003,64.298 
					71.003,37.107 				"/>
			</g>
			<g>
				<polygon fill="#939598" points="32.333,36.044 50.175,53.887 68.021,36.044 				"/>
				<polygon fill="#939598" points="50.23,58.484 50.175,58.428 50.12,58.485 29.034,37.397 29.034,64.602 71.305,64.601 
					71.305,37.409 				"/>
			</g>
			<g>
				<polygon fill="#939598" points="32.636,36.347 50.478,54.189 68.321,36.347 				"/>
				<polygon fill="#939598" points="50.532,58.787 50.478,58.73 50.423,58.787 29.337,37.7 29.337,64.904 71.606,64.902 
					71.606,37.712 				"/>
			</g>
			<g>
				<polygon fill="#939598" points="32.938,36.649 50.78,54.491 68.625,36.648 				"/>
				<polygon fill="#939598" points="50.835,59.089 50.78,59.033 50.726,59.09 29.64,38.002 29.639,65.207 71.909,65.205 
					71.909,38.015 				"/>
			</g>
			<g>
				<polygon fill="#939598" points="33.241,36.951 51.083,54.794 68.927,36.951 				"/>
				<polygon fill="#939598" points="51.138,59.392 51.083,59.335 51.028,59.393 29.942,38.305 29.941,65.51 72.212,65.508 
					72.212,38.316 				"/>
			</g>
			<g>
				<polygon fill="#939598" points="33.543,37.254 51.385,55.097 69.229,37.254 				"/>
				<polygon fill="#939598" points="51.44,59.694 51.385,59.638 51.329,59.694 30.243,38.607 30.243,65.812 72.514,65.811 
					72.515,38.619 				"/>
			</g>
			<g>
				<polygon fill="#939598" points="33.847,37.557 51.688,55.398 69.532,37.557 				"/>
				<polygon fill="#939598" points="51.743,59.996 51.688,59.94 51.634,59.997 30.547,38.909 30.546,66.114 72.817,66.112 
					72.817,38.922 				"/>
			</g>
			<g>
				<polygon fill="#939598" points="34.147,37.859 51.99,55.701 69.835,37.858 				"/>
				<polygon fill="#939598" points="52.046,60.299 51.99,60.242 51.935,60.3 30.85,39.212 30.849,66.416 73.12,66.415 73.12,39.224 
									"/>
			</g>
			<g>
				<polygon fill="#939598" points="34.45,38.161 52.292,56.004 70.138,38.161 				"/>
				<polygon fill="#939598" points="52.347,60.602 52.293,60.545 52.237,60.603 31.151,39.514 31.151,66.719 73.423,66.718 
					73.423,39.526 				"/>
			</g>
			<g>
				<polygon fill="#939598" points="34.753,38.464 52.595,56.307 70.44,38.463 				"/>
				<polygon fill="#939598" points="52.649,60.903 52.595,60.848 52.54,60.904 31.454,39.816 31.454,67.021 73.725,67.02 
					73.725,39.829 				"/>
			</g>
			<g>
				<polygon fill="#939598" points="35.056,38.766 52.897,56.608 70.742,38.766 				"/>
				<polygon fill="#939598" points="52.952,61.206 52.897,61.15 52.843,61.207 31.757,40.119 31.757,67.323 74.027,67.322 
					74.027,40.132 				"/>
			</g>
			<g>
				<polygon fill="#939598" points="35.358,39.069 53.2,56.911 71.045,39.068 				"/>
				<polygon fill="#939598" points="53.255,61.509 53.2,61.453 53.146,61.51 32.06,40.422 32.058,67.626 74.33,67.625 74.33,40.435 
									"/>
			</g>
			<g>
				<polygon fill="#939598" points="35.66,39.371 53.503,57.214 71.348,39.371 				"/>
				<polygon fill="#939598" points="53.558,61.812 53.503,61.755 53.447,61.812 32.362,40.725 32.36,67.929 74.632,67.927 
					74.632,40.736 				"/>
			</g>
			<g>
				<polygon fill="#939598" points="35.962,39.673 53.804,57.517 71.649,39.673 				"/>
				<polygon fill="#939598" points="53.859,62.113 53.804,62.057 53.749,62.113 32.663,41.026 32.663,68.23 74.933,68.229 
					74.934,41.038 				"/>
			</g>
			<g>
				<polygon fill="#939598" points="36.266,39.977 54.106,57.819 71.952,39.976 				"/>
				<polygon fill="#939598" points="54.162,62.417 54.107,62.36 54.053,62.417 32.966,41.329 32.966,68.533 75.236,68.532 
					75.237,41.342 				"/>
			</g>
			<g>
				<polygon fill="#939598" points="36.567,40.278 54.409,58.121 72.254,40.278 				"/>
				<polygon fill="#939598" points="54.465,62.719 54.409,62.662 54.354,62.719 33.269,41.631 33.269,68.836 75.539,68.835 
					75.539,41.644 				"/>
			</g>
			<g>
				<polygon fill="#939598" points="36.87,40.581 54.712,58.424 72.558,40.581 				"/>
				<polygon fill="#939598" points="54.768,63.021 54.712,62.965 54.657,63.021 33.571,41.934 33.57,69.139 75.841,69.137 
					75.842,41.945 				"/>
			</g>
			<g>
				<polygon fill="#939598" points="37.173,40.884 55.015,58.726 72.858,40.883 				"/>
				<polygon fill="#939598" points="55.069,63.323 55.015,63.268 54.96,63.324 33.874,42.236 33.873,69.44 76.144,69.439 
					76.144,42.248 				"/>
			</g>
			<g>
				<polygon fill="#939598" points="37.476,41.186 55.316,59.028 73.161,41.186 				"/>
				<polygon fill="#939598" points="55.371,63.626 55.317,63.569 55.262,63.627 34.176,42.539 34.176,69.743 76.446,69.741 
					76.446,42.551 				"/>
			</g>
			<g>
				<polygon fill="#939598" points="37.776,41.487 55.619,59.331 73.464,41.488 				"/>
				<polygon fill="#939598" points="55.674,63.929 55.62,63.872 55.564,63.93 34.479,42.841 34.478,70.046 76.749,70.044 
					76.749,42.854 				"/>
			</g>
			<g>
				<polygon fill="#939598" points="38.079,41.79 55.922,59.633 73.767,41.79 				"/>
				<polygon fill="#939598" points="55.977,64.23 55.922,64.174 55.867,64.23 34.781,43.144 34.78,70.349 77.052,70.347 
					77.052,43.155 				"/>
			</g>
			<g>
				<polygon fill="#939598" points="38.382,42.093 56.224,59.936 74.069,42.093 				"/>
				<polygon fill="#939598" points="56.278,64.533 56.224,64.477 56.169,64.533 35.083,43.446 35.083,70.65 77.353,70.649 
					77.353,43.458 				"/>
			</g>
			<g>
				<polygon fill="#939598" points="38.685,42.396 56.526,60.238 74.372,42.396 				"/>
				<polygon fill="#939598" points="56.581,64.836 56.527,64.779 56.472,64.836 35.386,43.748 35.385,70.953 77.657,70.952 
					77.657,43.761 				"/>
			</g>
			<g>
				<polygon fill="#939598" points="38.987,42.698 56.829,60.54 74.673,42.697 				"/>
				<polygon fill="#939598" points="56.884,65.138 56.829,65.082 56.774,65.139 35.688,44.051 35.688,71.256 77.958,71.254 
					77.958,44.063 				"/>
			</g>
			<g>
				<polygon fill="#939598" points="39.289,43 57.131,60.843 74.976,43 				"/>
				<polygon fill="#939598" points="57.187,65.44 57.13,65.384 57.076,65.44 35.989,44.353 35.989,71.558 78.26,71.556 
					78.261,44.365 				"/>
			</g>
			<g>
				<polygon fill="#939598" points="39.593,43.303 57.434,61.146 75.278,43.303 				"/>
				<polygon fill="#939598" points="57.489,65.743 57.434,65.688 57.38,65.743 36.292,44.655 36.292,71.86 78.563,71.859 
					78.563,44.668 				"/>
			</g>
			<g>
				<polygon fill="#939598" points="39.895,43.605 57.736,61.447 75.581,43.604 				"/>
				<polygon fill="#939598" points="57.792,66.045 57.736,65.989 57.682,66.046 36.595,44.958 36.595,72.163 78.866,72.161 
					78.866,44.971 				"/>
			</g>
			<g>
				<polygon fill="#939598" points="40.196,43.907 58.038,61.75 75.884,43.907 				"/>
				<polygon fill="#939598" points="58.095,66.348 58.039,66.292 57.985,66.349 36.897,45.261 36.897,72.465 79.169,72.464 
					79.169,45.273 				"/>
			</g>
			<g>
				<polygon fill="#939598" points="40.5,44.21 58.341,62.053 76.187,44.21 				"/>
				<polygon fill="#939598" points="58.396,66.65 58.341,66.594 58.287,66.651 37.2,45.563 37.2,72.768 79.471,72.767 
					79.471,45.576 				"/>
			</g>
			<g>
				<polygon fill="#939598" points="40.802,44.513 58.644,62.355 76.488,44.513 				"/>
				<polygon fill="#939598" points="58.698,66.952 58.644,66.896 58.589,66.953 37.503,45.865 37.503,73.07 79.773,73.068 
					79.773,45.878 				"/>
			</g>
			<g>
				<polygon fill="#939598" points="41.104,44.814 58.946,62.658 76.791,44.815 				"/>
				<polygon fill="#939598" points="59.001,67.255 58.946,67.198 58.892,67.256 37.806,46.168 37.805,73.372 80.076,73.371 
					80.076,46.181 				"/>
			</g>
			<g>
				<polygon fill="#939598" points="41.407,45.117 59.249,62.96 77.094,45.117 				"/>
				<polygon fill="#939598" points="59.304,67.558 59.249,67.501 59.194,67.558 38.108,46.471 38.107,73.675 80.378,73.674 
					80.378,46.482 				"/>
			</g>
			<g>
				<polygon fill="#939598" points="41.708,45.42 59.552,63.263 77.396,45.42 				"/>
				<polygon fill="#939598" points="59.606,67.86 59.552,67.804 59.496,67.86 38.409,46.772 38.409,73.977 80.679,73.976 
					80.681,46.785 				"/>
			</g>
			<g>
				<polygon fill="#939598" points="42.012,45.723 59.853,63.565 77.698,45.723 				"/>
				<polygon fill="#939598" points="59.908,68.163 59.854,68.106 59.799,68.163 38.713,47.075 38.712,74.279 80.983,74.279 
					80.983,47.088 				"/>
			</g>
			<g>
				<polygon fill="#939598" points="42.313,46.024 60.155,63.867 78.001,46.024 				"/>
				<polygon fill="#939598" points="60.211,68.465 60.155,68.408 60.102,68.465 39.016,47.378 39.015,74.582 81.286,74.581 
					81.286,47.39 				"/>
			</g>
			<g>
				<polygon fill="#939598" points="42.616,46.327 60.458,64.17 78.304,46.327 				"/>
				<polygon fill="#939598" points="60.514,68.768 60.458,68.711 60.403,68.768 39.317,47.681 39.317,74.885 81.587,74.883 
					81.587,47.692 				"/>
			</g>
			<g>
				<polygon fill="#939598" points="42.919,46.63 60.761,64.473 78.606,46.629 				"/>
				<polygon fill="#939598" points="60.815,69.069 60.761,69.014 60.706,69.07 39.619,47.982 39.619,75.187 81.892,75.186 
					81.89,47.995 				"/>
			</g>
			<g>
				<polygon fill="#939598" points="43.222,46.932 61.063,64.774 78.907,46.932 				"/>
				<polygon fill="#939598" points="61.118,69.372 61.063,69.315 61.009,69.373 39.922,48.285 39.922,75.489 82.192,75.488 
					82.192,48.297 				"/>
			</g>
			<g>
				<polygon fill="#939598" points="43.523,47.234 61.366,65.077 79.21,47.234 				"/>
				<polygon fill="#939598" points="61.421,69.675 61.366,69.618 61.312,69.675 40.225,48.587 40.224,75.792 82.495,75.791 
					82.495,48.6 				"/>
			</g>
			<g>
				<polygon fill="#939598" points="43.827,47.537 61.668,65.38 79.513,47.537 				"/>
				<polygon fill="#939598" points="61.724,69.978 61.668,69.921 61.614,69.978 40.526,48.89 40.526,76.094 82.798,76.094 
					82.798,48.902 				"/>
			</g>
			<g>
				<polygon fill="#939598" points="44.129,47.839 61.971,65.683 79.815,47.84 				"/>
				<polygon fill="#939598" points="62.026,70.28 61.971,70.224 61.915,70.28 40.829,49.192 40.829,76.396 83.101,76.396 
					83.101,49.204 				"/>
			</g>
			<g>
				<polygon fill="#939598" points="44.431,48.142 62.272,65.984 80.118,48.142 				"/>
				<polygon fill="#939598" points="62.327,70.582 62.273,70.525 62.218,70.583 41.132,49.494 41.132,76.699 83.403,76.698 
					83.403,49.507 				"/>
			</g>
			<g>
				<polygon fill="#939598" points="44.734,48.444 62.575,66.287 80.421,48.444 				"/>
				<polygon fill="#939598" points="62.63,70.885 62.575,70.828 62.521,70.885 41.435,49.797 41.435,77.002 83.705,77 83.705,49.81 
									"/>
			</g>
			<g>
				<polygon fill="#939598" points="45.036,48.747 62.878,66.59 80.724,48.747 				"/>
				<polygon fill="#939598" points="62.933,71.188 62.878,71.131 62.822,71.188 41.737,50.1 41.737,77.304 84.007,77.303 
					84.007,50.112 				"/>
			</g>
			<g>
				<polygon fill="#939598" points="45.339,49.049 63.181,66.892 81.025,49.049 				"/>
				<polygon fill="#939598" points="63.235,71.489 63.181,71.433 63.126,71.49 42.038,50.402 42.038,77.606 84.311,77.605 
					84.311,50.415 				"/>
			</g>
			<g>
				<polygon fill="#939598" points="45.641,49.352 63.483,67.194 81.327,49.352 				"/>
				<polygon fill="#939598" points="63.538,71.791 63.483,71.735 63.429,71.792 42.343,50.704 42.341,77.909 84.612,77.907 
					84.612,50.717 				"/>
			</g>
			<g>
				<polygon fill="#939598" points="45.942,49.654 63.784,67.497 81.63,49.654 				"/>
				<polygon fill="#939598" points="63.841,72.094 63.786,72.038 63.73,72.095 42.644,51.007 42.644,78.211 84.915,78.211 
					84.915,51.02 				"/>
			</g>
			<g>
				<polygon fill="#939598" points="46.245,49.957 64.087,67.8 81.933,49.956 				"/>
				<polygon fill="#939598" points="64.143,72.396 64.087,72.341 64.033,72.397 42.946,51.309 42.946,78.514 85.217,78.513 
					85.217,51.322 				"/>
			</g>
			<g>
				<polygon fill="#939598" points="46.548,50.259 64.39,68.102 82.235,50.259 				"/>
				<polygon fill="#939598" points="64.445,72.699 64.39,72.643 64.335,72.699 43.249,51.611 43.249,78.816 85.52,78.814 
					85.52,51.624 				"/>
			</g>
			<g>
				<polygon fill="#939598" points="46.851,50.561 64.692,68.404 82.537,50.562 				"/>
				<polygon fill="#939598" points="64.748,73.001 64.692,72.945 64.639,73.002 43.552,51.914 43.551,79.119 85.822,79.117 
					85.822,51.927 				"/>
			</g>
			<g>
				<polygon fill="#939598" points="47.153,50.864 64.995,68.707 82.84,50.863 				"/>
				<polygon fill="#939598" points="65.05,73.304 64.995,73.248 64.94,73.305 43.854,52.217 43.854,79.421 86.124,79.42 
					86.124,52.229 				"/>
			</g>
			<g>
				<polygon fill="#939598" points="47.456,51.166 65.298,69.009 83.143,51.166 				"/>
				<polygon fill="#939598" points="65.353,73.606 65.298,73.55 65.243,73.606 44.156,52.52 44.156,79.724 86.427,79.722 
					86.427,52.531 				"/>
			</g>
			<g>
				<polygon fill="#939598" points="47.757,51.469 65.601,69.312 83.444,51.469 				"/>
				<polygon fill="#939598" points="65.655,73.909 65.601,73.854 65.546,73.91 44.458,52.822 44.458,80.026 86.729,80.025 
					86.729,52.835 				"/>
			</g>
			<g>
				<polygon fill="#939598" points="48.06,51.771 65.902,69.614 83.747,51.771 				"/>
				<polygon fill="#939598" points="65.957,74.211 65.902,74.155 65.849,74.212 44.761,53.124 44.761,80.328 87.032,80.327 
					87.032,53.137 				"/>
			</g>
			<g>
				<polygon fill="#939598" points="48.362,52.073 66.204,69.917 84.05,52.074 				"/>
				<polygon fill="#939598" points="66.259,74.514 66.204,74.457 66.149,74.514 45.063,53.427 45.063,80.631 87.333,80.63 
					87.334,53.438 				"/>
			</g>
			<g>
				<polygon fill="#939598" points="48.665,52.376 66.507,70.219 84.353,52.376 				"/>
				<polygon fill="#939598" points="66.562,74.816 66.507,74.76 66.452,74.816 45.366,53.729 45.366,80.933 87.638,80.932 
					87.637,53.741 				"/>
			</g>
			<g>
				<polygon fill="#939598" points="48.968,52.679 66.81,70.521 84.655,52.679 				"/>
				<polygon fill="#939598" points="66.865,75.119 66.81,75.063 66.755,75.119 45.669,54.031 45.669,81.235 87.939,81.234 
					87.939,54.043 				"/>
			</g>
			<g>
				<polygon fill="#939598" points="49.27,52.98 67.111,70.823 84.956,52.98 				"/>
				<polygon fill="#939598" points="67.167,75.421 67.112,75.365 67.058,75.422 45.972,54.334 45.97,81.538 88.242,81.537 
					88.242,54.346 				"/>
			</g>
			<g>
				<polygon fill="#939598" points="49.573,53.283 67.414,71.126 85.259,53.283 				"/>
				<polygon fill="#939598" points="67.47,75.724 67.414,75.667 67.36,75.724 46.272,54.636 46.272,81.841 88.544,81.84 
					88.544,54.648 				"/>
			</g>
			<g>
				<polygon fill="#939598" points="49.875,53.585 67.717,71.429 85.562,53.586 				"/>
				<polygon fill="#939598" points="67.772,76.026 67.717,75.97 67.662,76.026 46.575,54.938 46.575,82.144 88.847,82.142 
					88.847,54.951 				"/>
			</g>
			<g>
				<polygon fill="#939598" points="50.177,53.888 68.019,71.73 85.864,53.888 				"/>
				<polygon fill="#939598" points="68.075,76.328 68.02,76.271 67.965,76.329 46.878,55.241 46.878,82.445 89.149,82.444 
					89.149,55.254 				"/>
			</g>
			<g>
				<polygon fill="#939598" points="50.48,54.19 68.321,72.033 86.167,54.19 				"/>
				<polygon fill="#939598" points="68.377,76.631 68.321,76.574 68.268,76.631 47.181,55.543 47.181,82.747 89.451,82.747 
					89.451,55.556 				"/>
			</g>
			<g>
				<polygon fill="#939598" points="50.782,54.493 68.624,72.336 86.47,54.493 				"/>
				<polygon fill="#939598" points="68.68,76.934 68.624,76.877 68.569,76.934 47.483,55.846 47.483,83.05 89.753,83.049 
					89.754,55.857 				"/>
			</g>
			<g>
				<polygon fill="#939598" points="51.085,54.795 68.927,72.639 86.771,54.796 				"/>
				<polygon fill="#939598" points="68.982,77.236 68.927,77.18 68.873,77.236 47.785,56.148 47.785,83.353 90.057,83.353 
					90.057,56.161 				"/>
			</g>
			<g>
				<polygon fill="#939598" points="51.388,55.098 69.229,72.94 87.075,55.098 				"/>
				<polygon fill="#939598" points="69.285,77.538 69.229,77.481 69.175,77.538 48.088,56.45 48.088,83.655 90.358,83.653 
					90.358,56.463 				"/>
			</g>
			<g>
				<polygon fill="#939598" points="51.688,55.4 69.53,73.243 87.376,55.4 				"/>
				<polygon fill="#939598" points="69.586,77.841 69.531,77.784 69.477,77.841 48.39,56.753 48.39,83.958 90.661,83.957 
					90.661,56.766 				"/>
			</g>
			<g>
				<polygon fill="#939598" points="51.993,55.703 69.834,73.545 87.679,55.702 				"/>
				<polygon fill="#939598" points="69.889,78.143 69.834,78.087 69.779,78.144 48.692,57.056 48.692,84.26 90.964,84.259 
					90.964,57.068 				"/>
			</g>
			<g>
				<polygon fill="#939598" points="52.296,56.005 70.138,73.849 87.981,56.006 				"/>
				<polygon fill="#939598" points="70.192,78.445 70.137,78.39 70.082,78.445 48.995,57.358 48.995,84.563 91.267,84.562 
					91.267,57.371 				"/>
			</g>
			<g>
				<polygon fill="#939598" points="52.597,56.308 70.438,74.15 88.284,56.308 				"/>
				<polygon fill="#939598" points="70.494,78.748 70.439,78.692 70.385,78.749 49.298,57.661 49.297,84.865 91.569,84.864 
					91.569,57.674 				"/>
			</g>
			<g>
				<polygon fill="#939598" points="52.899,56.61 70.741,74.453 88.587,56.61 				"/>
				<polygon fill="#939598" points="70.796,79.05 70.741,78.994 70.687,79.051 49.6,57.963 49.6,85.167 91.87,85.167 91.87,57.976 
									"/>
			</g>
			<g>
				<polygon fill="#939598" points="53.202,56.912 71.044,74.756 88.89,56.913 				"/>
				<polygon fill="#939598" points="71.099,79.353 71.044,79.296 70.989,79.353 49.902,58.266 49.902,85.47 92.173,85.469 
					92.173,58.277 				"/>
			</g>
			<g>
				<polygon fill="#939598" points="53.504,57.215 71.346,75.058 89.19,57.216 				"/>
				<polygon fill="#939598" points="71.401,79.655 71.347,79.6 71.292,79.655 50.204,58.568 50.204,85.772 92.476,85.771 
					92.476,58.581 				"/>
			</g>
			<g>
				<polygon fill="#939598" points="53.807,57.518 71.649,75.361 89.493,57.518 				"/>
				<polygon fill="#939598" points="71.704,79.958 71.648,79.901 71.595,79.958 50.507,58.87 50.507,86.074 92.778,86.074 
					92.778,58.883 				"/>
			</g>
			<g>
				<polygon fill="#939598" points="54.108,57.819 71.951,75.663 89.796,57.819 				"/>
				<polygon fill="#939598" points="72.007,80.26 71.951,80.204 71.897,80.261 50.81,59.173 50.81,86.377 93.081,86.376 
					93.081,59.186 				"/>
			</g>
			<g>
				<polygon fill="#939598" points="54.411,58.122 72.253,75.965 90.099,58.123 				"/>
				<polygon fill="#939598" points="72.31,80.563 72.253,80.507 72.2,80.563 51.112,59.476 51.112,86.68 93.384,86.679 
					93.384,59.488 				"/>
			</g>
			<g>
				<polygon fill="#939598" points="54.714,58.425 72.557,76.268 90.401,58.425 				"/>
				<polygon fill="#939598" points="72.612,80.865 72.556,80.809 72.502,80.865 51.415,59.777 51.415,86.982 93.686,86.98 
					93.686,59.79 				"/>
			</g>
			<g>
				<polygon fill="#939598" points="55.016,58.728 72.858,76.57 90.703,58.728 				"/>
				<polygon fill="#939598" points="72.913,81.167 72.858,81.111 72.805,81.168 51.718,60.08 51.717,87.284 93.988,87.283 
					93.988,60.093 				"/>
			</g>
			<g>
				<polygon fill="#939598" points="55.319,59.029 73.161,76.873 91.006,59.029 				"/>
				<polygon fill="#939598" points="73.216,81.47 73.161,81.413 73.106,81.471 52.02,60.382 52.02,87.587 94.29,87.586 
					94.291,60.396 				"/>
			</g>
			<g>
				<polygon fill="#939598" points="55.622,59.332 73.464,77.176 91.309,59.332 				"/>
				<polygon fill="#939598" points="73.519,81.772 73.464,81.716 73.409,81.772 52.322,60.685 52.322,87.889 94.593,87.889 
					94.593,60.697 				"/>
			</g>
			<g>
				<polygon fill="#939598" points="55.923,59.634 73.767,77.478 91.61,59.635 				"/>
				<polygon fill="#939598" points="73.821,82.074 73.767,82.019 73.712,82.075 52.625,60.987 52.624,88.191 94.896,88.19 
					94.896,61 				"/>
			</g>
			<g>
				<polygon fill="#939598" points="56.227,59.938 74.069,77.78 91.914,59.938 				"/>
				<polygon fill="#939598" points="74.124,82.378 74.067,82.321 74.014,82.378 52.927,61.29 52.927,88.494 95.197,88.493 
					95.197,61.302 				"/>
			</g>
			<g>
				<polygon fill="#939598" points="56.528,60.239 74.37,78.082 92.216,60.239 				"/>
				<polygon fill="#939598" points="74.427,82.68 74.37,82.623 74.315,82.68 53.229,61.593 53.229,88.797 95.5,88.795 95.5,61.604 
									"/>
			</g>
			<g>
				<polygon fill="#939598" points="56.831,60.541 74.673,78.385 92.519,60.542 				"/>
				<polygon fill="#939598" points="74.729,82.982 74.673,82.927 74.619,82.982 53.531,61.896 53.531,89.1 95.803,89.099 
					95.803,61.907 				"/>
			</g>
			<g>
				<polygon fill="#939598" points="57.134,60.845 74.976,78.688 92.82,60.845 				"/>
				<polygon fill="#939598" points="75.031,83.285 74.976,83.229 74.921,83.285 53.834,62.197 53.834,89.401 96.104,89.4 
					96.104,62.21 				"/>
			</g>
			<g>
				<polygon fill="#939598" points="57.437,61.146 75.278,78.989 93.123,61.146 				"/>
				<polygon fill="#939598" points="75.333,83.587 75.278,83.531 75.224,83.588 54.137,62.5 54.137,89.704 96.407,89.703 
					96.407,62.513 				"/>
			</g>
			<g>
				<polygon fill="#939598" points="57.738,61.449 75.581,79.292 93.425,61.449 				"/>
				<polygon fill="#939598" points="75.636,83.89 75.581,83.833 75.526,83.89 54.438,62.803 54.438,90.007 96.71,90.006 
					96.71,62.815 				"/>
			</g>
			<g>
				<polygon fill="#939598" points="58.042,61.752 75.884,79.595 93.729,61.752 				"/>
				<polygon fill="#939598" points="75.938,84.192 75.883,84.136 75.829,84.192 54.741,63.104 54.741,90.309 97.013,90.308 
					97.013,63.117 				"/>
			</g>
			<g>
				<polygon fill="#939598" points="58.343,62.054 76.185,79.897 94.029,62.055 				"/>
				<polygon fill="#939598" points="76.239,84.494 76.185,84.438 76.13,84.495 55.044,63.407 55.044,90.611 97.314,90.61 
					97.314,63.42 				"/>
			</g>
			<g>
				<polygon fill="#939598" points="58.646,62.356 76.488,80.2 94.333,62.357 				"/>
				<polygon fill="#939598" points="76.544,84.797 76.488,84.74 76.433,84.797 55.347,63.709 55.347,90.914 97.617,90.913 
					97.618,63.722 				"/>
			</g>
			<g>
				<polygon fill="#939598" points="58.948,62.659 76.791,80.502 94.636,62.659 				"/>
				<polygon fill="#939598" points="76.847,85.1 76.79,85.043 76.735,85.1 55.649,64.012 55.649,91.216 97.92,91.215 97.92,64.024 
									"/>
			</g>
			<g>
				<polygon fill="#939598" points="59.251,62.961 77.093,80.805 94.938,62.962 				"/>
				<polygon fill="#939598" points="77.147,85.401 77.093,85.346 77.038,85.402 55.952,64.314 55.95,91.519 98.223,91.518 
					98.223,64.327 				"/>
			</g>
			<g>
				<polygon fill="#939598" points="59.554,63.264 77.396,81.107 95.241,63.264 				"/>
				<polygon fill="#939598" points="77.45,85.704 77.396,85.647 77.341,85.704 56.253,64.616 56.253,91.82 98.524,91.82 
					98.524,64.629 				"/>
			</g>
			<g>
				<polygon fill="#939598" points="59.854,63.566 77.698,81.409 95.542,63.566 				"/>
				<polygon fill="#939598" points="77.753,86.007 77.698,85.951 77.644,86.007 56.556,64.919 56.556,92.123 98.827,92.123 
					98.826,64.933 				"/>
			</g>
			<g>
				<polygon fill="#939598" points="60.157,63.869 78.001,81.712 95.845,63.869 				"/>
				<polygon fill="#939598" points="78.056,86.309 78.001,86.253 77.946,86.309 56.858,65.222 56.858,92.426 99.13,92.425 
					99.13,65.234 				"/>
			</g>
			<g>
				<polygon fill="#939598" points="60.46,64.172 78.304,82.015 96.147,64.172 				"/>
				<polygon fill="#939598" points="78.358,86.611 78.302,86.555 78.248,86.611 57.161,65.523 57.161,92.728 99.432,92.728 
					99.432,65.536 				"/>
			</g>
			<g>
				<polygon fill="#939598" points="60.763,64.474 78.604,82.316 96.449,64.474 				"/>
				<polygon fill="#939598" points="78.66,86.914 78.604,86.857 78.551,86.914 57.464,65.826 57.464,93.03 99.734,93.03 
					99.734,65.84 				"/>
			</g>
			<g>
				<polygon fill="#939598" points="61.065,64.775 78.907,82.62 96.753,64.777 				"/>
				<polygon fill="#939598" points="78.964,87.217 78.907,87.16 78.854,87.217 57.766,66.129 57.766,93.333 100.037,93.332 
					100.037,66.142 				"/>
			</g>
			<g>
				<polygon fill="#939598" points="61.368,65.078 79.21,82.922 97.056,65.079 				"/>
				<polygon fill="#939598" points="79.266,87.52 79.21,87.463 79.155,87.52 58.068,66.432 58.068,93.636 100.339,93.635 
					100.339,66.443 				"/>
			</g>
			<g>
				<polygon fill="#939598" points="61.669,65.381 79.512,83.224 97.356,65.381 				"/>
				<polygon fill="#939598" points="79.566,87.821 79.512,87.766 79.458,87.822 58.37,66.734 58.37,93.938 100.642,93.938 
					100.642,66.747 				"/>
			</g>
			<g>
				<polygon fill="#939598" points="61.974,65.684 79.815,83.526 97.66,65.684 				"/>
				<polygon fill="#939598" points="79.871,88.124 79.814,88.067 79.761,88.124 58.673,67.036 58.673,94.24 100.944,94.239 
					100.944,67.049 				"/>
			</g>
			<g>
				<polygon fill="#939598" points="62.274,65.985 80.118,83.829 97.962,65.985 				"/>
				<polygon fill="#939598" points="80.173,88.426 80.117,88.37 80.063,88.426 58.976,67.339 58.976,94.543 101.247,94.542 
					101.247,67.351 				"/>
			</g>
			<g>
				<polygon fill="#939598" points="62.577,66.288 80.42,84.132 98.265,66.288 				"/>
				<polygon fill="#939598" points="80.475,88.729 80.42,88.673 80.366,88.729 59.278,67.642 59.278,94.846 101.55,94.845 
					101.55,67.654 				"/>
			</g>
			<g>
				<polygon fill="#939598" points="62.88,66.591 80.723,84.434 98.567,66.591 				"/>
				<polygon fill="#939598" points="80.777,89.031 80.722,88.975 80.667,89.031 59.581,67.943 59.581,95.147 101.852,95.146 
					101.852,67.955 				"/>
			</g>
			<g>
				<polygon fill="#939598" points="63.183,66.894 81.024,84.736 98.87,66.894 				"/>
				<polygon fill="#939598" points="81.08,89.334 81.025,89.277 80.972,89.334 59.884,68.246 59.884,95.45 102.154,95.45 
					102.154,68.26 				"/>
			</g>
			<g>
				<polygon fill="#939598" points="63.484,67.195 81.327,85.039 99.173,67.196 				"/>
				<polygon fill="#939598" points="81.383,89.637 81.327,89.58 81.272,89.637 60.185,68.549 60.185,95.753 102.457,95.752 
					102.457,68.562 				"/>
			</g>
			<g>
				<polygon fill="#939598" points="63.787,67.498 81.63,85.342 99.475,67.498 				"/>
				<polygon fill="#939598" points="81.685,89.938 81.629,89.883 81.575,89.938 60.487,68.852 60.487,96.055 102.759,96.055 
					102.759,68.863 				"/>
			</g>
			<g>
				<polygon fill="#939598" points="64.09,67.801 81.932,85.644 99.777,67.801 				"/>
				<polygon fill="#939598" points="81.987,90.241 81.932,90.185 81.878,90.241 60.79,69.153 60.79,96.357 103.062,96.357 
					103.062,69.166 				"/>
			</g>
			<g>
				<polygon fill="#939598" points="64.392,68.103 82.234,85.946 100.08,68.104 				"/>
				<polygon fill="#939598" points="82.29,90.544 82.234,90.487 82.181,90.544 61.093,69.456 61.093,96.66 103.364,96.659 
					103.364,69.469 				"/>
			</g>
			<g>
				<polygon fill="#939598" points="64.695,68.405 82.537,86.248 100.383,68.405 				"/>
				<polygon fill="#939598" points="82.593,90.846 82.536,90.789 82.482,90.846 61.396,69.758 61.396,96.962 103.666,96.962 
					103.666,69.771 				"/>
			</g>
			<g>
				<polygon fill="#939598" points="64.997,68.708 82.839,86.551 100.683,68.708 				"/>
				<polygon fill="#939598" points="82.894,91.147 82.839,91.092 82.784,91.148 61.697,70.061 61.697,97.265 103.968,97.265 
					103.968,70.074 				"/>
			</g>
			<g>
				<polygon fill="#939598" points="65.3,69.01 83.142,86.854 100.987,69.011 				"/>
				<polygon fill="#939598" points="83.197,91.45 83.142,91.395 83.087,91.45 62,70.362 62,97.567 104.271,97.566 104.271,70.375 
									"/>
			</g>
			<g>
				<polygon fill="#939598" points="65.603,69.313 83.444,87.156 101.289,69.313 				"/>
				<polygon fill="#939598" points="83.5,91.753 83.444,91.696 83.39,91.753 62.303,70.665 62.302,97.87 104.573,97.869 
					104.573,70.678 				"/>
			</g>
			<g>
				<polygon fill="#939598" points="65.903,69.615 83.747,87.458 101.591,69.615 				"/>
				<polygon fill="#939598" points="83.802,92.056 83.747,91.999 83.692,92.056 62.604,70.968 62.605,98.173 104.876,98.172 
					104.876,70.98 				"/>
			</g>
			<g>
				<polygon fill="#939598" points="66.206,69.918 84.05,87.761 101.894,69.918 				"/>
				<polygon fill="#939598" points="84.104,92.358 84.048,92.302 83.994,92.358 62.907,71.271 62.907,98.475 105.178,98.474 
					105.179,71.283 				"/>
			</g>
			<g>
				<polygon fill="#939598" points="66.509,70.22 84.352,88.063 102.196,70.221 				"/>
				<polygon fill="#939598" points="84.407,92.66 84.353,92.604 84.298,92.661 63.21,71.572 63.209,98.776 105.48,98.776 
					105.48,71.586 				"/>
			</g>
			<g>
				<polygon fill="#939598" points="66.812,70.522 84.654,88.366 102.499,70.523 				"/>
				<polygon fill="#939598" points="84.71,92.963 84.654,92.907 84.6,92.963 63.513,71.876 63.512,99.079 105.783,99.078 
					105.783,71.889 				"/>
			</g>
			<g>
				<polygon fill="#939598" points="67.114,70.825 84.956,88.668 102.801,70.825 				"/>
				<polygon fill="#939598" points="85.012,93.266 84.956,93.209 84.901,93.266 63.814,72.178 63.814,99.381 106.086,99.381 
					106.086,72.19 				"/>
			</g>
			<g>
				<polygon fill="#939598" points="67.417,71.127 85.259,88.971 103.104,71.128 				"/>
				<polygon fill="#939598" points="85.314,93.567 85.259,93.511 85.205,93.567 64.117,72.479 64.116,99.684 106.389,99.684 
					106.389,72.493 				"/>
			</g>
			<g>
				<polygon fill="#939598" points="67.719,71.43 85.562,89.273 103.406,71.431 				"/>
				<polygon fill="#939598" points="85.617,93.87 85.562,93.813 85.507,93.87 64.419,72.782 64.419,99.986 106.691,99.986 
					106.691,72.796 				"/>
			</g>
			<g>
				<polygon fill="#939598" points="68.021,71.732 85.864,89.575 103.709,71.732 				"/>
				<polygon fill="#939598" points="85.919,94.173 85.863,94.116 85.81,94.173 64.722,73.085 64.722,100.289 106.993,100.288 
					106.993,73.097 				"/>
			</g>
			<g>
				<polygon fill="#939598" points="68.324,72.034 86.166,89.878 104.011,72.035 				"/>
				<polygon fill="#939598" points="86.222,94.475 86.166,94.419 86.112,94.476 65.024,73.388 65.024,100.592 107.296,100.591 
					107.296,73.4 				"/>
			</g>
			<g>
				<polygon fill="#939598" points="68.626,72.337 86.469,90.181 104.313,72.338 				"/>
				<polygon fill="#939598" points="86.524,94.777 86.468,94.721 86.415,94.777 65.327,73.689 65.327,100.895 107.598,100.894 
					107.599,73.702 				"/>
			</g>
			<g>
				<polygon fill="#939598" points="68.928,72.64 86.771,90.482 104.615,72.64 				"/>
				<polygon fill="#939598" points="86.825,95.08 86.771,95.024 86.716,95.08 65.628,73.992 65.628,101.196 107.9,101.195 
					107.899,74.006 				"/>
			</g>
			<g>
				<polygon fill="#939598" points="69.23,72.941 87.073,90.785 104.919,72.942 				"/>
				<polygon fill="#939598" points="87.13,95.383 87.073,95.326 87.019,95.383 65.931,74.295 65.933,101.499 108.203,101.498 
					108.203,74.308 				"/>
			</g>
			<g>
				<polygon fill="#939598" points="69.534,73.244 87.376,91.087 105.222,73.244 				"/>
				<polygon fill="#939598" points="87.433,95.685 87.376,95.628 87.321,95.685 66.233,74.597 66.233,101.802 108.505,101.801 
					108.505,74.609 				"/>
			</g>
			<g>
				<polygon fill="#939598" points="69.836,73.547 87.679,91.39 105.523,73.547 				"/>
				<polygon fill="#939598" points="87.733,95.987 87.679,95.932 87.624,95.987 66.536,74.899 66.536,102.104 108.808,102.104 
					108.808,74.913 				"/>
			</g>
			<g>
				<polygon fill="#939598" points="70.138,73.849 87.981,91.692 105.826,73.85 				"/>
				<polygon fill="#939598" points="88.036,96.29 87.981,96.233 87.927,96.29 66.839,75.202 66.839,102.406 109.11,102.405 
					109.11,75.215 				"/>
			</g>
			<g>
				<polygon fill="#939598" points="70.441,74.151 88.284,91.995 106.129,74.151 				"/>
				<polygon fill="#939598" points="88.339,96.592 88.282,96.535 88.229,96.592 67.142,75.505 67.142,102.709 109.412,102.708 
					109.412,75.517 				"/>
			</g>
			<g>
				<polygon fill="#939598" points="70.743,74.454 88.585,92.297 106.431,74.454 				"/>
				<polygon fill="#939598" points="88.642,96.894 88.587,96.838 88.532,96.895 67.444,75.807 67.444,103.011 109.715,103.01 
					109.715,75.819 				"/>
			</g>
			<g>
				<polygon fill="#939598" points="71.046,74.756 88.888,92.6 106.733,74.758 				"/>
				<polygon fill="#939598" points="88.944,97.197 88.888,97.141 88.834,97.197 67.746,76.109 67.746,103.313 110.018,103.313 
					110.018,76.122 				"/>
			</g>
			<g>
				<polygon fill="#939598" points="71.349,75.06 89.19,92.902 107.035,75.06 				"/>
				<polygon fill="#939598" points="89.246,97.5 89.19,97.443 89.136,97.5 68.049,76.412 68.049,103.615 110.319,103.615 
					110.319,76.425 				"/>
			</g>
			<g>
				<polygon fill="#939598" points="71.651,75.361 89.493,93.205 107.338,75.362 				"/>
				<polygon fill="#939598" points="89.549,97.802 89.493,97.746 89.438,97.802 68.351,76.714 68.351,103.918 110.622,103.918 
					110.622,76.728 				"/>
			</g>
			<g>
				<polygon fill="#939598" points="71.953,75.664 89.796,93.507 107.641,75.664 				"/>
				<polygon fill="#939598" points="89.851,98.104 89.795,98.048 89.741,98.104 68.653,77.017 68.653,104.221 110.925,104.221 
					110.925,77.029 				"/>
			</g>
			<g>
				<polygon fill="#939598" points="72.256,75.967 90.098,93.81 107.942,75.967 				"/>
				<polygon fill="#939598" points="90.153,98.406 90.098,98.351 90.044,98.407 68.956,77.318 68.956,104.523 111.228,104.522 
					111.227,77.333 				"/>
			</g>
			<g>
				<polygon fill="#939598" points="72.558,76.269 90.401,94.112 108.245,76.27 				"/>
				<polygon fill="#939598" points="90.456,98.709 90.4,98.653 90.347,98.709 69.259,77.621 69.259,104.826 111.53,104.825 
					111.53,77.635 				"/>
			</g>
			<g>
				<polygon fill="#939598" points="72.86,76.571 90.703,94.414 108.548,76.571 				"/>
				<polygon fill="#939598" points="90.759,99.011 90.702,98.955 90.647,99.011 69.562,77.924 69.562,105.129 111.831,105.128 
					111.833,77.937 				"/>
			</g>
			<g>
				<polygon fill="#939598" points="73.163,76.874 91.005,94.717 108.851,76.874 				"/>
				<polygon fill="#939598" points="91.062,99.313 91.005,99.258 90.952,99.314 69.864,78.227 69.862,105.431 112.135,105.431 
					112.135,78.24 				"/>
			</g>
			<g>
				<polygon fill="#939598" points="73.466,77.176 91.308,95.02 109.153,77.177 				"/>
				<polygon fill="#939598" points="91.364,99.616 91.308,99.56 91.253,99.616 70.167,78.529 70.165,105.733 112.438,105.732 
					112.438,78.542 				"/>
			</g>
			<g>
				<polygon fill="#939598" points="73.768,77.479 91.61,95.321 109.455,77.479 				"/>
				<polygon fill="#939598" points="91.665,99.919 91.61,99.862 91.556,99.919 70.468,78.831 70.468,106.036 112.739,106.035 
					112.739,78.844 				"/>
			</g>
			<g>
				<polygon fill="#939598" points="74.07,77.781 91.913,95.624 109.758,77.781 				"/>
				<polygon fill="#939598" points="91.969,100.221 91.913,100.165 91.858,100.221 70.771,79.134 70.771,106.338 113.042,106.338 
					113.042,79.146 				"/>
			</g>
			<g>
				<polygon fill="#939598" points="74.372,78.083 92.216,95.927 110.061,78.084 				"/>
				<polygon fill="#939598" points="92.271,100.523 92.216,100.467 92.161,100.523 71.073,79.437 71.073,106.641 113.345,106.64 
					113.345,79.449 				"/>
			</g>
			<g>
				<polygon fill="#939598" points="74.675,78.386 92.519,96.229 110.362,78.386 				"/>
				<polygon fill="#939598" points="92.573,100.826 92.517,100.77 92.463,100.826 71.376,79.738 71.376,106.942 113.646,106.942 
					113.646,79.751 				"/>
			</g>
			<g>
				<polygon fill="#939598" points="74.978,78.688 92.82,96.532 110.665,78.688 				"/>
				<polygon fill="#939598" points="92.876,101.129 92.819,101.072 92.766,101.129 71.678,80.041 71.678,107.245 113.949,107.244 
					113.949,80.054 				"/>
			</g>
			<g>
				<polygon fill="#939598" points="75.28,78.99 93.122,96.834 110.968,78.991 				"/>
				<polygon fill="#939598" points="93.179,101.432 93.122,101.375 93.068,101.432 71.98,80.344 71.98,107.548 114.251,107.547 
					114.252,80.355 				"/>
			</g>
			<g>
				<polygon fill="#939598" points="75.581,79.293 93.425,97.136 111.269,79.294 				"/>
				<polygon fill="#939598" points="93.479,101.733 93.425,101.678 93.37,101.734 72.282,80.646 72.282,107.85 114.554,107.85 
					114.554,80.659 				"/>
			</g>
			<g>
				<polygon fill="#939598" points="75.886,79.596 93.728,97.439 111.572,79.597 				"/>
				<polygon fill="#939598" points="93.783,102.037 93.728,101.98 93.673,102.037 72.585,80.948 72.585,108.152 114.856,108.151 
					114.856,80.961 				"/>
			</g>
			<g>
				<polygon fill="#939598" points="76.188,79.897 94.029,97.741 111.875,79.897 				"/>
				<polygon fill="#939598" points="94.084,102.339 94.029,102.282 93.974,102.339 72.887,81.251 72.887,108.455 115.159,108.454 
					115.159,81.263 				"/>
			</g>
			<g>
				<polygon fill="#939598" points="76.489,80.2 94.331,98.044 112.176,80.201 				"/>
				<polygon fill="#939598" points="94.387,102.641 94.332,102.585 94.277,102.642 73.189,81.553 73.189,108.757 115.462,108.757 
					115.461,81.566 				"/>
			</g>
			<g>
				<polygon fill="#939598" points="76.792,80.503 94.636,98.347 112.479,80.504 				"/>
				<polygon fill="#939598" points="94.69,102.944 94.635,102.889 94.58,102.944 73.492,81.855 73.492,109.06 115.765,109.06 
					115.765,81.869 				"/>
			</g>
			<g>
				<polygon fill="#939598" points="77.095,80.806 94.938,98.648 112.782,80.806 				"/>
				<polygon fill="#939598" points="94.992,103.246 94.937,103.189 94.882,103.246 73.795,82.158 73.795,109.362 116.066,109.362 
					116.066,82.17 				"/>
			</g>
			<g>
				<polygon fill="#939598" points="77.397,81.107 95.24,98.951 113.084,81.108 				"/>
				<polygon fill="#939598" points="95.296,103.548 95.239,103.492 95.186,103.548 74.097,82.461 74.097,109.665 116.369,109.665 
					116.369,82.474 				"/>
			</g>
			<g>
				<polygon fill="#939598" points="77.699,81.41 95.542,99.253 113.387,81.411 				"/>
				<polygon fill="#939598" points="95.598,103.851 95.542,103.794 95.487,103.851 74.399,82.764 74.399,109.968 116.672,109.967 
					116.672,82.776 				"/>
			</g>
			<g>
				<polygon fill="#939598" points="78.002,81.713 95.845,99.555 113.689,81.714 				"/>
				<polygon fill="#939598" points="95.899,104.152 95.845,104.097 95.79,104.153 74.702,83.065 74.702,110.27 116.974,110.27 
					116.974,83.079 				"/>
			</g>
			<g>
				<polygon fill="#939598" points="78.305,82.015 96.147,99.858 113.992,82.016 				"/>
				<polygon fill="#939598" points="96.203,104.455 96.146,104.399 96.093,104.455 75.005,83.368 75.005,110.572 117.276,110.571 
					117.276,83.381 				"/>
			</g>
			<g>
				<polygon fill="#939598" points="78.606,82.317 96.449,100.16 114.295,82.317 				"/>
				<polygon fill="#939598" points="96.505,104.758 96.448,104.701 96.396,104.758 75.308,83.671 75.308,110.875 117.579,110.873 
					117.579,83.683 				"/>
			</g>
			<g>
				<polygon fill="#939598" points="78.909,82.62 96.751,100.463 114.596,82.62 				"/>
				<polygon fill="#939598" points="96.807,105.06 96.751,105.004 96.697,105.061 75.609,83.973 75.609,111.177 117.881,111.177 
					117.88,83.986 				"/>
			</g>
			<g>
				<polygon fill="#939598" points="79.212,82.923 97.055,100.766 114.899,82.924 				"/>
				<polygon fill="#939598" points="97.11,105.362 97.054,105.307 97,105.362 75.912,84.275 75.912,111.479 118.184,111.479 
					118.184,84.289 				"/>
			</g>
			<g>
				<polygon fill="#939598" points="79.515,83.225 97.356,101.068 115.201,83.225 				"/>
				<polygon fill="#939598" points="97.412,105.665 97.355,105.608 97.302,105.665 76.215,84.577 76.215,111.782 118.486,111.78 
					118.484,84.59 				"/>
			</g>
			<g>
				<polygon fill="#939598" points="79.817,83.527 97.659,101.371 115.504,83.528 				"/>
				<polygon fill="#939598" points="97.716,105.968 97.659,105.911 97.605,105.968 76.518,84.88 76.518,112.084 118.788,112.084 
					118.788,84.893 				"/>
			</g>
			<g>
				<polygon fill="#939598" points="80.119,83.83 97.962,101.674 115.807,83.831 				"/>
				<polygon fill="#939598" points="98.018,106.271 97.962,106.215 97.907,106.271 76.819,85.183 76.819,112.387 119.091,112.387 
					119.091,85.196 				"/>
			</g>
			<g>
				<polygon fill="#939598" points="80.422,84.132 98.265,101.976 116.109,84.132 				"/>
				<polygon fill="#939598" points="98.319,106.573 98.264,106.517 98.209,106.573 77.122,85.484 77.122,112.689 119.393,112.688 
					119.393,85.497 				"/>
			</g>
			<g>
				<polygon fill="#939598" points="80.724,84.435 98.567,102.278 116.411,84.436 				"/>
				<polygon fill="#939598" points="98.623,106.875 98.566,106.819 98.513,106.875 77.424,85.787 77.424,112.991 119.695,112.99 
					119.695,85.8 				"/>
			</g>
			<g>
				<polygon fill="#939598" points="81.026,84.737 98.869,102.582 116.714,84.738 				"/>
				<polygon fill="#939598" points="98.925,107.179 98.869,107.122 98.814,107.179 77.727,86.09 77.727,113.294 119.998,113.294 
					119.998,86.103 				"/>
			</g>
			<g>
				<polygon fill="#939598" points="81.329,85.039 99.172,102.882 117.016,85.04 				"/>
				<polygon fill="#939598" points="99.227,107.479 99.172,107.424 99.117,107.48 78.029,86.393 78.029,113.596 120.301,113.596 
					120.301,86.405 				"/>
			</g>
			<g>
				<polygon fill="#939598" points="81.632,85.342 99.475,103.186 117.318,85.343 				"/>
				<polygon fill="#939598" points="99.53,107.782 99.474,107.727 99.42,107.782 78.331,86.694 78.331,113.898 120.603,113.898 
					120.603,86.708 				"/>
			</g>
			<g>
				<polygon fill="#939598" points="81.934,85.645 99.776,103.487 117.621,85.645 				"/>
				<polygon fill="#939598" points="99.832,108.085 99.775,108.028 99.722,108.085 78.634,86.997 78.634,114.201 120.905,114.2 
					120.905,87.01 				"/>
			</g>
			<g>
				<polygon fill="#939598" points="82.236,85.947 100.078,103.79 117.923,85.948 				"/>
				<polygon fill="#939598" points="100.134,108.388 100.078,108.331 100.024,108.388 78.937,87.3 78.937,114.504 121.208,114.504 
					121.207,87.313 				"/>
			</g>
			<g>
				<polygon fill="#939598" points="82.539,86.249 100.382,104.094 118.226,86.25 				"/>
				<polygon fill="#939598" points="100.437,108.69 100.381,108.635 100.327,108.69 79.239,87.603 79.239,114.807 121.511,114.807 
					121.511,87.615 				"/>
			</g>
			<g>
				<polygon fill="#939598" points="82.841,86.551 100.684,104.395 118.528,86.552 				"/>
				<polygon fill="#939598" points="100.738,108.992 100.683,108.936 100.629,108.992 79.542,87.904 79.542,115.109 
					121.813,115.107 121.813,87.917 				"/>
			</g>
			<g>
				<polygon fill="#939598" points="83.144,86.854 100.986,104.697 118.831,86.854 				"/>
				<polygon fill="#939598" points="101.042,109.294 100.985,109.238 100.932,109.294 79.843,88.207 79.845,115.411 
					122.115,115.411 122.115,88.22 				"/>
			</g>
			<g>
				<polygon fill="#939598" points="83.446,87.156 101.289,105.001 119.134,87.158 				"/>
				<polygon fill="#939598" points="101.344,109.598 101.288,109.542 101.234,109.598 80.146,88.51 80.146,115.714 122.418,115.714 
					122.418,88.522 				"/>
			</g>
			<g>
				<polygon fill="#939598" points="83.748,87.459 101.59,105.302 119.437,87.459 				"/>
				<polygon fill="#939598" points="101.646,109.898 101.59,109.843 101.536,109.898 80.448,88.812 80.448,116.016 122.72,116.015 
					122.72,88.824 				"/>
			</g>
			<g>
				<polygon fill="#939598" points="84.051,87.762 101.894,105.604 119.738,87.762 				"/>
				<polygon fill="#939598" points="101.949,110.201 101.893,110.146 101.839,110.201 80.751,89.114 80.751,116.318 
					123.022,116.317 123.022,89.127 				"/>
			</g>
			<g>
				<polygon fill="#939598" points="84.354,88.064 102.196,105.907 120.041,88.064 				"/>
				<polygon fill="#939598" points="102.252,110.505 102.195,110.448 102.142,110.505 81.054,89.417 81.054,116.621 
					123.325,116.621 123.325,89.43 				"/>
			</g>
			<g>
				<polygon fill="#939598" points="84.655,88.366 102.498,106.21 120.343,88.367 				"/>
				<polygon fill="#939598" points="102.555,110.807 102.498,110.751 102.444,110.807 81.356,89.719 81.356,116.923 
					123.627,116.923 123.627,89.732 				"/>
			</g>
			<g>
				<polygon fill="#939598" points="84.958,88.669 102.801,106.513 120.646,88.67 				"/>
				<polygon fill="#939598" points="102.856,111.109 102.801,111.053 102.746,111.109 81.658,90.021 81.658,117.226 123.93,117.225 
					123.93,90.034 				"/>
			</g>
			<g>
				<polygon fill="#939598" points="85.261,88.971 103.104,106.815 120.948,88.973 				"/>
				<polygon fill="#939598" points="103.159,111.412 103.104,111.356 103.049,111.412 81.961,90.324 81.961,117.528 
					124.232,117.528 124.232,90.337 				"/>
			</g>
			<g>
				<polygon fill="#939598" points="85.563,89.273 103.406,107.117 121.25,89.274 				"/>
				<polygon fill="#939598" points="103.462,111.715 103.405,111.658 103.352,111.715 82.264,90.626 82.264,117.83 124.534,117.83 
					124.534,90.64 				"/>
			</g>
			<g>
				<polygon fill="#939598" points="85.866,89.576 103.709,107.421 121.553,89.577 				"/>
				<polygon fill="#939598" points="103.764,112.018 103.708,111.961 103.653,112.018 82.565,90.929 82.565,118.133 
					124.837,118.133 124.837,90.942 				"/>
			</g>
			<g>
				<polygon fill="#939598" points="86.167,89.878 104.011,107.722 121.855,89.879 				"/>
			</g>
			<g>
				<polygon fill="#939598" points="86.47,90.181 104.313,108.024 122.157,90.182 				"/>
			</g>
			<g>
				<polygon fill="#939598" points="86.772,90.483 104.616,108.328 122.46,90.484 				"/>
			</g>
			<g>
				<polygon fill="#939598" points="87.074,90.786 104.917,108.63 122.763,90.787 				"/>
			</g>
		</g>
	</g>
	<g>
		<polygon fill="#EEEFEC" points="27.493,31.205 45.337,49.049 63.181,31.205 		"/>
		<polygon fill="#EEEFEC" points="45.392,53.646 45.337,53.589 45.281,53.646 24.194,32.558 24.194,59.763 66.466,59.763 
			66.466,32.571 		"/>
	</g>
	<g>
		<defs>
			<path id="SVGID_81_" d="M80.115-133.99H10.87C4.876-133.99,0-129.114,0-123.121v69.245c0,5.994,4.876,10.87,10.87,10.87h69.245
				c5.994,0,10.87-4.876,10.87-10.87v-69.245C90.984-129.114,86.108-133.99,80.115-133.99z"/>
		</defs>
		<clipPath id="SVGID_4_">
			<use xlink:href="#SVGID_81_"  overflow="visible"/>
		</clipPath>
		<g opacity="0.65" clip-path="url(#SVGID_4_)">
			<g>
			</g>
			<g>
			</g>
			<g>
			</g>
			<g>
			</g>
			<g>
			</g>
			<g>
			</g>
			<g>
			</g>
			<g>
			</g>
			<g>
			</g>
			<g>
			</g>
			<g>
			</g>
			<g>
			</g>
			<g>
			</g>
			<g>
			</g>
		</g>
	</g>
</g>
</svg>
