<?xml version="1.0" encoding="utf-8"?>
<!-- Generator: Adobe Illustrator 17.0.0, SVG Export Plug-In . SVG Version: 6.00 Build 0)  -->
<!DOCTYPE svg PUBLIC "-//W3C//DTD SVG 1.1//EN" "http://www.w3.org/Graphics/SVG/1.1/DTD/svg11.dtd">
<svg version="1.1" id="Capa_1" xmlns="http://www.w3.org/2000/svg" xmlns:xlink="http://www.w3.org/1999/xlink" x="0px" y="0px"
	 width="31.181px" height="31.181px" viewBox="0 0 31.181 31.181" enable-background="new 0 0 31.181 31.181" xml:space="preserve">
<g>
	<g>
		<g>
			<circle cx="17.478" cy="24.725" r="0.914"/>
		</g>
	</g>
	<g>
		<g>
			<path d="M30.267,5.481h-2.741V2.74c0-0.505-0.409-0.914-0.913-0.914h-3.657c-0.834-1.109-2.16-1.827-3.652-1.827
				s-2.817,0.718-3.652,1.827H0.912c-0.504,0-0.913,0.409-0.913,0.914v23.812c0,0.505,0.409,0.914,0.913,0.914h2.741v2.801
				c0,0.505,0.409,0.914,0.914,0.914h18.705c1.22,0,2.367-0.475,3.23-1.338c0.002-0.002,0.004-0.004,0.006-0.006l3.338-3.399
				c0.861-0.862,1.335-2.008,1.335-3.227V6.393C31.181,5.89,30.772,5.481,30.267,5.481z M23.781,3.653H25.7V5.48h-1.919
				c0.06-0.295,0.092-0.601,0.092-0.914C23.873,4.254,23.841,3.949,23.781,3.653z M19.305,1.826c1.511,0,2.741,1.229,2.741,2.741
				c0,1.511-1.229,2.741-2.741,2.741c-1.511,0-2.741-1.229-2.741-2.741C16.564,3.056,17.794,1.826,19.305,1.826z M3.654,6.394
				v19.245H1.827V3.648H14.83c-0.06,0.295-0.092,0.607-0.092,0.92c0,0.313,0.032,0.618,0.092,0.914H4.568
				C4.063,5.481,3.654,5.89,3.654,6.394z M28.551,25.149c-0.002,0.002-0.004,0.004-0.006,0.006l-3.338,3.398
				c-0.373,0.371-0.833,0.622-1.335,0.733V23.81h5.415C29.175,24.314,28.924,24.776,28.551,25.149z M29.354,21.985H22.96
				c-0.504,0-0.914,0.409-0.914,0.914v6.455H5.481V7.308h10.173c0.126,0.167,0.263,0.326,0.41,0.474l-1.173,1.76
				c-0.28,0.42-0.166,0.987,0.253,1.267c0.42,0.28,0.987,0.166,1.267-0.253l1.172-1.758c0.532,0.217,1.113,0.338,1.722,0.338
				c1.491,0,2.817-0.718,3.652-1.827h6.397v14.676H29.354z"/>
		</g>
	</g>
	<g>
		<g>
			<path d="M26.613,12.85H8.221c-0.504,0-0.914,0.409-0.914,0.913c0,0.505,0.409,0.914,0.914,0.914h18.392
				c0.504,0,0.913-0.409,0.913-0.914C27.527,13.259,27.118,12.85,26.613,12.85z"/>
		</g>
	</g>
	<g>
		<g>
			<path d="M26.613,16.504H8.221c-0.504,0-0.914,0.409-0.914,0.914c0,0.504,0.409,0.914,0.914,0.914h18.392
				c0.504,0,0.913-0.409,0.913-0.914C27.527,16.913,27.118,16.504,26.613,16.504z"/>
		</g>
	</g>
	<g>
		<g>
			<path d="M19.305,20.158H8.221c-0.504,0-0.914,0.409-0.914,0.914s0.409,0.914,0.914,0.914h11.084c0.504,0,0.914-0.409,0.914-0.914
				C20.218,20.567,19.809,20.158,19.305,20.158z"/>
		</g>
	</g>
	<g>
		<g>
			<path d="M13.824,23.812H8.221c-0.504,0-0.914,0.409-0.914,0.914c0,0.504,0.409,0.914,0.914,0.914h5.603
				c0.504,0,0.913-0.409,0.913-0.914C14.737,24.221,14.328,23.812,13.824,23.812z"/>
		</g>
	</g>
</g>
</svg>
