<?xml version="1.0" encoding="utf-8"?>
<!-- Generator: Adobe Illustrator 17.0.0, SVG Export Plug-In . SVG Version: 6.00 Build 0)  -->
<!DOCTYPE svg PUBLIC "-//W3C//DTD SVG 1.1//EN" "http://www.w3.org/Graphics/SVG/1.1/DTD/svg11.dtd">
<svg version="1.1" id="Capa_1" xmlns="http://www.w3.org/2000/svg" xmlns:xlink="http://www.w3.org/1999/xlink" x="0px" y="0px"
	 width="90.985px" height="90.984px" viewBox="0 0 90.985 90.984" enable-background="new 0 0 90.985 90.984" xml:space="preserve">
<g id="Background">
</g>
<path fill="#FFCC66" d="M80.115,0H10.87C4.876,0,0,4.876,0,10.869v69.245c0,5.994,4.876,10.87,10.87,10.87h69.245
	c5.994,0,10.87-4.876,10.87-10.87V10.869C90.985,4.876,86.108,0,80.115,0z"/>
<g>
	<g>
		<defs>
			<path id="SVGID_1_" d="M80.115,0H10.87C4.876,0,0,4.876,0,10.869v69.245c0,5.994,4.876,10.87,10.87,10.87h69.245
				c5.994,0,10.87-4.876,10.87-10.87V10.869C90.985,4.876,86.108,0,80.115,0z"/>
		</defs>
		<clipPath id="SVGID_2_">
			<use xlink:href="#SVGID_1_"  overflow="visible"/>
		</clipPath>
		<g opacity="0.65" clip-path="url(#SVGID_2_)">
			<g>
				<polygon fill="#939598" points="50.283,68.69 51.074,68.69 62.542,57.223 62.541,56.431 50.283,56.431 				"/>
				<path fill="#939598" d="M57.751,32.76H35.629v-3.382h22.122V32.76z M30.415,23.882v44.809h17.614V54.177h14.514l-0.001-30.295
					C62.542,23.882,30.415,23.882,30.415,23.882z M57.751,49.245H35.629v-3.381h22.122V49.245z M57.751,43.75H35.629v-3.382h22.122
					V43.75z M57.751,38.255H35.629v-3.382h22.122V38.255z"/>
			</g>
			<g>
				<polygon fill="#939598" points="50.608,69.015 51.399,69.015 62.867,57.547 62.867,56.756 50.608,56.756 				"/>
				<path fill="#939598" d="M58.076,33.084H35.954v-3.382h22.122C58.076,29.702,58.076,33.084,58.076,33.084z M30.741,24.206v44.809
					h17.613V54.501h14.514V24.206H30.741z M58.077,49.569H35.954v-3.381h22.122L58.077,49.569z M58.076,44.074H35.954v-3.381h22.122
					C58.076,40.693,58.076,44.074,58.076,44.074z M58.076,38.579H35.954v-3.382h22.122C58.076,35.197,58.076,38.579,58.076,38.579z"
					/>
			</g>
			<g>
				<polygon fill="#939598" points="50.933,69.34 51.723,69.34 63.191,57.871 63.191,57.08 50.932,57.08 				"/>
				<path fill="#939598" d="M58.4,33.408l-22.122-0.001v-3.381H58.4V33.408z M31.065,24.53v44.809h17.614V54.825h14.514V24.53
					C63.193,24.53,31.065,24.53,31.065,24.53z M58.401,49.893l-22.123,0.001v-3.382h22.123V49.893z M58.4,44.398H36.278v-3.381H58.4
					V44.398z M58.4,38.903H36.278v-3.382H58.4V38.903z"/>
			</g>
			<g>
				<polygon fill="#939598" points="51.257,69.664 52.048,69.664 63.516,58.195 63.515,57.404 51.257,57.404 				"/>
				<path fill="#939598" d="M58.724,33.732H36.603V30.35h22.122L58.724,33.732z M31.39,24.855l-0.001,44.808h17.614V55.149h14.514
					V24.855C63.517,24.855,31.39,24.855,31.39,24.855z M58.726,50.218l-22.123,0.001v-3.382h22.122L58.726,50.218z M58.725,44.723
					H36.603v-3.381h22.122V44.723z M58.725,39.228H36.603v-3.382h22.122V39.228z"/>
			</g>
			<g>
				<polygon fill="#939598" points="51.582,69.988 52.373,69.988 63.841,58.521 63.839,57.729 51.582,57.729 				"/>
				<path fill="#939598" d="M59.049,34.058H36.927v-3.383h22.121v3.383H59.049z M31.714,25.18l-0.001,44.809h17.614l-0.001-14.514
					h14.515L63.84,25.18H31.714z M59.05,50.543H36.927v-3.381h22.121L59.05,50.543z M59.049,45.048H36.927v-3.382h22.121v3.382
					H59.049z M59.049,39.553H36.927v-3.382h22.121v3.382H59.049z"/>
			</g>
			<g>
				<polygon fill="#939598" points="51.906,70.313 52.697,70.313 64.165,58.845 64.164,58.053 51.906,58.053 				"/>
				<path fill="#939598" d="M59.374,34.382l-22.122-0.001V31h22.122V34.382z M32.039,25.504l-0.001,44.809h17.614l-0.001-14.514
					h14.514l-0.001-30.295C64.164,25.504,32.039,25.504,32.039,25.504z M59.375,50.867H37.251v-3.382h22.122L59.375,50.867z
					 M59.374,45.372H37.252V41.99h22.122V45.372z M59.374,39.877H37.252v-3.382h22.122V39.877z"/>
			</g>
			<g>
				<polygon fill="#939598" points="52.231,70.637 53.021,70.637 64.489,59.169 64.489,58.378 52.23,58.378 				"/>
				<path fill="#939598" d="M59.698,34.706l-22.122-0.001v-3.381h22.122L59.698,34.706z M32.363,25.828v44.809h17.614V56.123h14.514
					V25.828C64.491,25.828,32.363,25.828,32.363,25.828z M59.699,51.191l-22.123,0.001V47.81h22.122L59.699,51.191z M59.698,45.696
					H37.576v-3.382h22.122C59.698,42.314,59.698,45.696,59.698,45.696z M59.698,40.201H37.576v-3.382h22.122
					C59.698,36.819,59.698,40.201,59.698,40.201z"/>
			</g>
			<g>
				<polygon fill="#939598" points="52.555,70.962 53.346,70.962 64.814,59.494 64.813,58.702 52.555,58.702 				"/>
				<path fill="#939598" d="M60.022,35.031L37.9,35.03v-3.382h22.122C60.022,31.648,60.022,35.031,60.022,35.031z M32.688,26.153
					l-0.001,44.808H50.3V56.447h14.514V26.153C64.814,26.153,32.688,26.153,32.688,26.153z M60.023,51.516L37.9,51.517v-3.382
					h22.122L60.023,51.516z M60.022,46.021H37.9V42.64h22.122C60.022,42.64,60.022,46.021,60.022,46.021z M60.022,40.525H37.9
					v-3.382h22.122C60.022,37.143,60.022,40.525,60.022,40.525z"/>
			</g>
			<g>
				<polygon fill="#939598" points="52.879,71.286 53.67,71.286 65.139,59.818 65.138,59.026 52.879,59.026 				"/>
				<path fill="#939598" d="M60.347,35.354H38.225v-3.382h22.122V35.354z M33.012,26.477l-0.001,44.809l17.614-0.001l-0.001-14.513
					h14.514l-0.001-30.295C65.137,26.477,33.012,26.477,33.012,26.477z M60.348,51.841H38.225v-3.382h22.123V51.841z M60.347,46.346
					H38.225v-3.382h22.122V46.346z M60.347,40.85H38.225v-3.381h22.122V40.85z"/>
			</g>
			<g>
				<polygon fill="#939598" points="53.205,71.61 53.995,71.61 65.463,60.143 65.462,59.351 53.204,59.351 				"/>
				<path fill="#939598" d="M60.671,35.68L38.55,35.679v-3.381h22.122L60.671,35.68z M33.336,26.802L33.335,71.61l17.614-0.001
					l-0.001-14.513h14.514l-0.001-30.295L33.336,26.802L33.336,26.802z M60.672,52.165H38.549l0.001-3.381h22.122L60.672,52.165z
					 M60.672,46.67H38.55v-3.382h22.122C60.672,43.288,60.672,46.67,60.672,46.67z M60.672,41.175H38.55v-3.382h22.122
					C60.672,37.793,60.672,41.175,60.672,41.175z"/>
			</g>
			<g>
				<polygon fill="#939598" points="53.529,71.935 54.319,71.935 65.787,60.467 65.787,59.676 53.528,59.676 				"/>
				<path fill="#939598" d="M60.996,36.004H38.874v-3.382h22.122L60.996,36.004z M33.661,27.126L33.66,71.935h17.614V57.421h14.514
					l-0.001-30.295C65.787,27.126,33.661,27.126,33.661,27.126z M60.997,52.489H38.874v-3.381h22.122L60.997,52.489z M60.996,46.994
					H38.874v-3.382h22.122C60.996,43.612,60.996,46.994,60.996,46.994z M60.996,41.499H38.874v-3.382h22.122
					C60.996,38.117,60.996,41.499,60.996,41.499z"/>
			</g>
			<g>
				<polygon fill="#939598" points="53.853,72.26 54.644,72.26 66.112,60.791 66.111,60 53.853,60 				"/>
				<path fill="#939598" d="M61.32,36.328H39.199v-3.382h22.122L61.32,36.328z M33.985,27.451V72.26l17.614-0.001V57.746h14.514
					l-0.001-30.295C66.112,27.451,33.985,27.451,33.985,27.451z M61.321,52.814H39.198v-3.382H61.32L61.321,52.814z M61.321,47.319
					H39.199v-3.382h22.122V47.319z M61.321,41.823H39.199v-3.381h22.122V41.823z"/>
			</g>
			<g>
				<polygon fill="#939598" points="54.178,72.584 54.968,72.584 66.436,61.116 66.436,60.324 54.177,60.325 				"/>
				<path fill="#939598" d="M61.644,36.653l-22.121-0.001V33.27h22.123L61.644,36.653z M34.31,27.775l-0.001,44.809h17.614V58.07
					h14.513V27.775H34.31z M61.646,53.139H39.522v-3.382h22.123v3.382H61.646z M61.646,47.643H39.523v-3.382h22.123
					C61.646,44.261,61.646,47.643,61.646,47.643z M61.646,42.147H39.523v-3.381h22.123C61.646,38.766,61.646,42.147,61.646,42.147z"
					/>
			</g>
			<g>
				<polygon fill="#939598" points="54.502,72.908 55.293,72.908 66.761,61.44 66.76,60.648 54.501,60.649 				"/>
				<path fill="#939598" d="M61.969,36.978l-22.122-0.001v-3.382H61.97L61.969,36.978z M34.635,28.1l-0.001,44.809h17.614
					l-0.001-14.514h14.514V28.1C66.761,28.1,34.635,28.1,34.635,28.1z M61.97,53.463H39.847v-3.381H61.97V53.463z M61.97,47.968
					H39.847v-3.382H61.97V47.968z M61.97,42.473H39.847v-3.382H61.97V42.473z"/>
			</g>
			<g>
				<polygon fill="#939598" points="54.827,73.233 55.617,73.233 67.085,61.766 67.084,60.974 54.826,60.974 				"/>
				<path fill="#939598" d="M62.293,37.302H40.172V33.92h22.122L62.293,37.302z M34.959,28.425l-0.001,44.809l17.614-0.001V58.72
					h14.514l-0.001-30.295C67.085,28.425,34.959,28.425,34.959,28.425z M62.295,53.788H40.172v-3.382h22.123V53.788z M62.294,48.293
					H40.172v-3.382h22.122V48.293z M62.294,42.797H40.172v-3.381h22.122V42.797z"/>
			</g>
			<g>
				<polygon fill="#939598" points="55.15,73.558 55.941,73.558 67.41,62.089 67.409,61.298 55.15,61.298 				"/>
				<path fill="#939598" d="M62.618,37.627l-22.122-0.001v-3.382h22.123L62.618,37.627z M35.283,28.749v44.809h17.613V59.044h14.513
					V28.749H35.283z M62.619,54.112H40.496V50.73h22.123C62.619,50.73,62.619,54.112,62.619,54.112z M62.619,48.617H40.496v-3.382
					h22.123C62.619,45.235,62.619,48.617,62.619,48.617z M62.619,43.121H40.496V39.74h22.123
					C62.619,39.74,62.619,43.121,62.619,43.121z"/>
			</g>
			<g>
				<polygon fill="#939598" points="55.476,73.882 56.266,73.882 67.734,62.414 67.733,61.622 55.475,61.623 				"/>
				<path fill="#939598" d="M62.943,37.951L40.821,37.95v-3.382h22.122V37.951z M35.608,29.073l-0.001,44.809h17.614L53.22,59.368
					h14.514V29.073H35.608z M62.943,54.436H40.821v-3.382h22.122V54.436z M62.943,48.941H40.821v-3.382h22.122V48.941z
					 M62.943,43.445H40.821v-3.381h22.122V43.445z"/>
			</g>
			<g>
				<polygon fill="#939598" points="55.8,74.207 56.59,74.207 68.059,62.739 68.058,61.947 55.799,61.947 				"/>
				<path fill="#939598" d="M63.267,38.275H41.146v-3.382h22.122L63.267,38.275z M35.933,29.397l-0.001,44.81l17.614-0.001V59.693
					H68.06l-0.001-30.296C68.059,29.397,35.933,29.397,35.933,29.397z M63.268,54.762H41.145V51.38h22.123
					C63.268,51.38,63.268,54.762,63.268,54.762z M63.268,49.267H41.146v-3.382h22.122C63.268,45.885,63.268,49.267,63.268,49.267z
					 M63.268,43.771H41.146V40.39h22.122C63.268,40.39,63.268,43.771,63.268,43.771z"/>
			</g>
			<g>
				<polygon fill="#939598" points="56.125,74.531 56.915,74.531 68.383,63.063 68.382,62.271 56.124,62.271 				"/>
				<path fill="#939598" d="M63.592,38.6L41.47,38.599v-3.381h22.122C63.592,35.218,63.592,38.6,63.592,38.6z M36.257,29.723
					L36.256,74.53H53.87l0-14.513h14.514l-0.001-30.294C68.383,29.723,36.257,29.723,36.257,29.723z M63.593,55.085H41.47v-3.381
					h22.122L63.593,55.085z M63.592,49.59H41.47v-3.381h22.122C63.592,46.209,63.592,49.59,63.592,49.59z M63.592,44.095H41.47
					v-3.382h22.122C63.592,40.713,63.592,44.095,63.592,44.095z"/>
			</g>
			<g>
				<polygon fill="#939598" points="56.449,74.855 57.24,74.855 68.707,63.387 68.707,62.596 56.448,62.596 				"/>
				<path fill="#939598" d="M63.916,38.925l-22.121-0.001v-3.382h22.122L63.916,38.925z M36.581,30.047v44.808h17.614V60.342h14.514
					V30.047C68.709,30.047,36.581,30.047,36.581,30.047z M63.917,55.409L41.794,55.41v-3.382h22.122L63.917,55.409z M63.917,49.915
					H41.794v-3.382h22.122L63.917,49.915L63.917,49.915z M63.917,44.419H41.794v-3.382h22.122L63.917,44.419L63.917,44.419z"/>
			</g>
			<g>
				<polygon fill="#939598" points="56.773,75.18 57.564,75.18 69.032,63.712 69.031,62.921 56.773,62.921 				"/>
				<path fill="#939598" d="M64.241,39.249H42.119v-3.382h22.122V39.249z M36.906,30.371V75.18h17.613l-0.001-14.514h14.514
					l-0.001-30.295H36.906z M64.242,55.734H42.119v-3.381h22.122L64.242,55.734z M64.241,50.239H42.119v-3.381h22.122V50.239z
					 M64.241,44.744H42.119v-3.382h22.122V44.744z"/>
			</g>
			<g>
				<polygon fill="#939598" points="57.098,75.505 57.888,75.505 69.356,64.036 69.356,63.245 57.097,63.245 				"/>
				<path fill="#939598" d="M64.565,39.573l-22.123-0.001v-3.381h22.122L64.565,39.573L64.565,39.573z M37.23,30.695v44.809h17.614
					V60.99h14.513V30.695H37.23z M64.566,56.059H42.442l0.001-3.382h22.122L64.566,56.059z M64.565,50.563H42.443v-3.381h22.122
					V50.563z M64.565,45.067H42.443v-3.381h22.122V45.067z"/>
			</g>
			<g>
				<polygon fill="#939598" points="57.422,75.829 58.213,75.829 69.681,64.36 69.68,63.569 57.422,63.569 				"/>
				<path fill="#939598" d="M64.89,39.897H42.768v-3.382H64.89V39.897z M37.555,31.02l-0.001,44.808h17.614V61.314h14.514V31.02
					C69.682,31.02,37.555,31.02,37.555,31.02z M64.891,56.383l-22.123,0.001v-3.382H64.89L64.891,56.383z M64.89,50.888H42.768
					v-3.381H64.89V50.888z M64.89,45.393H42.768v-3.382H64.89V45.393z"/>
			</g>
			<g>
				<polygon fill="#939598" points="57.747,76.153 58.538,76.153 70.005,64.686 70.004,63.893 57.746,63.894 				"/>
				<path fill="#939598" d="M65.214,40.223H43.092V36.84h22.122V40.223z M37.879,31.345l-0.001,44.809h17.614V61.64h14.514
					l-0.001-30.295H37.879z M65.215,56.708H43.092v-3.381h22.123V56.708z M65.214,51.213H43.092v-3.381h22.122V51.213z
					 M65.214,45.718H43.092v-3.382h22.122V45.718z"/>
			</g>
			<g>
				<polygon fill="#939598" points="58.071,76.478 58.862,76.478 70.33,65.009 70.329,64.218 58.071,64.219 				"/>
				<path fill="#939598" d="M65.539,40.547l-22.122-0.001v-3.381h22.122V40.547z M38.204,31.669l-0.001,44.809h17.614l-0.001-14.514
					H70.33V31.669C70.33,31.669,38.204,31.669,38.204,31.669z M65.54,57.032H43.417V53.65h22.122L65.54,57.032z M65.539,51.537
					H43.417v-3.382h22.122V51.537z M65.539,46.041H43.417V42.66h22.122V46.041z"/>
			</g>
			<g>
				<polygon fill="#939598" points="58.396,76.802 59.186,76.802 70.654,65.334 70.654,64.543 58.395,64.543 				"/>
				<path fill="#939598" d="M65.863,40.871L43.741,40.87v-3.381h22.122V40.871z M38.528,31.994v44.808h17.613V62.288l14.513,0.001
					V31.993L38.528,31.994z M65.864,57.356H43.741v-3.381h22.122L65.864,57.356z M65.863,51.861H43.741v-3.382h22.122V51.861z
					 M65.863,46.366H43.741v-3.382h22.122V46.366z"/>
			</g>
			<g>
				<polygon fill="#939598" points="58.72,77.127 59.511,77.127 70.979,65.658 70.978,64.867 58.719,64.867 				"/>
				<path fill="#939598" d="M66.188,41.195H44.066v-3.382h22.122V41.195z M38.853,32.317v44.809h17.613V62.612H70.98V32.317H38.853z
					 M66.188,57.681l-22.123,0.001V54.3h22.123V57.681z M66.188,52.187H44.066v-3.382h22.122V52.187z M66.188,46.69H44.066v-3.382
					h22.122V46.69z"/>
			</g>
			<g>
				<polygon fill="#939598" points="59.044,77.451 59.835,77.451 71.303,65.982 71.303,65.191 59.044,65.191 				"/>
				<path fill="#939598" d="M66.512,41.52H44.39v-3.382h22.122V41.52z M39.177,32.643l-0.001,44.808L56.79,77.45V62.937
					l14.514-0.001V32.642H39.177V32.643z M66.513,58.006H44.39v-3.382h22.122L66.513,58.006z M66.513,52.51H44.39v-3.381h22.122
					L66.513,52.51z M66.513,47.015H44.39v-3.381h22.122L66.513,47.015z"/>
			</g>
			<g>
				<polygon fill="#939598" points="59.369,77.775 60.16,77.775 71.628,66.308 71.627,65.517 59.369,65.517 				"/>
				<path fill="#939598" d="M66.836,41.845l-22.121-0.001v-3.381h22.122L66.836,41.845z M39.501,32.968v44.808h17.613V63.262h14.514
					V32.967L39.501,32.968z M66.837,58.33H44.714v-3.381h22.122L66.837,58.33z M66.837,52.835H44.715v-3.382h22.122V52.835z
					 M66.837,47.34H44.715v-3.382h22.122V47.34z"/>
			</g>
			<g>
				<polygon fill="#939598" points="59.694,78.1 60.484,78.1 71.952,66.632 71.952,65.841 59.693,65.841 				"/>
				<path fill="#939598" d="M67.161,42.169H45.039v-3.382h22.122V42.169z M39.826,33.291L39.825,78.1h17.614V63.586h14.514V33.291
					H39.826z M67.162,58.654H45.039v-3.381h22.122L67.162,58.654z M67.161,53.159H45.039v-3.382h22.122V53.159z M67.161,47.664
					H45.039v-3.382h22.122V47.664z"/>
			</g>
			<g>
				<polygon fill="#939598" points="60.018,78.425 60.809,78.425 72.276,66.956 72.276,66.165 60.018,66.165 				"/>
				<path fill="#939598" d="M67.486,42.493l-22.123-0.001v-3.381h22.122L67.486,42.493L67.486,42.493z M40.15,33.616v44.809
					l17.613-0.001V63.911l14.513-0.001V33.616H40.15z M67.486,58.979H45.363v-3.382h22.122L67.486,58.979z M67.486,53.483H45.363
					v-3.381h22.122L67.486,53.483L67.486,53.483z M67.486,47.988H45.363v-3.381h22.122L67.486,47.988L67.486,47.988z"/>
			</g>
			<g>
				<polygon fill="#939598" points="60.342,78.749 61.133,78.749 72.601,67.281 72.601,66.49 60.342,66.49 				"/>
				<path fill="#939598" d="M67.809,42.818l-22.121-0.001v-3.382H67.81L67.809,42.818z M40.475,33.94l-0.001,44.809h17.613V64.235
					h14.514V33.94H40.475z M67.811,59.304H45.688v-3.382H67.81L67.811,59.304z M67.81,53.809H45.688v-3.382H67.81V53.809z
					 M67.81,48.313H45.688v-3.381H67.81V48.313z"/>
			</g>
			<g>
				<polygon fill="#939598" points="60.667,79.073 61.458,79.073 72.926,67.605 72.925,66.813 60.667,66.814 				"/>
				<path fill="#939598" d="M68.134,43.143l-22.122-0.001V39.76h22.123L68.134,43.143z M40.8,34.265l-0.001,44.809h17.614V64.56
					h14.514V34.265H40.8z M68.135,59.628H46.012v-3.381h22.123V59.628z M68.135,54.133H46.012v-3.382h22.123V54.133z M68.135,48.638
					H46.012v-3.382h22.123V48.638z"/>
			</g>
			<g>
				<polygon fill="#939598" points="60.992,79.398 61.782,79.398 73.25,67.93 73.249,67.139 60.991,67.139 				"/>
				<path fill="#939598" d="M68.459,43.467H46.337v-3.382h22.122V43.467z M41.124,34.59l-0.001,44.809l17.614-0.001V64.885
					l14.514-0.001L73.249,34.59H41.124z M68.46,59.953H46.337v-3.382h22.122L68.46,59.953z M68.459,54.457H46.337v-3.381h22.122
					V54.457z M68.459,48.962H46.337v-3.381h22.122V48.962z"/>
			</g>
			<g>
				<polygon fill="#939598" points="61.316,79.723 62.106,79.723 73.574,68.254 73.574,67.463 61.315,67.463 				"/>
				<path fill="#939598" d="M68.783,43.791H46.662v-3.382h22.122L68.783,43.791z M41.448,34.914v44.809l17.613-0.001V65.209h14.514
					V34.914H41.448z M68.784,60.277H46.661l0.001-3.382h22.122V60.277z M68.783,54.782H46.662V51.4h22.122L68.783,54.782
					L68.783,54.782z M68.783,49.286H46.662v-3.381h22.122L68.783,49.286L68.783,49.286z"/>
			</g>
			<g>
				<polygon fill="#939598" points="61.641,80.047 62.431,80.047 73.899,68.579 73.898,67.787 61.64,67.788 				"/>
				<path fill="#939598" d="M69.107,44.116l-22.122-0.001v-3.382h22.122V44.116z M41.772,35.238v44.808h17.613V65.533h14.514V35.238
					H41.772z M69.108,60.601H46.985V57.22h22.123V60.601z M69.108,55.106H46.986v-3.382h22.122V55.106z M69.108,49.61H46.986v-3.381
					h22.122V49.61z"/>
			</g>
			<g>
				<polygon fill="#939598" points="61.965,80.372 62.755,80.372 74.224,68.903 74.223,68.112 61.964,68.112 				"/>
				<path fill="#939598" d="M69.432,44.44H47.311v-3.382h22.122L69.432,44.44z M42.097,35.563v44.81l17.614-0.001V65.859h14.514
					V35.563C74.225,35.563,42.097,35.563,42.097,35.563z M69.433,60.927H47.31v-3.382h22.123V60.927z M69.433,55.432H47.311V52.05
					h22.122V55.432z M69.433,49.935H47.311v-3.381h22.122V49.935z"/>
			</g>
			<g>
				<polygon fill="#939598" points="62.29,80.696 63.08,80.696 74.548,69.228 74.547,68.437 62.289,68.437 				"/>
				<path fill="#939598" d="M69.757,44.765l-22.122-0.001v-3.381h22.122V44.765z M42.422,35.888l-0.001,44.808h17.614l-0.001-14.514
					h14.514V35.888H42.422z M69.758,61.25H47.634v-3.381h22.122L69.758,61.25z M69.757,55.755H47.635v-3.381h22.122L69.757,55.755z
					 M69.757,50.26H47.635v-3.382h22.122L69.757,50.26z"/>
			</g>
			<g>
				<polygon fill="#939598" points="62.614,81.021 63.405,81.021 74.873,69.552 74.872,68.761 62.613,68.761 				"/>
				<path fill="#939598" d="M70.081,45.09L47.96,45.089v-3.382h22.122L70.081,45.09z M42.746,36.212L42.745,81.02h17.614V66.507
					h14.514V36.212C74.873,36.212,42.746,36.212,42.746,36.212z M70.082,61.574l-22.123,0.001v-3.382h22.123V61.574z M70.082,56.079
					H47.959v-3.381h22.122L70.082,56.079L70.082,56.079z M70.082,50.584H47.959v-3.382h22.122L70.082,50.584L70.082,50.584z"/>
			</g>
			<g>
				<polygon fill="#939598" points="62.938,81.345 63.729,81.345 75.197,69.877 75.196,69.085 62.938,69.086 				"/>
				<path fill="#939598" d="M70.406,45.414H48.284v-3.382h22.122V45.414z M43.071,36.536L43.07,81.345h17.614V66.831h14.514
					l-0.001-30.295C75.197,36.536,43.071,36.536,43.071,36.536z M70.407,61.899H48.284v-3.381h22.123V61.899z M70.406,56.404H48.284
					v-3.381h22.122V56.404z M70.406,50.909H48.284v-3.382h22.122V50.909z"/>
			</g>
			<g>
				<polygon fill="#939598" points="63.263,81.67 64.053,81.67 75.521,70.201 75.521,69.41 63.262,69.41 				"/>
				<path fill="#939598" d="M70.73,45.738l-22.123-0.001v-3.381H70.73V45.738z M43.395,36.86v44.809h17.614V67.155h14.513V36.86
					H43.395z M70.731,62.224H48.607l0.001-3.382H70.73L70.731,62.224z M70.73,56.729H48.608v-3.382H70.73V56.729z M70.73,51.232
					H48.608v-3.381H70.73V51.232z"/>
			</g>
			<g>
				<polygon fill="#939598" points="63.587,81.994 64.378,81.994 75.846,70.525 75.845,69.734 63.587,69.734 				"/>
				<path fill="#939598" d="M71.054,46.063H48.933v-3.382h22.123L71.054,46.063z M43.72,37.185l-0.001,44.808h17.614V67.479
					l14.514,0.001V37.185C75.847,37.185,43.72,37.185,43.72,37.185z M71.055,62.548l-22.123,0.001v-3.382h22.123V62.548z
					 M71.055,57.053H48.933v-3.381h22.123L71.055,57.053L71.055,57.053z M71.055,51.558H48.933v-3.382h22.123L71.055,51.558
					L71.055,51.558z"/>
			</g>
			<g>
				<polygon fill="#939598" points="63.912,82.318 64.703,82.318 76.171,70.851 76.169,70.059 63.912,70.06 				"/>
				<path fill="#939598" d="M71.379,46.388l-22.122-0.001v-3.382h22.122V46.388z M44.044,37.51l-0.001,44.809h17.614l-0.001-14.514
					h14.515L76.17,37.51H44.044z M71.38,62.873H49.257v-3.381H71.38V62.873z M71.379,57.378H49.257v-3.382h22.122V57.378z
					 M71.379,51.883H49.257v-3.382h22.122V51.883z"/>
			</g>
			<g>
				<polygon fill="#939598" points="64.236,82.643 65.027,82.643 76.495,71.174 76.494,70.383 64.236,70.383 				"/>
				<path fill="#939598" d="M71.704,46.712l-22.122-0.001V43.33h22.122V46.712z M44.369,37.834l-0.001,44.809h17.614l-0.001-14.514
					h14.514V37.834H44.369z M71.705,63.197H49.581l0.001-3.382h22.122L71.705,63.197z M71.704,57.702H49.582V54.32h22.122V57.702z
					 M71.704,52.206H49.582v-3.381h22.122V52.206z"/>
			</g>
			<g>
				<polygon fill="#939598" points="64.561,82.967 65.351,82.967 76.819,71.499 76.819,70.708 64.56,70.708 				"/>
				<path fill="#939598" d="M72.028,47.036l-22.122-0.001v-3.381h22.122V47.036z M44.693,38.159v44.808h17.613V68.453l14.513,0.001
					V38.158L44.693,38.159z M72.029,63.521H49.906V60.14h22.122L72.029,63.521z M72.028,58.026H49.906v-3.382h22.122V58.026z
					 M72.028,52.531H49.906v-3.382h22.122V52.531z"/>
			</g>
			<g>
				<polygon fill="#939598" points="64.885,83.292 65.676,83.292 77.144,71.824 77.143,71.032 64.885,71.032 				"/>
				<path fill="#939598" d="M72.353,47.36H50.23v-3.382h22.122L72.353,47.36L72.353,47.36z M45.018,38.482l-0.001,44.809H62.63
					V68.777h14.514V38.482C77.144,38.482,45.018,38.482,45.018,38.482z M72.353,63.846L50.23,63.847v-3.382h22.122L72.353,63.846
					L72.353,63.846z M72.353,58.351H50.23V54.97h22.122L72.353,58.351L72.353,58.351z M72.353,52.855H50.23v-3.382h22.122
					L72.353,52.855L72.353,52.855z"/>
			</g>
			<g>
				<polygon fill="#939598" points="65.209,83.616 66,83.616 77.468,72.147 77.468,71.356 65.209,71.356 				"/>
				<path fill="#939598" d="M72.677,47.684H50.555v-3.382h22.122V47.684z M45.342,38.808l-0.001,44.809l17.614-0.001V69.103
					l14.514-0.001l-0.001-30.294H45.342z M72.678,64.171H50.555v-3.382h22.122L72.678,64.171z M72.678,58.675H50.555v-3.381h22.122
					L72.678,58.675z M72.678,53.18H50.555v-3.381h22.122L72.678,53.18z"/>
			</g>
			<g>
				<polygon fill="#939598" points="65.534,83.94 66.325,83.94 77.793,72.473 77.792,71.682 65.534,71.682 				"/>
				<path fill="#939598" d="M73.001,48.01l-22.122-0.001v-3.381h22.123L73.001,48.01z M45.667,39.133v44.808H63.28V69.427h14.513
					V39.132L45.667,39.133z M73.002,64.495H50.879v-3.382h22.123V64.495z M73.002,59H50.879v-3.382h22.123V59z M73.002,53.505
					H50.879v-3.382h22.123V53.505z"/>
			</g>
			<g>
				<polygon fill="#939598" points="65.859,84.265 66.649,84.265 78.117,72.797 78.116,72.005 65.858,72.006 				"/>
				<path fill="#939598" d="M73.326,48.334l-22.122-0.001v-3.381h22.122V48.334z M45.991,39.457v44.808h17.613V69.751h14.514V39.456
					L45.991,39.457z M73.327,64.819H51.204v-3.381h22.123C73.327,61.438,73.327,64.819,73.327,64.819z M73.326,59.324H51.204v-3.382
					h22.122V59.324z M73.326,53.829H51.204v-3.382h22.122V53.829z"/>
			</g>
			<g>
				<polygon fill="#939598" points="66.183,84.59 66.974,84.59 78.441,73.121 78.441,72.33 66.183,72.33 				"/>
				<path fill="#939598" d="M73.65,48.659l-22.122-0.001v-3.381H73.65V48.659z M46.315,39.781V84.59h17.614l-0.001-14.514h14.514
					l-0.001-30.295H46.315z M73.651,65.145H51.528v-3.382H73.65L73.651,65.145z M73.651,59.649H51.528v-3.382H73.65L73.651,59.649z
					 M73.651,54.153H51.528v-3.381H73.65L73.651,54.153z"/>
			</g>
			<g>
				<polygon fill="#939598" points="66.507,84.914 67.298,84.914 78.766,73.446 78.766,72.655 66.507,72.655 				"/>
				<path fill="#939598" d="M73.975,48.983l-22.122-0.001V45.6h22.122V48.983z M46.64,40.105v44.809h17.613L64.252,70.4h14.514
					V40.105H46.64z M73.975,65.469H51.853v-3.382h22.122V65.469z M73.975,59.974H51.853v-3.382h22.122V59.974z M73.975,54.477
					H51.853v-3.381h22.122V54.477z"/>
			</g>
			<g>
				<polygon fill="#939598" points="66.832,85.238 67.623,85.238 79.091,73.771 79.09,72.979 66.832,72.979 				"/>
				<path fill="#939598" d="M74.299,49.308l-22.122-0.001v-3.382H74.3L74.299,49.308z M46.964,40.43l-0.001,44.809h17.614V70.725
					h14.514V40.43H46.964z M74.3,65.793H52.177v-3.381H74.3V65.793z M74.3,60.298H52.177v-3.382H74.3V60.298z M74.3,54.803H52.177
					v-3.382H74.3V54.803z"/>
			</g>
			<g>
				<polygon fill="#939598" points="67.157,85.563 67.947,85.563 79.415,74.095 79.414,73.304 67.156,73.304 				"/>
				<path fill="#939598" d="M74.624,49.632H52.502V46.25h22.122V49.632z M47.289,40.755l-0.001,44.809l17.614-0.001L64.901,71.05
					l14.514-0.001l-0.001-30.294C79.414,40.755,47.289,40.755,47.289,40.755z M74.625,66.118H52.502v-3.382h22.122L74.625,66.118z
					 M74.624,60.622H52.502v-3.381h22.122V60.622z M74.624,55.127H52.502v-3.381h22.122V55.127z"/>
			</g>
			<g>
				<polygon fill="#939598" points="67.481,85.888 68.271,85.888 79.74,74.419 79.739,73.628 67.48,73.628 				"/>
				<path fill="#939598" d="M74.949,49.956l-22.123-0.001l0.001-3.381h22.122V49.956z M47.614,41.079l-0.001,44.808h17.614
					l-0.001-14.513l14.514-0.001l-0.001-30.294C79.739,41.079,47.614,41.079,47.614,41.079z M74.95,66.441H52.826v-3.382h22.123
					L74.95,66.441z M74.949,60.947H52.826l0.001-3.382h22.122V60.947z M74.949,55.451H52.826l0.001-3.382h22.122V55.451z"/>
			</g>
			<g>
				<polygon fill="#939598" points="67.806,86.212 68.596,86.212 80.064,74.744 80.063,73.952 67.805,73.953 				"/>
				<path fill="#939598" d="M75.273,50.281L53.151,50.28v-3.382h22.122V50.281z M47.938,41.403v44.809H65.55V71.698h14.513V41.403
					H47.938z M75.273,66.767H53.151v-3.382h22.123L75.273,66.767L75.273,66.767z M75.273,61.271H53.151V57.89h22.122V61.271z
					 M75.273,55.775H53.151v-3.381h22.122V55.775z"/>
			</g>
			<g>
				<polygon fill="#939598" points="68.13,86.537 68.92,86.537 80.389,75.068 80.388,74.277 68.129,74.277 				"/>
				<path fill="#939598" d="M75.598,50.605l-22.123-0.001v-3.381h22.122L75.598,50.605L75.598,50.605z M48.262,41.727v44.81
					l17.614-0.001V72.023l14.514-0.001l-0.001-30.295C80.389,41.727,48.262,41.727,48.262,41.727z M75.598,67.092H53.475v-3.383
					h22.122L75.598,67.092z M75.598,61.596H53.475v-3.381h22.122L75.598,61.596z M75.598,56.101H53.475V52.72h22.122L75.598,56.101z
					"/>
			</g>
			<g>
				<polygon fill="#939598" points="68.454,86.861 69.245,86.861 80.713,75.393 80.712,74.602 68.454,74.602 				"/>
				<path fill="#939598" d="M75.922,50.93L53.8,50.929v-3.381h22.123L75.922,50.93z M48.587,42.053L48.586,86.86H66.2l-0.001-14.514
					h14.514l-0.001-30.294L48.587,42.053L48.587,42.053z M75.923,67.415H53.799v-3.382h22.123L75.923,67.415z M75.922,61.92H53.8
					v-3.381h22.123L75.922,61.92L75.922,61.92z M75.922,56.425H53.8v-3.382h22.123L75.922,56.425L75.922,56.425z"/>
			</g>
			<g>
				<polygon fill="#939598" points="68.779,87.186 69.57,87.186 81.038,75.717 81.037,74.926 68.778,74.926 				"/>
				<path fill="#939598" d="M76.246,51.255l-22.122-0.001v-3.382h22.122V51.255z M48.911,42.377v44.809l17.613-0.001V72.671
					l14.513,0.001V42.377H48.911z M76.247,67.739L54.125,67.74v-3.382h22.123L76.247,67.739L76.247,67.739z M76.247,62.245H54.125
					v-3.382h22.122V62.245z M76.247,56.749H54.125v-3.382h22.122V56.749z"/>
			</g>
			<g>
				<polygon fill="#939598" points="69.104,87.51 69.894,87.51 81.362,76.042 81.361,75.251 69.103,75.251 				"/>
				<path fill="#939598" d="M76.571,51.579l-22.122-0.001v-3.381h22.122V51.579z M49.235,42.702V87.51h17.613V72.996h14.513V42.701
					L49.235,42.702z M76.572,68.064H54.449v-3.382h22.122L76.572,68.064z M76.571,62.569H54.449v-3.381h22.122V62.569z
					 M76.571,57.074H54.449v-3.382h22.122V57.074z"/>
			</g>
			<g>
				<polygon fill="#939598" points="69.428,87.834 70.218,87.834 81.686,76.366 81.686,75.575 69.427,75.575 				"/>
				<path fill="#939598" d="M76.896,51.903l-22.123-0.001v-3.381h22.122L76.896,51.903L76.896,51.903z M49.56,43.025v44.809h17.614
					L67.173,73.32h14.513V43.025H49.56z M76.896,68.389H54.772v-3.382h22.123L76.896,68.389z M76.896,62.893H54.773v-3.382h22.122
					v3.382H76.896z M76.896,57.397H54.773v-3.381h22.122v3.381H76.896z"/>
			</g>
			<g>
				<polygon fill="#939598" points="69.752,88.159 70.543,88.159 82.011,76.69 82.011,75.899 69.751,75.899 				"/>
				<path fill="#939598" d="M77.219,52.227H55.098v-3.382H77.22L77.219,52.227z M49.885,43.351V88.16l17.613-0.001V73.645
					l14.514,0.001V43.35L49.885,43.351z M77.22,68.713l-22.123,0.001v-3.382H77.22V68.713z M77.22,63.218H55.098v-3.381H77.22
					V63.218z M77.22,57.723H55.098v-3.382H77.22V57.723z"/>
			</g>
			<g>
				<polygon fill="#939598" points="70.077,88.483 70.868,88.483 82.335,77.015 82.334,76.224 70.076,76.224 				"/>
				<path fill="#939598" d="M77.544,52.552H55.422V49.17h22.122V52.552z M50.209,43.675v44.809h17.613V73.97h14.513V43.675H50.209z
					 M77.545,69.038H55.422v-3.382h22.122L77.545,69.038z M77.545,63.542H55.422v-3.381h22.122L77.545,63.542z M77.545,58.047
					H55.422v-3.381h22.122L77.545,58.047z"/>
			</g>
			<g>
				<polygon fill="#939598" points="70.401,88.808 71.192,88.808 82.66,77.339 82.659,76.548 70.401,76.548 				"/>
				<path fill="#939598" d="M77.869,52.877l-22.122-0.001v-3.381h22.122V52.877z M50.534,43.999l-0.001,44.809l17.614-0.001
					l-0.001-14.513H82.66l-0.001-30.295H50.534z M77.87,69.362H55.746l0.001-3.382h22.122L77.87,69.362z M77.869,63.867H55.747
					v-3.382h22.122V63.867z M77.869,58.371H55.747V54.99h22.122V58.371z"/>
			</g>
			<g>
				<polygon fill="#939598" points="70.726,89.132 71.517,89.132 82.984,77.664 82.984,76.873 70.725,76.873 				"/>
				<path fill="#939598" d="M78.193,53.201L56.071,53.2v-3.381h22.122V53.201z M50.858,44.324v44.808h17.613L68.47,74.618h14.514
					V44.323L50.858,44.324z M78.194,69.687H56.071v-3.381h22.123V69.687z M78.193,64.191H56.071v-3.382h22.122V64.191z
					 M78.193,58.696H56.071v-3.382h22.122V58.696z"/>
			</g>
			<g>
				<polygon fill="#939598" points="71.05,89.457 71.841,89.457 83.309,77.988 83.308,77.197 71.049,77.197 				"/>
				<path fill="#939598" d="M78.518,53.525l-22.122-0.001v-3.381h22.123L78.518,53.525z M51.182,44.648v44.808h17.613V74.942h14.513
					V44.647L51.182,44.648z M78.519,70.011l-22.123,0.001V66.63h22.123V70.011z M78.518,64.516H56.396v-3.381h22.123L78.518,64.516
					L78.518,64.516z M78.518,59.021H56.396v-3.382h22.123L78.518,59.021L78.518,59.021z"/>
			</g>
			<g>
				<polygon fill="#939598" points="71.374,89.781 72.165,89.781 83.633,78.313 83.633,77.522 71.374,77.522 				"/>
				<path fill="#939598" d="M78.842,53.851L56.72,53.85v-3.381h22.123L78.842,53.851z M51.507,44.973l-0.001,44.809H69.12V75.268
					h14.514l-0.001-30.295H51.507z M78.843,70.336H56.72v-3.382h22.123V70.336z M78.843,64.841H56.72v-3.382h22.123V64.841z
					 M78.843,59.345H56.72v-3.381h22.123V59.345z"/>
			</g>
			<g>
				<polygon fill="#939598" points="71.699,90.105 72.49,90.105 83.958,78.638 83.957,77.847 71.699,77.847 				"/>
				<path fill="#939598" d="M79.166,54.175l-22.122-0.001v-3.382h22.123L79.166,54.175z M51.832,45.297v44.809h17.613V75.592h14.514
					V45.297H51.832z M79.167,70.66H57.044v-3.382h22.123V70.66z M79.167,65.165H57.044v-3.382h22.123V65.165z M79.167,59.67H57.044
					v-3.382h22.123V59.67z"/>
			</g>
			<g>
				<polygon fill="#939598" points="72.024,90.43 72.814,90.43 84.282,78.962 84.282,78.171 72.023,78.171 				"/>
				<path fill="#939598" d="M79.491,54.499l-22.122-0.001v-3.381h22.122V54.499z M52.156,45.622V90.43h17.613V75.916h14.514V45.621
					L52.156,45.622z M79.492,70.984H57.369v-3.381h22.123V70.984z M79.491,65.489H57.369v-3.382h22.122V65.489z M79.491,59.994
					H57.369v-3.382h22.122V59.994z"/>
			</g>
			<g>
				<polygon fill="#939598" points="72.348,90.755 73.139,90.755 84.606,79.286 84.606,78.495 72.348,78.495 				"/>
				<path fill="#939598" d="M79.815,54.823H57.693v-3.381h22.122V54.823z M52.48,45.946v44.809h17.613l-0.001-14.514h14.513V45.946
					H52.48z M79.816,71.31H57.693v-3.382h22.122L79.816,71.31z M79.816,65.814H57.693v-3.382h22.122L79.816,65.814L79.816,65.814z
					 M79.816,60.318H57.693v-3.381h22.122L79.816,60.318L79.816,60.318z"/>
			</g>
			<g>
				<polygon fill="#939598" points="72.672,91.079 73.463,91.079 84.931,79.61 84.931,78.819 72.672,78.82 				"/>
				<path fill="#939598" d="M80.14,55.147H58.018v-3.382H80.14V55.147z M52.805,46.271L52.804,91.08l17.614-0.001l-0.001-14.513
					l14.514-0.001V46.271H52.805z M80.141,71.634H58.017l0.001-3.382H80.14L80.141,71.634L80.141,71.634z M80.141,66.139H58.018
					v-3.382H80.14L80.141,66.139z M80.141,60.643H58.018v-3.381H80.14L80.141,60.643z"/>
			</g>
			<g>
				<polygon fill="#939598" points="72.997,91.403 73.788,91.403 85.256,79.936 85.255,79.145 72.997,79.145 				"/>
				<path fill="#939598" d="M80.464,55.473l-22.122-0.001V52.09h22.123L80.464,55.473z M53.129,46.595v44.809h17.613V76.89h14.514
					V46.595H53.129z M80.465,71.958H58.342v-3.381h22.123V71.958z M80.465,66.463H58.342v-3.382h22.123V66.463z M80.465,60.967
					H58.342v-3.381h22.123V60.967z"/>
			</g>
			<g>
				<polygon fill="#939598" points="73.322,91.729 74.112,91.729 85.58,80.26 85.58,79.469 73.321,79.469 				"/>
				<path fill="#939598" d="M80.789,55.797H58.667v-3.382h22.122V55.797z M53.454,46.92v44.809h17.614V77.215H85.58V46.92H53.454z
					 M80.79,72.283H58.667v-3.382h22.122L80.79,72.283z M80.79,66.787H58.667v-3.381h22.122L80.79,66.787z M80.79,61.292H58.667
					v-3.381h22.122L80.79,61.292z"/>
			</g>
			<g>
				<polygon fill="#939598" points="73.646,92.053 74.437,92.053 85.904,80.584 85.904,79.793 73.646,79.793 				"/>
				<path fill="#939598" d="M81.113,56.121L58.992,56.12v-3.381h22.122L81.113,56.121L81.113,56.121z M53.778,47.244l-0.001,44.808
					h17.614L71.39,77.539l14.514-0.001V47.244H53.778z M81.114,72.606H58.991l0.001-3.382h22.123L81.114,72.606L81.114,72.606z
					 M81.114,67.111H58.992V63.73h22.122V67.111z M81.114,61.616H58.992v-3.382h22.122V61.616z"/>
			</g>
			<g>
				<polygon fill="#939598" points="73.971,92.377 74.761,92.377 86.229,80.908 86.229,80.117 73.97,80.117 				"/>
				<path fill="#939598" d="M81.438,56.446l-22.122-0.001v-3.382h22.122V56.446z M54.103,47.568v44.809h17.613V77.863H86.23V47.568
					H54.103z M81.439,72.932H59.316V69.55h22.123V72.932z M81.438,67.437H59.316v-3.382h22.122V67.437z M81.438,61.94H59.316v-3.381
					h22.122V61.94z"/>
			</g>
			<g>
				<polygon fill="#939598" points="74.295,92.702 75.085,92.702 86.553,81.233 86.553,80.442 74.294,80.442 				"/>
				<path fill="#939598" d="M81.763,56.771L59.64,56.769v-3.381h22.122L81.763,56.771L81.763,56.771z M54.427,47.893v44.809H72.04
					V78.188h14.513V47.893H54.427z M81.763,73.257H59.64v-3.383h22.122L81.763,73.257z M81.763,67.761H59.64V64.38h22.122
					L81.763,67.761L81.763,67.761z M81.763,62.266H59.64v-3.381h22.122L81.763,62.266L81.763,62.266z"/>
			</g>
			<g>
				<polygon fill="#939598" points="74.619,93.026 75.41,93.026 86.878,81.558 86.877,80.767 74.619,80.767 				"/>
				<path fill="#939598" d="M82.087,57.095l-22.123-0.001v-3.381h22.122L82.087,57.095L82.087,57.095z M54.752,48.218l-0.001,44.808
					h17.614l-0.001-14.514h14.514V48.218C86.878,48.218,54.752,48.218,54.752,48.218z M82.087,73.58H59.964v-3.382h22.123V73.58z
					 M82.087,68.085H59.964v-3.381h22.122L82.087,68.085z M82.087,62.59H59.964v-3.382h22.122L82.087,62.59z"/>
			</g>
			<g>
				<polygon fill="#939598" points="74.944,93.351 75.735,93.351 87.203,81.882 87.202,81.091 74.943,81.091 				"/>
				<path fill="#939598" d="M82.411,57.419H60.29v-3.382h22.122L82.411,57.419z M55.076,48.542v44.809l17.613-0.001V78.836
					l14.514,0.001l-0.001-30.295H55.076z M82.413,73.904L60.29,73.905v-3.382h22.122L82.413,73.904z M82.412,68.409H60.29v-3.381
					h22.122V68.409z M82.412,62.914H60.29v-3.382h22.122V62.914z"/>
			</g>
			<g>
				<polygon fill="#939598" points="75.269,93.675 76.059,93.675 87.527,82.207 87.526,81.415 75.268,81.416 				"/>
				<path fill="#939598" d="M82.735,57.744l-22.122-0.001v-3.381h22.122V57.744z M55.4,48.867v44.808h17.614V79.161h14.513V48.866
					L55.4,48.867z M82.736,74.229H60.614v-3.382h22.122V74.229z M82.736,68.734H60.614v-3.381h22.122V68.734z M82.736,63.239H60.614
					v-3.382h22.122V63.239z"/>
			</g>
			<g>
				<polygon fill="#939598" points="75.593,93.999 76.383,93.999 87.851,82.531 87.851,81.74 75.592,81.74 				"/>
				<path fill="#939598" d="M83.06,58.068l-22.122-0.001v-3.381H83.06V58.068z M55.725,49.19v44.809h17.613l-0.001-14.514h14.514
					V49.19H55.725z M83.061,74.554H60.938v-3.382h22.123V74.554z M83.061,69.059H60.938v-3.382H83.06L83.061,69.059z M83.061,63.563
					H60.938v-3.381H83.06L83.061,63.563z"/>
			</g>
			<g>
				<polygon fill="#939598" points="75.917,94.324 76.707,94.324 88.176,82.855 88.176,82.064 75.916,82.064 				"/>
				<path fill="#939598" d="M83.384,58.393l-22.122-0.001v-3.381h22.123L83.384,58.393z M56.05,49.516v44.809l17.613-0.001V79.81
					l14.513,0.001V49.515L56.05,49.516z M83.385,74.878l-22.123,0.001v-3.382h22.123V74.878z M83.385,69.383H61.263v-3.381h22.123
					L83.385,69.383L83.385,69.383z M83.385,63.888H61.263v-3.382h22.123L83.385,63.888L83.385,63.888z"/>
			</g>
			<g>
				<polygon fill="#939598" points="76.242,94.648 77.033,94.648 88.5,83.18 88.5,82.389 76.242,82.389 				"/>
				<path fill="#939598" d="M83.709,58.717H61.587v-3.382H83.71L83.709,58.717z M56.374,49.84v44.809l17.613-0.001l-0.001-14.514
					H88.5V49.84H56.374z M83.71,75.202l-22.123,0.001v-3.382H83.71V75.202z M83.71,69.707H61.587v-3.381H83.71V69.707z
					 M83.71,64.212H61.587V60.83H83.71V64.212z"/>
			</g>
			<g>
				<polygon fill="#939598" points="76.566,94.973 77.357,94.973 88.825,83.504 88.824,82.713 76.566,82.713 				"/>
				<path fill="#939598" d="M84.034,59.042l-22.122-0.001V55.66h22.122V59.042z M56.699,50.164l-0.001,44.809h17.614V80.459h14.513
					V50.164H56.699z M84.035,75.527H61.911v-3.382h22.123L84.035,75.527z M84.034,70.032H61.912V66.65h22.122V70.032z
					 M84.034,64.536H61.912v-3.381h22.122V64.536z"/>
			</g>
			<g>
				<polygon fill="#939598" points="76.891,95.298 77.682,95.298 89.149,83.829 89.149,83.038 76.891,83.038 				"/>
				<path fill="#939598" d="M84.358,59.366H62.236v-3.382h22.122V59.366z M57.023,50.489l-0.001,44.808h17.614l-0.001-14.514h14.514
					V50.488L57.023,50.489z M84.359,75.852H62.236V72.47h22.123V75.852z M84.359,70.356H62.236v-3.381h22.122L84.359,70.356
					L84.359,70.356z M84.359,64.861H62.236v-3.382h22.122L84.359,64.861L84.359,64.861z"/>
			</g>
			<g>
				<polygon fill="#939598" points="77.215,95.622 78.005,95.622 89.473,84.153 89.473,83.362 77.214,83.362 				"/>
				<path fill="#939598" d="M84.683,59.69L62.56,59.689l0.001-3.381h22.122V59.69z M57.347,50.813v44.808L74.96,95.62V81.106h14.513
					V50.813H57.347z M84.683,76.176L62.56,76.177l0.001-3.383h22.122V76.176z M84.683,70.681H62.56l0.001-3.381h22.122V70.681z
					 M84.683,65.186H62.56l0.001-3.382h22.122V65.186z"/>
			</g>
			<g>
				<polygon fill="#939598" points="77.54,95.946 78.33,95.946 89.798,84.478 89.798,83.687 77.539,83.687 				"/>
				<path fill="#939598" d="M85.007,60.015H62.885v-3.382h22.122C85.007,56.633,85.007,60.015,85.007,60.015z M57.672,51.138
					l-0.001,44.809h17.614V81.433h14.513V51.138H57.672z M85.008,76.501H62.885v-3.382h22.123
					C85.008,73.119,85.008,76.501,85.008,76.501z M85.008,71.005H62.885v-3.381h22.122L85.008,71.005z M85.008,65.51H62.885v-3.381
					h22.122L85.008,65.51z"/>
			</g>
			<g>
				<polygon fill="#939598" points="77.864,96.271 78.655,96.271 90.123,84.803 90.123,84.012 77.864,84.012 				"/>
				<path fill="#939598" d="M85.332,60.34H63.209v-3.382h22.122L85.332,60.34z M57.997,51.462l-0.001,44.81l17.614-0.001
					l-0.001-14.514h14.514V51.462H57.997z M85.332,76.825H63.209v-3.382h22.123V76.825z M85.332,71.33H63.209v-3.381h22.122
					L85.332,71.33L85.332,71.33z M85.332,65.835H63.209v-3.382h22.122L85.332,65.835L85.332,65.835z"/>
			</g>
			<g>
				<polygon fill="#939598" points="78.188,96.595 78.979,96.595 90.447,85.127 90.446,84.336 78.188,84.336 				"/>
				<path fill="#939598" d="M85.656,60.664l-22.122-0.001v-3.381h22.122V60.664z M58.32,51.787v44.808h17.613l-0.001-14.514h14.513
					V51.787H58.32z M85.657,77.149L63.534,77.15v-3.382h22.122L85.657,77.149z M85.656,71.654H63.534v-3.381h22.122V71.654z
					 M85.656,66.159H63.534v-3.382h22.122V66.159z"/>
			</g>
			<g>
				<polygon fill="#939598" points="78.513,96.92 79.304,96.92 90.771,85.451 90.771,84.66 78.513,84.66 				"/>
				<path fill="#939598" d="M85.98,60.988H63.858v-3.381H85.98V60.988z M58.646,52.111L58.645,96.92h17.613l-0.001-14.514H90.77
					V52.111H58.646z M85.981,77.475H63.858v-3.382h22.123V77.475z M85.981,71.979H63.858v-3.382H85.98L85.981,71.979z
					 M85.981,66.483H63.858v-3.381H85.98L85.981,66.483z"/>
			</g>
			<g>
				<polygon fill="#939598" points="78.838,97.244 79.628,97.244 91.096,85.776 91.096,84.985 78.837,84.985 				"/>
				<path fill="#939598" d="M86.305,61.313l-22.123-0.001l0.001-3.381h22.122V61.313z M58.97,52.437v44.808h17.613V82.73h14.513
					V52.435L58.97,52.437z M86.306,77.799H64.183v-3.382h22.123V77.799z M86.305,72.304H64.183l0.001-3.382h22.122L86.305,72.304
					L86.305,72.304z M86.305,66.809H64.183l0.001-3.382h22.122L86.305,66.809L86.305,66.809z"/>
			</g>
			<g>
				<polygon fill="#939598" points="79.162,97.568 79.953,97.568 91.42,86.101 91.42,85.31 79.162,85.31 				"/>
				<path fill="#939598" d="M86.629,61.638l-22.122-0.001v-3.381h22.122V61.638z M59.294,52.76v44.809h17.613V83.055H91.42V52.76
					H59.294z M86.63,78.123l-22.123,0.001v-3.382h22.122L86.63,78.123z M86.63,72.628H64.507v-3.381h22.122L86.63,72.628z
					 M86.63,67.132H64.507v-3.381h22.122L86.63,67.132z"/>
			</g>
			<g>
				<polygon fill="#939598" points="79.487,97.894 80.277,97.894 91.745,86.425 91.744,85.634 79.486,85.634 				"/>
				<path fill="#939598" d="M86.954,61.962H64.832V58.58h22.122V61.962z M59.619,53.085l-0.001,44.809h17.614V83.38h14.513V53.085
					H59.619z M86.955,78.448H64.832v-3.382h22.123V78.448z M86.955,72.952H64.832v-3.381h22.122L86.955,72.952z M86.955,67.457
					H64.832v-3.381h22.122L86.955,67.457z"/>
			</g>
			<g>
				<polygon fill="#939598" points="79.812,98.218 80.602,98.218 92.07,86.749 92.069,85.958 79.811,85.958 				"/>
				<path fill="#939598" d="M87.279,62.286H65.156l0.001-3.382h22.122V62.286z M59.943,53.409v44.808h17.613V83.703h14.513
					l0.001-30.295L59.943,53.409z M87.28,78.771H65.156V75.39h22.123L87.28,78.771z M87.279,73.276H65.156l0.001-3.381h22.122
					V73.276z M87.279,67.781H65.156l0.001-3.382h22.122V67.781z"/>
			</g>
			<g>
				<polygon fill="#939598" points="80.135,98.542 80.926,98.542 92.394,87.073 92.394,86.283 80.135,86.283 				"/>
				<path fill="#939598" d="M87.603,62.611L65.48,62.61v-3.381h22.122L87.603,62.611L87.603,62.611z M60.267,53.733v44.809H77.88
					V84.028h14.513V53.733H60.267z M87.604,79.097H65.48v-3.382h22.122L87.604,79.097z M87.603,73.602H65.48V70.22h22.122
					L87.603,73.602L87.603,73.602z M87.603,68.105H65.48v-3.381h22.122L87.603,68.105L87.603,68.105z"/>
			</g>
			<g>
				<polygon fill="#939598" points="80.46,98.866 81.25,98.866 92.718,87.398 92.718,86.607 80.459,86.607 				"/>
				<path fill="#939598" d="M87.928,62.935l-22.123-0.001l0.001-3.381h22.122V62.935z M60.592,54.059v44.808h17.613V84.354h14.513
					V54.058L60.592,54.059z M87.928,79.421l-22.123,0.001v-3.383h22.123V79.421z M87.928,73.926H65.805l0.001-3.381h22.122V73.926z
					 M87.928,68.431H65.805l0.001-3.382h22.122V68.431z"/>
			</g>
			<g>
				<polygon fill="#939598" points="80.785,99.191 81.575,99.191 93.043,87.723 93.042,86.932 80.784,86.932 				"/>
				<path fill="#939598" d="M88.252,63.26H66.13v-3.382h22.123L88.252,63.26z M60.917,54.383l-0.001,44.809H78.53V84.677h14.513
					V54.382L60.917,54.383z M88.252,79.745H66.129l0.001-3.382h22.123L88.252,79.745L88.252,79.745z M88.252,74.25H66.13v-3.381
					h22.123L88.252,74.25L88.252,74.25z M88.252,68.755H66.13v-3.382h22.123L88.252,68.755L88.252,68.755z"/>
			</g>
			<g>
				<polygon fill="#939598" points="81.109,99.515 81.899,99.515 93.368,88.048 93.367,87.256 81.108,87.256 				"/>
				<path fill="#939598" d="M88.576,63.584H66.455v-3.382h22.122L88.576,63.584z M61.241,54.707v44.808h17.613V85.002h14.514V54.707
					H61.241z M88.577,80.07H66.454v-3.382h22.123V80.07z M88.576,74.575H66.455v-3.382h22.122v3.382H88.576z M88.576,69.079H66.455
					v-3.381h22.122v3.381H88.576z"/>
			</g>
			<g>
				<polygon fill="#939598" points="81.434,99.84 82.224,99.84 93.692,88.372 93.691,87.581 81.433,87.581 				"/>
				<path fill="#939598" d="M88.9,63.909l-22.122-0.001v-3.381H88.9V63.909z M61.565,55.032V99.84h17.613V85.326h14.513V55.031
					L61.565,55.032z M88.902,80.395H66.779v-3.382h22.123V80.395z M88.901,74.899H66.779v-3.381h22.122V74.899z M88.901,69.404
					H66.779v-3.382h22.122V69.404z"/>
			</g>
			<g>
				<polygon fill="#939598" points="81.758,100.164 82.549,100.164 94.017,88.696 94.016,87.905 81.757,87.905 				"/>
				<path fill="#939598" d="M89.225,64.233l-22.122-0.001v-3.381h22.122V64.233z M61.89,55.356v44.808h17.613V85.65h14.513V55.355
					L61.89,55.356z M89.226,80.719H67.103l0.001-3.382h22.123L89.226,80.719L89.226,80.719z M89.226,75.224H67.104v-3.382h22.122
					V75.224z M89.226,69.729H67.104v-3.382h22.122V69.729z"/>
			</g>
			<g>
				<polygon fill="#939598" points="82.082,100.488 82.874,100.488 94.341,89.021 94.341,88.229 82.082,88.229 				"/>
				<path fill="#939598" d="M89.55,64.558H67.428v-3.382H89.55V64.558z M62.215,55.681v44.808h17.613V85.976h14.513V55.681H62.215z
					 M89.551,81.044H67.428v-3.382h22.123V81.044z M89.551,75.549H67.428v-3.382H89.55L89.551,75.549z M89.551,70.053H67.428v-3.381
					H89.55L89.551,70.053z"/>
			</g>
			<g>
				<polygon fill="#939598" points="82.407,100.813 83.198,100.813 94.665,89.345 94.665,88.554 82.406,88.554 				"/>
				<path fill="#939598" d="M89.874,64.882H67.752V61.5h22.122V64.882z M62.539,56.005v44.809h17.613V86.3h14.513V56.005H62.539z
					 M89.875,81.367l-22.123,0.001v-3.383h22.123V81.367z M89.875,75.872H67.752v-3.381h22.122L89.875,75.872z M89.875,70.377
					H67.752v-3.382h22.122L89.875,70.377z"/>
			</g>
			<g>
				<polygon fill="#939598" points="82.731,101.138 83.522,101.138 94.99,89.67 94.989,88.878 82.731,88.879 				"/>
				<path fill="#939598" d="M90.199,65.207l-22.122-0.001v-3.382h22.122V65.207z M62.864,56.33l-0.001,44.808h17.614V86.624H94.99
					V56.329L62.864,56.33z M90.2,81.692H68.077V78.31H90.2V81.692z M90.2,76.197H68.077v-3.382h22.122L90.2,76.197z M90.2,70.702
					H68.077V67.32h22.122L90.2,70.702z"/>
			</g>
			<g>
				<polygon fill="#939598" points="83.056,101.462 83.847,101.462 95.314,89.994 95.314,89.203 83.056,89.203 				"/>
				<path fill="#939598" d="M90.523,65.531L68.401,65.53l0.001-3.381h22.122L90.523,65.531z M63.188,56.654l-0.001,44.808h17.614
					L80.8,86.948h14.514V56.654H63.188z M90.524,82.017H68.401v-3.382h22.123V82.017z M90.524,76.521H68.401l0.001-3.381h22.122
					V76.521z M90.524,71.026H68.401l0.001-3.382h22.122V71.026z"/>
			</g>
			<g>
				<polygon fill="#939598" points="83.38,101.787 84.171,101.787 95.639,90.318 95.638,89.527 83.379,89.527 				"/>
				<path fill="#939598" d="M90.848,65.855l-22.122-0.001v-3.381h22.122V65.855z M63.512,56.979v44.809h17.613V87.272h14.513V56.977
					L63.512,56.979z M90.849,82.341l-22.123,0.001v-3.383h22.123V82.341z M90.848,76.846H68.726v-3.382h22.122V76.846z
					 M90.848,71.351H68.726v-3.382h22.122V71.351z"/>
			</g>
			<g>
				<polygon fill="#939598" points="83.705,102.111 84.496,102.111 95.963,90.643 95.963,89.852 83.704,89.853 				"/>
				<path fill="#939598" d="M91.172,66.18H69.05v-3.382h22.123L91.172,66.18z M63.837,57.303l-0.001,44.809H81.45V87.598h14.514
					V57.303H63.837z M91.173,82.666H69.05l0.001-3.382h22.123v3.382H91.173z M91.173,77.171H69.05v-3.382h22.122L91.173,77.171z
					 M91.173,71.675H69.05v-3.381h22.122L91.173,71.675z"/>
			</g>
			<g>
				<polygon fill="#939598" points="84.029,102.436 84.82,102.436 96.288,90.968 96.288,90.177 84.029,90.177 				"/>
				<path fill="#939598" d="M91.497,66.505l-22.122-0.001v-3.381h22.122V66.505z M64.162,57.628l-0.001,44.808h17.614l-0.001-14.514
					h14.514V57.627L64.162,57.628z M91.498,82.99H69.374v-3.382h22.123L91.498,82.99L91.498,82.99z M91.498,77.495H69.374v-3.381
					h22.122L91.498,77.495z M91.498,72H69.374v-3.382h22.122L91.498,72z"/>
			</g>
			<g>
				<polygon fill="#939598" points="84.354,102.76 85.145,102.76 96.612,91.292 96.612,90.501 84.353,90.501 				"/>
				<path fill="#939598" d="M91.821,66.829l-22.122-0.001v-3.381h22.122V66.829z M64.486,57.952l-0.001,44.808h17.613V88.246h14.513
					V57.951L64.486,57.952z M91.822,83.314H69.699v-3.382h22.123V83.314z M91.822,77.819H69.699v-3.382h22.122L91.822,77.819z
					 M91.822,72.324H69.699v-3.382h22.122L91.822,72.324z"/>
			</g>
			<g>
				<polygon fill="#939598" points="84.678,103.084 85.469,103.084 96.937,91.616 96.936,90.825 84.678,90.825 				"/>
				<path fill="#939598" d="M92.146,67.153H70.023v-3.382l22.122,0.001L92.146,67.153L92.146,67.153z M64.81,58.276v44.808h17.613
					l-0.001-14.513h14.513V58.276H64.81z M92.146,83.639H70.023l0.001-3.382h22.122V83.639z M92.146,78.145H70.023v-3.382h22.122
					L92.146,78.145L92.146,78.145z M92.146,72.648H70.023v-3.382h22.122L92.146,72.648L92.146,72.648z"/>
			</g>
			<g>
				<polygon fill="#939598" points="85.002,103.409 85.793,103.409 97.261,91.94 97.261,91.149 85.002,91.15 				"/>
				<path fill="#939598" d="M92.47,67.478l-22.122-0.001v-3.381H92.47V67.478z M65.135,58.601v44.809h17.614l-0.001-14.514h14.514
					V58.601H65.135z M92.471,83.964H70.347l0.001-3.382h22.123V83.964z M92.471,78.469H70.348v-3.382H92.47L92.471,78.469z
					 M92.471,72.973H70.348v-3.381H92.47L92.471,72.973z"/>
			</g>
			<g>
				<polygon fill="#939598" points="85.327,103.733 86.118,103.733 97.585,92.266 97.585,91.475 85.327,91.475 				"/>
				<path fill="#939598" d="M92.794,67.803l-22.122-0.001V64.42h22.122V67.803z M65.459,58.925v44.809h17.613V89.22h14.513V58.925
					H65.459z M92.795,84.288H70.672v-3.382h22.123V84.288z M92.795,78.793H70.672v-3.382h22.122L92.795,78.793z M92.795,73.297
					H70.672v-3.381h22.122L92.795,73.297z"/>
			</g>
			<g>
				<polygon fill="#939598" points="85.651,104.058 86.442,104.058 97.91,92.59 97.91,91.799 85.651,91.799 				"/>
				<path fill="#939598" d="M93.119,68.127H70.997l0.001-3.382H93.12L93.119,68.127L93.119,68.127z M65.784,59.25v44.808h17.613
					V89.544H97.91V59.25H65.784z M93.12,84.612l-22.123,0.001V81.23H93.12V84.612z M93.12,79.117H70.997l0.001-3.381H93.12V79.117z
					 M93.12,73.622H70.997l0.001-3.382H93.12V73.622z"/>
			</g>
			<g>
				<polygon fill="#939598" points="85.976,104.382 86.767,104.382 98.234,92.914 98.234,92.123 85.976,92.123 				"/>
				<path fill="#939598" d="M93.443,68.451L71.322,68.45v-3.381h22.122L93.443,68.451L93.443,68.451z M66.108,59.574l-0.001,44.808
					h17.614L83.72,89.868h14.514V59.574H66.108z M93.444,84.937H71.321l0.001-3.382h22.123L93.444,84.937L93.444,84.937z
					 M93.444,79.441H71.322V76.06h22.122V79.441z M93.444,73.946H71.322v-3.382h22.122V73.946z"/>
			</g>
			<g>
				<polygon fill="#939598" points="86.301,104.707 87.091,104.707 98.559,93.238 98.559,92.447 86.3,92.447 				"/>
				<path fill="#939598" d="M93.768,68.776l-22.122-0.001v-3.382h22.122V68.776z M66.432,59.898v44.809h17.613V90.193h14.513V59.898
					C98.558,59.898,66.432,59.898,66.432,59.898z M93.769,85.262H71.646v-3.383h22.123L93.769,85.262z M93.769,79.767H71.646v-3.382
					h22.122L93.769,79.767z M93.769,74.271H71.646V70.89h22.122L93.769,74.271z"/>
			</g>
			<g>
				<polygon fill="#939598" points="86.625,105.031 87.415,105.031 98.883,93.563 98.883,92.772 86.624,92.772 				"/>
				<path fill="#939598" d="M94.092,69.101L71.97,69.1l0.001-3.381h22.122L94.092,69.101L94.092,69.101z M66.757,60.224v44.808
					H84.37V90.518h14.513V60.224H66.757z M94.093,85.586H71.97v-3.382h22.123V85.586z M94.093,80.091H71.97l0.001-3.382h22.122
					V80.091z M94.093,74.596H71.97l0.001-3.382h22.122V74.596z"/>
			</g>
			<g>
				<polygon fill="#939598" points="86.949,105.355 87.74,105.355 99.208,93.888 99.207,93.097 86.949,93.097 				"/>
				<path fill="#939598" d="M94.417,69.425l-22.123-0.001v-3.381h22.122L94.417,69.425L94.417,69.425z M67.082,60.547l-0.001,44.809
					h17.614V90.842h14.513V60.547H67.082z M94.417,85.91H72.294v-3.382h22.123V85.91z M94.417,80.415H72.294v-3.381h22.122
					L94.417,80.415z M94.417,74.919H72.294v-3.381h22.122L94.417,74.919z"/>
			</g>
			<g>
				<polygon fill="#939598" points="87.274,105.681 88.065,105.681 99.533,94.212 99.532,93.421 87.273,93.421 				"/>
				<path fill="#939598" d="M94.741,69.749H72.62v-3.382h22.122L94.741,69.749z M67.406,60.872v44.809h17.613V91.166l14.513,0.001
					V60.872H67.406z M94.743,86.234L72.62,86.235v-3.383h22.123L94.743,86.234z M94.742,80.739H72.62v-3.381h22.122L94.742,80.739z
					 M94.742,75.244H72.62v-3.382h22.122L94.742,75.244z"/>
			</g>
			<g>
				<polygon fill="#939598" points="87.598,106.004 88.389,106.004 99.856,94.536 99.856,93.746 87.598,93.746 				"/>
				<path fill="#939598" d="M95.065,70.074l-22.121-0.001v-3.381h22.121V70.074z M67.73,61.197v44.807h17.613l-0.001-14.513h14.514
					V61.197H67.73z M95.066,86.559H72.944v-3.382h22.122V86.559z M95.066,81.064H72.944v-3.382h22.122V81.064z M95.066,75.569
					H72.944v-3.382h22.121L95.066,75.569z"/>
			</g>
			<g>
				<polygon fill="#939598" points="87.923,106.329 88.713,106.329 100.181,94.861 100.181,94.07 87.922,94.07 				"/>
				<path fill="#939598" d="M95.39,70.397H73.268l0.001-3.381H95.39V70.397z M68.055,61.521v44.809h17.613l-0.001-14.514h14.514
					V61.521H68.055z M95.391,86.884H73.268v-3.382H95.39L95.391,86.884z M95.391,81.389H73.268l0.001-3.382H95.39L95.391,81.389z
					 M95.391,75.893H73.268l0.001-3.381H95.39L95.391,75.893z"/>
			</g>
			<g>
				<polygon fill="#939598" points="88.248,106.654 89.038,106.654 100.505,95.186 100.505,94.395 88.247,94.395 				"/>
				<path fill="#939598" d="M95.715,70.723l-22.123-0.001l0.001-3.381h22.122V70.723z M68.379,61.846v44.809h17.613V92.14h14.513
					l0.001-30.295L68.379,61.846z M95.716,87.208H73.592v-3.382h22.122L95.716,87.208z M95.716,81.713H73.592l0.001-3.381h22.122
					L95.716,81.713z M95.716,76.217H73.592l0.001-3.381h22.122L95.716,76.217z"/>
			</g>
			<g>
				<polygon fill="#939598" points="88.572,106.978 89.363,106.978 100.83,95.51 100.83,94.719 88.572,94.719 				"/>
				<path fill="#939598" d="M96.039,71.047l-22.122-0.001v-3.381h22.122V71.047z M68.704,62.17v44.808h17.613l-0.001-14.514h14.514
					V62.17H68.704z M96.04,87.532l-22.123,0.001V84.15H96.04V87.532z M96.04,82.037H73.917v-3.381H96.04V82.037z M96.04,76.542
					H73.917V73.16l22.122,0.001L96.04,76.542z"/>
			</g>
			<g>
				<polygon fill="#939598" points="88.896,107.303 89.687,107.303 101.155,95.835 101.154,95.044 88.896,95.044 				"/>
				<path fill="#939598" d="M96.364,71.372l-22.122-0.001V67.99h22.122V71.372z M69.029,62.495l-0.001,44.808h17.613L86.64,92.789
					h14.513V62.494L69.029,62.495z M96.365,87.857H74.241l0.001-3.382h22.123V87.857z M96.364,82.362H74.242v-3.381h22.122V82.362z
					 M96.364,76.866H74.242v-3.381h22.122V76.866z"/>
			</g>
			<g>
				<polygon fill="#939598" points="89.221,107.627 90.012,107.627 101.479,96.159 101.479,95.368 89.221,95.368 				"/>
				<path fill="#939598" d="M96.688,71.696l-22.123-0.001l0.001-3.381h22.122V71.696z M69.353,62.819v44.808h17.614l-0.001-14.514
					h14.513l0.001-30.295L69.353,62.819z M96.689,88.182H74.566l0.001-3.382H96.69L96.689,88.182z M96.689,82.687H74.566
					l0.001-3.381h22.122V82.687z M96.689,77.191H74.566l0.001-3.382h22.122V77.191z"/>
			</g>
			<g>
				<polygon fill="#939598" points="89.545,107.951 90.335,107.951 101.803,96.483 101.803,95.692 89.544,95.692 				"/>
				<path fill="#939598" d="M97.013,72.021L74.89,72.02v-3.381l22.122,0.001L97.013,72.021L97.013,72.021z M69.677,63.143v44.808
					H87.29V93.438h14.513V63.143H69.677z M97.013,88.507H74.89v-3.383h22.123V88.507z M97.013,83.012H74.89V79.63h22.122
					L97.013,83.012L97.013,83.012z M97.013,77.516H74.89v-3.381h22.122L97.013,77.516L97.013,77.516z"/>
			</g>
			<g>
				<polygon fill="#939598" points="89.87,108.276 90.66,108.276 102.128,96.808 102.128,96.017 89.869,96.017 				"/>
				<path fill="#939598" d="M97.337,72.345H75.215v-3.382h22.122V72.345z M70.002,63.468v44.809h17.613V93.763h14.513V63.468H70.002
					z M97.338,88.831H75.214v-3.382h22.122L97.338,88.831z M97.337,83.335H75.215v-3.381h22.122V83.335z M97.338,77.84H75.215
					v-3.381h22.122L97.338,77.84z"/>
			</g>
			<g>
				<polygon fill="#939598" points="90.194,108.601 90.985,108.601 102.452,97.133 102.452,96.342 90.194,96.342 				"/>
				<path fill="#939598" d="M97.662,72.67L75.54,72.669l0.001-3.381h22.122L97.662,72.67L97.662,72.67z M70.326,63.793v44.808
					h17.613V94.087h14.513l0.001-30.295L70.326,63.793z M97.663,89.155H75.54v-3.382h22.122L97.663,89.155z M97.663,83.66H75.54
					l0.001-3.381h22.122V83.66z M97.662,78.165L75.54,78.164l0.001-3.381h22.122L97.662,78.165L97.662,78.165z"/>
			</g>
			<g>
				<polygon fill="#939598" points="90.519,108.925 91.309,108.925 102.777,97.457 102.776,96.666 90.518,96.666 				"/>
				<path fill="#939598" d="M97.986,72.994l-22.122-0.001v-3.381h22.122V72.994z M70.65,64.117v44.808h17.613V94.411l14.513,0.001
					V64.117H70.65z M97.987,89.479L75.864,89.48v-3.383h22.122L97.987,89.479z M97.986,83.984H75.864v-3.381h22.122V83.984z
					 M97.986,78.489H75.864v-3.382l22.122,0.001V78.489z"/>
			</g>
			<g>
				<polygon fill="#939598" points="90.843,109.249 91.634,109.249 103.102,97.781 103.101,96.99 90.843,96.99 				"/>
				<path fill="#939598" d="M98.311,73.318H76.188v-3.382H98.31L98.311,73.318L98.311,73.318z M70.975,64.441v44.808h17.614V94.736
					h14.513V64.441H70.975z M98.312,89.805H76.188l0.001-3.382h22.123L98.312,89.805z M98.311,84.309H76.188v-3.381H98.31
					L98.311,84.309z M98.312,78.813H76.188v-3.381H98.31L98.312,78.813z"/>
			</g>
			<g>
				<polygon fill="#939598" points="91.168,109.574 91.958,109.574 103.426,98.105 103.426,97.314 91.167,97.314 				"/>
				<path fill="#939598" d="M98.635,73.643l-22.123-0.001l0.001-3.381h22.122V73.643z M71.299,64.766v44.809h17.613V95.061h14.513
					l0.001-30.296L71.299,64.766z M98.636,90.129H76.513v-3.383h22.123V90.129z M98.636,84.633H76.513l0.001-3.381h22.122V84.633z
					 M98.635,79.138H76.513l0.001-3.381h22.122L98.635,79.138L98.635,79.138z"/>
			</g>
			<g>
				<polygon fill="#939598" points="91.492,109.898 92.283,109.898 103.75,98.431 103.75,97.64 91.492,97.64 				"/>
				<path fill="#939598" d="M98.959,73.968l-22.123-0.001v-3.381h22.122L98.959,73.968L98.959,73.968z M71.624,65.091v44.808h17.613
					V95.385l14.513,0.001V65.09L71.624,65.091z M98.96,90.453l-22.123,0.001v-3.383H98.96V90.453z M98.96,84.958H76.837v-3.382
					l22.122,0.001L98.96,84.958z M98.96,79.462H76.837v-3.381l22.122,0.001L98.96,79.462z"/>
			</g>
			<g>
				<polygon fill="#939598" points="91.816,110.223 92.607,110.223 104.075,98.755 104.075,97.964 91.816,97.964 				"/>
				<path fill="#939598" d="M99.284,74.292H77.162l0.001-3.382h22.122v3.382H99.284z M71.949,65.415v44.808h17.614V95.71h14.513
					V65.415H71.949z M99.285,90.778H77.162v-3.382h22.123V90.778z M99.285,85.282H77.162l0.001-3.381h22.122V85.282z M99.285,79.787
					H77.162l0.001-3.381h22.122V79.787z"/>
			</g>
			<g>
				<polygon fill="#939598" points="92.141,110.548 92.932,110.548 104.399,99.078 104.399,98.288 92.141,98.288 				"/>
				<path fill="#939598" d="M99.608,74.616l-22.122-0.001l0.001-3.381H99.61L99.608,74.616z M72.273,65.739l-0.001,44.809h17.614
					V96.034l14.513-0.001l0.001-30.295L72.273,65.739z M99.609,91.102H77.486l0.001-3.382H99.61L99.609,91.102L99.609,91.102z
					 M99.609,85.606H77.486l0.001-3.381H99.61L99.609,85.606L99.609,85.606z M99.609,80.111H77.486l0.001-3.382H99.61L99.609,80.111
					L99.609,80.111z"/>
			</g>
			<g>
				<polygon fill="#939598" points="92.465,110.871 93.256,110.871 104.724,99.403 104.723,98.612 92.465,98.612 				"/>
				<path fill="#939598" d="M99.933,74.941L77.811,74.94v-3.381h22.121L99.933,74.941L99.933,74.941z M72.597,66.064v44.807H90.21
					V96.358h14.513V66.063L72.597,66.064z M99.934,91.427H77.811v-3.382h22.122L99.934,91.427z M99.933,85.932H77.811V82.55
					l22.121,0.001L99.933,85.932z M99.933,80.436H77.811v-3.381h22.121L99.933,80.436z"/>
			</g>
			<g>
				<polygon fill="#939598" points="92.79,111.196 93.581,111.196 105.048,99.729 105.048,98.938 92.789,98.938 				"/>
				<path fill="#939598" d="M100.257,75.266l-22.122-0.001v-3.381h22.122V75.266z M72.922,66.389v44.808h17.613V96.684h14.514
					V66.388L72.922,66.389z M100.258,91.751H78.135l0.001-3.382h22.122V91.751z M100.258,86.256H78.135v-3.381h22.122
					L100.258,86.256z M100.258,80.76l-22.123,0.001v-3.382h22.122L100.258,80.76z"/>
			</g>
			<g>
				<polygon fill="#939598" points="93.115,111.521 93.905,111.521 105.373,100.052 105.373,99.262 93.114,99.262 				"/>
				<path fill="#939598" d="M100.582,75.59l-22.123-0.001l0.001-3.381l22.122-0.001V75.59z M73.247,66.713l-0.001,44.809H90.86
					V97.008l14.513-0.001l0.001-30.295L73.247,66.713z M100.582,92.075H78.459l0.001-3.382h22.122V92.075z M100.582,86.58H78.459
					l0.001-3.381l22.122-0.001V86.58z M100.582,81.085l-22.123-0.001l0.001-3.381h22.122V81.085z"/>
			</g>
			<g>
				<polygon fill="#939598" points="93.439,111.845 94.229,111.845 105.697,100.377 105.697,99.586 93.438,99.586 				"/>
				<path fill="#939598" d="M100.906,75.914H78.784v-3.382h22.122V75.914z M73.571,67.037v44.808h17.613V97.332h14.513V67.037
					H73.571z M100.907,92.4H78.784v-3.382h22.123V92.4z M100.907,86.904H78.784v-3.381l22.122,0.001L100.907,86.904z
					 M100.907,81.409H78.784v-3.381h22.122L100.907,81.409z"/>
			</g>
			<g>
				<polygon fill="#939598" points="93.764,112.17 94.554,112.17 106.022,100.701 106.021,99.91 93.763,99.91 				"/>
				<path fill="#939598" d="M101.231,76.239l-22.122-0.001v-3.381h22.122V76.239z M73.895,67.362v44.808h17.613V97.656h14.513
					l0.001-30.295L73.895,67.362z M101.232,92.725H79.109v-3.382h22.123V92.725z M101.232,87.229L79.109,87.23v-3.381h22.122
					L101.232,87.229z M101.232,81.733l-22.123,0.001v-3.382h22.122L101.232,81.733z"/>
			</g>
			<g>
				<polygon fill="#939598" points="94.088,112.494 94.878,112.494 106.346,101.026 106.346,100.235 94.087,100.235 				"/>
				<path fill="#939598" d="M101.555,76.563l-22.122-0.001v-3.381l22.123-0.001L101.555,76.563z M74.22,67.687v44.808h17.613V97.98
					h14.513V67.685L74.22,67.687z M101.556,93.049H79.433v-3.382h22.123V93.049z M101.556,87.554H79.433v-3.382h22.123V87.554z
					 M101.556,82.059H79.433v-3.382h22.123V82.059z"/>
			</g>
			<g>
				<polygon fill="#939598" points="94.413,112.818 95.204,112.818 106.671,101.351 106.67,100.559 94.412,100.559 				"/>
				<path fill="#939598" d="M101.88,76.888l-22.123-0.001l0.001-3.381h22.122V76.888z M74.545,68.011v44.808h17.613V98.306h14.513
					l0.001-30.295H74.545z M101.881,93.374H79.758v-3.383h22.123C101.881,89.991,101.881,93.374,101.881,93.374z M101.881,87.878
					H79.758l0.001-3.381h22.122L101.881,87.878z M101.881,82.383H79.758l0.001-3.381h22.122L101.881,82.383z"/>
			</g>
			<g>
				<polygon fill="#939598" points="94.737,113.143 95.527,113.143 106.996,101.675 106.995,100.884 94.736,100.884 				"/>
				<path fill="#939598" d="M102.205,77.212H80.082V73.83h22.123V77.212z M74.869,68.335v44.809h17.613V98.63h14.513V68.335H74.869z
					 M102.205,93.697l-22.123,0.001v-3.383h22.123V93.697z M102.205,88.202H80.082v-3.381h22.123V88.202z M102.205,82.707H80.082
					v-3.382h22.123V82.707z"/>
			</g>
			<g>
				<polygon fill="#939598" points="95.061,113.468 95.852,113.468 107.32,102 107.319,101.209 95.061,101.209 				"/>
				<path fill="#939598" d="M102.528,77.537l-22.121-0.001v-3.382h22.122L102.528,77.537z M75.193,68.659v44.809h17.613V98.954
					h14.513V68.659C107.319,68.659,75.193,68.659,75.193,68.659z M102.529,94.022H80.406V90.64h22.123V94.022z M102.529,88.527
					H80.407v-3.382h22.122V88.527z M102.529,83.031H80.407V79.65l22.122-0.001V83.031z"/>
			</g>
			<g>
				<polygon fill="#939598" points="95.386,113.792 96.177,113.792 107.645,102.323 107.644,101.532 95.386,101.532 				"/>
				<path fill="#939598" d="M102.854,77.861L80.731,77.86v-3.381h22.122L102.854,77.861L102.854,77.861z M75.519,68.984
					l-0.001,44.808h17.614l-0.001-14.514h14.513V68.984H75.519z M102.854,94.347H80.731v-3.382l22.123-0.001
					C102.854,90.964,102.854,94.347,102.854,94.347z M102.854,88.852H80.731v-3.381h22.122L102.854,88.852z M102.854,83.356H80.731
					v-3.382h22.122L102.854,83.356z"/>
			</g>
			<g>
				<polygon fill="#939598" points="95.71,114.116 96.501,114.116 107.969,102.648 107.968,101.857 95.709,101.857 				"/>
				<path fill="#939598" d="M103.178,78.186l-22.122-0.001v-3.381h22.122V78.186z M75.842,69.309v44.808h17.613V99.604h14.513
					V69.308L75.842,69.309z M103.179,94.671H81.056l-0.001-3.382h22.123L103.179,94.671z M103.179,89.176H81.056v-3.382h22.122
					L103.179,89.176z M103.179,83.68l-22.123,0.001v-3.382h22.122L103.179,83.68z"/>
			</g>
			<g>
				<polygon fill="#939598" points="96.035,114.441 96.825,114.441 108.293,102.974 108.293,102.183 96.034,102.183 				"/>
				<path fill="#939598" d="M103.502,78.51H81.38v-3.382h22.123L103.502,78.51z M76.167,69.633l-0.001,44.809H93.78V99.928h14.513
					V69.632L76.167,69.633z M103.502,94.996H81.379v-3.383h22.123V94.996z M103.502,89.501H81.38v-3.382h22.123L103.502,89.501
					L103.502,89.501z M103.502,84.005H81.38v-3.381l22.123-0.001L103.502,84.005L103.502,84.005z"/>
			</g>
			<g>
				<polygon fill="#939598" points="96.359,114.766 97.15,114.766 108.618,103.297 108.618,102.506 96.359,102.506 				"/>
				<path fill="#939598" d="M103.827,78.834H81.704l0.001-3.381h22.122V78.834z M76.492,69.957l-0.001,44.809h17.614v-14.514h14.513
					V69.957H76.492z M103.828,95.32H81.704v-3.382l22.123-0.001L103.828,95.32L103.828,95.32z M103.828,89.825H81.704l0.001-3.381
					h22.122L103.828,89.825z M103.828,84.329H81.704l0.001-3.381h22.122L103.828,84.329z"/>
			</g>
			<g>
				<polygon fill="#939598" points="96.684,115.09 97.475,115.09 108.942,103.622 108.942,102.831 96.683,102.831 				"/>
				<path fill="#939598" d="M104.151,79.158H82.029v-3.381h22.122V79.158z M76.815,70.282v44.808h17.613v-14.514h14.513V70.281
					L76.815,70.282z M104.152,95.645H82.029v-3.382h22.123V95.645z M104.152,90.149H82.029v-3.382h22.122L104.152,90.149z
					 M104.152,84.653l-22.123,0.001v-3.382h22.122L104.152,84.653z"/>
			</g>
			<g>
				<polygon fill="#939598" points="97.008,115.414 97.799,115.414 109.267,103.946 109.266,103.155 97.008,103.155 				"/>
				<path fill="#939598" d="M104.476,79.483H82.354v-3.382h22.122V79.483z M77.14,70.606v44.808h17.613V100.9h14.513V70.606H77.14z
					 M104.476,95.969H82.353v-3.382h22.124L104.476,95.969z M104.476,90.474H82.354v-3.381h22.122V90.474z M104.476,84.979H82.354
					v-3.382l22.122,0.001V84.979z"/>
			</g>
			<g>
				<polygon fill="#939598" points="97.333,115.739 98.124,115.739 109.591,104.271 109.591,103.479 97.332,103.479 				"/>
				<path fill="#939598" d="M104.8,79.808l-22.123-0.001l0.001-3.381H104.8V79.808z M77.465,70.931l-0.001,44.809h17.614v-14.514
					h14.513l0.001-30.295H77.465z M104.801,96.294H82.678v-3.383h22.123V96.294z M104.801,90.798H82.678l0.001-3.381H104.8
					L104.801,90.798z M104.801,85.303H82.678l0.001-3.381H104.8L104.801,85.303z"/>
			</g>
			<g>
				<polygon fill="#939598" points="97.657,116.063 98.448,116.063 109.915,104.596 109.915,103.805 97.657,103.805 				"/>
				<path fill="#939598" d="M105.124,80.132H83.002V76.75h22.122V80.132z M77.789,71.255v44.809h17.613V101.55h14.513V71.255
					C109.915,71.255,77.789,71.255,77.789,71.255z M105.125,96.618H83.002v-3.382h22.123V96.618z M105.125,91.122l-22.123,0.001
					v-3.382h22.122L105.125,91.122z M105.125,85.627H83.002v-3.381h22.122L105.125,85.627z"/>
			</g>
			<g>
				<polygon fill="#939598" points="97.981,116.388 98.772,116.388 110.24,104.919 110.24,104.128 97.981,104.128 				"/>
				<path fill="#939598" d="M105.449,80.457H83.327v-3.382h22.122C105.449,77.075,105.449,80.457,105.449,80.457z M78.114,71.58
					v44.808h17.613v-14.514h14.513V71.58H78.114z M105.45,96.942H83.327V93.56h22.123C105.45,93.56,105.45,96.942,105.45,96.942z
					 M105.45,91.447H83.327v-3.381h22.122L105.45,91.447z M105.45,85.952H83.327V82.57l22.122,0.001L105.45,85.952z"/>
			</g>
			<g>
				<polygon fill="#939598" points="98.306,116.712 99.097,116.712 110.564,105.244 110.564,104.453 98.306,104.453 				"/>
				<path fill="#939598" d="M105.774,80.781L83.651,80.78l0.001-3.381h22.122V80.781z M78.438,71.904l-0.001,44.808h17.614v-14.514
					h14.513l0.001-30.294H78.438z M105.775,97.267H83.651l0.001-3.382l22.123-0.001V97.267z M105.775,91.771H83.651l0.001-3.381
					h22.122L105.775,91.771z M105.775,86.276H83.651l0.001-3.382h22.122L105.775,86.276z"/>
			</g>
			<g>
				<polygon fill="#939598" points="98.631,117.037 99.421,117.037 110.889,105.568 110.889,104.777 98.63,104.777 				"/>
				<path fill="#939598" d="M106.098,81.105H83.976v-3.382h22.122V81.105z M78.762,72.229v44.809h17.613v-14.514h14.513
					l0.001-30.295H78.762z M106.099,97.592H83.976v-3.383h22.123V97.592z M106.099,92.096l-22.123,0.001v-3.382h22.122
					L106.099,92.096z M106.099,86.601H83.976V83.22h22.122L106.099,86.601z"/>
			</g>
			<g>
				<polygon fill="#939598" points="98.955,117.361 99.746,117.361 111.213,105.893 111.213,105.103 98.955,105.101 				"/>
				<path fill="#939598" d="M106.422,81.431L84.3,81.43v-3.381h22.122C106.422,78.049,106.422,81.431,106.422,81.431z
					 M79.087,72.554v44.808H96.7v-14.514h14.514V72.554H79.087z M106.423,97.916H84.299v-3.382h22.124
					C106.423,94.534,106.423,97.916,106.423,97.916z M106.423,92.421H84.3v-3.382l22.122,0.001L106.423,92.421z M106.423,86.926
					H84.3v-3.382h22.122L106.423,86.926z"/>
			</g>
			<g>
				<polygon fill="#939598" points="99.279,117.685 100.07,117.685 111.538,106.218 111.538,105.427 99.279,105.427 				"/>
				<path fill="#939598" d="M106.747,81.754H84.624l0.001-3.381h22.122V81.754z M79.412,72.878v44.808h17.613v-14.514h14.513
					l0.001-30.295L79.412,72.878z M106.748,98.24H84.624v-3.383h22.123L106.748,98.24L106.748,98.24z M106.748,92.745H84.624
					l0.001-3.381h22.122L106.748,92.745z M106.748,87.249H84.624l0.001-3.381h22.122L106.748,87.249z"/>
			</g>
			<g>
				<polygon fill="#939598" points="99.604,118.011 100.395,118.011 111.862,106.542 111.862,105.751 99.604,105.751 				"/>
				<path fill="#939598" d="M107.072,82.079H84.949v-3.382h22.123V82.079z M79.736,73.202v44.809h17.613v-14.514h14.513
					l0.001-30.295H79.736z M107.072,98.565H84.949v-3.383h22.123V98.565z M107.072,93.069H84.949v-3.381h22.123V93.069z
					 M107.072,87.574H84.949v-3.382h22.123V87.574z"/>
			</g>
			<g>
				<polygon fill="#939598" points="99.928,118.334 100.719,118.334 112.187,106.867 112.187,106.076 99.928,106.075 				"/>
				<path fill="#939598" d="M107.396,82.403l-22.122-0.001v-3.381h22.122V82.403z M80.061,73.526v44.808h17.613V103.82h14.513
					V73.526H80.061z M107.396,98.889H85.273v-3.382h22.123V98.889z M107.396,93.394H85.274v-3.381h22.122V93.394z M107.396,87.898
					H85.274v-3.382l22.122,0.001V87.898z"/>
			</g>
			<g>
				<polygon fill="#939598" points="100.253,118.659 101.043,118.659 112.511,107.19 112.511,106.399 100.252,106.399 				"/>
				<path fill="#939598" d="M107.72,82.728l-22.122-0.001l0.001-3.38h22.122L107.72,82.728L107.72,82.728z M80.385,73.852v44.808
					h17.613l-0.001-14.514h14.513V73.851L80.385,73.852z M107.721,99.214H85.598v-3.383h22.123V99.214z M107.721,93.719H85.598
					l0.001-3.382h22.122V93.719z M107.721,88.223H85.598l0.001-3.381h22.122V88.223z"/>
			</g>
			<g>
				<polygon fill="#939598" points="100.578,118.983 101.368,118.983 112.836,107.515 112.835,106.724 100.577,106.725 				"/>
				<path fill="#939598" d="M108.045,83.053l-22.123-0.001l0.001-3.381h22.122V83.053z M80.709,74.176v44.808h17.613l-0.001-14.513
					l14.513-0.001l0.001-30.295L80.709,74.176z M108.046,99.538l-22.124,0.001v-3.383h22.123L108.046,99.538z M108.046,94.043
					H85.922l0.001-3.381h22.122L108.046,94.043z M108.046,88.547l-22.124,0.001l0.001-3.381h22.122L108.046,88.547z"/>
			</g>
			<g>
				<polygon fill="#939598" points="100.902,119.308 101.692,119.308 113.16,107.841 113.16,107.05 100.901,107.049 				"/>
				<path fill="#939598" d="M108.37,83.377H86.247l0.001-3.381h22.122V83.377z M81.034,74.5v44.808h17.613v-14.514h14.513V74.5
					H81.034z M108.37,99.862H86.247v-3.381h22.123V99.862z M108.37,94.368H86.247v-3.382h22.122L108.37,94.368L108.37,94.368z
					 M108.37,88.872H86.247v-3.381h22.122L108.37,88.872L108.37,88.872z"/>
			</g>
			<g>
				<polygon fill="#939598" points="101.226,119.633 102.017,119.633 113.484,108.164 113.484,107.373 101.226,107.373 				"/>
				<path fill="#939598" d="M108.694,83.701H86.571l0.001-3.381h22.122V83.701z M81.358,74.825v44.808h17.613l-0.001-14.514h14.513
					l0.001-30.295L81.358,74.825z M108.695,100.188H86.571l0.001-3.383h22.123V100.188z M108.695,94.692H86.571l0.001-3.381h22.122
					L108.695,94.692z M108.695,89.196H86.571l0.001-3.381h22.122L108.695,89.196z"/>
			</g>
			<g>
				<polygon fill="#939598" points="101.551,119.957 102.341,119.957 113.81,108.488 113.809,107.697 101.55,107.698 				"/>
				<path fill="#939598" d="M109.019,84.026l-22.123-0.001l0.001-3.381h22.122V84.026z M81.683,75.149v44.808h17.613v-14.514h14.513
					l0.001-30.295L81.683,75.149z M109.02,100.512H86.896V97.13h22.123L109.02,100.512z M109.019,95.017H86.896l0.001-3.381h22.122
					C109.019,91.636,109.019,95.017,109.019,95.017z M109.019,89.521H86.896l0.001-3.382h22.122
					C109.019,86.139,109.019,89.521,109.019,89.521z"/>
			</g>
			<g>
				<polygon fill="#939598" points="101.875,120.281 102.666,120.281 114.133,108.813 114.133,108.022 101.875,108.022 				"/>
				<path fill="#939598" d="M109.343,84.351H87.22l0.001-3.382h22.122V84.351z M82.007,75.474v44.808H99.62v-14.514h14.513V75.474
					H82.007z M109.343,100.836H87.22v-3.382h22.124L109.343,100.836z M109.343,95.341H87.221V91.96h22.122V95.341z M109.343,89.846
					H87.221v-3.382l22.122,0.001V89.846z"/>
			</g>
			<g>
				<polygon fill="#939598" points="102.2,120.606 102.991,120.606 114.458,109.138 114.458,108.347 102.2,108.347 				"/>
				<path fill="#939598" d="M109.667,84.675l-22.123-0.001l0.001-3.38h22.122V84.675z M82.332,75.799v44.808h17.613v-14.514h14.513
					V75.798L82.332,75.799z M109.668,101.161H87.545v-3.383h22.123V101.161z M109.668,95.666H87.545l0.001-3.382h22.122V95.666z
					 M109.668,90.17H87.545l0.001-3.381h22.122V90.17z"/>
			</g>
			<g>
				<polygon fill="#939598" points="102.524,120.931 103.315,120.931 114.783,109.462 114.782,108.671 102.524,108.672 				"/>
				<path fill="#939598" d="M109.992,84.999l-22.123-0.001l0.001-3.381h22.122V84.999z M82.656,76.122v44.809h17.613v-14.514
					l14.513-0.001l0.001-30.294H82.656z M109.993,101.484l-22.124,0.001v-3.383h22.123L109.993,101.484z M109.992,95.99H87.869
					l0.001-3.382h22.122C109.992,92.608,109.992,95.99,109.992,95.99z M109.992,90.494H87.869l0.001-3.381h22.122
					C109.992,87.113,109.992,90.494,109.992,90.494z"/>
			</g>
			<g>
				<polygon fill="#939598" points="102.849,121.255 103.64,121.255 115.107,109.787 115.107,108.996 102.849,108.995 				"/>
				<path fill="#939598" d="M110.316,85.324H88.194v-3.382h22.122V85.324z M82.981,76.447v44.808h17.613v-14.514h14.513V76.447
					H82.981z M110.317,101.809H88.194v-3.382h22.123V101.809z M110.317,96.314H88.194v-3.381h22.122L110.317,96.314z
					 M110.317,90.819H88.194v-3.381h22.122L110.317,90.819z"/>
			</g>
			<g>
				<polygon fill="#939598" points="103.173,121.579 103.964,121.579 115.432,110.111 115.432,109.32 103.173,109.32 				"/>
				<path fill="#939598" d="M110.641,85.648l-22.122-0.001v-3.381h22.122V85.648z M83.305,76.771v44.808h17.613v-14.514h14.513
					l0.001-30.294H83.305z M110.642,102.134H88.519v-3.382h22.123V102.134z M110.642,96.639H88.519v-3.381h22.122L110.642,96.639z
					 M110.642,91.144H88.519v-3.381h22.122L110.642,91.144z"/>
			</g>
			<g>
				<polygon fill="#939598" points="103.498,121.904 104.288,121.904 115.756,110.435 115.756,109.645 103.497,109.645 				"/>
				<path fill="#939598" d="M110.965,85.973l-22.122-0.001l0.001-3.381h22.122L110.965,85.973z M83.629,77.096v44.809h17.613
					v-14.514l14.513-0.001l0.001-30.295L83.629,77.096z M110.966,102.458l-22.123,0.001v-3.383h22.123V102.458z M110.965,96.964
					H88.842v-3.382h22.122L110.965,96.964L110.965,96.964z M110.965,91.468H88.842l0.001-3.382h22.122
					C110.965,88.086,110.965,91.468,110.965,91.468z"/>
			</g>
			<g>
				<polygon fill="#939598" points="103.822,122.228 104.613,122.228 116.081,110.76 116.081,109.97 103.822,109.969 				"/>
				<path fill="#939598" d="M111.29,86.298l-22.123-0.001v-3.381h22.122L111.29,86.298L111.29,86.298z M83.954,77.421v44.808h17.612
					v-14.514l14.513,0.001l0.001-30.296L83.954,77.421z M111.29,102.783H89.167v-3.382h22.123V102.783z M111.29,97.288H89.167
					l0.001-3.382l22.122,0.001V97.288z M111.29,91.792H89.167v-3.381h22.122L111.29,91.792z"/>
			</g>
			<g>
				<polygon fill="#939598" points="104.146,122.553 104.938,122.553 116.405,111.085 116.405,110.294 104.146,110.294 				"/>
				<path fill="#939598" d="M111.614,86.622l-22.123-0.001V83.24h22.122L111.614,86.622L111.614,86.622z M84.278,77.745v44.808
					h17.613v-14.514h14.513l0.001-30.295L84.278,77.745z M111.615,103.107H89.492v-3.383h22.123V103.107z M111.615,97.612H89.492
					v-3.381h22.122L111.615,97.612z M111.615,92.116H89.492v-3.381h22.122L111.615,92.116z"/>
			</g>
			<g>
				<polygon fill="#939598" points="104.471,122.878 105.262,122.878 116.729,111.408 116.729,110.618 104.47,110.618 				"/>
				<path fill="#939598" d="M111.938,86.946l-22.122-0.001v-3.381h22.122V86.946z M84.603,78.069v44.809h17.613v-14.514
					l14.513-0.001l0.001-30.295L84.603,78.069z M111.939,103.432l-22.124,0.001v-3.383h22.123L111.939,103.432z M111.939,97.937
					H89.816l0.001-3.381l22.123-0.001L111.939,97.937L111.939,97.937z M111.939,92.441H89.816l0.001-3.382h22.122V92.441z"/>
			</g>
			<g>
				<polygon fill="#939598" points="104.796,123.201 105.587,123.201 117.054,111.733 117.054,110.943 104.795,110.942 				"/>
				<path fill="#939598" d="M112.263,87.271L90.141,87.27v-3.38h22.122V87.271z M84.927,78.395v44.807h17.613v-14.513h14.512
					l0.001-30.295L84.927,78.395z M112.264,103.756H90.141v-3.382h22.123V103.756z M112.264,98.262H90.141V94.88h22.122
					L112.264,98.262z M112.264,92.766l-22.123,0.001v-3.382h22.122L112.264,92.766z"/>
			</g>
			<g>
				<polygon fill="#939598" points="105.12,123.526 105.911,123.526 117.378,112.059 117.378,111.268 105.119,111.268 				"/>
				<path fill="#939598" d="M112.587,87.595l-22.122-0.001l0.001-3.381h22.122L112.587,87.595L112.587,87.595z M85.252,78.719
					v44.808h17.613v-14.514h14.513V78.718L85.252,78.719z M112.588,104.081H90.465l0.001-3.383h22.123L112.588,104.081
					L112.588,104.081z M112.588,98.586H90.465l0.001-3.382h22.122V98.586z M112.588,93.09H90.465l0.001-3.381h22.122V93.09z"/>
			</g>
			<g>
				<polygon fill="#939598" points="105.444,123.851 106.235,123.851 117.703,112.382 117.703,111.592 105.444,111.592 				"/>
				<path fill="#939598" d="M112.912,87.92L90.79,87.919l0.001-3.382h22.122L112.912,87.92z M85.577,79.043l-0.001,44.809
					l17.613-0.001v-14.513l14.513-0.001l0.001-30.295L85.577,79.043z M112.913,104.405H90.79v-3.383l22.123,0.001V104.405z
					 M112.913,98.91L90.79,98.909v-3.38l22.123-0.001V98.91z M112.913,93.415L90.79,93.414l0.001-3.381h22.122V93.415z"/>
			</g>
			<g>
				<polygon fill="#939598" points="105.77,124.175 106.56,124.175 118.028,112.707 118.027,111.917 105.769,111.916 				"/>
				<path fill="#939598" d="M113.237,88.244H91.114l0.001-3.382h22.122V88.244z M85.901,79.368l0.001,44.807h17.613v-14.514
					l14.513,0.001l0.001-30.295L85.901,79.368z M113.237,104.729H91.115l-0.001-3.383h22.123V104.729z M113.237,99.234H91.115
					v-3.381h22.122V99.234z M113.237,93.739H91.114l0.001-3.381h22.122V93.739z"/>
			</g>
			<g>
				<polygon fill="#939598" points="106.093,124.5 106.884,124.5 118.352,113.031 118.352,112.24 106.093,112.24 				"/>
				<path fill="#939598" d="M113.561,88.568l-22.123-0.001v-3.381h22.122L113.561,88.568L113.561,88.568z M86.225,79.691V124.5
					h17.613v-14.514h14.513l0.001-30.295H86.225z M113.562,105.055H91.438v-3.383h22.123L113.562,105.055L113.562,105.055z
					 M113.562,99.559H91.438v-3.381h22.122L113.562,99.559z M113.562,94.063H91.438v-3.382h22.122L113.562,94.063z"/>
			</g>
			<g>
				<polygon fill="#939598" points="106.418,124.824 107.208,124.824 118.676,113.355 118.676,112.565 106.417,112.565 				"/>
				<path fill="#939598" d="M113.885,88.894l-22.122-0.002l0.001-3.381h22.122L113.885,88.894z M86.55,80.017v44.808h17.613V110.31
					h14.513l0.001-30.295L86.55,80.017z M113.886,105.379H91.763v-3.383h22.123V105.379z M113.886,99.884l-22.123-0.001l0.001-3.381
					h22.122V99.884z M113.886,94.389l-22.123-0.001l0.001-3.381h22.122V94.389z"/>
			</g>
			<g>
				<polygon fill="#939598" points="106.743,125.148 107.533,125.148 119,113.681 119,112.89 106.742,112.89 				"/>
				<path fill="#939598" d="M114.21,89.218l-22.123-0.001l0.001-3.381h22.122V89.218z M86.874,80.341v44.808h17.613l-0.001-14.514
					H119V80.341H86.874z M114.211,105.703H92.087v-3.383h22.124V105.703z M114.211,100.208H92.087l0.001-3.381h22.122
					L114.211,100.208z M114.211,94.713H92.087l0.001-3.382h22.122L114.211,94.713z"/>
			</g>
			<g>
				<polygon fill="#939598" points="107.067,125.474 107.857,125.474 119.325,114.005 119.325,113.214 107.066,113.214 				"/>
				<path fill="#939598" d="M114.535,89.542l-22.123-0.001V86.16h22.123V89.542z M87.199,80.665v44.809h17.613V110.96h14.513V80.664
					L87.199,80.665z M114.535,106.028H92.412v-3.383h22.123V106.028z M114.535,100.532H92.412v-3.381h22.123V100.532z
					 M114.535,95.036H92.412v-3.381h22.123V95.036z"/>
			</g>
			<g>
				<polygon fill="#939598" points="107.391,125.798 108.182,125.798 119.65,114.329 119.65,113.538 107.391,113.538 				"/>
				<path fill="#939598" d="M114.858,89.866l-22.122-0.001v-3.381h22.123L114.858,89.866z M87.523,80.989l-0.001,44.809h17.613
					v-14.515h14.513l0.001-30.294H87.523z M114.86,106.351H92.736v-3.383l22.123,0.001L114.86,106.351z M114.859,100.857
					l-22.123-0.001l0.001-3.381h22.123L114.859,100.857L114.859,100.857z M114.859,95.361H92.737v-3.382h22.123L114.859,95.361
					L114.859,95.361z"/>
			</g>
			<g>
				<polygon fill="#939598" points="107.716,126.122 108.507,126.122 119.974,114.653 119.974,113.862 107.716,113.862 				"/>
				<path fill="#939598" d="M115.184,90.19H93.061v-3.381h22.122L115.184,90.19L115.184,90.19z M87.848,81.314v44.808h17.614
					v-14.514h14.513l0.001-30.295L87.848,81.314z M115.185,106.677H93.061v-3.383h22.124V106.677z M115.185,101.182H93.061V97.8
					h22.122L115.185,101.182z M115.185,95.686H93.061v-3.381h22.122L115.185,95.686z"/>
			</g>
			<g>
				<polygon fill="#939598" points="108.04,126.446 108.831,126.446 120.298,114.977 120.298,114.188 108.04,114.188 				"/>
				<path fill="#939598" d="M115.508,90.515H93.385v-3.381h22.122L115.508,90.515L115.508,90.515z M88.172,81.639v44.808h17.613
					v-14.514h14.513V81.638L88.172,81.639z M115.509,107.001H93.385v-3.382h22.123L115.509,107.001L115.509,107.001z
					 M115.509,101.506H93.385v-3.381h22.122L115.509,101.506z M115.509,96.011H93.385v-3.382h22.122L115.509,96.011z"/>
			</g>
			<g>
				<polygon fill="#939598" points="108.365,126.771 109.155,126.771 120.623,115.303 120.623,114.512 108.364,114.512 				"/>
				<path fill="#939598" d="M115.832,90.84L93.71,90.839v-3.381h22.122V90.84z M88.497,81.963v44.809h17.613v-14.515h14.513
					l0.001-30.295L88.497,81.963z M115.833,107.325H93.709v-3.383l22.123,0.001L115.833,107.325z M115.832,101.831l-22.123-0.001
					l0.001-3.381h22.122V101.831z M115.832,96.335L93.71,96.334v-3.381h22.122V96.335z"/>
			</g>
			<g>
				<polygon fill="#939598" points="108.689,127.096 109.48,127.096 120.947,115.627 120.947,114.836 108.689,114.836 				"/>
				<path fill="#939598" d="M116.157,91.164H94.034l0.001-3.382h22.122V91.164z M88.821,82.287v44.809h17.613l-0.001-14.514h14.513
					V82.287H88.821z M116.157,107.65H94.034v-3.383h22.123V107.65z M116.157,102.154H94.034l0.001-3.381h22.122V102.154z
					 M116.157,96.659H94.034l0.001-3.381h22.122V96.659z"/>
			</g>
			<g>
				<polygon fill="#939598" points="109.014,127.42 109.804,127.42 121.272,115.952 121.272,115.161 109.013,115.161 				"/>
				<path fill="#939598" d="M116.481,91.488H94.359v-3.382h22.123L116.481,91.488L116.481,91.488z M89.146,82.612v44.808h17.613
					v-14.514h14.513V82.611L89.146,82.612z M116.482,107.975H94.359v-3.383h22.123V107.975z M116.482,102.479H94.359v-3.381h22.123
					V102.479z M116.482,96.983H94.359v-3.381h22.123V96.983z"/>
			</g>
			<g>
				<polygon fill="#939598" points="109.338,127.744 110.129,127.744 121.596,116.275 121.596,115.485 109.337,115.485 				"/>
				<path fill="#939598" d="M116.806,91.813H94.683l0.001-3.382h22.122V91.813z M89.47,82.937v44.808h17.613l-0.001-14.514h14.514
					V82.937H89.47z M116.806,108.299H94.683v-3.383h22.123V108.299z M116.806,102.804H94.683l0.001-3.382h22.122V102.804z
					 M116.806,97.309H94.683l0.001-3.381h22.122V97.309z"/>
			</g>
			<g>
				<polygon fill="#939598" points="109.663,128.068 110.453,128.068 121.92,116.601 121.92,115.809 109.662,115.809 				"/>
				<path fill="#939598" d="M117.13,92.138l-22.123-0.001l0.001-3.381h22.122V92.138z M89.794,83.261v44.808h17.613v-14.513h14.513
					V83.261H89.794z M117.131,108.624H95.007v-3.383h22.124C117.131,105.241,117.131,108.624,117.131,108.624z M117.131,103.128
					H95.007l0.001-3.381h22.122L117.131,103.128z M117.131,97.633H95.007l0.001-3.381h22.122L117.131,97.633z"/>
			</g>
			<g>
				<polygon fill="#939598" points="109.987,128.395 110.777,128.395 122.246,116.926 122.246,116.135 109.986,116.135 				"/>
				<path fill="#939598" d="M117.455,92.462H95.332V89.08h22.122L117.455,92.462L117.455,92.462z M90.119,83.585v44.81h17.613
					V113.88h14.513l0.001-30.295H90.119z M117.455,108.948H95.332v-3.383h22.124L117.455,108.948z M117.455,103.453H95.332v-3.382
					h22.122L117.455,103.453z M117.455,97.956l-22.123,0.001v-3.381h22.122L117.455,97.956z"/>
			</g>
			<g>
				<polygon fill="#939598" points="110.312,128.718 111.102,128.718 122.57,117.249 122.57,116.459 110.311,116.459 				"/>
				<path fill="#939598" d="M117.779,92.786H95.657v-3.381h22.122V92.786z M90.444,83.909v44.809h17.613l-0.001-14.514h14.514
					V83.909H90.444z M117.78,109.272H95.657v-3.383h22.123V109.272z M117.78,103.776H95.657v-3.381h22.122L117.78,103.776z
					 M117.78,98.281H95.657V94.9h22.122L117.78,98.281z"/>
			</g>
			<g>
				<polygon fill="#939598" points="110.636,129.043 111.427,129.043 122.894,117.574 122.894,116.783 110.636,116.783 				"/>
				<path fill="#939598" d="M118.104,93.111L95.981,93.11l0.001-3.381h22.122C118.104,89.729,118.104,93.111,118.104,93.111z
					 M90.768,84.234v44.809h17.613v-14.515h14.513V84.234H90.768z M118.104,109.597H95.981v-3.383h22.124v3.383H118.104z
					 M118.104,104.101H95.981l0.001-3.381h22.122L118.104,104.101z M118.104,98.606H95.981l0.001-3.382h22.122L118.104,98.606z"/>
			</g>
			<g>
				<polygon fill="#939598" points="110.961,129.367 111.751,129.367 123.219,117.898 123.219,117.107 110.96,117.107 				"/>
				<path fill="#939598" d="M118.428,93.436l-22.122-0.001v-3.381h22.122V93.436z M91.092,84.559v44.809h17.613v-14.514h14.513
					V84.559H91.092z M118.429,109.922H96.306v-3.383h22.123V109.922z M118.429,104.426H96.306v-3.381h22.122L118.429,104.426z
					 M118.429,98.93l-22.123,0.001v-3.382h22.122L118.429,98.93z"/>
			</g>
			<g>
				<polygon fill="#939598" points="111.285,129.691 112.076,129.691 123.543,118.223 123.543,117.433 111.284,117.433 				"/>
				<path fill="#939598" d="M118.752,93.76l-22.123-0.001l0.001-3.38h22.122V93.76z M91.417,84.883v44.809h17.613v-14.514h14.513
					V84.883H91.417z M118.753,110.246H96.63l-0.001-3.383h22.124V110.246z M118.753,104.75H96.629l0.001-3.381h22.122
					L118.753,104.75z M118.753,99.255H96.629l0.001-3.381h22.122L118.753,99.255z"/>
			</g>
			<g>
				<polygon fill="#939598" points="111.609,130.016 112.4,130.016 123.868,118.548 123.868,117.757 111.609,117.757 				"/>
				<path fill="#939598" d="M119.077,94.085l-22.123-0.001l0.001-3.381h22.122V94.085z M91.742,85.208v44.808h17.613v-14.514h14.513
					l0.001-30.295L91.742,85.208z M119.078,110.57H96.954v-3.383h22.124V110.57z M119.078,105.075H96.954l0.001-3.382h22.122
					L119.078,105.075z M119.078,99.579H96.954l0.001-3.38h22.122L119.078,99.579z"/>
			</g>
			<g>
				<polygon fill="#939598" points="111.934,130.341 112.725,130.341 124.192,118.872 124.192,118.081 111.934,118.081 				"/>
				<path fill="#939598" d="M119.402,94.409l-22.123-0.001v-3.381h22.123V94.409z M92.066,85.532v44.809h17.613v-14.514h14.513
					V85.532H92.066z M119.402,110.896H97.279v-3.383h22.124L119.402,110.896z M119.402,105.398l-22.123,0.001v-3.381h22.123V105.398
					z M119.402,99.903l-22.123,0.001v-3.381h22.123V99.903z"/>
			</g>
			<g>
				<polygon fill="#939598" points="112.258,130.664 113.049,130.664 124.517,119.196 124.517,118.406 112.258,118.406 				"/>
				<path fill="#939598" d="M119.726,94.733H97.603l0.001-3.381h22.122V94.733z M92.39,85.857v44.807h17.613V116.15h14.513
					l0.001-30.294L92.39,85.857z M119.727,111.219H97.604l-0.001-3.382h22.124V111.219z M119.727,105.724H97.603l0.001-3.381h22.122
					L119.727,105.724z M119.727,100.229H97.603l0.001-3.381h22.122L119.727,100.229z"/>
			</g>
			<g>
				<polygon fill="#939598" points="112.583,130.989 113.374,130.989 124.841,119.521 124.841,118.729 112.583,118.729 				"/>
				<path fill="#939598" d="M120.051,95.059l-22.123-0.001l0.001-3.381h22.122V95.059z M92.715,86.182v44.808h17.613v-14.514h14.513
					V86.181L92.715,86.182z M120.052,111.544H97.928v-3.383h22.124V111.544z M120.052,106.049H97.928l0.001-3.382h22.122
					L120.052,106.049z M120.052,100.553H97.928l0.001-3.381h22.122L120.052,100.553z"/>
			</g>
			<g>
				<polygon fill="#939598" points="112.908,131.314 113.698,131.314 125.166,119.845 125.165,119.054 112.907,119.055 				"/>
				<path fill="#939598" d="M120.375,95.382H98.252L98.253,92h22.122V95.382z M93.04,86.506v44.809h17.613V116.8h14.513
					l0.001-30.295L93.04,86.506z M120.376,111.868H98.252v-3.383h22.124V111.868z M120.376,106.372H98.252l0.001-3.381h22.122
					L120.376,106.372z M120.376,100.877H98.252l0.001-3.381h22.122L120.376,100.877z"/>
			</g>
			<g>
				<polygon fill="#939598" points="113.232,131.639 114.022,131.639 125.49,120.17 125.49,119.379 113.231,119.379 				"/>
				<path fill="#939598" d="M120.7,95.707l-22.123-0.001v-3.381H120.7V95.707z M93.364,86.831v44.808h17.613v-14.515h14.513
					l0.001-30.294L93.364,86.831z M120.7,112.192H98.577v-3.383H120.7V112.192z M120.7,106.697H98.577v-3.381H120.7V106.697z
					 M120.7,101.201H98.577v-3.38H120.7V101.201z"/>
			</g>
			<g>
				<polygon fill="#939598" points="113.557,131.963 114.347,131.963 125.815,120.494 125.815,119.703 113.556,119.703 				"/>
				<path fill="#939598" d="M121.024,96.031H98.901l0.001-3.382h22.122V96.031z M93.688,87.155v44.808h17.613v-14.514h14.513V87.154
					L93.688,87.155z M121.025,112.518H98.901v-3.383h22.123L121.025,112.518L121.025,112.518z M121.025,107.021H98.901l0.001-3.381
					h22.122L121.025,107.021z M121.025,101.526H98.901l0.001-3.381h22.122L121.025,101.526z"/>
			</g>
			<g>
				<polygon fill="#939598" points="113.881,132.287 114.671,132.287 126.139,120.818 126.139,120.028 113.88,120.028 				"/>
				<path fill="#939598" d="M121.349,96.355l-22.122-0.001v-3.381h22.122V96.355z M94.013,87.479l-0.001,44.808h17.613v-14.514
					h14.513l0.001-30.295L94.013,87.479z M121.349,112.841H99.226v-3.382h22.123V112.841z M121.349,107.346H99.226v-3.381h22.122
					L121.349,107.346z M121.349,101.851H99.226v-3.382h22.122L121.349,101.851z"/>
			</g>
			<g>
				<polygon fill="#939598" points="114.206,132.611 114.996,132.611 126.463,121.143 126.463,120.352 114.205,120.352 				"/>
				<path fill="#939598" d="M121.673,96.681L99.55,96.68l0.001-3.381h22.122C121.673,93.299,121.673,96.681,121.673,96.681z
					 M94.337,87.804v44.808h17.613v-14.514h14.513V87.804H94.337z M121.673,113.166H99.55v-3.383h22.124v3.383H121.673z
					 M121.673,107.671H99.55l0.001-3.382h22.122L121.673,107.671z M121.673,102.175H99.55l0.001-3.381h22.122L121.673,102.175z"/>
			</g>
			<g>
				<polygon fill="#939598" points="114.53,132.936 115.321,132.936 126.788,121.468 126.788,120.677 114.529,120.677 				"/>
				<path fill="#939598" d="M121.998,97.005H99.874l0.001-3.382h22.122L121.998,97.005L121.998,97.005z M94.662,88.129v44.808
					h17.613v-14.514h14.513V88.128L94.662,88.129z M121.998,113.491H99.874v-3.383h22.124V113.491z M121.998,107.995H99.874
					l0.001-3.381h22.122L121.998,107.995z M121.998,102.5H99.874l0.001-3.381h22.122L121.998,102.5z"/>
			</g>
			<g>
				<polygon fill="#939598" points="114.854,133.262 115.645,133.262 127.113,121.792 127.113,121.002 114.854,121.002 				"/>
				<path fill="#939598" d="M122.322,97.329l-22.123-0.001l0.001-3.381h22.122V97.329z M94.986,88.452v44.81h17.613v-14.516h14.513
					l0.001-30.294C127.113,88.452,94.986,88.452,94.986,88.452z M122.322,113.814h-22.123v-3.383h22.123V113.814z M122.322,108.319
					h-22.123l0.001-3.381h22.122V108.319z M122.322,102.824h-22.123l0.001-3.382h22.122V102.824z"/>
			</g>
			<g>
				<polygon fill="#939598" points="115.179,133.585 115.97,133.585 127.437,122.116 127.437,121.326 115.178,121.326 				"/>
				<path fill="#939598" d="M122.646,97.654l-22.123-0.001l0.001-3.381h22.122V97.654z M95.311,88.777v44.808h17.613v-14.514h14.513
					V88.776L95.311,88.777z M122.647,114.14h-22.123v-3.383h22.123V114.14z M122.647,108.643h-22.123l0.001-3.381h22.122V108.643z
					 M122.647,103.148h-22.123l0.001-3.381h22.122V103.148z"/>
			</g>
			<g>
				<polygon fill="#939598" points="115.503,133.91 116.294,133.91 127.762,122.441 127.762,121.65 115.502,121.65 				"/>
				<path fill="#939598" d="M122.971,97.978h-22.123l0.001-3.381h22.122V97.978z M95.635,89.102v44.809h17.613v-14.515h14.513
					l0.001-30.294H95.635z M122.972,114.464h-22.124v-3.383h22.124V114.464z M122.972,108.969h-22.124l0.001-3.381h22.122
					L122.972,108.969z M122.972,103.474h-22.124l0.001-3.382h22.122L122.972,103.474z"/>
			</g>
		</g>
	</g>
</g>
<g>
	<polygon fill="#EEEFEC" points="50.284,68.69 51.074,68.69 62.542,57.223 62.542,56.432 50.284,56.432 	"/>
	<path fill="#EEEFEC" d="M30.415,23.882V68.69h17.613V54.177h14.513V23.882H30.415z M57.751,49.245H35.629v-3.382h22.122V49.245z
		 M57.751,43.75H35.629v-3.382h22.122V43.75z M57.751,38.255H35.629v-3.382h22.122V38.255z M57.751,32.76H35.629v-3.382h22.122
		V32.76z"/>
</g>
</svg>
