<?xml version="1.0" encoding="utf-8"?>
<!-- Generator: Adobe Illustrator 17.0.0, SVG Export Plug-In . SVG Version: 6.00 Build 0)  -->
<!DOCTYPE svg PUBLIC "-//W3C//DTD SVG 1.1//EN" "http://www.w3.org/Graphics/SVG/1.1/DTD/svg11.dtd" [
	<!ENTITY ns_extend "http://ns.adobe.com/Extensibility/1.0/">
	<!ENTITY ns_ai "http://ns.adobe.com/AdobeIllustrator/10.0/">
	<!ENTITY ns_graphs "http://ns.adobe.com/Graphs/1.0/">
	<!ENTITY ns_vars "http://ns.adobe.com/Variables/1.0/">
	<!ENTITY ns_imrep "http://ns.adobe.com/ImageReplacement/1.0/">
	<!ENTITY ns_sfw "http://ns.adobe.com/SaveForWeb/1.0/">
	<!ENTITY ns_custom "http://ns.adobe.com/GenericCustomNamespace/1.0/">
	<!ENTITY ns_adobe_xpath "http://ns.adobe.com/XPath/1.0/">
]>
<svg version="1.1" id="Capa_1" xmlns:x="&ns_extend;" xmlns:i="&ns_ai;" xmlns:graph="&ns_graphs;"
	 xmlns="http://www.w3.org/2000/svg" xmlns:xlink="http://www.w3.org/1999/xlink" x="0px" y="0px" width="90.985px"
	 height="90.984px" viewBox="0 0 90.985 90.984" enable-background="new 0 0 90.985 90.984" xml:space="preserve">
<metadata>
	<sfw  xmlns="&ns_sfw;">
		<slices></slices>
		<sliceSourceBounds  height="107.987" width="118.332" x="252.007" y="358.005" bottomLeftOrigin="true"></sliceSourceBounds>
	</sfw>
</metadata>
<g id="Background">
</g>
<g id="Icons">
	<g>
		<path fill="#666666" d="M80.115,0H10.87C4.877,0,0,4.876,0,10.869v69.245c0,5.994,4.877,10.87,10.87,10.87h69.245
			c5.993,0,10.87-4.876,10.87-10.87V10.869C90.985,4.876,86.108,0,80.115,0z"/>
		<g>
			<g>
				<defs>
					<path id="SVGID_1_" d="M80.115,0H10.87C4.877,0,0,4.876,0,10.869v69.245c0,5.994,4.877,10.87,10.87,10.87h69.245
						c5.993,0,10.87-4.876,10.87-10.87V10.869C90.985,4.876,86.108,0,80.115,0z"/>
				</defs>
				<clipPath id="SVGID_2_">
					<use xlink:href="#SVGID_1_"  overflow="visible"/>
				</clipPath>
				<g opacity="0.65" clip-path="url(#SVGID_2_)">
					<g>
						<circle fill="#939598" cx="46.46" cy="29.959" r="9.56"/>
						<path fill="#939598" d="M55.859,40.551h-2.984c-1.696,1.542-3.942,2.49-6.416,2.489c-2.475,0-4.722-0.946-6.418-2.489h-2.983
							c-4.052,0.001-12.229,5.284-12.229,9.019v1.408c0,3.734,3.284,6.764,7.337,6.763l28.583,0.001
							c4.053-0.001,7.338-3.029,7.338-6.764V49.57C68.087,45.834,59.911,40.551,55.859,40.551z"/>
					</g>
					<g>
						<circle fill="#939598" cx="46.749" cy="30.25" r="9.56"/>
						<path fill="#939598" d="M56.148,40.843h-2.982c-1.698,1.541-3.944,2.49-6.417,2.488c-2.475,0.001-4.723-0.945-6.418-2.488
							h-2.983c-4.052,0-12.227,5.284-12.228,9.018v1.408c0,3.734,3.283,6.764,7.337,6.764H61.04
							c4.053-0.001,7.338-3.028,7.338-6.764l-0.001-1.408C68.377,46.125,60.201,40.843,56.148,40.843z"/>
					</g>
					<g>
						<circle fill="#939598" cx="47.04" cy="30.54" r="9.56"/>
						<path fill="#939598" d="M56.44,41.133h-2.984c-1.697,1.542-3.943,2.49-6.417,2.489c-2.474,0-4.721-0.946-6.417-2.489h-2.983
							c-4.052,0.001-12.227,5.284-12.227,9.019L25.41,51.56c0.001,3.735,3.284,6.765,7.337,6.764l28.584,0.001
							c4.052-0.002,7.337-3.029,7.337-6.765v-1.408C68.668,46.416,60.492,41.133,56.44,41.133z"/>
					</g>
					<g>
						<circle fill="#939598" cx="47.331" cy="30.831" r="9.56"/>
						<path fill="#939598" d="M56.73,41.423h-2.983c-1.697,1.542-3.943,2.49-6.417,2.489c-2.474,0.001-4.722-0.946-6.417-2.489
							h-2.984c-4.051,0.001-12.228,5.285-12.228,9.019L25.7,51.851c0.001,3.734,3.284,6.764,7.337,6.764h28.584
							c4.053-0.001,7.337-3.028,7.337-6.764v-1.409C68.958,46.706,60.782,41.423,56.73,41.423z"/>
					</g>
					<g>
						<circle fill="#939598" cx="47.621" cy="31.121" r="9.56"/>
						<path fill="#939598" d="M57.021,41.713h-2.983c-1.697,1.541-3.944,2.49-6.417,2.489c-2.475,0-4.722-0.946-6.417-2.489H38.22
							c-4.053,0-12.229,5.284-12.229,9.02v1.408c0,3.733,3.283,6.764,7.336,6.763l28.584,0.001c4.053-0.002,7.338-3.029,7.338-6.764
							l-0.002-1.408C69.249,46.996,61.072,41.713,57.021,41.713z"/>
					</g>
					<g>
						<circle fill="#939598" cx="47.912" cy="31.412" r="9.56"/>
						<path fill="#939598" d="M57.312,42.004h-2.983c-1.697,1.542-3.943,2.49-6.417,2.489c-2.475,0-4.722-0.946-6.418-2.489H38.51
							c-4.052,0.001-12.227,5.284-12.227,9.019l-0.001,1.409c0.001,3.734,3.284,6.764,7.337,6.763l28.584,0.001
							c4.053-0.001,7.337-3.029,7.337-6.764v-1.409C69.539,47.287,61.363,42.004,57.312,42.004z"/>
					</g>
					<g>
						<circle fill="#939598" cx="48.202" cy="31.702" r="9.56"/>
						<path fill="#939598" d="M57.602,42.294h-2.983c-1.697,1.542-3.943,2.49-6.416,2.489c-2.475,0.001-4.723-0.945-6.418-2.489
							H38.8c-4.051,0.001-12.226,5.285-12.227,9.02l-0.001,1.408c0.001,3.734,3.284,6.764,7.337,6.764h28.584
							c4.053-0.001,7.338-3.028,7.338-6.764l-0.001-1.408C69.83,47.577,61.653,42.294,57.602,42.294z"/>
					</g>
					<g>
						<circle fill="#939598" cx="48.492" cy="31.993" r="9.56"/>
						<path fill="#939598" d="M57.892,42.585H54.91c-1.698,1.542-3.943,2.49-6.417,2.489c-2.475,0-4.722-0.946-6.418-2.489h-2.983
							c-4.052,0-12.228,5.284-12.228,9.019l-0.001,1.409c0.001,3.733,3.284,6.764,7.337,6.763l28.583,0.001
							c4.054-0.002,7.338-3.029,7.338-6.764l-0.001-1.409C70.12,47.868,61.944,42.585,57.892,42.585z"/>
					</g>
					<g>
						<circle fill="#939598" cx="48.783" cy="32.283" r="9.56"/>
						<path fill="#939598" d="M58.183,42.875H55.2c-1.697,1.542-3.943,2.49-6.417,2.489c-2.475,0-4.722-0.946-6.418-2.489h-2.983
							c-4.052,0.001-12.227,5.284-12.227,9.019l-0.001,1.408c0.001,3.734,3.284,6.764,7.337,6.763l28.584,0.001
							c4.053-0.001,7.337-3.029,7.337-6.764v-1.408C70.41,48.158,62.234,42.875,58.183,42.875z"/>
					</g>
					<g>
						<circle fill="#939598" cx="49.073" cy="32.573" r="9.56"/>
						<path fill="#939598" d="M58.474,43.165H55.49c-1.698,1.542-3.944,2.491-6.417,2.49c-2.475,0-4.722-0.946-6.418-2.49h-2.983
							c-4.052,0.001-12.227,5.285-12.228,9.02l-0.001,1.408c0.001,3.734,3.284,6.764,7.337,6.764h28.584
							c4.054-0.001,7.338-3.028,7.338-6.764L70.7,52.185C70.701,48.448,62.525,43.165,58.474,43.165z"/>
					</g>
					<g>
						<circle fill="#939598" cx="49.363" cy="32.863" r="9.56"/>
						<path fill="#939598" d="M58.764,43.456H55.78c-1.698,1.542-3.943,2.49-6.417,2.489c-2.475,0-4.722-0.946-6.418-2.489h-2.983
							c-4.052,0-12.227,5.283-12.227,9.02l-0.001,1.408c0.001,3.733,3.284,6.764,7.337,6.763l28.583,0.001
							c4.054-0.002,7.338-3.029,7.338-6.764l-0.001-1.408C70.991,48.739,62.815,43.456,58.764,43.456z"/>
					</g>
					<g>
						<circle fill="#939598" cx="49.654" cy="33.154" r="9.56"/>
						<path fill="#939598" d="M59.054,43.746H56.07c-1.697,1.542-3.943,2.49-6.416,2.49c-2.476,0-4.722-0.947-6.419-2.49h-2.983
							c-4.052,0.001-12.228,5.284-12.228,9.02l-0.001,1.408c0.001,3.734,3.284,6.764,7.337,6.763l28.584,0.001
							c4.054-0.001,7.337-3.028,7.337-6.764v-1.408C71.281,49.029,63.106,43.746,59.054,43.746z"/>
					</g>
					<g>
						<circle fill="#939598" cx="49.943" cy="33.444" r="9.56"/>
						<path fill="#939598" d="M59.344,44.036H56.36c-1.697,1.542-3.944,2.491-6.417,2.49c-2.475,0-4.722-0.946-6.418-2.49h-2.983
							c-4.052,0.001-12.228,5.285-12.229,9.02v1.409c0,3.733,3.284,6.763,7.336,6.763h28.584c4.054-0.001,7.338-3.028,7.338-6.763
							l-0.001-1.409C71.571,49.319,63.396,44.036,59.344,44.036z"/>
					</g>
					<g>
						<circle fill="#939598" cx="50.234" cy="33.735" r="9.56"/>
						<path fill="#939598" d="M59.635,44.327h-2.983c-1.697,1.542-3.944,2.49-6.416,2.49c-2.476,0-4.723-0.947-6.419-2.49h-2.983
							c-4.052,0-12.228,5.284-12.229,9.02v1.408c0,3.734,3.284,6.764,7.337,6.764h28.583c4.054-0.002,7.338-3.029,7.338-6.764
							l-0.001-1.408C71.862,49.61,63.688,44.327,59.635,44.327z"/>
					</g>
					<g>
						<circle fill="#939598" cx="50.525" cy="34.025" r="9.56"/>
						<path fill="#939598" d="M59.926,44.618h-2.984c-1.697,1.541-3.943,2.489-6.416,2.489c-2.476,0-4.722-0.947-6.418-2.489h-2.984
							c-4.051,0-12.227,5.283-12.228,9.019l-0.001,1.408c0.001,3.735,3.284,6.764,7.337,6.763l28.584,0.001
							c4.054-0.001,7.337-3.028,7.337-6.764v-1.408C72.152,49.9,63.978,44.618,59.926,44.618z"/>
					</g>
					<g>
						<circle fill="#939598" cx="50.814" cy="34.315" r="9.56"/>
						<path fill="#939598" d="M60.215,44.908h-2.983c-1.697,1.542-3.944,2.49-6.417,2.489c-2.475,0.001-4.722-0.946-6.418-2.489
							h-2.983c-4.052,0-12.227,5.284-12.228,9.02v1.408c0,3.734,3.284,6.764,7.337,6.763L65.104,62.1
							c4.054-0.002,7.338-3.029,7.338-6.764l-0.001-1.408C72.442,50.191,64.268,44.908,60.215,44.908z"/>
					</g>
					<g>
						<circle fill="#939598" cx="51.106" cy="34.606" r="9.56"/>
						<path fill="#939598" d="M60.506,45.199h-2.983c-1.697,1.541-3.943,2.49-6.417,2.489c-2.475,0-4.721-0.947-6.418-2.489h-2.983
							c-4.052,0-12.227,5.283-12.227,9.019l-0.001,1.408c0.001,3.735,3.284,6.764,7.337,6.763l28.583,0.001
							c4.054-0.002,7.338-3.028,7.338-6.764l-0.001-1.408C72.733,50.482,64.559,45.199,60.506,45.199z"/>
					</g>
					<g>
						<circle fill="#939598" cx="51.396" cy="34.897" r="9.56"/>
						<path fill="#939598" d="M60.797,45.489h-2.983c-1.697,1.542-3.944,2.49-6.417,2.489c-2.475,0.001-4.722-0.947-6.418-2.489
							h-2.984c-4.051,0-12.227,5.284-12.228,9.018l-0.001,1.408c0.001,3.735,3.285,6.764,7.337,6.764h28.584
							c4.054-0.001,7.338-3.028,7.338-6.764l-0.001-1.408C73.024,50.773,64.849,45.489,60.797,45.489z"/>
					</g>
					<g>
						<circle fill="#939598" cx="51.686" cy="35.187" r="9.56"/>
						<path fill="#939598" d="M61.086,45.779h-2.983c-1.697,1.541-3.943,2.49-6.417,2.488c-2.475,0.001-4.722-0.945-6.418-2.488
							h-2.982c-4.052,0-12.228,5.284-12.229,9.019v1.408c0,3.734,3.284,6.764,7.337,6.763l28.583,0.001
							c4.054-0.001,7.338-3.028,7.338-6.764v-1.408C73.313,51.063,65.139,45.779,61.086,45.779z"/>
					</g>
					<g>
						<circle fill="#939598" cx="51.978" cy="35.478" r="9.56"/>
						<path fill="#939598" d="M61.378,46.07h-2.984c-1.697,1.542-3.943,2.49-6.416,2.489c-2.476,0-4.722-0.947-6.419-2.489h-2.983
							c-4.052,0-12.227,5.283-12.227,9.019l-0.001,1.408c0.001,3.735,3.285,6.764,7.338,6.763l28.583,0.001
							c4.053-0.001,7.337-3.028,7.337-6.764v-1.408C73.604,51.354,65.43,46.07,61.378,46.07z"/>
					</g>
					<g>
						<circle fill="#939598" cx="52.268" cy="35.768" r="9.56"/>
						<path fill="#939598" d="M61.668,46.36h-2.983c-1.697,1.542-3.944,2.49-6.417,2.489c-2.475,0.001-4.722-0.946-6.418-2.489
							h-2.983c-4.052,0.001-12.228,5.284-12.229,9.019v1.408c0,3.735,3.284,6.764,7.337,6.764h28.583
							c4.054,0,7.338-3.027,7.338-6.764l-0.001-1.408C73.896,51.644,65.72,46.36,61.668,46.36z"/>
					</g>
					<g>
						<circle fill="#939598" cx="52.557" cy="36.058" r="9.56"/>
						<path fill="#939598" d="M61.958,46.65h-2.983c-1.698,1.541-3.944,2.49-6.418,2.488c-2.474,0.001-4.721-0.945-6.417-2.488
							h-2.983c-4.052,0-12.228,5.284-12.229,9.019v1.408c0,3.734,3.285,6.764,7.337,6.764h28.583
							c4.054-0.001,7.337-3.028,7.337-6.764v-1.408C74.185,51.934,66.011,46.65,61.958,46.65z"/>
					</g>
					<g>
						<circle fill="#939598" cx="52.849" cy="36.349" r="9.56"/>
						<path fill="#939598" d="M62.249,46.941h-2.984c-1.696,1.542-3.943,2.49-6.416,2.489c-2.476,0-4.722-0.946-6.418-2.489h-2.983
							c-4.052,0.001-12.229,5.284-12.229,9.019l-0.001,1.408c0.001,3.735,3.285,6.764,7.338,6.764h28.583
							c4.053,0,7.337-3.028,7.337-6.764V55.96C74.476,52.225,66.301,46.941,62.249,46.941z"/>
					</g>
					<g>
						<circle fill="#939598" cx="53.139" cy="36.639" r="9.56"/>
						<path fill="#939598" d="M62.539,47.231h-2.983c-1.697,1.542-3.944,2.49-6.417,2.489c-2.475,0.001-4.722-0.946-6.418-2.489
							h-2.983c-4.052,0.001-12.228,5.284-12.229,9.019v1.408c0,3.735,3.284,6.764,7.337,6.764h28.583
							c4.054,0,7.338-3.027,7.338-6.764V56.25C74.767,52.515,66.591,47.231,62.539,47.231z"/>
					</g>
					<g>
						<circle fill="#939598" cx="53.43" cy="36.93" r="9.56"/>
						<path fill="#939598" d="M62.829,47.523h-2.983c-1.697,1.542-3.943,2.49-6.417,2.488c-2.475,0.001-4.721-0.945-6.418-2.488
							h-2.982c-4.052,0-12.229,5.283-12.229,9.019v1.408c0,3.734,3.284,6.764,7.337,6.764H67.72
							c4.053-0.001,7.337-3.028,7.337-6.764v-1.408C75.057,52.806,66.882,47.523,62.829,47.523z"/>
					</g>
					<g>
						<circle fill="#939598" cx="53.72" cy="37.22" r="9.56"/>
						<path fill="#939598" d="M63.12,47.813h-2.984c-1.696,1.542-3.943,2.49-6.416,2.489c-2.475,0-4.722-0.946-6.418-2.489h-2.983
							c-4.052,0.001-12.228,5.284-12.228,9.018v1.408c0,3.735,3.284,6.764,7.337,6.764H68.01c4.053,0,7.338-3.028,7.338-6.764
							v-1.408C75.348,53.096,67.172,47.813,63.12,47.813z"/>
					</g>
					<g>
						<circle fill="#939598" cx="54.01" cy="37.511" r="9.56"/>
						<path fill="#939598" d="M63.41,48.103h-2.983c-1.697,1.542-3.943,2.491-6.417,2.489c-2.475,0.001-4.722-0.945-6.417-2.489
							h-2.984c-4.051,0.001-12.228,5.285-12.228,9.019L32.38,58.53c0.001,3.735,3.284,6.765,7.337,6.765h28.584
							c4.053-0.001,7.337-3.028,7.337-6.765v-1.408C75.638,53.386,67.462,48.103,63.41,48.103z"/>
					</g>
					<g>
						<circle fill="#939598" cx="54.301" cy="37.801" r="9.56"/>
						<path fill="#939598" d="M63.7,48.394h-2.983c-1.697,1.542-3.942,2.49-6.417,2.488c-2.474,0.001-4.721-0.945-6.417-2.488H44.9
							c-4.052,0-12.229,5.283-12.229,9.019v1.408c0,3.734,3.284,6.765,7.337,6.764l28.583,0.001
							c4.053-0.002,7.338-3.029,7.338-6.765l-0.001-1.408C75.929,53.677,67.753,48.394,63.7,48.394z"/>
					</g>
					<g>
						<circle fill="#939598" cx="54.591" cy="38.092" r="9.56"/>
						<path fill="#939598" d="M63.991,48.684h-2.983c-1.697,1.542-3.943,2.49-6.417,2.489c-2.475,0-4.722-0.946-6.418-2.489H45.19
							c-4.052,0.001-12.228,5.284-12.228,9.019l-0.001,1.409c0.001,3.734,3.284,6.764,7.337,6.763l28.584,0.001
							c4.053-0.001,7.337-3.029,7.337-6.764v-1.409C76.219,53.967,68.043,48.684,63.991,48.684z"/>
					</g>
					<g>
						<circle fill="#939598" cx="54.88" cy="38.382" r="9.56"/>
						<path fill="#939598" d="M64.28,48.974h-2.982c-1.698,1.542-3.944,2.491-6.417,2.489c-2.475,0.001-4.722-0.945-6.418-2.489
							H45.48c-4.052,0.001-12.228,5.285-12.229,9.02v1.408c0,3.734,3.283,6.764,7.337,6.764h28.583
							c4.054-0.001,7.338-3.028,7.338-6.764l-0.001-1.408C76.509,54.257,68.333,48.974,64.28,48.974z"/>
					</g>
					<g>
						<circle fill="#939598" cx="55.171" cy="38.672" r="9.56"/>
						<path fill="#939598" d="M64.571,49.265h-2.982c-1.698,1.541-3.944,2.49-6.417,2.489c-2.475,0-4.722-0.946-6.418-2.489h-2.983
							c-4.052,0-12.228,5.284-12.229,9.019v1.409c0,3.733,3.283,6.764,7.337,6.764h28.583c4.053-0.002,7.338-3.029,7.338-6.764
							l-0.001-1.409C76.8,54.548,68.624,49.265,64.571,49.265z"/>
					</g>
					<g>
						<circle fill="#939598" cx="55.461" cy="38.963" r="9.56"/>
						<path fill="#939598" d="M64.862,49.555h-2.984c-1.697,1.542-3.942,2.49-6.416,2.489c-2.476,0.001-4.722-0.946-6.418-2.489
							h-2.983c-4.051,0.001-12.228,5.285-12.229,9.02v1.408c0,3.734,3.283,6.764,7.336,6.763l28.584,0.001
							c4.054-0.001,7.338-3.028,7.338-6.764v-1.408C77.09,54.838,68.914,49.555,64.862,49.555z"/>
					</g>
					<g>
						<circle fill="#939598" cx="55.752" cy="39.253" r="9.56"/>
						<path fill="#939598" d="M65.152,49.846h-2.983c-1.698,1.541-3.944,2.49-6.417,2.488c-2.475,0.001-4.722-0.945-6.418-2.488
							h-2.983c-4.052,0-12.227,5.284-12.228,9.019v1.409c0,3.733,3.283,6.764,7.337,6.763l28.583,0.001
							c4.054-0.002,7.338-3.029,7.338-6.764l-0.001-1.409C77.38,55.128,69.204,49.846,65.152,49.846z"/>
					</g>
					<g>
						<circle fill="#939598" cx="56.043" cy="39.544" r="9.56"/>
						<path fill="#939598" d="M65.443,50.136H62.46c-1.698,1.541-3.944,2.49-6.416,2.489c-2.476,0-4.723-0.946-6.419-2.489h-2.983
							c-4.052,0-12.227,5.284-12.229,9.02v1.408c0,3.733,3.284,6.764,7.337,6.764h28.583c4.054-0.002,7.338-3.029,7.338-6.764
							l-0.001-1.408C77.671,55.419,69.495,50.136,65.443,50.136z"/>
					</g>
					<g>
						<circle fill="#939598" cx="56.334" cy="39.834" r="9.56"/>
						<path fill="#939598" d="M65.733,50.426h-2.982c-1.698,1.542-3.944,2.49-6.417,2.49c-2.475,0-4.722-0.947-6.418-2.49h-2.984
							c-4.051,0.001-12.227,5.285-12.228,9.019l-0.001,1.408c0.001,3.734,3.284,6.764,7.337,6.764h28.584
							c4.054-0.001,7.338-3.028,7.338-6.764l-0.001-1.408C77.962,55.709,69.786,50.426,65.733,50.426z"/>
					</g>
					<g>
						<circle fill="#939598" cx="56.623" cy="40.124" r="9.56"/>
						<path fill="#939598" d="M66.023,50.717H63.04c-1.697,1.541-3.944,2.49-6.417,2.489c-2.475,0-4.722-0.946-6.418-2.489h-2.983
							c-4.052,0-12.228,5.284-12.229,9.02v1.408c0,3.733,3.284,6.764,7.337,6.763l28.583,0.001c4.054-0.002,7.338-3.029,7.338-6.764
							l-0.001-1.408C78.251,55.999,70.076,50.717,66.023,50.717z"/>
					</g>
					<g>
						<circle fill="#939598" cx="56.914" cy="40.415" r="9.56"/>
						<path fill="#939598" d="M66.314,51.007h-2.983c-1.697,1.542-3.943,2.49-6.416,2.49c-2.476,0-4.722-0.947-6.419-2.49h-2.983
							c-4.052,0-12.228,5.284-12.229,9.02v1.408c0,3.734,3.284,6.764,7.338,6.764h28.582c4.054-0.002,7.338-3.029,7.338-6.764
							l-0.001-1.408C78.542,56.29,70.367,51.007,66.314,51.007z"/>
					</g>
					<g>
						<circle fill="#939598" cx="57.205" cy="40.705" r="9.56"/>
						<path fill="#939598" d="M66.605,51.297h-2.983c-1.698,1.542-3.944,2.49-6.417,2.49c-2.475,0-4.722-0.947-6.418-2.49h-2.984
							c-4.051,0.001-12.227,5.285-12.228,9.02l-0.001,1.408c0.001,3.734,3.284,6.764,7.337,6.764h28.584
							c4.054-0.001,7.338-3.028,7.338-6.764l-0.001-1.408C78.833,56.58,70.657,51.297,66.605,51.297z"/>
					</g>
					<g>
						<circle fill="#939598" cx="57.495" cy="40.994" r="9.56"/>
						<path fill="#939598" d="M66.895,51.588h-2.983c-1.697,1.541-3.944,2.49-6.416,2.488c-2.476,0.001-4.723-0.946-6.418-2.488
							h-2.983c-4.053,0-12.228,5.283-12.228,9.019v1.408c0,3.734,3.284,6.764,7.336,6.763l28.584,0.001
							c4.053-0.001,7.338-3.028,7.338-6.764l-0.002-1.408C79.123,56.871,70.947,51.588,66.895,51.588z"/>
					</g>
					<g>
						<circle fill="#939598" cx="57.786" cy="41.286" r="9.56"/>
						<path fill="#939598" d="M67.187,51.879h-2.984c-1.697,1.541-3.943,2.489-6.416,2.489c-2.476,0-4.722-0.947-6.419-2.489h-2.983
							c-4.052,0-12.227,5.283-12.227,9.019l-0.001,1.408c0.001,3.735,3.284,6.764,7.337,6.763l28.584,0.001
							c4.054-0.001,7.337-3.028,7.337-6.764v-1.408C79.413,57.161,71.238,51.879,67.187,51.879z"/>
					</g>
					<g>
						<circle fill="#939598" cx="58.076" cy="41.576" r="9.56"/>
						<path fill="#939598" d="M67.477,52.169h-2.983c-1.697,1.542-3.944,2.49-6.417,2.489c-2.475,0.001-4.722-0.946-6.418-2.489
							h-2.984c-4.051,0-12.227,5.284-12.228,9.019l-0.001,1.408c0.001,3.735,3.285,6.764,7.337,6.764h28.584
							c4.054-0.001,7.338-3.028,7.338-6.764l-0.001-1.408C79.704,57.452,71.528,52.169,67.477,52.169z"/>
					</g>
					<g>
						<circle fill="#939598" cx="58.367" cy="41.866" r="9.559"/>
						<path fill="#939598" d="M67.767,52.46h-2.983c-1.697,1.541-3.943,2.49-6.417,2.488c-2.475,0.001-4.721-0.946-6.418-2.488
							h-2.983c-4.052,0-12.228,5.282-12.228,9.019l-0.001,1.408c0.001,3.734,3.284,6.764,7.337,6.763l28.583,0.001
							c4.054-0.002,7.338-3.028,7.338-6.764l-0.001-1.408C79.994,57.742,71.819,52.46,67.767,52.46z"/>
					</g>
					<g>
						<circle fill="#939598" cx="58.657" cy="42.157" r="9.56"/>
						<path fill="#939598" d="M68.058,52.75h-2.984c-1.696,1.542-3.943,2.49-6.416,2.489c-2.476,0-4.722-0.947-6.419-2.489h-2.983
							c-4.052,0-12.227,5.283-12.227,9.018l-0.001,1.408c0.001,3.735,3.285,6.764,7.337,6.763l28.584,0.001
							c4.054-0.001,7.337-3.028,7.337-6.764v-1.408C80.284,58.033,72.109,52.75,68.058,52.75z"/>
					</g>
					<g>
						<circle fill="#939598" cx="58.947" cy="42.447" r="9.56"/>
						<path fill="#939598" d="M68.348,53.04h-2.983c-1.697,1.542-3.944,2.491-6.417,2.489c-2.475,0.001-4.722-0.946-6.418-2.489
							h-2.983c-4.052,0.001-12.228,5.284-12.229,9.019l-0.001,1.408c0.001,3.735,3.285,6.764,7.338,6.764h28.583
							c4.054-0.001,7.338-3.027,7.338-6.764l-0.001-1.408C80.575,58.323,72.399,53.04,68.348,53.04z"/>
					</g>
					<g>
						<circle fill="#939598" cx="59.238" cy="42.737" r="9.559"/>
						<path fill="#939598" d="M68.638,53.331h-2.983c-1.697,1.542-3.943,2.49-6.417,2.488c-2.475,0.001-4.721-0.946-6.418-2.488
							h-2.983c-4.052,0-12.228,5.283-12.228,9.019l-0.001,1.408c0.001,3.734,3.285,6.764,7.337,6.763l28.583,0.001
							c4.054-0.001,7.338-3.028,7.338-6.764l-0.001-1.408C80.865,58.614,72.69,53.331,68.638,53.331z"/>
					</g>
					<g>
						<circle fill="#939598" cx="59.528" cy="43.028" r="9.56"/>
						<path fill="#939598" d="M68.929,53.621h-2.984c-1.696,1.542-3.943,2.49-6.416,2.489c-2.476,0.001-4.722-0.946-6.419-2.489
							h-2.982c-4.052,0.001-12.229,5.284-12.229,9.019l-0.001,1.408c0.001,3.735,3.285,6.764,7.338,6.764h28.583
							c4.054,0,7.337-3.028,7.337-6.764V62.64C81.155,58.904,72.98,53.621,68.929,53.621z"/>
					</g>
					<g>
						<circle fill="#939598" cx="59.818" cy="43.318" r="9.56"/>
						<path fill="#939598" d="M69.218,53.911h-2.983c-1.697,1.542-3.943,2.491-6.417,2.489c-2.475,0.001-4.722-0.946-6.418-2.489
							h-2.982c-4.052,0.001-12.229,5.284-12.229,9.019v1.409c0,3.734,3.283,6.764,7.336,6.763l28.584,0.001
							c4.053-0.001,7.338-3.028,7.338-6.764l-0.001-1.409C81.446,59.194,73.271,53.911,69.218,53.911z"/>
					</g>
					<g>
						<circle fill="#939598" cx="60.109" cy="43.609" r="9.56"/>
						<path fill="#939598" d="M69.509,54.202h-2.983c-1.697,1.541-3.943,2.49-6.416,2.489c-2.476,0-4.723-0.946-6.419-2.489h-2.982
							c-4.053,0-12.229,5.284-12.229,9.019v1.408c0,3.734,3.283,6.764,7.337,6.764H74.4c4.053-0.001,7.337-3.028,7.337-6.764v-1.408
							C81.736,59.485,73.562,54.202,69.509,54.202z"/>
					</g>
					<g>
						<circle fill="#939598" cx="60.4" cy="43.899" r="9.56"/>
						<path fill="#939598" d="M69.8,54.492h-2.984c-1.696,1.542-3.943,2.49-6.416,2.489c-2.475,0.001-4.722-0.946-6.418-2.489
							h-2.983c-4.052,0.001-12.228,5.284-12.229,9.019v1.408c0,3.735,3.284,6.764,7.337,6.764H74.69
							c4.054,0,7.337-3.027,7.337-6.764v-1.408C82.026,59.775,73.852,54.492,69.8,54.492z"/>
					</g>
					<g>
						<circle fill="#939598" cx="60.689" cy="44.189" r="9.56"/>
						<path fill="#939598" d="M70.089,54.783h-2.982c-1.698,1.541-3.944,2.49-6.418,2.488c-2.474,0.001-4.722-0.945-6.417-2.488
							h-2.983c-4.052,0-12.228,5.284-12.228,9.019v1.408c0,3.734,3.283,6.764,7.336,6.764h28.584
							c4.053-0.001,7.338-3.028,7.338-6.764l-0.001-1.408C82.317,60.065,74.142,54.783,70.089,54.783z"/>
					</g>
					<g>
						<circle fill="#939598" cx="60.98" cy="44.481" r="9.56"/>
						<path fill="#939598" d="M70.38,55.073h-2.983c-1.697,1.541-3.943,2.49-6.416,2.489c-2.476,0-4.723-0.946-6.418-2.489H51.58
							c-4.052,0-12.229,5.284-12.229,9.019V65.5c0,3.734,3.284,6.764,7.337,6.764h28.583c4.053-0.001,7.338-3.028,7.338-6.764
							l-0.001-1.408C82.608,60.356,74.433,55.073,70.38,55.073z"/>
					</g>
					<g>
						<circle fill="#939598" cx="61.271" cy="44.772" r="9.56"/>
						<path fill="#939598" d="M70.671,55.363h-2.983c-1.697,1.542-3.943,2.49-6.417,2.489c-2.475,0.001-4.722-0.946-6.418-2.489
							H51.87c-4.051,0.001-12.228,5.285-12.228,9.019l-0.001,1.408c0.001,3.735,3.284,6.765,7.337,6.765h28.584
							c4.053-0.001,7.337-3.028,7.337-6.765v-1.408C82.898,60.647,74.723,55.363,70.671,55.363z"/>
					</g>
					<g>
						<circle fill="#939598" cx="61.56" cy="45.061" r="9.559"/>
						<path fill="#939598" d="M70.96,55.653h-2.982c-1.698,1.541-3.944,2.49-6.417,2.489c-2.475,0-4.722-0.946-6.418-2.489H52.16
							c-4.052,0-12.229,5.283-12.229,9.02v1.408c0,3.733,3.283,6.764,7.336,6.763l28.584,0.001c4.054-0.002,7.338-3.029,7.338-6.764
							l-0.001-1.408C83.188,60.937,75.013,55.653,70.96,55.653z"/>
					</g>
					<g>
						<circle fill="#939598" cx="61.851" cy="45.353" r="9.56"/>
						<path fill="#939598" d="M71.251,55.944h-2.982c-1.698,1.542-3.943,2.49-6.417,2.489c-2.475,0-4.722-0.946-6.418-2.489H52.45
							c-4.052,0-12.228,5.284-12.228,9.019l-0.001,1.408c0.001,3.734,3.284,6.765,7.337,6.765h28.583
							c4.053-0.002,7.338-3.029,7.338-6.765l-0.001-1.408C83.479,61.228,75.304,55.944,71.251,55.944z"/>
					</g>
					<g>
						<circle fill="#939598" cx="62.142" cy="45.643" r="9.56"/>
						<path fill="#939598" d="M71.542,56.234H68.56c-1.698,1.542-3.944,2.49-6.418,2.489c-2.474,0.001-4.722-0.945-6.417-2.489
							H52.74c-4.051,0.001-12.228,5.285-12.228,9.019l-0.001,1.408c0.001,3.734,3.284,6.764,7.337,6.764h28.584
							c4.053-0.001,7.338-3.028,7.338-6.764l-0.001-1.408C83.771,61.518,75.594,56.234,71.542,56.234z"/>
					</g>
					<g>
						<circle fill="#939598" cx="62.432" cy="45.932" r="9.559"/>
						<path fill="#939598" d="M71.832,56.524H68.85c-1.699,1.541-3.944,2.49-6.418,2.489c-2.474,0-4.722-0.946-6.418-2.489H53.03
							c-4.051,0-12.229,5.283-12.229,9.019v1.408c0,3.733,3.285,6.764,7.338,6.763l28.582,0.001
							c4.055-0.002,7.338-3.029,7.338-6.764v-1.408C84.06,61.808,75.885,56.524,71.832,56.524z"/>
					</g>
					<g>
						<circle fill="#939598" cx="62.722" cy="46.224" r="9.56"/>
						<path fill="#939598" d="M72.123,56.815H69.14c-1.698,1.542-3.943,2.49-6.416,2.489c-2.476,0-4.723-0.946-6.419-2.489h-2.983
							c-4.052,0-12.228,5.284-12.228,9.02l-0.001,1.408c0.001,3.733,3.284,6.764,7.337,6.764h28.583
							c4.054-0.002,7.338-3.029,7.338-6.764l-0.001-1.408C84.351,62.099,76.175,56.815,72.123,56.815z"/>
					</g>
					<g>
						<circle fill="#939598" cx="63.013" cy="46.514" r="9.56"/>
						<path fill="#939598" d="M72.413,57.106h-2.982c-1.698,1.542-3.944,2.49-6.417,2.489c-2.475,0.001-4.722-0.945-6.418-2.489
							h-2.984c-4.051,0.001-12.227,5.285-12.228,9.019l-0.001,1.408c0.001,3.734,3.284,6.764,7.337,6.764h28.584
							c4.053-0.001,7.338-3.028,7.338-6.764l-0.001-1.408C84.642,62.389,76.466,57.106,72.413,57.106z"/>
					</g>
					<g>
						<circle fill="#939598" cx="63.304" cy="46.804" r="9.56"/>
						<path fill="#939598" d="M72.704,57.397h-2.983c-1.698,1.542-3.943,2.49-6.417,2.489c-2.475,0-4.722-0.946-6.418-2.489h-2.983
							c-4.052,0-12.228,5.283-12.228,9.019v1.408c0,3.733,3.284,6.764,7.337,6.763l28.583,0.001
							c4.054-0.002,7.338-3.029,7.338-6.764l-0.001-1.408C84.932,62.68,76.756,57.397,72.704,57.397z"/>
					</g>
					<g>
						<circle fill="#939598" cx="63.594" cy="47.095" r="9.56"/>
						<path fill="#939598" d="M72.994,57.687h-2.983c-1.698,1.542-3.943,2.49-6.416,2.49c-2.476,0-4.723-0.947-6.419-2.49h-2.983
							c-4.052,0.001-12.228,5.284-12.228,9.02l-0.001,1.408c0.001,3.734,3.284,6.764,7.337,6.764h28.583
							c4.054-0.001,7.338-3.029,7.338-6.764l-0.001-1.408C85.222,62.97,77.047,57.687,72.994,57.687z"/>
					</g>
					<g>
						<circle fill="#939598" cx="63.884" cy="47.385" r="9.56"/>
						<path fill="#939598" d="M73.285,57.977h-2.983c-1.698,1.542-3.944,2.491-6.417,2.49c-2.475,0-4.722-0.946-6.418-2.49h-2.984
							c-4.051,0.001-12.227,5.285-12.228,9.02l-0.001,1.408c0.001,3.734,3.284,6.764,7.337,6.764h28.584
							c4.054-0.001,7.338-3.028,7.338-6.764l-0.001-1.408C85.513,63.26,77.337,57.977,73.285,57.977z"/>
					</g>
					<g>
						<circle fill="#939598" cx="64.175" cy="47.675" r="9.56"/>
						<path fill="#939598" d="M73.575,58.268h-2.983c-1.698,1.542-3.943,2.49-6.417,2.489c-2.475,0.001-4.721-0.946-6.418-2.489
							h-2.983c-4.052,0-12.229,5.283-12.229,9.02v1.408c0,3.734,3.284,6.764,7.337,6.763l28.583,0.001
							c4.054-0.002,7.338-3.029,7.338-6.764l-0.001-1.408C85.803,63.551,77.628,58.268,73.575,58.268z"/>
					</g>
					<g>
						<circle fill="#939598" cx="64.465" cy="47.966" r="9.56"/>
						<path fill="#939598" d="M73.866,58.558h-2.984c-1.697,1.542-3.943,2.49-6.416,2.49c-2.476,0-4.722-0.947-6.418-2.49h-2.984
							c-4.052,0.001-12.228,5.284-12.228,9.02l-0.001,1.408c0.001,3.734,3.284,6.764,7.337,6.763l28.584,0.001
							c4.053-0.001,7.337-3.028,7.337-6.764v-1.408C86.093,63.841,77.918,58.558,73.866,58.558z"/>
					</g>
					<g>
						<circle fill="#939598" cx="64.755" cy="48.256" r="9.56"/>
						<path fill="#939598" d="M74.155,58.849h-2.983c-1.697,1.542-3.944,2.49-6.417,2.489c-2.475,0.001-4.722-0.946-6.418-2.489
							h-2.983c-4.052,0-12.228,5.284-12.229,9.019v1.409c0,3.734,3.284,6.763,7.337,6.763h28.583
							c4.054-0.001,7.338-3.028,7.338-6.763l-0.001-1.409C86.383,64.132,78.208,58.849,74.155,58.849z"/>
					</g>
					<g>
						<circle fill="#939598" cx="65.046" cy="48.547" r="9.56"/>
						<path fill="#939598" d="M74.446,59.139h-2.983c-1.697,1.542-3.944,2.49-6.416,2.49c-2.476,0-4.723-0.947-6.419-2.49h-2.983
							c-4.052,0-12.228,5.284-12.229,9.02v1.408c0,3.734,3.284,6.764,7.337,6.764h28.583c4.054-0.002,7.338-3.029,7.338-6.764
							l-0.001-1.408C86.674,64.422,78.499,59.139,74.446,59.139z"/>
					</g>
					<g>
						<circle fill="#939598" cx="65.336" cy="48.837" r="9.56"/>
						<path fill="#939598" d="M74.737,59.43h-2.985c-1.696,1.542-3.942,2.49-6.416,2.489c-2.476,0.001-4.721-0.947-6.418-2.489
							h-2.983c-4.051,0-12.227,5.283-12.228,9.019v1.408c0,3.735,3.284,6.764,7.337,6.763l28.583,0.001
							c4.055-0.001,7.338-3.028,7.338-6.764v-1.408C86.964,64.713,78.788,59.43,74.737,59.43z"/>
					</g>
					<g>
						<circle fill="#939598" cx="65.627" cy="49.127" r="9.559"/>
						<path fill="#939598" d="M75.026,59.721h-2.983c-1.697,1.541-3.944,2.49-6.417,2.488c-2.475,0.001-4.722-0.946-6.418-2.488
							h-2.982c-4.053,0-12.229,5.282-12.229,9.018v1.409c0,3.734,3.284,6.764,7.337,6.763l28.583,0.001
							c4.054-0.002,7.338-3.028,7.338-6.764l-0.001-1.409C87.254,65.003,79.079,59.721,75.026,59.721z"/>
					</g>
					<g>
						<circle fill="#939598" cx="65.917" cy="49.418" r="9.56"/>
						<path fill="#939598" d="M75.317,60.011h-2.983c-1.697,1.541-3.944,2.49-6.416,2.489c-2.476,0-4.722-0.947-6.419-2.489h-2.983
							c-4.052,0-12.228,5.283-12.229,9.019v1.408c0,3.734,3.285,6.764,7.337,6.764h28.583c4.054-0.001,7.338-3.028,7.338-6.764
							l-0.001-1.408C87.545,65.294,79.37,60.011,75.317,60.011z"/>
					</g>
					<g>
						<circle fill="#939598" cx="66.208" cy="49.708" r="9.56"/>
						<path fill="#939598" d="M75.608,60.301h-2.983c-1.697,1.542-3.944,2.49-6.417,2.489c-2.475,0.001-4.722-0.947-6.418-2.489
							h-2.984c-4.051,0.001-12.227,5.284-12.228,9.019l-0.001,1.408c0.001,3.735,3.285,6.764,7.338,6.764h28.583
							c4.054-0.001,7.338-3.027,7.338-6.764l-0.001-1.408C87.836,65.584,79.66,60.301,75.608,60.301z"/>
					</g>
					<g>
						<circle fill="#939598" cx="66.498" cy="49.998" r="9.559"/>
						<path fill="#939598" d="M75.897,60.592h-2.983c-1.697,1.541-3.943,2.49-6.417,2.488c-2.475,0.001-4.722-0.946-6.418-2.488
							h-2.982c-4.052,0-12.229,5.283-12.229,9.018v1.409c0,3.734,3.283,6.764,7.337,6.763l28.583,0.001
							c4.053-0.001,7.337-3.028,7.337-6.764V69.61C88.125,65.874,79.95,60.592,75.897,60.592z"/>
					</g>
					<g>
						<circle fill="#939598" cx="66.789" cy="50.289" r="9.56"/>
						<path fill="#939598" d="M76.188,60.882h-2.983c-1.697,1.542-3.943,2.49-6.416,2.489c-2.476,0-4.722-0.946-6.419-2.489h-2.982
							c-4.053,0-12.229,5.284-12.229,9.019v1.408c0,3.734,3.285,6.764,7.338,6.764H81.08c4.053-0.001,7.337-3.028,7.337-6.764V69.9
							C88.416,66.165,80.241,60.882,76.188,60.882z"/>
					</g>
					<g>
						<circle fill="#939598" cx="67.079" cy="50.579" r="9.56"/>
						<path fill="#939598" d="M76.479,61.172h-2.983c-1.697,1.542-3.944,2.49-6.417,2.489c-2.475,0.001-4.722-0.946-6.418-2.489
							h-2.983c-4.052,0.001-12.228,5.284-12.228,9.018v1.408c0,3.735,3.284,6.764,7.337,6.764H81.37
							c4.054,0,7.338-3.027,7.338-6.764l-0.001-1.408C88.707,66.455,80.531,61.172,76.479,61.172z"/>
					</g>
					<g>
						<circle fill="#939598" cx="67.37" cy="50.869" r="9.56"/>
						<path fill="#939598" d="M76.769,61.462h-2.982c-1.697,1.541-3.944,2.49-6.417,2.488c-2.475,0.001-4.723-0.945-6.418-2.488
							H57.97c-4.053,0-12.229,5.283-12.229,9.019v1.408c0,3.734,3.284,6.765,7.337,6.764l28.583,0.001
							c4.053-0.002,7.338-3.029,7.338-6.765l-0.001-1.408C88.997,66.745,80.821,61.462,76.769,61.462z"/>
					</g>
					<g>
						<circle fill="#939598" cx="67.66" cy="51.16" r="9.56"/>
						<path fill="#939598" d="M77.06,61.753h-2.983c-1.697,1.542-3.943,2.49-6.416,2.489c-2.476,0-4.722-0.946-6.419-2.489H58.26
							c-4.052,0.001-12.228,5.284-12.228,9.019v1.408c0,3.735,3.284,6.764,7.338,6.764h28.58c4.053-0.001,7.338-3.028,7.338-6.764
							l-0.001-1.408C89.288,67.036,81.112,61.753,77.06,61.753z"/>
					</g>
					<g>
						<circle fill="#939598" cx="67.951" cy="51.45" r="9.56"/>
						<path fill="#939598" d="M77.351,62.043h-2.983c-1.697,1.542-3.943,2.49-6.417,2.489c-2.475,0.001-4.722-0.945-6.418-2.489
							H58.55c-4.051,0.001-12.228,5.285-12.228,9.018L46.32,72.47c0.001,3.735,3.284,6.765,7.337,6.765h28.584
							c4.053-0.001,7.337-3.028,7.337-6.765v-1.408C89.578,67.326,81.402,62.043,77.351,62.043z"/>
					</g>
					<g>
						<circle fill="#939598" cx="68.241" cy="51.741" r="9.56"/>
						<path fill="#939598" d="M77.641,62.334h-2.983c-1.697,1.542-3.943,2.49-6.417,2.488c-2.474,0.001-4.721-0.945-6.417-2.488
							H58.84c-4.052,0-12.228,5.283-12.228,9.018v1.408c0,3.734,3.284,6.764,7.337,6.764h28.583
							c4.053-0.001,7.338-3.028,7.338-6.764l-0.001-1.408C89.869,67.617,81.693,62.334,77.641,62.334z"/>
					</g>
					<g>
						<circle fill="#939598" cx="68.531" cy="52.032" r="9.56"/>
						<path fill="#939598" d="M77.931,62.624h-2.982c-1.698,1.542-3.943,2.49-6.417,2.489c-2.475,0-4.722-0.946-6.418-2.489H59.13
							c-4.052,0.001-12.228,5.284-12.229,9.019v1.408c0,3.735,3.284,6.765,7.338,6.765h28.582c4.053-0.002,7.338-3.029,7.338-6.765
							l-0.001-1.408C90.159,67.907,81.983,62.624,77.931,62.624z"/>
					</g>
					<g>
						<circle fill="#939598" cx="68.822" cy="52.322" r="9.56"/>
						<path fill="#939598" d="M78.222,62.914h-2.983c-1.697,1.542-3.943,2.491-6.417,2.489c-2.475,0.001-4.722-0.945-6.417-2.489
							h-2.983c-4.052,0.001-12.229,5.285-12.229,9.019l-0.001,1.409c0.001,3.734,3.284,6.764,7.337,6.764h28.584
							c4.053-0.001,7.338-3.028,7.338-6.764l-0.001-1.409C90.45,68.197,82.273,62.914,78.222,62.914z"/>
					</g>
					<g>
						<circle fill="#939598" cx="69.112" cy="52.612" r="9.56"/>
						<path fill="#939598" d="M78.512,63.205H75.53c-1.698,1.542-3.943,2.49-6.417,2.488c-2.475,0.001-4.722-0.945-6.418-2.488
							h-2.983c-4.052,0-12.228,5.283-12.228,9.019l-0.001,1.408c0.001,3.734,3.284,6.765,7.337,6.764l28.583,0.001
							c4.053-0.002,7.338-3.029,7.338-6.765l-0.001-1.408C90.74,68.488,82.564,63.205,78.512,63.205z"/>
					</g>
					<g>
						<circle fill="#939598" cx="69.402" cy="52.903" r="9.56"/>
						<path fill="#939598" d="M78.803,63.495H75.82c-1.698,1.542-3.943,2.49-6.417,2.489c-2.475,0-4.722-0.946-6.418-2.489h-2.983
							c-4.052,0.001-12.228,5.284-12.228,9.02l-0.001,1.408c0.001,3.734,3.284,6.764,7.338,6.764h28.583
							c4.053-0.001,7.337-3.029,7.337-6.764v-1.408C91.03,68.778,82.854,63.495,78.803,63.495z"/>
					</g>
					<g>
						<circle fill="#939598" cx="69.692" cy="53.193" r="9.559"/>
						<path fill="#939598" d="M79.093,63.785H76.11c-1.698,1.542-3.944,2.491-6.417,2.489c-2.475,0.001-4.722-0.945-6.418-2.489
							h-2.983c-4.052,0.001-12.229,5.284-12.229,9.02v1.408c0,3.734,3.283,6.765,7.336,6.764l28.584,0.001
							c4.054-0.002,7.338-3.029,7.338-6.765l-0.001-1.408C91.32,69.068,83.146,63.785,79.093,63.785z"/>
					</g>
					<g>
						<circle fill="#939598" cx="69.983" cy="53.484" r="9.56"/>
						<path fill="#939598" d="M79.384,64.076H76.4c-1.698,1.541-3.944,2.49-6.417,2.489c-2.475,0-4.722-0.946-6.418-2.489h-2.983
							c-4.052,0-12.228,5.284-12.229,9.02v1.408c0,3.733,3.283,6.764,7.337,6.764h28.583c4.054-0.002,7.338-3.029,7.338-6.764
							l-0.001-1.408C91.611,69.359,83.436,64.076,79.384,64.076z"/>
					</g>
					<g>
						<circle fill="#939598" cx="70.274" cy="53.774" r="9.56"/>
						<path fill="#939598" d="M79.674,64.366H76.69c-1.697,1.542-3.943,2.49-6.416,2.489c-2.476,0-4.723-0.946-6.419-2.489h-2.983
							c-4.052,0.001-12.227,5.284-12.227,9.02l-0.001,1.408c0.001,3.734,3.284,6.764,7.338,6.764h28.583
							c4.054-0.001,7.337-3.029,7.337-6.764v-1.408C91.901,69.649,83.726,64.366,79.674,64.366z"/>
					</g>
					<g>
						<circle fill="#939598" cx="70.563" cy="54.064" r="9.559"/>
						<path fill="#939598" d="M79.964,64.657H76.98c-1.697,1.541-3.944,2.49-6.417,2.489c-2.475,0-4.722-0.946-6.418-2.489h-2.983
							c-4.052,0-12.229,5.283-12.229,9.02v1.408c0,3.733,3.284,6.764,7.336,6.763l28.584,0.001c4.054-0.002,7.338-3.029,7.338-6.764
							l-0.001-1.408C92.191,69.939,84.017,64.657,79.964,64.657z"/>
					</g>
					<g>
						<circle fill="#939598" cx="70.854" cy="54.356" r="9.56"/>
						<path fill="#939598" d="M80.255,64.947h-2.983c-1.698,1.541-3.944,2.49-6.416,2.49c-2.476,0-4.723-0.947-6.419-2.49h-2.983
							c-4.052,0-12.228,5.284-12.229,9.02v1.408c0,3.734,3.284,6.764,7.337,6.764h28.583c4.054-0.002,7.338-3.029,7.338-6.764
							l-0.001-1.408C92.482,70.231,84.308,64.947,80.255,64.947z"/>
					</g>
					<g>
						<circle fill="#939598" cx="71.145" cy="54.646" r="9.56"/>
						<path fill="#939598" d="M80.546,65.237h-2.983c-1.698,1.542-3.944,2.49-6.417,2.49c-2.475,0-4.722-0.947-6.418-2.49h-2.984
							c-4.051,0.001-12.227,5.285-12.228,9.02l-0.001,1.408c0.001,3.734,3.284,6.764,7.337,6.764h28.584
							c4.054-0.001,7.338-3.028,7.338-6.764l-0.001-1.408C92.773,70.521,84.598,65.237,80.546,65.237z"/>
					</g>
					<g>
						<circle fill="#939598" cx="71.435" cy="54.936" r="9.559"/>
						<path fill="#939598" d="M80.835,65.528h-2.983c-1.697,1.541-3.944,2.49-6.417,2.489c-2.475,0.001-4.722-0.946-6.418-2.489
							h-2.983c-4.052,0-12.229,5.283-12.229,9.019v1.409c0,3.734,3.284,6.764,7.337,6.763l28.583,0.001
							c4.054-0.002,7.338-3.029,7.338-6.764l-0.001-1.409C93.063,70.812,84.888,65.528,80.835,65.528z"/>
					</g>
					<g>
						<circle fill="#939598" cx="71.726" cy="55.227" r="9.56"/>
						<path fill="#939598" d="M81.126,65.818h-2.983c-1.697,1.542-3.943,2.49-6.416,2.49c-2.476,0-4.722-0.947-6.419-2.49h-2.983
							c-4.052,0-12.228,5.284-12.228,9.02l-0.001,1.408c0.001,3.734,3.284,6.764,7.337,6.764h28.583
							c4.054-0.002,7.338-3.029,7.338-6.764l-0.001-1.408C93.354,71.102,85.179,65.818,81.126,65.818z"/>
					</g>
					<g>
						<circle fill="#939598" cx="72.016" cy="55.517" r="9.56"/>
						<path fill="#939598" d="M81.417,66.109h-2.983c-1.698,1.542-3.944,2.49-6.417,2.489c-2.475,0.001-4.722-0.946-6.418-2.489
							h-2.984c-4.051,0-12.227,5.284-12.228,9.018l-0.001,1.408c0.001,3.735,3.285,6.764,7.337,6.764h28.584
							c4.054-0.001,7.338-3.028,7.338-6.764l-0.001-1.408C93.645,71.393,85.469,66.109,81.417,66.109z"/>
					</g>
					<g>
						<circle fill="#939598" cx="72.306" cy="55.807" r="9.559"/>
						<path fill="#939598" d="M81.707,66.399h-2.983c-1.698,1.542-3.944,2.49-6.418,2.489c-2.474,0.001-4.721-0.946-6.418-2.489
							h-2.983c-4.051,0-12.229,5.283-12.229,9.02v1.408c0,3.734,3.285,6.764,7.338,6.763l28.582,0.001
							c4.055-0.002,7.338-3.029,7.338-6.764v-1.408C93.934,71.683,85.76,66.399,81.707,66.399z"/>
					</g>
					<g>
						<circle fill="#939598" cx="72.597" cy="56.098" r="9.56"/>
						<path fill="#939598" d="M81.997,66.69h-2.983c-1.697,1.542-3.943,2.49-6.416,2.489c-2.476,0-4.722-0.947-6.419-2.489h-2.983
							c-4.052,0-12.228,5.283-12.228,9.019l-0.001,1.408c0.001,3.734,3.284,6.764,7.337,6.764h28.583
							c4.054-0.001,7.338-3.028,7.338-6.764l-0.001-1.408C94.225,71.974,86.05,66.69,81.997,66.69z"/>
					</g>
					<g>
						<circle fill="#939598" cx="72.888" cy="56.388" r="9.56"/>
						<path fill="#939598" d="M82.288,66.981h-2.983c-1.697,1.542-3.944,2.49-6.417,2.489c-2.475,0.001-4.722-0.946-6.418-2.489
							h-2.984c-4.051,0-12.227,5.284-12.228,9.019l-0.001,1.408c0.001,3.735,3.285,6.764,7.338,6.764h28.583
							c4.054-0.001,7.338-3.027,7.338-6.764L94.515,76C94.516,72.264,86.34,66.981,82.288,66.981z"/>
					</g>
					<g>
						<circle fill="#939598" cx="73.178" cy="56.678" r="9.559"/>
						<path fill="#939598" d="M82.578,67.272h-2.983c-1.698,1.541-3.944,2.49-6.418,2.488c-2.474,0.001-4.721-0.946-6.418-2.488
							h-2.982c-4.052,0-12.229,5.283-12.229,9.019v1.408c0,3.734,3.285,6.764,7.337,6.763l28.583,0.001
							c4.054-0.001,7.337-3.028,7.337-6.764V76.29C94.805,72.555,86.631,67.272,82.578,67.272z"/>
					</g>
					<g>
						<circle fill="#939598" cx="73.468" cy="56.969" r="9.56"/>
						<path fill="#939598" d="M82.868,67.562h-2.983c-1.697,1.542-3.943,2.49-6.416,2.489c-2.476,0-4.722-0.947-6.419-2.489h-2.982
							c-4.053,0.001-12.229,5.283-12.229,9.019l-0.001,1.408c0.001,3.735,3.285,6.764,7.337,6.764h28.583
							c4.054-0.001,7.338-3.028,7.338-6.764V76.58C95.096,72.845,86.921,67.562,82.868,67.562z"/>
					</g>
					<g>
						<circle fill="#939598" cx="73.759" cy="57.259" r="9.559"/>
						<path fill="#939598" d="M83.159,67.852h-2.983c-1.697,1.542-3.944,2.491-6.417,2.489c-2.475,0.001-4.722-0.946-6.418-2.489
							h-2.983c-4.052,0.001-12.229,5.284-12.229,9.019v1.408c0,3.735,3.284,6.764,7.337,6.764h28.583
							c4.054,0,7.338-3.027,7.338-6.764l-0.001-1.408C95.387,73.135,87.211,67.852,83.159,67.852z"/>
					</g>
					<g>
						<circle fill="#939598" cx="74.05" cy="57.549" r="9.56"/>
						<path fill="#939598" d="M83.449,68.143h-2.983c-1.697,1.541-3.943,2.49-6.417,2.488c-2.475,0.001-4.721-0.946-6.418-2.488
							h-2.982c-4.052,0-12.229,5.283-12.229,9.019v1.408c0,3.734,3.285,6.764,7.338,6.763l28.582,0.001
							c4.054-0.001,7.338-3.028,7.338-6.764v-1.408C95.677,73.426,87.502,68.143,83.449,68.143z"/>
					</g>
					<g>
						<circle fill="#939598" cx="74.34" cy="57.84" r="9.56"/>
						<path fill="#939598" d="M83.74,68.433h-2.984c-1.697,1.542-3.943,2.49-6.416,2.489c-2.476,0-4.722-0.946-6.419-2.489h-2.982
							c-4.052,0.001-12.229,5.284-12.229,9.019v1.408c0,3.735,3.284,6.764,7.337,6.764H88.63c4.053,0,7.338-3.028,7.338-6.764
							v-1.408C95.968,73.716,87.792,68.433,83.74,68.433z"/>
					</g>
					<g>
						<circle fill="#939598" cx="74.629" cy="58.13" r="9.559"/>
						<path fill="#939598" d="M84.029,68.723h-2.983c-1.697,1.542-3.943,2.491-6.417,2.489c-2.474,0.001-4.722-0.945-6.417-2.489
							h-2.983C61.177,68.724,53,74.007,53,77.741v1.409c0,3.734,3.283,6.764,7.337,6.764H88.92c4.053-0.001,7.338-3.028,7.338-6.764
							l-0.001-1.409C96.258,74.006,88.082,68.723,84.029,68.723z"/>
					</g>
					<g>
						<circle fill="#939598" cx="74.92" cy="58.421" r="9.56"/>
						<path fill="#939598" d="M84.32,69.014h-2.983c-1.697,1.541-3.943,2.49-6.416,2.489c-2.476,0-4.723-0.946-6.418-2.489H65.52
							c-4.052,0-12.229,5.284-12.229,9.019v1.408c0,3.734,3.283,6.764,7.337,6.764h28.583c4.053-0.001,7.337-3.028,7.337-6.764
							v-1.408C96.548,74.297,88.373,69.014,84.32,69.014z"/>
					</g>
					<g>
						<circle fill="#939598" cx="75.211" cy="58.711" r="9.56"/>
						<path fill="#939598" d="M84.611,69.304h-2.983c-1.697,1.542-3.943,2.49-6.417,2.489c-2.475,0-4.722-0.946-6.418-2.489H65.81
							c-4.052,0.001-12.229,5.284-12.229,9.019v1.408c0,3.735,3.284,6.765,7.338,6.765h28.582c4.053-0.001,7.338-3.029,7.338-6.765
							v-1.408C96.839,74.587,88.663,69.304,84.611,69.304z"/>
					</g>
					<g>
						<circle fill="#939598" cx="75.5" cy="59.002" r="9.559"/>
						<path fill="#939598" d="M84.9,69.595h-2.982c-1.698,1.541-3.944,2.49-6.417,2.488c-2.475,0.001-4.723-0.945-6.418-2.488H66.1
							c-4.052,0-12.229,5.283-12.229,9.018v1.409c0,3.734,3.283,6.764,7.337,6.764h28.583c4.054-0.001,7.338-3.028,7.338-6.764
							l-0.001-1.409C97.129,74.877,88.953,69.595,84.9,69.595z"/>
					</g>
					<g>
						<circle fill="#939598" cx="75.792" cy="59.292" r="9.56"/>
						<path fill="#939598" d="M85.191,69.885h-2.983c-1.697,1.541-3.943,2.49-6.416,2.489c-2.475,0-4.722-0.946-6.418-2.489h-2.983
							c-4.052,0-12.228,5.284-12.229,9.019v1.408c0,3.734,3.284,6.765,7.337,6.765h28.583c4.053-0.002,7.338-3.029,7.338-6.765
							l-0.001-1.408C97.42,75.168,89.244,69.885,85.191,69.885z"/>
					</g>
					<g>
						<circle fill="#939598" cx="76.083" cy="59.583" r="9.56"/>
						<path fill="#939598" d="M85.482,70.175h-2.983c-1.697,1.542-3.943,2.49-6.417,2.489c-2.475,0-4.722-0.946-6.417-2.489h-2.984
							c-4.052,0.001-12.227,5.284-12.227,9.019l-0.001,1.409c0.001,3.734,3.284,6.764,7.338,6.764h28.583
							c4.052-0.001,7.337-3.029,7.337-6.764v-1.409C97.71,75.458,89.534,70.175,85.482,70.175z"/>
					</g>
					<g>
						<circle fill="#939598" cx="76.372" cy="59.873" r="9.559"/>
						<path fill="#939598" d="M85.772,70.466h-2.983c-1.698,1.541-3.944,2.49-6.417,2.488c-2.475,0.001-4.722-0.945-6.418-2.488
							h-2.983c-4.052,0-12.228,5.283-12.228,9.019v1.408c0,3.734,3.283,6.765,7.337,6.764l28.583,0.001
							C94.716,87.655,98,84.628,98,80.893l-0.001-1.408C98,75.748,89.824,70.466,85.772,70.466z"/>
					</g>
					<g>
						<circle fill="#939598" cx="76.663" cy="60.164" r="9.56"/>
						<path fill="#939598" d="M86.063,70.756H83.08c-1.698,1.542-3.943,2.49-6.417,2.489c-2.475,0-4.722-0.946-6.418-2.489h-2.983
							c-4.052,0-12.228,5.284-12.229,9.02v1.408c0,3.733,3.284,6.764,7.338,6.764h28.582c4.054-0.002,7.338-3.029,7.338-6.764
							l-0.001-1.408C98.291,76.039,90.115,70.756,86.063,70.756z"/>
					</g>
					<g>
						<circle fill="#939598" cx="76.954" cy="60.454" r="9.56"/>
						<path fill="#939598" d="M86.354,71.046H83.37c-1.697,1.542-3.943,2.49-6.416,2.489c-2.476,0-4.723-0.946-6.418-2.489h-2.984
							c-4.052,0.001-12.227,5.284-12.227,9.019l-0.001,1.408c0.001,3.734,3.284,6.764,7.338,6.764h28.583
							c4.053-0.001,7.337-3.028,7.337-6.764v-1.408C98.581,76.329,90.405,71.046,86.354,71.046z"/>
					</g>
					<g>
						<circle fill="#939598" cx="77.243" cy="60.743" r="9.559"/>
						<path fill="#939598" d="M86.644,71.336H83.66c-1.698,1.542-3.944,2.49-6.417,2.489c-2.475,0.001-4.722-0.946-6.418-2.489
							h-2.983c-4.052,0-12.228,5.283-12.228,9.02v1.408c0,3.734,3.284,6.764,7.337,6.763l28.583,0.001
							c4.054-0.002,7.338-3.029,7.338-6.764l-0.001-1.408C98.871,76.619,90.696,71.336,86.644,71.336z"/>
					</g>
					<g>
						<circle fill="#939598" cx="77.534" cy="61.035" r="9.56"/>
						<path fill="#939598" d="M86.935,71.627h-2.983c-1.698,1.542-3.943,2.49-6.416,2.489c-2.476,0-4.722-0.946-6.419-2.489h-2.983
							c-4.052,0-12.227,5.284-12.228,9.02v1.408c0,3.734,3.284,6.764,7.338,6.764h28.582c4.054-0.002,7.338-3.029,7.338-6.764
							l-0.001-1.408C99.162,76.91,90.987,71.627,86.935,71.627z"/>
					</g>
					<g>
						<circle fill="#939598" cx="77.825" cy="61.325" r="9.559"/>
						<path fill="#939598" d="M87.226,71.917h-2.983c-1.698,1.542-3.944,2.49-6.417,2.49c-2.475,0-4.722-0.946-6.418-2.49h-2.984
							c-4.051,0.001-12.228,5.284-12.228,9.02l-0.001,1.408c0.001,3.734,3.284,6.764,7.337,6.764h28.584
							c4.054-0.001,7.338-3.028,7.338-6.764l-0.001-1.408C99.453,77.2,91.277,71.917,87.226,71.917z"/>
					</g>
					<g>
						<circle fill="#939598" cx="78.115" cy="61.615" r="9.56"/>
						<path fill="#939598" d="M87.515,72.208h-2.983c-1.697,1.541-3.944,2.49-6.416,2.489c-2.476,0-4.723-0.946-6.418-2.489h-2.983
							c-4.053,0-12.229,5.283-12.229,9.02v1.408c0,3.734,3.283,6.764,7.336,6.763L92.406,89.4c4.053-0.002,7.338-3.029,7.338-6.764
							l-0.002-1.408C99.743,77.491,91.567,72.208,87.515,72.208z"/>
					</g>
					<g>
						<circle fill="#939598" cx="78.405" cy="61.906" r="9.56"/>
						<path fill="#939598" d="M87.806,72.498h-2.983c-1.697,1.542-3.943,2.49-6.416,2.49c-2.476,0-4.722-0.947-6.419-2.49h-2.983
							c-4.052,0.001-12.228,5.284-12.229,9.02v1.408c0,3.734,3.284,6.764,7.338,6.764h28.582c4.054-0.002,7.338-3.029,7.338-6.764
							l-0.001-1.408C100.033,77.781,91.858,72.498,87.806,72.498z"/>
					</g>
					<g>
						<circle fill="#939598" cx="78.696" cy="62.196" r="9.559"/>
						<path fill="#939598" d="M88.097,72.789h-2.983c-1.698,1.541-3.944,2.49-6.417,2.489c-2.475,0.001-4.722-0.946-6.418-2.489
							h-2.983c-4.052,0-12.229,5.283-12.229,9.019l-0.001,1.409c0.001,3.734,3.284,6.763,7.337,6.763h28.584
							c4.054-0.001,7.338-3.028,7.338-6.763l-0.001-1.409C100.324,78.071,92.148,72.789,88.097,72.789z"/>
					</g>
					<g>
						<circle fill="#939598" cx="78.986" cy="62.486" r="9.56"/>
						<path fill="#939598" d="M88.387,73.079h-2.983c-1.697,1.542-3.943,2.49-6.417,2.489c-2.475,0.001-4.721-0.946-6.418-2.489
							h-2.983c-4.052,0-12.228,5.283-12.228,9.02l-0.001,1.408c0.001,3.734,3.284,6.764,7.337,6.763l28.583,0.001
							c4.054-0.002,7.338-3.029,7.338-6.764l-0.001-1.408C100.614,78.362,92.439,73.079,88.387,73.079z"/>
					</g>
					<g>
						<circle fill="#939598" cx="79.276" cy="62.777" r="9.56"/>
						<path fill="#939598" d="M88.678,73.37h-2.984c-1.697,1.541-3.943,2.49-6.416,2.489c-2.476,0-4.722-0.947-6.419-2.489h-2.983
							c-4.052,0-12.228,5.283-12.228,9.019l-0.001,1.408c0.001,3.735,3.284,6.764,7.338,6.764h28.583
							c4.053-0.002,7.337-3.028,7.337-6.764v-1.408C100.904,78.653,92.729,73.37,88.678,73.37z"/>
					</g>
					<g>
						<circle fill="#939598" cx="79.567" cy="63.067" r="9.559"/>
						<path fill="#939598" d="M88.967,73.66h-2.983c-1.697,1.542-3.944,2.49-6.417,2.489c-2.475,0.001-4.722-0.946-6.418-2.489
							h-2.983c-4.052,0-12.229,5.283-12.229,9.019v1.409c0,3.734,3.284,6.764,7.337,6.763l28.583,0.001
							c4.054-0.002,7.338-3.029,7.338-6.764v-1.409C101.194,78.943,93.02,73.66,88.967,73.66z"/>
					</g>
					<g>
						<circle fill="#939598" cx="79.857" cy="63.357" r="9.56"/>
						<path fill="#939598" d="M89.258,73.951h-2.983c-1.697,1.541-3.944,2.49-6.416,2.489c-2.476,0-4.723-0.947-6.419-2.489h-2.983
							c-4.052,0-12.228,5.283-12.229,9.019v1.408c0,3.734,3.284,6.764,7.337,6.764h28.583c4.054-0.001,7.338-3.028,7.338-6.764
							l-0.001-1.408C101.485,79.234,93.311,73.951,89.258,73.951z"/>
					</g>
					<g>
						<circle fill="#939598" cx="80.148" cy="63.648" r="9.56"/>
						<path fill="#939598" d="M89.549,74.241h-2.984c-1.696,1.542-3.943,2.49-6.416,2.489c-2.476,0-4.722-0.947-6.419-2.489h-2.982
							c-4.053,0-12.229,5.283-12.229,9.019l-0.001,1.408c0.001,3.735,3.285,6.764,7.338,6.764h28.583
							c4.054-0.001,7.337-3.028,7.337-6.764V83.26C101.775,79.524,93.601,74.241,89.549,74.241z"/>
					</g>
					<g>
						<circle fill="#939598" cx="80.438" cy="63.939" r="9.559"/>
						<path fill="#939598" d="M89.838,74.532h-2.983c-1.697,1.541-3.943,2.49-6.417,2.488c-2.475,0.001-4.722-0.946-6.418-2.488
							h-2.982c-4.052,0-12.229,5.283-12.229,9.018v1.409c0,3.734,3.284,6.764,7.337,6.763l28.583,0.001
							c4.054-0.001,7.338-3.028,7.338-6.764V83.55C102.066,79.814,93.891,74.532,89.838,74.532z"/>
					</g>
					<g>
						<circle fill="#939598" cx="80.729" cy="64.23" r="9.56"/>
						<path fill="#939598" d="M90.129,74.822h-2.983c-1.697,1.541-3.944,2.49-6.416,2.489c-2.476,0-4.723-0.947-6.419-2.489h-2.983
							c-4.052,0-12.228,5.283-12.229,9.019v1.408c0,3.734,3.285,6.764,7.338,6.764h28.582c4.054-0.001,7.338-3.028,7.338-6.764
							v-1.408C102.357,80.106,94.182,74.822,90.129,74.822z"/>
					</g>
					<g>
						<circle fill="#939598" cx="81.02" cy="64.519" r="9.56"/>
						<path fill="#939598" d="M90.42,75.112h-2.984c-1.696,1.542-3.943,2.49-6.416,2.489c-2.476,0-4.722-0.946-6.419-2.489h-2.982
							c-4.052,0.001-12.228,5.284-12.228,9.019v1.408c0,3.735,3.284,6.764,7.337,6.764H95.31c4.054,0,7.337-3.028,7.337-6.764
							v-1.408C102.647,80.396,94.472,75.112,90.42,75.112z"/>
					</g>
					<g>
						<circle fill="#939598" cx="81.309" cy="64.81" r="9.559"/>
						<path fill="#939598" d="M90.709,75.402h-2.983c-1.697,1.541-3.943,2.49-6.417,2.488c-2.474,0.001-4.722-0.945-6.417-2.488
							h-2.983c-4.052,0-12.228,5.283-12.228,9.019v1.408c0,3.734,3.283,6.764,7.336,6.764H95.6c4.053-0.001,7.338-3.028,7.338-6.764
							l-0.001-1.408C102.938,80.686,94.762,75.402,90.709,75.402z"/>
					</g>
					<g>
						<circle fill="#939598" cx="81.6" cy="65.101" r="9.56"/>
						<path fill="#939598" d="M91,75.693h-2.983c-1.697,1.541-3.943,2.49-6.416,2.489c-2.476,0-4.722-0.946-6.418-2.489H72.2
							c-4.052,0-12.229,5.284-12.229,9.018v1.408c0,3.734,3.284,6.764,7.337,6.764h28.583c4.053-0.001,7.337-3.028,7.337-6.764
							v-1.408C103.228,80.977,95.053,75.693,91,75.693z"/>
					</g>
					<g>
						<circle fill="#939598" cx="81.891" cy="65.391" r="9.56"/>
						<path fill="#939598" d="M91.291,75.983h-2.984c-1.696,1.542-3.942,2.49-6.416,2.49c-2.475,0-4.722-0.947-6.418-2.49H72.49
							c-4.052,0.001-12.229,5.284-12.229,9.018v1.408c0,3.735,3.284,6.764,7.338,6.764h28.582c4.054,0,7.338-3.027,7.338-6.764
							v-1.408C103.519,81.267,95.343,75.983,91.291,75.983z"/>
					</g>
					<g>
						<circle fill="#939598" cx="82.18" cy="65.681" r="9.559"/>
						<path fill="#939598" d="M91.58,76.273h-2.982c-1.698,1.541-3.944,2.49-6.417,2.488c-2.475,0.001-4.723-0.945-6.418-2.488
							H72.78c-4.052,0-12.229,5.283-12.229,9.019V86.7c0,3.734,3.283,6.765,7.336,6.764l28.584,0.001
							c4.053-0.002,7.338-3.029,7.338-6.765l-0.001-1.408C103.809,81.557,95.633,76.273,91.58,76.273z"/>
					</g>
					<g>
						<circle fill="#939598" cx="82.471" cy="65.972" r="9.56"/>
						<path fill="#939598" d="M91.871,76.564h-2.983c-1.697,1.542-3.943,2.49-6.416,2.489c-2.475,0-4.722-0.946-6.418-2.489H73.07
							c-4.052,0.001-12.228,5.284-12.228,9.019l-0.001,1.408c0.001,3.735,3.284,6.765,7.337,6.765h28.583
							c4.053-0.002,7.338-3.029,7.338-6.765l-0.001-1.408C104.1,81.848,95.924,76.564,91.871,76.564z"/>
					</g>
					<g>
						<circle fill="#939598" cx="82.762" cy="66.262" r="9.56"/>
						<path fill="#939598" d="M92.162,76.855h-2.983c-1.697,1.542-3.943,2.49-6.417,2.49c-2.475,0-4.722-0.947-6.417-2.49H73.36
							c-4.051,0.001-12.228,5.284-12.228,9.019l-0.001,1.409c0.001,3.734,3.284,6.764,7.338,6.764h28.583
							c4.053-0.001,7.337-3.028,7.337-6.764v-1.409C104.39,82.138,96.214,76.855,92.162,76.855z"/>
					</g>
					<g>
						<circle fill="#939598" cx="83.052" cy="66.553" r="9.559"/>
						<path fill="#939598" d="M92.452,77.146H89.47c-1.699,1.541-3.944,2.49-6.418,2.488c-2.474,0.001-4.722-0.945-6.418-2.488
							H73.65c-4.051,0-12.229,5.283-12.229,9.019v1.408c0,3.734,3.285,6.765,7.338,6.764l28.582,0.001
							c4.054-0.002,7.338-3.029,7.338-6.765v-1.408C104.68,82.429,96.505,77.146,92.452,77.146z"/>
					</g>
					<g>
						<circle fill="#939598" cx="83.342" cy="66.844" r="9.56"/>
						<path fill="#939598" d="M92.742,77.436H89.76c-1.698,1.542-3.943,2.49-6.417,2.489c-2.475,0-4.722-0.946-6.418-2.489h-2.983
							c-4.052,0.001-12.228,5.284-12.228,9.019l-0.001,1.409c0.001,3.734,3.284,6.764,7.337,6.764h28.583
							c4.054-0.001,7.338-3.029,7.338-6.764l-0.001-1.409C104.971,82.719,96.795,77.436,92.742,77.436z"/>
					</g>
					<g>
						<circle fill="#939598" cx="83.633" cy="67.133" r="9.559"/>
						<path fill="#939598" d="M93.033,77.726H90.05c-1.697,1.542-3.943,2.49-6.416,2.49c-2.475,0-4.723-0.947-6.418-2.49h-2.984
							c-4.051,0.001-12.228,5.284-12.228,9.02l-0.001,1.408c0.001,3.734,3.284,6.764,7.338,6.764h28.583
							c4.053-0.001,7.338-3.028,7.338-6.764l-0.001-1.408C105.262,83.009,97.085,77.726,93.033,77.726z"/>
					</g>
					<g>
						<circle fill="#939598" cx="83.924" cy="67.424" r="9.56"/>
						<path fill="#939598" d="M93.323,78.017h-2.982c-1.698,1.542-3.943,2.49-6.417,2.489c-2.475,0-4.722-0.946-6.418-2.489h-2.983
							c-4.052,0-12.229,5.283-12.229,9.019v1.409c0,3.733,3.284,6.764,7.337,6.763l28.583,0.001
							c4.054-0.002,7.338-3.029,7.338-6.764l-0.001-1.409C105.552,83.3,97.376,78.017,93.323,78.017z"/>
					</g>
					<g>
						<circle fill="#939598" cx="84.214" cy="67.715" r="9.56"/>
						<path fill="#939598" d="M93.614,78.307h-2.983c-1.698,1.542-3.943,2.49-6.417,2.489c-2.475,0-4.722-0.946-6.418-2.489h-2.983
							c-4.052,0.001-12.228,5.284-12.228,9.02l-0.001,1.408c0.001,3.734,3.284,6.764,7.338,6.764h28.583
							c4.053-0.001,7.337-3.029,7.337-6.764v-1.408C105.842,83.59,97.666,78.307,93.614,78.307z"/>
					</g>
					<g>
						<circle fill="#939598" cx="84.503" cy="68.005" r="9.559"/>
						<path fill="#939598" d="M93.904,78.597h-2.983c-1.697,1.542-3.944,2.491-6.417,2.49c-2.475,0-4.722-0.946-6.418-2.49h-2.983
							c-4.052,0.001-12.229,5.284-12.229,9.02v1.408c0,3.734,3.283,6.764,7.337,6.764h28.583c4.054-0.001,7.338-3.028,7.338-6.764
							l-0.001-1.408C106.132,83.88,97.957,78.597,93.904,78.597z"/>
					</g>
					<g>
						<circle fill="#939598" cx="84.794" cy="68.296" r="9.56"/>
						<path fill="#939598" d="M94.195,78.888h-2.983c-1.698,1.541-3.944,2.49-6.416,2.489c-2.476,0-4.723-0.946-6.419-2.489h-2.983
							c-4.052,0-12.228,5.284-12.229,9.02v1.408c0,3.733,3.283,6.764,7.337,6.764h28.583c4.054-0.002,7.338-3.029,7.338-6.764
							l-0.001-1.408C106.423,84.171,98.247,78.888,94.195,78.888z"/>
					</g>
					<g>
						<circle fill="#939598" cx="85.085" cy="68.585" r="9.56"/>
						<path fill="#939598" d="M94.485,79.178h-2.983c-1.697,1.542-3.943,2.49-6.416,2.49c-2.476,0-4.722-0.947-6.418-2.49h-2.984
							c-4.052,0.001-12.228,5.284-12.228,9.02l-0.001,1.408c0.001,3.734,3.284,6.764,7.338,6.764h28.583
							c4.053-0.001,7.337-3.029,7.337-6.764v-1.408C106.713,84.461,98.538,79.178,94.485,79.178z"/>
					</g>
					<g>
						<circle fill="#939598" cx="85.375" cy="68.876" r="9.56"/>
						<path fill="#939598" d="M94.775,79.468h-2.983c-1.697,1.542-3.944,2.491-6.417,2.49c-2.475,0-4.722-0.946-6.418-2.49h-2.983
							c-4.052,0.001-12.229,5.284-12.229,9.02v1.409c0,3.734,3.284,6.763,7.337,6.763h28.583c4.054-0.001,7.338-3.028,7.338-6.763
							l-0.001-1.409C107.003,84.751,98.828,79.468,94.775,79.468z"/>
					</g>
					<g>
						<circle fill="#939598" cx="85.666" cy="69.167" r="9.56"/>
						<path fill="#939598" d="M95.066,79.759h-2.983c-1.697,1.542-3.944,2.49-6.416,2.49c-2.476,0-4.722-0.947-6.419-2.49h-2.983
							c-4.052,0-12.228,5.284-12.229,9.02v1.408c0,3.734,3.284,6.764,7.337,6.764h28.583c4.054-0.002,7.338-3.029,7.338-6.764
							l-0.001-1.408C107.294,85.042,99.119,79.759,95.066,79.759z"/>
					</g>
					<g>
						<circle fill="#939598" cx="85.956" cy="69.456" r="9.56"/>
						<path fill="#939598" d="M95.357,80.05h-2.984c-1.697,1.541-3.943,2.489-6.416,2.489c-2.476,0-4.722-0.947-6.418-2.489h-2.984
							c-4.052,0-12.227,5.283-12.227,9.019l-0.001,1.408c0.001,3.735,3.284,6.764,7.338,6.764h28.583
							c4.053-0.001,7.337-3.028,7.337-6.764v-1.408C107.584,85.332,99.409,80.05,95.357,80.05z"/>
					</g>
					<g>
						<circle fill="#939598" cx="86.247" cy="69.746" r="9.559"/>
						<path fill="#939598" d="M95.646,80.34h-2.983c-1.697,1.541-3.944,2.49-6.417,2.488c-2.475,0.001-4.722-0.946-6.418-2.488
							h-2.983c-4.052,0-12.229,5.283-12.229,9.019v1.408c0,3.734,3.284,6.764,7.337,6.763l28.583,0.001
							c4.054-0.001,7.338-3.028,7.338-6.764l-0.001-1.408C107.874,85.623,99.699,80.34,95.646,80.34z"/>
					</g>
					<g>
						<circle fill="#939598" cx="86.537" cy="70.038" r="9.56"/>
						<path fill="#939598" d="M95.938,80.631h-2.983c-1.697,1.541-3.943,2.49-6.416,2.489c-2.476,0-4.722-0.947-6.419-2.489h-2.983
							c-4.052,0-12.228,5.283-12.228,9.018v1.408c0,3.734,3.284,6.764,7.338,6.764h28.582c4.054-0.002,7.338-3.028,7.338-6.764
							l-0.001-1.408C108.165,85.914,99.99,80.631,95.938,80.631z"/>
					</g>
					<g>
						<circle fill="#939598" cx="86.828" cy="70.327" r="9.559"/>
						<path fill="#939598" d="M96.229,80.921h-2.984c-1.696,1.542-3.943,2.49-6.416,2.489c-2.476,0-4.722-0.947-6.418-2.489h-2.984
							c-4.052,0-12.227,5.283-12.227,9.018l-0.001,1.408c0.001,3.735,3.285,6.764,7.338,6.764h28.583
							c4.053-0.001,7.337-3.028,7.337-6.764v-1.408C108.455,86.204,100.28,80.921,96.229,80.921z"/>
					</g>
					<g>
						<circle fill="#939598" cx="87.118" cy="70.617" r="9.559"/>
						<path fill="#939598" d="M96.518,81.211h-2.983c-1.697,1.541-3.943,2.49-6.417,2.488c-2.475,0.001-4.722-0.945-6.418-2.488
							h-2.983c-4.052,0-12.229,5.283-12.229,9.019v1.408c0,3.734,3.284,6.764,7.338,6.763l28.582,0.001
							c4.054-0.001,7.338-3.028,7.338-6.764V90.23C108.745,86.494,100.57,81.211,96.518,81.211z"/>
					</g>
					<g>
						<circle fill="#939598" cx="87.408" cy="70.909" r="9.56"/>
						<path fill="#939598" d="M96.809,81.502h-2.983c-1.697,1.542-3.943,2.49-6.416,2.489c-2.476,0-4.722-0.947-6.419-2.489h-2.983
							c-4.052,0-12.228,5.283-12.229,9.019v1.408c0,3.734,3.285,6.764,7.338,6.764h28.582c4.054-0.001,7.338-3.028,7.338-6.764
							v-1.408C109.036,86.785,100.861,81.502,96.809,81.502z"/>
					</g>
					<g>
						<circle fill="#939598" cx="87.699" cy="71.198" r="9.56"/>
						<path fill="#939598" d="M97.1,81.792h-2.984c-1.696,1.542-3.943,2.49-6.416,2.49c-2.476,0-4.722-0.947-6.418-2.49h-2.983
							c-4.052,0.001-12.229,5.284-12.229,9.019v1.408c0,3.735,3.284,6.764,7.337,6.764h28.583c4.054,0,7.338-3.027,7.338-6.764
							l-0.001-1.408C109.327,87.075,101.151,81.792,97.1,81.792z"/>
					</g>
					<g>
						<circle fill="#939598" cx="87.99" cy="71.489" r="9.56"/>
						<path fill="#939598" d="M97.389,82.083h-2.983c-1.696,1.542-3.943,2.49-6.416,2.488c-2.475,0.001-4.723-0.946-6.418-2.488
							H78.59c-4.053,0-12.229,5.283-12.229,9.019v1.408c0,3.734,3.284,6.764,7.337,6.763l28.583,0.001
							c4.053-0.001,7.338-3.028,7.338-6.764l-0.001-1.408C109.617,87.366,101.441,82.083,97.389,82.083z"/>
					</g>
					<g>
						<circle fill="#939598" cx="88.28" cy="71.779" r="9.56"/>
						<path fill="#939598" d="M97.68,82.373h-2.983c-1.697,1.542-3.943,2.49-6.416,2.489c-2.476,0-4.722-0.946-6.419-2.489H78.88
							c-4.052,0.001-12.229,5.283-12.229,9.019V92.8c0,3.735,3.285,6.764,7.338,6.764h28.582c4.054-0.001,7.338-3.028,7.338-6.764
							v-1.408C109.907,87.656,101.733,82.373,97.68,82.373z"/>
					</g>
					<g>
						<circle fill="#939598" cx="88.571" cy="72.07" r="9.559"/>
						<path fill="#939598" d="M97.971,82.663h-2.983c-1.697,1.542-3.944,2.49-6.416,2.49c-2.476,0-4.723-0.947-6.419-2.49H79.17
							c-4.052,0.001-12.229,5.284-12.229,9.019v1.408c0,3.735,3.284,6.764,7.338,6.764h28.582c4.054,0,7.338-3.027,7.338-6.764
							v-1.408C110.198,87.946,102.023,82.663,97.971,82.663z"/>
					</g>
					<g>
						<circle fill="#939598" cx="88.861" cy="72.361" r="9.56"/>
						<path fill="#939598" d="M98.261,82.954h-2.983c-1.697,1.541-3.943,2.49-6.416,2.489c-2.476,0-4.723-0.946-6.419-2.489H79.46
							c-4.052,0-12.229,5.284-12.229,9.019v1.408c0,3.734,3.283,6.764,7.337,6.764h28.583c4.053-0.001,7.337-3.028,7.337-6.764
							v-1.408C110.488,88.237,102.314,82.954,98.261,82.954z"/>
					</g>
					<g>
						<circle fill="#939598" cx="89.151" cy="72.651" r="9.56"/>
						<path fill="#939598" d="M98.552,83.244h-2.984c-1.697,1.542-3.943,2.49-6.416,2.489c-2.475,0-4.722-0.946-6.418-2.489H79.75
							c-4.052,0.001-12.229,5.284-12.229,9.019v1.408c0,3.735,3.284,6.764,7.338,6.764h28.582c4.053-0.001,7.338-3.028,7.338-6.764
							v-1.408C110.779,88.527,102.604,83.244,98.552,83.244z"/>
					</g>
					<g>
						<circle fill="#939598" cx="89.442" cy="72.941" r="9.559"/>
						<path fill="#939598" d="M98.842,83.534h-2.983c-1.697,1.542-3.943,2.49-6.416,2.49c-2.476,0-4.723-0.947-6.418-2.49H80.04
							c-4.051,0.001-12.228,5.284-12.228,9.019l-0.001,1.408c0.001,3.735,3.284,6.765,7.338,6.765h28.583
							c4.053-0.001,7.337-3.028,7.337-6.765v-1.408C111.069,88.817,102.894,83.534,98.842,83.534z"/>
					</g>
					<g>
						<circle fill="#939598" cx="89.732" cy="73.232" r="9.56"/>
						<path fill="#939598" d="M99.132,83.825h-2.983c-1.697,1.541-3.943,2.49-6.416,2.489c-2.475,0-4.723-0.946-6.418-2.489h-2.983
							c-4.052,0-12.229,5.284-12.229,9.019v1.408c0,3.734,3.283,6.765,7.337,6.765h28.583c4.053-0.002,7.338-3.029,7.338-6.765
							l-0.001-1.408C111.36,89.108,103.185,83.825,99.132,83.825z"/>
					</g>
					<g>
						<circle fill="#939598" cx="90.022" cy="73.523" r="9.56"/>
						<path fill="#939598" d="M99.423,84.115H96.44c-1.697,1.542-3.943,2.49-6.417,2.489c-2.475,0-4.722-0.946-6.418-2.489h-2.983
							c-4.052,0.001-12.228,5.284-12.228,9.019l-0.001,1.409c0.001,3.734,3.284,6.764,7.338,6.764h28.583
							c4.053-0.001,7.337-3.029,7.337-6.764v-1.409C111.65,89.398,103.475,84.115,99.423,84.115z"/>
					</g>
					<g>
						<circle fill="#939598" cx="90.312" cy="73.814" r="9.559"/>
						<path fill="#939598" d="M99.712,84.405H96.73c-1.698,1.542-3.944,2.491-6.417,2.489c-2.475,0.001-4.722-0.945-6.418-2.489
							h-2.983c-4.052,0.001-12.229,5.284-12.229,9.02v1.408c0,3.734,3.283,6.765,7.336,6.764l28.584,0.001
							c4.054-0.002,7.338-3.029,7.338-6.765l-0.001-1.408C111.941,89.689,103.765,84.405,99.712,84.405z"/>
					</g>
					<g>
						<circle fill="#939598" cx="90.603" cy="74.105" r="9.56"/>
						<path fill="#939598" d="M100.003,84.696h-2.982c-1.698,1.541-3.944,2.49-6.417,2.489c-2.475,0-4.722-0.946-6.418-2.489h-2.983
							c-4.052,0-12.228,5.284-12.228,9.019v1.409c0,3.733,3.284,6.764,7.337,6.764h28.583c4.053-0.002,7.338-3.029,7.338-6.764
							l-0.001-1.409C112.232,89.98,104.056,84.696,100.003,84.696z"/>
					</g>
					<g>
						<circle fill="#939598" cx="90.894" cy="74.394" r="9.56"/>
						<path fill="#939598" d="M100.294,84.986h-2.983c-1.697,1.542-3.943,2.49-6.417,2.489c-2.475,0-4.722-0.946-6.418-2.489h-2.983
							c-4.052,0.001-12.227,5.284-12.227,9.02l-0.001,1.408c0.001,3.734,3.284,6.764,7.338,6.764h28.583
							c4.053-0.001,7.337-3.029,7.337-6.764v-1.408C112.522,90.27,104.346,84.986,100.294,84.986z"/>
					</g>
					<g>
						<circle fill="#939598" cx="91.183" cy="74.685" r="9.559"/>
						<path fill="#939598" d="M100.584,85.277h-2.983c-1.698,1.541-3.944,2.49-6.417,2.488c-2.475,0.001-4.722-0.945-6.418-2.488
							h-2.983c-4.052,0-12.229,5.283-12.229,9.019v1.409c0,3.733,3.283,6.764,7.336,6.763l28.584,0.001
							c4.054-0.002,7.338-3.029,7.338-6.764l-0.001-1.409C112.812,90.56,104.636,85.277,100.584,85.277z"/>
					</g>
					<g>
						<circle fill="#939598" cx="91.474" cy="74.976" r="9.56"/>
						<path fill="#939598" d="M100.875,85.567h-2.983c-1.698,1.541-3.943,2.49-6.416,2.489c-2.476,0-4.723-0.946-6.419-2.489h-2.983
							c-4.052,0-12.228,5.284-12.228,9.019l-0.001,1.408c0.001,3.733,3.284,6.764,7.337,6.764h28.583
							c4.054-0.002,7.338-3.029,7.338-6.764l-0.001-1.408C113.103,90.851,104.927,85.567,100.875,85.567z"/>
					</g>
					<g>
						<circle fill="#939598" cx="91.765" cy="75.265" r="9.56"/>
						<path fill="#939598" d="M101.165,85.857h-2.983c-1.697,1.542-3.943,2.49-6.416,2.49c-2.476,0-4.722-0.947-6.419-2.49h-2.983
							c-4.052,0.001-12.228,5.284-12.228,9.02l-0.001,1.408c0.001,3.734,3.284,6.764,7.338,6.764h28.583
							c4.054-0.001,7.337-3.029,7.337-6.764v-1.408C113.393,91.141,105.218,85.857,101.165,85.857z"/>
					</g>
					<g>
						<circle fill="#939598" cx="92.054" cy="75.556" r="9.559"/>
						<path fill="#939598" d="M101.455,86.148h-2.983c-1.697,1.541-3.944,2.49-6.417,2.489c-2.475,0-4.722-0.946-6.418-2.489h-2.983
							c-4.052,0-12.229,5.283-12.229,9.02v1.408c0,3.733,3.284,6.764,7.336,6.763l28.584,0.001c4.054-0.002,7.338-3.029,7.338-6.764
							l-0.001-1.408C113.683,91.431,105.508,86.148,101.455,86.148z"/>
					</g>
					<g>
						<circle fill="#939598" cx="92.346" cy="75.846" r="9.56"/>
						<path fill="#939598" d="M101.746,86.439h-2.983c-1.697,1.542-3.943,2.49-6.416,2.49c-2.476,0-4.722-0.947-6.419-2.49h-2.983
							c-4.052,0.001-12.228,5.283-12.228,9.02l-0.001,1.408c0.001,3.734,3.284,6.764,7.337,6.764h28.583
							c4.054-0.002,7.338-3.029,7.338-6.764l-0.001-1.408C113.974,91.722,105.799,86.439,101.746,86.439z"/>
					</g>
					<g>
						<circle fill="#939598" cx="92.636" cy="76.136" r="9.56"/>
						<path fill="#939598" d="M102.037,86.729h-2.984c-1.697,1.542-3.943,2.49-6.416,2.49c-2.476,0-4.722-0.947-6.418-2.49h-2.984
							c-4.051,0.001-12.228,5.284-12.228,9.02l-0.001,1.408c0.001,3.734,3.284,6.764,7.338,6.764h28.583
							c4.054-0.001,7.337-3.029,7.337-6.764v-1.408C114.264,92.012,106.089,86.729,102.037,86.729z"/>
					</g>
					<g>
						<circle fill="#939598" cx="92.926" cy="76.427" r="9.559"/>
						<path fill="#939598" d="M102.327,87.02h-2.983c-1.698,1.542-3.944,2.49-6.418,2.489c-2.474,0.001-4.721-0.946-6.418-2.489
							h-2.983c-4.051,0-12.229,5.283-12.229,9.02v1.408c0,3.734,3.285,6.764,7.338,6.763l28.582,0.001
							c4.055-0.002,7.338-3.029,7.338-6.764V96.04C114.554,92.303,106.38,87.02,102.327,87.02z"/>
					</g>
					<g>
						<circle fill="#939598" cx="93.217" cy="76.717" r="9.56"/>
						<path fill="#939598" d="M102.617,87.311h-2.983c-1.697,1.541-3.943,2.489-6.416,2.489c-2.476,0-4.722-0.947-6.419-2.489
							h-2.983c-4.052,0-12.228,5.282-12.228,9.019l-0.001,1.408c0.001,3.735,3.284,6.764,7.337,6.764h28.583
							c4.054-0.002,7.338-3.028,7.338-6.764l-0.001-1.408C114.845,92.593,106.67,87.311,102.617,87.311z"/>
					</g>
					<g>
						<circle fill="#939598" cx="93.507" cy="77.007" r="9.559"/>
						<path fill="#939598" d="M102.908,87.601h-2.983c-1.697,1.542-3.944,2.49-6.416,2.49c-2.476,0-4.723-0.948-6.419-2.49h-2.984
							c-4.051,0-12.228,5.283-12.228,9.019l-0.001,1.408c0.001,3.735,3.285,6.764,7.338,6.764h28.583
							c4.054-0.001,7.338-3.028,7.338-6.764l-0.001-1.408C115.136,92.884,106.96,87.601,102.908,87.601z"/>
					</g>
					<g>
						<circle fill="#939598" cx="93.798" cy="77.298" r="9.56"/>
						<path fill="#939598" d="M103.198,87.891h-2.983c-1.697,1.542-3.944,2.491-6.416,2.49c-2.476,0-4.723-0.947-6.419-2.49h-2.983
							c-4.052,0.001-12.228,5.284-12.229,9.019v1.409c0,3.734,3.284,6.764,7.337,6.764h28.583c4.054-0.002,7.337-3.028,7.337-6.764
							V96.91C115.425,93.174,107.251,87.891,103.198,87.891z"/>
					</g>
					<g>
						<circle fill="#939598" cx="94.088" cy="77.588" r="9.559"/>
						<path fill="#939598" d="M103.489,88.182h-2.984c-1.697,1.542-3.943,2.49-6.416,2.489c-2.476,0-4.722-0.947-6.419-2.489h-2.983
							c-4.052,0-12.228,5.283-12.228,9.019l-0.001,1.408c0.001,3.735,3.285,6.764,7.338,6.764h28.583
							c4.053-0.001,7.337-3.028,7.337-6.764l-0.001-1.408C115.716,93.465,107.541,88.182,103.489,88.182z"/>
					</g>
					<g>
						<circle fill="#939598" cx="94.379" cy="77.879" r="9.56"/>
						<path fill="#939598" d="M103.779,88.472h-2.983c-1.697,1.542-3.944,2.49-6.416,2.49c-2.476,0-4.723-0.947-6.419-2.49h-2.983
							c-4.052,0.001-12.229,5.284-12.229,9.019l-0.001,1.408c0.001,3.735,3.285,6.764,7.338,6.764h28.583
							c4.054-0.001,7.338-3.027,7.338-6.764l-0.001-1.408C116.007,93.755,107.831,88.472,103.779,88.472z"/>
					</g>
					<g>
						<circle fill="#939598" cx="94.669" cy="78.17" r="9.56"/>
						<path fill="#939598" d="M104.069,88.763h-2.983c-1.697,1.541-3.944,2.49-6.416,2.489c-2.476,0-4.723-0.947-6.419-2.489h-2.983
							c-4.052,0-12.228,5.283-12.229,9.019v1.408c0,3.734,3.284,6.764,7.337,6.764h28.583c4.054-0.001,7.338-3.028,7.338-6.764
							l-0.001-1.408C116.297,94.046,108.122,88.763,104.069,88.763z"/>
					</g>
					<g>
						<circle fill="#939598" cx="94.96" cy="78.459" r="9.56"/>
						<path fill="#939598" d="M104.36,89.053h-2.984c-1.696,1.542-3.943,2.49-6.416,2.489c-2.476,0-4.722-0.946-6.418-2.489h-2.983
							c-4.052,0.001-12.229,5.284-12.229,9.019l-0.001,1.408c0.001,3.735,3.285,6.764,7.338,6.764h28.583
							c4.053,0,7.337-3.028,7.337-6.764v-1.408C116.587,94.336,108.412,89.053,104.36,89.053z"/>
					</g>
					<g>
						<circle fill="#939598" cx="95.25" cy="78.75" r="9.559"/>
						<path fill="#939598" d="M104.65,89.343h-2.983c-1.697,1.542-3.944,2.49-6.416,2.49c-2.476,0-4.723-0.947-6.419-2.49h-2.983
							c-4.052,0.001-12.229,5.284-12.229,9.019v1.408c0,3.735,3.284,6.764,7.338,6.764h28.582c4.054,0,7.338-3.027,7.338-6.764
							v-1.408C116.878,94.626,108.702,89.343,104.65,89.343z"/>
					</g>
					<g>
						<circle fill="#939598" cx="95.541" cy="79.041" r="9.56"/>
						<path fill="#939598" d="M104.941,89.634h-2.983c-1.697,1.542-3.943,2.49-6.416,2.489c-2.476,0-4.722-0.946-6.419-2.489H86.14
							c-4.053,0-12.228,5.284-12.228,9.019v1.408c0,3.734,3.284,6.764,7.337,6.764h28.583c4.053-0.001,7.337-3.028,7.337-6.764
							v-1.408C117.168,94.917,108.993,89.634,104.941,89.634z"/>
					</g>
					<g>
						<circle fill="#939598" cx="95.831" cy="79.331" r="9.56"/>
						<path fill="#939598" d="M105.232,89.924h-2.984c-1.696,1.542-3.943,2.49-6.416,2.489c-2.475,0-4.722-0.946-6.418-2.489H86.43
							c-4.052,0.001-12.229,5.284-12.229,9.019v1.408c0,3.735,3.284,6.764,7.337,6.764h28.583c4.053,0,7.337-3.028,7.337-6.764
							v-1.408C117.458,95.207,109.283,89.924,105.232,89.924z"/>
					</g>
					<g>
						<circle fill="#939598" cx="96.121" cy="79.621" r="9.559"/>
						<path fill="#939598" d="M105.521,90.215h-2.982c-1.698,1.541-3.944,2.49-6.418,2.488c-2.474,0.001-4.722-0.945-6.417-2.488
							H86.72c-4.052,0-12.229,5.283-12.229,9.019v1.408c0,3.734,3.283,6.764,7.337,6.764h28.583
							c4.053-0.001,7.338-3.028,7.338-6.764l-0.001-1.408C117.749,95.497,109.573,90.215,105.521,90.215z"/>
					</g>
					<g>
						<circle fill="#939598" cx="96.412" cy="79.912" r="9.56"/>
						<path fill="#939598" d="M105.812,90.505h-2.983c-1.697,1.542-3.942,2.49-6.416,2.489c-2.476,0-4.722-0.946-6.418-2.489h-2.983
							c-4.052,0-12.228,5.283-12.228,9.018v1.408c0,3.735,3.284,6.764,7.338,6.764h28.582c4.053-0.001,7.338-3.028,7.338-6.764
							l-0.001-1.408C118.04,95.788,109.864,90.505,105.812,90.505z"/>
					</g>
					<g>
						<circle fill="#939598" cx="96.702" cy="80.202" r="9.56"/>
						<path fill="#939598" d="M106.103,90.795h-2.983c-1.697,1.542-3.943,2.49-6.417,2.489c-2.475,0-4.722-0.946-6.418-2.489h-2.983
							c-4.052,0.001-12.227,5.284-12.227,9.019l-0.001,1.408c0.001,3.735,3.284,6.765,7.338,6.765h28.583
							c4.052-0.001,7.337-3.029,7.337-6.765v-1.408C118.33,96.078,110.154,90.795,106.103,90.795z"/>
					</g>
					<g>
						<circle fill="#939598" cx="96.992" cy="80.493" r="9.559"/>
					</g>
					<g>
						<circle fill="#939598" cx="97.283" cy="80.783" r="9.56"/>
					</g>
					<g>
						<circle fill="#939598" cx="97.573" cy="81.073" r="9.56"/>
					</g>
					<g>
						<circle fill="#939598" cx="97.864" cy="81.364" r="9.56"/>
					</g>
					<g>
						<circle fill="#939598" cx="98.154" cy="81.654" r="9.56"/>
					</g>
					<g>
						<circle fill="#939598" cx="98.445" cy="81.944" r="9.559"/>
					</g>
					<g>
						<circle fill="#939598" cx="98.735" cy="82.235" r="9.56"/>
					</g>
					<g>
						<circle fill="#939598" cx="99.025" cy="82.525" r="9.56"/>
					</g>
					<g>
						<circle fill="#939598" cx="99.316" cy="82.815" r="9.559"/>
					</g>
					<g>
						<circle fill="#939598" cx="99.606" cy="83.106" r="9.559"/>
					</g>
					<g>
						<circle fill="#939598" cx="99.897" cy="83.397" r="9.56"/>
					</g>
					<g>
						<circle fill="#939598" cx="100.187" cy="83.687" r="9.559"/>
					</g>
					<g>
						<circle fill="#939598" cx="100.478" cy="83.978" r="9.56"/>
					</g>
				</g>
			</g>
		</g>
		<g>
			<circle fill="#EEEFEC" cx="46.459" cy="29.959" r="9.559"/>
			<path fill="#EEEFEC" d="M55.858,40.552h-2.983c-1.697,1.542-3.942,2.489-6.417,2.489c-2.474,0-4.721-0.947-6.417-2.489h-2.983
				c-4.052,0-12.229,5.283-12.229,9.018v1.408c0,3.735,3.284,6.764,7.337,6.764h28.583c4.053,0,7.338-3.028,7.338-6.764V49.57
				C68.087,45.835,59.91,40.552,55.858,40.552z"/>
		</g>
	</g>
</g>
<g>
	<path fill="#FFFFFF" d="M12.037,69.229h1.814v11.586h5.783v1.644h-7.597V69.229z"/>
	<path fill="#FFFFFF" d="M28.582,73.047c0.775,0.429,1.38,1.024,1.814,1.787c0.435,0.763,0.652,1.635,0.652,2.618
		c0,0.983-0.217,1.858-0.652,2.627c-0.434,0.767-1.039,1.367-1.814,1.795c-0.775,0.429-1.66,0.643-2.655,0.643
		c-1.008,0-1.899-0.214-2.674-0.643c-0.775-0.428-1.38-1.023-1.815-1.786c-0.434-0.763-0.652-1.641-0.652-2.636
		c0-0.983,0.218-1.855,0.652-2.618c0.435-0.763,1.04-1.358,1.815-1.787c0.774-0.428,1.666-0.641,2.674-0.641
		C26.922,72.405,27.807,72.619,28.582,73.047z M24.179,74.39c-0.511,0.301-0.907,0.721-1.19,1.257
		c-0.284,0.535-0.425,1.144-0.425,1.824c0,0.694,0.142,1.31,0.425,1.852c0.283,0.543,0.68,0.961,1.19,1.257
		c0.51,0.297,1.093,0.444,1.748,0.444c0.643,0,1.219-0.148,1.73-0.444c0.51-0.295,0.907-0.714,1.19-1.257
		c0.284-0.541,0.425-1.158,0.425-1.852c0-0.68-0.142-1.289-0.425-1.824c-0.284-0.535-0.681-0.955-1.19-1.257
		c-0.511-0.303-1.087-0.454-1.73-0.454C25.272,73.936,24.689,74.087,24.179,74.39z"/>
	<path fill="#FFFFFF" d="M42.351,72.461v8.978c0,0.958-0.211,1.796-0.633,2.515c-0.422,0.718-1.018,1.269-1.786,1.653
		c-0.768,0.385-1.663,0.577-2.684,0.577c-1.473,0-2.847-0.466-4.12-1.4l0.775-1.284c0.491,0.403,1.001,0.701,1.53,0.898
		c0.529,0.194,1.109,0.292,1.739,0.292c1.033,0,1.859-0.291,2.476-0.869c0.617-0.58,0.926-1.355,0.926-2.326v-1.398
		c-0.353,0.604-0.832,1.074-1.437,1.407c-0.604,0.335-1.298,0.501-2.079,0.501c-0.895,0-1.686-0.205-2.372-0.614
		s-1.219-0.98-1.596-1.71c-0.378-0.731-0.568-1.569-0.568-2.515c0-0.932,0.189-1.758,0.568-2.476
		c0.378-0.718,0.91-1.278,1.596-1.681s1.477-0.604,2.372-0.604c0.794,0,1.49,0.163,2.088,0.491c0.598,0.328,1.074,0.794,1.427,1.398
		v-1.833H42.351z M39.043,80.154c0.479-0.289,0.854-0.691,1.124-1.2c0.271-0.511,0.407-1.087,0.407-1.73
		c0-0.655-0.135-1.237-0.407-1.747c-0.271-0.511-0.645-0.911-1.124-1.201c-0.479-0.289-1.027-0.435-1.644-0.435
		s-1.169,0.146-1.653,0.435c-0.485,0.291-0.867,0.691-1.144,1.201c-0.278,0.511-0.416,1.092-0.416,1.747
		c0.012,0.983,0.315,1.79,0.907,2.419c0.592,0.631,1.36,0.944,2.306,0.944C38.017,80.588,38.564,80.443,39.043,80.154z"/>
	<path fill="#FFFFFF" d="M57.328,73.047c0.775,0.429,1.381,1.024,1.815,1.787c0.435,0.763,0.652,1.635,0.652,2.618
		c0,0.983-0.217,1.858-0.652,2.627c-0.434,0.767-1.04,1.367-1.815,1.795c-0.775,0.429-1.66,0.643-2.655,0.643
		c-1.009,0-1.899-0.214-2.673-0.643c-0.775-0.428-1.381-1.023-1.815-1.786c-0.435-0.763-0.652-1.641-0.652-2.636
		c0-0.983,0.217-1.855,0.652-2.618c0.434-0.763,1.04-1.358,1.815-1.787c0.774-0.428,1.664-0.641,2.673-0.641
		C55.668,72.405,56.553,72.619,57.328,73.047z M52.926,74.39c-0.511,0.301-0.907,0.721-1.19,1.257
		c-0.285,0.535-0.426,1.144-0.426,1.824c0,0.694,0.142,1.31,0.426,1.852c0.283,0.543,0.68,0.961,1.19,1.257
		c0.509,0.297,1.092,0.444,1.747,0.444c0.643,0,1.218-0.148,1.729-0.444c0.511-0.295,0.907-0.714,1.19-1.257
		c0.285-0.541,0.426-1.158,0.426-1.852c0-0.68-0.141-1.289-0.426-1.824c-0.283-0.535-0.68-0.955-1.19-1.257
		c-0.511-0.303-1.086-0.454-1.729-0.454C54.018,73.936,53.435,74.087,52.926,74.39z"/>
	<path fill="#FFFFFF" d="M71.096,72.461v9.999H69.32v-2.116c-0.655,1.424-1.89,2.147-3.705,2.173c-1.16,0-2.066-0.343-2.721-1.03
		c-0.655-0.686-0.983-1.635-0.983-2.844v-6.181h1.776v5.709c0,0.844,0.229,1.503,0.691,1.975c0.458,0.472,1.092,0.709,1.898,0.709
		c0.932-0.014,1.673-0.345,2.221-0.994c0.548-0.648,0.823-1.477,0.823-2.484v-4.916H71.096z"/>
	<path fill="#FFFFFF" d="M79.885,81.798c-0.769,0.491-1.55,0.737-2.344,0.737s-1.437-0.235-1.927-0.709
		c-0.491-0.472-0.737-1.187-0.737-2.144v-5.539h-1.418v-1.341h1.418v-2.684h1.776v2.684h3.062v1.341h-3.062v5.217
		c0,0.554,0.1,0.951,0.303,1.19c0.2,0.24,0.503,0.358,0.906,0.358c0.478,0,0.995-0.157,1.55-0.472L79.885,81.798z"/>
</g>
</svg>
