<?xml version="1.0" encoding="utf-8"?>
<!-- Generator: Adobe Illustrator 17.0.0, SVG Export Plug-In . SVG Version: 6.00 Build 0)  -->
<!DOCTYPE svg PUBLIC "-//W3C//DTD SVG 1.1//EN" "http://www.w3.org/Graphics/SVG/1.1/DTD/svg11.dtd">
<svg version="1.1" id="Capa_1" xmlns="http://www.w3.org/2000/svg" xmlns:xlink="http://www.w3.org/1999/xlink" x="0px" y="0px"
	 width="59.528px" height="59.528px" viewBox="15.728 15.728 59.528 59.528" enable-background="new 15.728 15.728 59.528 59.528"
	 xml:space="preserve">
<g id="Background">
</g>
<g>
	<path fill="#CB6566" d="M68.144,15.728H22.84c-3.922,0-7.112,3.19-7.112,7.111v45.305c0,3.922,3.19,7.112,7.112,7.112h45.304
		c3.922,0,7.112-3.19,7.112-7.112V22.839C75.256,18.918,72.066,15.728,68.144,15.728z"/>
	<g>
		<g>
			<defs>
				<path id="SVGID_1_" d="M68.144,15.728H22.84c-3.922,0-7.112,3.19-7.112,7.111v45.305c0,3.922,3.19,7.112,7.112,7.112h45.304
					c3.922,0,7.112-3.19,7.112-7.112V22.839C75.256,18.918,72.066,15.728,68.144,15.728z"/>
			</defs>
			<clipPath id="SVGID_2_">
				<use xlink:href="#SVGID_1_"  overflow="visible"/>
			</clipPath>
			<line clip-path="url(#SVGID_2_)" fill="none" x1="81.07" y1="72.66" x2="45.492" y2="37.081"/>
		</g>
		<g>
			<defs>
				<path id="SVGID_3_" d="M68.144,15.728H22.84c-3.922,0-7.112,3.19-7.112,7.111v45.305c0,3.922,3.19,7.112,7.112,7.112h45.304
					c3.922,0,7.112-3.19,7.112-7.112V22.839C75.256,18.918,72.066,15.728,68.144,15.728z"/>
			</defs>
			<clipPath id="SVGID_4_">
				<use xlink:href="#SVGID_3_"  overflow="visible"/>
			</clipPath>
			<g opacity="0.65" clip-path="url(#SVGID_4_)">
				<g>
					<polygon fill="#929497" points="45.505,32.008 30.365,42.155 60.619,42.155 					"/>
					<polygon fill="#929497" points="32.982,58.976 42.609,58.976 42.609,49.638 48.498,49.638 48.498,58.976 58.021,58.976 
						58.021,43.866 32.982,43.866 					"/>
				</g>
				<g>
					<polygon fill="#929497" points="45.741,32.243 30.601,42.391 60.854,42.391 					"/>
					<polygon fill="#929497" points="33.218,59.212 42.845,59.212 42.845,49.874 48.733,49.874 48.733,59.212 58.257,59.212 
						58.257,44.101 33.218,44.101 					"/>
				</g>
				<g>
					<polygon fill="#929497" points="45.976,32.479 30.836,42.626 61.09,42.626 					"/>
					<polygon fill="#929497" points="33.454,59.447 43.08,59.447 43.08,50.109 48.969,50.109 48.969,59.447 58.492,59.447 
						58.492,44.337 33.454,44.337 					"/>
				</g>
				<g>
					<polygon fill="#929497" points="46.212,32.715 31.073,42.863 61.326,42.863 					"/>
					<polygon fill="#929497" points="33.69,59.684 43.316,59.684 43.316,50.345 49.204,50.345 49.204,59.684 58.728,59.684 
						58.728,44.572 33.69,44.572 					"/>
				</g>
				<g>
					<polygon fill="#929497" points="46.448,32.95 31.308,43.098 61.561,43.098 					"/>
					<polygon fill="#929497" points="33.925,59.919 43.551,59.919 43.551,50.581 49.44,50.581 49.44,59.919 58.964,59.919 
						58.964,44.808 33.925,44.808 					"/>
				</g>
				<g>
					<polygon fill="#929497" points="46.683,33.186 31.544,43.334 61.797,43.334 					"/>
					<polygon fill="#929497" points="34.161,60.155 43.787,60.155 43.787,50.816 49.675,50.816 49.675,60.155 59.199,60.155 
						59.199,45.043 34.161,45.043 					"/>
				</g>
				<g>
					<polygon fill="#929497" points="46.919,33.421 31.779,43.569 62.032,43.569 					"/>
					<polygon fill="#929497" points="34.396,60.39 44.023,60.39 44.023,51.052 49.911,51.052 49.911,60.39 59.435,60.39 
						59.435,45.279 34.396,45.279 					"/>
				</g>
				<g>
					<polygon fill="#929497" points="47.154,33.657 32.015,43.805 62.268,43.805 					"/>
					<polygon fill="#929497" points="34.632,60.626 44.258,60.626 44.258,51.287 50.146,51.287 50.146,60.626 59.671,60.626 
						59.671,45.514 34.632,45.514 					"/>
				</g>
				<g>
					<polygon fill="#929497" points="47.39,33.893 32.25,44.04 62.504,44.04 					"/>
					<polygon fill="#929497" points="34.867,60.861 44.494,60.861 44.494,51.523 50.383,51.523 50.383,60.861 59.906,60.861 
						59.906,45.75 34.867,45.75 					"/>
				</g>
				<g>
					<polygon fill="#929497" points="47.626,34.128 32.486,44.276 62.739,44.276 					"/>
					<polygon fill="#929497" points="35.103,61.097 44.73,61.097 44.73,51.759 50.618,51.759 50.618,61.097 60.142,61.097 
						60.142,45.986 35.103,45.986 					"/>
				</g>
				<g>
					<polygon fill="#929497" points="47.862,34.364 32.721,44.511 62.975,44.511 					"/>
					<polygon fill="#929497" points="35.338,61.332 44.965,61.332 44.965,51.994 50.854,51.994 50.854,61.332 60.378,61.332 
						60.378,46.222 35.338,46.222 					"/>
				</g>
				<g>
					<polygon fill="#929497" points="48.097,34.6 32.958,44.747 63.211,44.747 					"/>
					<polygon fill="#929497" points="35.575,61.569 45.201,61.569 45.201,52.23 51.089,52.23 51.089,61.569 60.613,61.569 
						60.613,46.457 35.575,46.457 					"/>
				</g>
				<g>
					<polygon fill="#929497" points="48.333,34.835 33.193,44.983 63.446,44.983 					"/>
					<polygon fill="#929497" points="35.81,61.804 45.436,61.804 45.436,52.466 51.325,52.466 51.325,61.804 60.849,61.804 
						60.849,46.693 35.81,46.693 					"/>
				</g>
				<g>
					<polygon fill="#929497" points="48.568,35.071 33.429,45.219 63.682,45.219 					"/>
					<polygon fill="#929497" points="36.046,62.04 45.672,62.04 45.672,52.701 51.56,52.701 51.56,62.04 61.084,62.04 
						61.084,46.928 36.046,46.928 					"/>
				</g>
				<g>
					<polygon fill="#929497" points="48.804,35.306 33.664,45.454 63.917,45.454 					"/>
					<polygon fill="#929497" points="36.281,62.275 45.907,62.275 45.907,52.937 51.796,52.937 51.796,62.275 61.32,62.275 
						61.32,47.164 36.281,47.164 					"/>
				</g>
				<g>
					<polygon fill="#929497" points="49.039,35.542 33.9,45.69 64.153,45.69 					"/>
					<polygon fill="#929497" points="36.517,62.511 46.143,62.511 46.143,53.172 52.031,53.172 52.031,62.511 61.555,62.511 
						61.555,47.399 36.517,47.399 					"/>
				</g>
				<g>
					<polygon fill="#929497" points="49.275,35.777 34.135,45.925 64.388,45.925 					"/>
					<polygon fill="#929497" points="36.752,62.746 46.379,62.746 46.379,53.408 52.268,53.408 52.268,62.746 61.791,62.746 
						61.791,47.635 36.752,47.635 					"/>
				</g>
				<g>
					<polygon fill="#929497" points="49.51,36.013 34.371,46.161 64.624,46.161 					"/>
					<polygon fill="#929497" points="36.988,62.982 46.615,62.982 46.615,53.643 52.503,53.643 52.503,62.982 62.027,62.982 
						62.027,47.871 36.988,47.871 					"/>
				</g>
				<g>
					<polygon fill="#929497" points="49.747,36.249 34.607,46.396 64.86,46.396 					"/>
					<polygon fill="#929497" points="37.224,63.217 46.85,63.217 46.85,53.879 52.739,53.879 52.739,63.217 62.263,63.217 
						62.263,48.106 37.224,48.106 					"/>
				</g>
				<g>
					<polygon fill="#929497" points="49.982,36.485 34.843,46.632 65.096,46.632 					"/>
					<polygon fill="#929497" points="37.46,63.454 47.086,63.454 47.086,54.115 52.974,54.115 52.974,63.454 62.498,63.454 
						62.498,48.342 37.46,48.342 					"/>
				</g>
				<g>
					<polygon fill="#929497" points="50.218,36.72 35.078,46.868 65.331,46.868 					"/>
					<polygon fill="#929497" points="37.695,63.689 47.321,63.689 47.321,54.351 53.21,54.351 53.21,63.689 62.734,63.689 
						62.734,48.578 37.695,48.578 					"/>
				</g>
				<g>
					<polygon fill="#929497" points="50.453,36.956 35.314,47.103 65.567,47.103 					"/>
					<polygon fill="#929497" points="37.931,63.925 47.557,63.925 47.557,54.586 53.445,54.586 53.445,63.925 62.969,63.925 
						62.969,48.813 37.931,48.813 					"/>
				</g>
				<g>
					<polygon fill="#929497" points="50.689,37.191 35.549,47.339 65.802,47.339 					"/>
					<polygon fill="#929497" points="38.166,64.16 47.792,64.16 47.792,54.822 53.681,54.822 53.681,64.16 63.205,64.16 
						63.205,49.049 38.166,49.049 					"/>
				</g>
				<g>
					<polygon fill="#929497" points="50.924,37.427 35.785,47.575 66.038,47.575 					"/>
					<polygon fill="#929497" points="38.402,64.396 48.028,64.396 48.028,55.057 53.916,55.057 53.916,64.396 63.44,64.396 
						63.44,49.284 38.402,49.284 					"/>
				</g>
				<g>
					<polygon fill="#929497" points="51.16,37.662 36.02,47.81 66.273,47.81 					"/>
					<polygon fill="#929497" points="38.637,64.631 48.264,64.631 48.264,55.293 54.153,55.293 54.153,64.631 63.676,64.631 
						63.676,49.52 38.637,49.52 					"/>
				</g>
				<g>
					<polygon fill="#929497" points="51.395,37.898 36.256,48.046 66.509,48.046 					"/>
					<polygon fill="#929497" points="38.873,64.867 48.5,64.867 48.5,55.528 54.388,55.528 54.388,64.867 63.911,64.867 
						63.911,49.756 38.873,49.756 					"/>
				</g>
				<g>
					<polygon fill="#929497" points="51.632,38.133 36.492,48.281 66.745,48.281 					"/>
					<polygon fill="#929497" points="39.109,65.103 48.735,65.103 48.735,55.764 54.624,55.764 54.624,65.103 64.148,65.103 
						64.148,49.991 39.109,49.991 					"/>
				</g>
				<g>
					<polygon fill="#929497" points="51.867,38.37 36.727,48.517 66.981,48.517 					"/>
					<polygon fill="#929497" points="39.345,65.338 48.971,65.338 48.971,55.999 54.859,55.999 54.859,65.338 64.383,65.338 
						64.383,50.227 39.345,50.227 					"/>
				</g>
				<g>
					<polygon fill="#929497" points="52.103,38.605 36.963,48.753 67.216,48.753 					"/>
					<polygon fill="#929497" points="39.58,65.574 49.206,65.574 49.206,56.236 55.095,56.236 55.095,65.574 64.619,65.574 
						64.619,50.462 39.58,50.462 					"/>
				</g>
				<g>
					<polygon fill="#929497" points="52.338,38.841 37.199,48.988 67.452,48.988 					"/>
					<polygon fill="#929497" points="39.816,65.81 49.442,65.81 49.442,56.471 55.33,56.471 55.33,65.81 64.854,65.81 
						64.854,50.698 39.816,50.698 					"/>
				</g>
				<g>
					<polygon fill="#929497" points="52.574,39.076 37.434,49.224 67.687,49.224 					"/>
					<polygon fill="#929497" points="40.051,66.045 49.677,66.045 49.677,56.707 55.566,56.707 55.566,66.045 65.09,66.045 
						65.09,50.934 40.051,50.934 					"/>
				</g>
				<g>
					<polygon fill="#929497" points="52.809,39.312 37.67,49.459 67.923,49.459 					"/>
					<polygon fill="#929497" points="40.287,66.281 49.913,66.281 49.913,56.942 55.801,56.942 55.801,66.281 65.325,66.281 
						65.325,51.169 40.287,51.169 					"/>
				</g>
				<g>
					<polygon fill="#929497" points="53.045,39.547 37.905,49.695 68.158,49.695 					"/>
					<polygon fill="#929497" points="40.522,66.516 50.149,66.516 50.149,57.178 56.037,57.178 56.037,66.516 65.561,66.516 
						65.561,51.405 40.522,51.405 					"/>
				</g>
				<g>
					<polygon fill="#929497" points="53.28,39.783 38.141,49.931 68.394,49.931 					"/>
					<polygon fill="#929497" points="40.758,66.752 50.385,66.752 50.385,57.413 56.273,57.413 56.273,66.752 65.796,66.752 
						65.796,51.641 40.758,51.641 					"/>
				</g>
				<g>
					<polygon fill="#929497" points="53.517,40.019 38.377,50.167 68.63,50.167 					"/>
					<polygon fill="#929497" points="40.994,66.988 50.62,66.988 50.62,57.649 56.509,57.649 56.509,66.988 66.033,66.988 
						66.033,51.876 40.994,51.876 					"/>
				</g>
				<g>
					<polygon fill="#929497" points="53.752,40.255 38.612,50.402 68.866,50.402 					"/>
					<polygon fill="#929497" points="41.229,67.223 50.856,67.223 50.856,57.884 56.744,57.884 56.744,67.223 66.268,67.223 
						66.268,52.112 41.229,52.112 					"/>
				</g>
				<g>
					<polygon fill="#929497" points="53.988,40.49 38.848,50.638 69.101,50.638 					"/>
					<polygon fill="#929497" points="41.465,67.459 51.091,67.459 51.091,58.121 56.98,58.121 56.98,67.459 66.504,67.459 
						66.504,52.347 41.465,52.347 					"/>
				</g>
				<g>
					<polygon fill="#929497" points="54.223,40.726 39.083,50.873 69.337,50.873 					"/>
					<polygon fill="#929497" points="41.701,67.694 51.327,67.694 51.327,58.356 57.215,58.356 57.215,67.694 66.739,67.694 
						66.739,52.583 41.701,52.583 					"/>
				</g>
				<g>
					<polygon fill="#929497" points="54.459,40.961 39.319,51.109 69.572,51.109 					"/>
					<polygon fill="#929497" points="41.936,67.93 51.562,67.93 51.562,58.592 57.451,58.592 57.451,67.93 66.975,67.93 
						66.975,52.818 41.936,52.818 					"/>
				</g>
				<g>
					<polygon fill="#929497" points="54.694,41.197 39.555,51.344 69.808,51.344 					"/>
					<polygon fill="#929497" points="42.172,68.166 51.798,68.166 51.798,58.827 57.687,58.827 57.687,68.166 67.21,68.166 
						67.21,53.054 42.172,53.054 					"/>
				</g>
				<g>
					<polygon fill="#929497" points="54.93,41.432 39.79,51.58 70.043,51.58 					"/>
					<polygon fill="#929497" points="42.407,68.401 52.034,68.401 52.034,59.063 57.922,59.063 57.922,68.401 67.446,68.401 
						67.446,53.29 42.407,53.29 					"/>
				</g>
				<g>
					<polygon fill="#929497" points="55.165,41.668 40.026,51.815 70.279,51.815 					"/>
					<polygon fill="#929497" points="42.643,68.637 52.27,68.637 52.27,59.298 58.158,59.298 58.158,68.637 67.681,68.637 
						67.681,53.526 42.643,53.526 					"/>
				</g>
				<g>
					<polygon fill="#929497" points="55.401,41.904 40.262,52.052 70.515,52.052 					"/>
					<polygon fill="#929497" points="42.879,68.873 52.505,68.873 52.505,59.534 58.393,59.534 58.393,68.873 67.918,68.873 
						67.918,53.761 42.879,53.761 					"/>
				</g>
				<g>
					<polygon fill="#929497" points="55.637,42.14 40.497,52.287 70.751,52.287 					"/>
					<polygon fill="#929497" points="43.114,69.108 52.741,69.108 52.741,59.769 58.629,59.769 58.629,69.108 68.153,69.108 
						68.153,53.997 43.114,53.997 					"/>
				</g>
				<g>
					<polygon fill="#929497" points="55.873,42.375 40.733,52.523 70.986,52.523 					"/>
					<polygon fill="#929497" points="43.35,69.344 52.976,69.344 52.976,60.006 58.865,60.006 58.865,69.344 68.389,69.344 
						68.389,54.232 43.35,54.232 					"/>
				</g>
				<g>
					<polygon fill="#929497" points="56.108,42.611 40.968,52.758 71.222,52.758 					"/>
					<polygon fill="#929497" points="43.585,69.579 53.212,69.579 53.212,60.241 59.1,60.241 59.1,69.579 68.624,69.579 
						68.624,54.468 43.585,54.468 					"/>
				</g>
				<g>
					<polygon fill="#929497" points="56.344,42.846 41.204,52.994 71.457,52.994 					"/>
					<polygon fill="#929497" points="43.821,69.815 53.447,69.815 53.447,60.477 59.336,60.477 59.336,69.815 68.86,69.815 
						68.86,54.703 43.821,54.703 					"/>
				</g>
				<g>
					<polygon fill="#929497" points="56.579,43.082 41.439,53.229 71.693,53.229 					"/>
					<polygon fill="#929497" points="44.057,70.05 53.683,70.05 53.683,60.712 59.572,60.712 59.572,70.05 69.095,70.05 
						69.095,54.94 44.057,54.94 					"/>
				</g>
				<g>
					<polygon fill="#929497" points="56.815,43.317 41.675,53.465 71.928,53.465 					"/>
					<polygon fill="#929497" points="44.292,70.286 53.919,70.286 53.919,60.948 59.807,60.948 59.807,70.286 69.331,70.286 
						69.331,55.175 44.292,55.175 					"/>
				</g>
				<g>
					<polygon fill="#929497" points="57.05,43.553 41.911,53.7 72.164,53.7 					"/>
					<polygon fill="#929497" points="44.528,70.522 54.154,70.522 54.154,61.183 60.043,61.183 60.043,70.522 69.566,70.522 
						69.566,55.411 44.528,55.411 					"/>
				</g>
				<g>
					<polygon fill="#929497" points="57.286,43.789 42.147,53.937 72.4,53.937 					"/>
					<polygon fill="#929497" points="44.764,70.758 54.39,70.758 54.39,61.419 60.278,61.419 60.278,70.758 69.802,70.758 
						69.802,55.646 44.764,55.646 					"/>
				</g>
				<g>
					<polygon fill="#929497" points="57.522,44.024 42.382,54.172 72.635,54.172 					"/>
					<polygon fill="#929497" points="44.999,70.993 54.626,70.993 54.626,61.655 60.514,61.655 60.514,70.993 70.038,70.993 
						70.038,55.882 44.999,55.882 					"/>
				</g>
				<g>
					<polygon fill="#929497" points="57.757,44.26 42.618,54.408 72.871,54.408 					"/>
					<polygon fill="#929497" points="45.235,71.229 54.861,71.229 54.861,61.89 60.749,61.89 60.749,71.229 70.274,71.229 
						70.274,56.117 45.235,56.117 					"/>
				</g>
				<g>
					<polygon fill="#929497" points="57.993,44.496 42.853,54.643 73.107,54.643 					"/>
					<polygon fill="#929497" points="45.47,71.464 55.097,71.464 55.097,62.126 60.985,62.126 60.985,71.464 70.509,71.464 
						70.509,56.353 45.47,56.353 					"/>
				</g>
				<g>
					<polygon fill="#929497" points="58.229,44.731 43.089,54.879 73.342,54.879 					"/>
					<polygon fill="#929497" points="45.706,71.7 55.332,71.7 55.332,62.362 61.221,62.362 61.221,71.7 70.745,71.7 70.745,56.588 
						45.706,56.588 					"/>
				</g>
				<g>
					<polygon fill="#929497" points="58.464,44.967 43.324,55.114 73.578,55.114 					"/>
					<polygon fill="#929497" points="45.941,71.935 55.568,71.935 55.568,62.597 61.457,62.597 61.457,71.935 70.98,71.935 
						70.98,56.825 45.941,56.825 					"/>
				</g>
				<g>
					<polygon fill="#929497" points="58.7,45.202 43.56,55.35 73.813,55.35 					"/>
					<polygon fill="#929497" points="46.177,72.171 55.804,72.171 55.804,62.833 61.692,62.833 61.692,72.171 71.216,72.171 
						71.216,57.06 46.177,57.06 					"/>
				</g>
				<g>
					<polygon fill="#929497" points="58.936,45.438 43.796,55.585 74.049,55.585 					"/>
					<polygon fill="#929497" points="46.413,72.406 56.039,72.406 56.039,63.068 61.928,63.068 61.928,72.406 71.452,72.406 
						71.452,57.296 46.413,57.296 					"/>
				</g>
				<g>
					<polygon fill="#929497" points="59.171,45.674 44.032,55.822 74.285,55.822 					"/>
					<polygon fill="#929497" points="46.649,72.643 56.275,72.643 56.275,63.304 62.163,63.304 62.163,72.643 71.687,72.643 
						71.687,57.531 46.649,57.531 					"/>
				</g>
				<g>
					<polygon fill="#929497" points="59.407,45.909 44.267,56.057 74.52,56.057 					"/>
					<polygon fill="#929497" points="46.884,72.878 56.51,72.878 56.51,63.54 62.399,63.54 62.399,72.878 71.923,72.878 
						71.923,57.767 46.884,57.767 					"/>
				</g>
				<g>
					<polygon fill="#929497" points="59.642,46.145 44.503,56.293 74.756,56.293 					"/>
					<polygon fill="#929497" points="47.12,73.114 56.746,73.114 56.746,63.775 62.634,63.775 62.634,73.114 72.159,73.114 
						72.159,58.002 47.12,58.002 					"/>
				</g>
				<g>
					<polygon fill="#929497" points="59.878,46.38 44.738,56.528 74.991,56.528 					"/>
					<polygon fill="#929497" points="47.355,73.349 56.982,73.349 56.982,64.011 62.87,64.011 62.87,73.349 72.394,73.349 
						72.394,58.238 47.355,58.238 					"/>
				</g>
				<g>
					<polygon fill="#929497" points="60.113,46.616 44.974,56.764 75.227,56.764 					"/>
					<polygon fill="#929497" points="47.591,73.585 57.217,73.585 57.217,64.246 63.105,64.246 63.105,73.585 72.63,73.585 
						72.63,58.473 47.591,58.473 					"/>
				</g>
				<g>
					<polygon fill="#929497" points="60.349,46.852 45.209,56.999 75.463,56.999 					"/>
					<polygon fill="#929497" points="47.826,73.82 57.453,73.82 57.453,64.482 63.342,64.482 63.342,73.82 72.865,73.82 
						72.865,58.709 47.826,58.709 					"/>
				</g>
				<g>
					<polygon fill="#929497" points="60.585,47.087 45.445,57.235 75.698,57.235 					"/>
					<polygon fill="#929497" points="48.062,74.056 57.689,74.056 57.689,64.718 63.577,64.718 63.577,74.056 73.101,74.056 
						73.101,58.945 48.062,58.945 					"/>
				</g>
				<g>
					<polygon fill="#929497" points="60.821,47.323 45.681,57.47 75.934,57.47 					"/>
					<polygon fill="#929497" points="48.298,74.291 57.924,74.291 57.924,64.953 63.813,64.953 63.813,74.291 73.337,74.291 
						73.337,59.181 48.298,59.181 					"/>
				</g>
				<g>
					<polygon fill="#929497" points="61.056,47.559 45.917,57.706 76.17,57.706 					"/>
					<polygon fill="#929497" points="48.534,74.528 58.16,74.528 58.16,65.189 64.048,65.189 64.048,74.528 73.572,74.528 
						73.572,59.416 48.534,59.416 					"/>
				</g>
				<g>
					<polygon fill="#929497" points="61.292,47.794 46.152,57.942 76.405,57.942 					"/>
					<polygon fill="#929497" points="48.769,74.763 58.395,74.763 58.395,65.425 64.284,65.425 64.284,74.763 73.808,74.763 
						73.808,59.652 48.769,59.652 					"/>
				</g>
				<g>
					<polygon fill="#929497" points="61.527,48.03 46.388,58.178 76.641,58.178 					"/>
					<polygon fill="#929497" points="49.005,74.999 58.631,74.999 58.631,65.66 64.519,65.66 64.519,74.999 74.043,74.999 
						74.043,59.887 49.005,59.887 					"/>
				</g>
				<g>
					<polygon fill="#929497" points="61.763,48.265 46.623,58.413 76.876,58.413 					"/>
					<polygon fill="#929497" points="49.24,75.234 58.866,75.234 58.866,65.896 64.755,65.896 64.755,75.234 74.279,75.234 
						74.279,60.123 49.24,60.123 					"/>
				</g>
				<g>
					<polygon fill="#929497" points="61.998,48.501 46.859,58.649 77.112,58.649 					"/>
					<polygon fill="#929497" points="49.476,75.47 59.102,75.47 59.102,66.131 64.99,66.131 64.99,75.47 74.515,75.47 
						74.515,60.358 49.476,60.358 					"/>
				</g>
				<g>
					<polygon fill="#929497" points="62.234,48.736 47.094,58.884 77.347,58.884 					"/>
					<polygon fill="#929497" points="49.711,75.705 59.338,75.705 59.338,66.367 65.227,66.367 65.227,75.705 74.75,75.705 
						74.75,60.594 49.711,60.594 					"/>
				</g>
				<g>
					<polygon fill="#929497" points="62.47,48.972 47.33,59.12 77.583,59.12 					"/>
					<polygon fill="#929497" points="49.947,75.941 59.574,75.941 59.574,66.602 65.462,66.602 65.462,75.941 74.986,75.941 
						74.986,60.83 49.947,60.83 					"/>
				</g>
				<g>
					<polygon fill="#929497" points="62.706,49.208 47.566,59.355 77.819,59.355 					"/>
					<polygon fill="#929497" points="50.183,76.177 59.809,76.177 59.809,66.838 65.698,66.838 65.698,76.177 75.222,76.177 
						75.222,61.065 50.183,61.065 					"/>
				</g>
				<g>
					<polygon fill="#929497" points="62.941,49.444 47.802,59.591 78.055,59.591 					"/>
					<polygon fill="#929497" points="50.419,76.413 60.045,76.413 60.045,67.074 65.933,67.074 65.933,76.413 75.457,76.413 
						75.457,61.301 50.419,61.301 					"/>
				</g>
				<g>
					<polygon fill="#929497" points="63.177,49.679 48.037,59.827 78.29,59.827 					"/>
					<polygon fill="#929497" points="50.654,76.648 60.28,76.648 60.28,67.31 66.169,67.31 66.169,76.648 75.693,76.648 
						75.693,61.537 50.654,61.537 					"/>
				</g>
				<g>
					<polygon fill="#929497" points="63.412,49.915 48.273,60.062 78.526,60.062 					"/>
					<polygon fill="#929497" points="50.89,76.884 60.516,76.884 60.516,67.545 66.404,67.545 66.404,76.884 75.928,76.884 
						75.928,61.772 50.89,61.772 					"/>
				</g>
				<g>
					<polygon fill="#929497" points="63.648,50.15 48.508,60.298 78.761,60.298 					"/>
					<polygon fill="#929497" points="51.125,77.119 60.751,77.119 60.751,67.781 66.64,67.781 66.64,77.119 76.164,77.119 
						76.164,62.008 51.125,62.008 					"/>
				</g>
				<g>
					<polygon fill="#929497" points="63.883,50.386 48.744,60.534 78.997,60.534 					"/>
					<polygon fill="#929497" points="51.361,77.355 60.987,77.355 60.987,68.016 66.875,68.016 66.875,77.355 76.399,77.355 
						76.399,62.243 51.361,62.243 					"/>
				</g>
				<g>
					<polygon fill="#929497" points="64.119,50.621 48.979,60.769 79.232,60.769 					"/>
					<polygon fill="#929497" points="51.596,77.59 61.223,77.59 61.223,68.252 67.112,68.252 67.112,77.59 76.635,77.59 
						76.635,62.479 51.596,62.479 					"/>
				</g>
				<g>
					<polygon fill="#929497" points="64.354,50.857 49.215,61.005 79.468,61.005 					"/>
					<polygon fill="#929497" points="51.832,77.826 61.459,77.826 61.459,68.487 67.347,68.487 67.347,77.826 76.871,77.826 
						76.871,62.715 51.832,62.715 					"/>
				</g>
				<g>
					<polygon fill="#929497" points="64.591,51.093 49.451,61.241 79.704,61.241 					"/>
					<polygon fill="#929497" points="52.068,78.062 61.694,78.062 61.694,68.723 67.583,68.723 67.583,78.062 77.107,78.062 
						77.107,62.95 52.068,62.95 					"/>
				</g>
				<g>
					<polygon fill="#929497" points="64.826,51.329 49.686,61.476 79.94,61.476 					"/>
					<polygon fill="#929497" points="52.304,78.297 61.93,78.297 61.93,68.958 67.818,68.958 67.818,78.297 77.342,78.297 
						77.342,63.186 52.304,63.186 					"/>
				</g>
				<g>
					<polygon fill="#929497" points="65.062,51.564 49.922,61.712 80.175,61.712 					"/>
					<polygon fill="#929497" points="52.539,78.533 62.165,78.533 62.165,69.195 68.054,69.195 68.054,78.533 77.578,78.533 
						77.578,63.421 52.539,63.421 					"/>
				</g>
				<g>
					<polygon fill="#929497" points="65.297,51.8 50.158,61.947 80.411,61.947 					"/>
					<polygon fill="#929497" points="52.775,78.769 62.401,78.769 62.401,69.43 68.289,69.43 68.289,78.769 77.813,78.769 
						77.813,63.657 52.775,63.657 					"/>
				</g>
				<g>
					<polygon fill="#929497" points="65.533,52.035 50.393,62.183 80.646,62.183 					"/>
					<polygon fill="#929497" points="53.01,79.004 62.636,79.004 62.636,69.666 68.525,69.666 68.525,79.004 78.049,79.004 
						78.049,63.893 53.01,63.893 					"/>
				</g>
				<g>
					<polygon fill="#929497" points="65.768,52.271 50.629,62.418 80.882,62.418 					"/>
					<polygon fill="#929497" points="53.246,79.24 62.873,79.24 62.873,69.901 68.761,69.901 68.761,79.24 78.284,79.24 
						78.284,64.128 53.246,64.128 					"/>
				</g>
				<g>
					<polygon fill="#929497" points="66.004,52.506 50.864,62.654 81.117,62.654 					"/>
					<polygon fill="#929497" points="53.481,79.475 63.108,79.475 63.108,70.137 68.996,70.137 68.996,79.475 78.52,79.475 
						78.52,64.364 53.481,64.364 					"/>
				</g>
				<g>
					<polygon fill="#929497" points="66.239,52.742 51.1,62.89 81.353,62.89 					"/>
					<polygon fill="#929497" points="53.717,79.711 63.344,79.711 63.344,70.372 69.232,70.372 69.232,79.711 78.755,79.711 
						78.755,64.6 53.717,64.6 					"/>
				</g>
				<g>
					<polygon fill="#929497" points="66.476,52.978 51.336,63.126 81.589,63.126 					"/>
					<polygon fill="#929497" points="53.953,79.947 63.579,79.947 63.579,70.608 69.468,70.608 69.468,79.947 78.992,79.947 
						78.992,64.835 53.953,64.835 					"/>
				</g>
				<g>
					<polygon fill="#929497" points="66.711,53.214 51.571,63.361 81.825,63.361 					"/>
					<polygon fill="#929497" points="54.188,80.182 63.815,80.182 63.815,70.843 69.703,70.843 69.703,80.182 79.227,80.182 
						79.227,65.071 54.188,65.071 					"/>
				</g>
				<g>
					<polygon fill="#929497" points="66.947,53.449 51.807,63.597 82.06,63.597 					"/>
					<polygon fill="#929497" points="54.424,80.418 64.05,80.418 64.05,71.08 69.939,71.08 69.939,80.418 79.463,80.418 
						79.463,65.306 54.424,65.306 					"/>
				</g>
				<g>
					<polygon fill="#929497" points="67.182,53.685 52.042,63.832 82.296,63.832 					"/>
					<polygon fill="#929497" points="54.66,80.653 64.286,80.653 64.286,71.315 70.174,71.315 70.174,80.653 79.698,80.653 
						79.698,65.542 54.66,65.542 					"/>
				</g>
				<g>
					<polygon fill="#929497" points="67.418,53.92 52.278,64.068 82.531,64.068 					"/>
					<polygon fill="#929497" points="54.895,80.889 64.521,80.889 64.521,71.551 70.41,71.551 70.41,80.889 79.934,80.889 
						79.934,65.777 54.895,65.777 					"/>
				</g>
				<g>
					<polygon fill="#929497" points="67.653,54.156 52.514,64.303 82.767,64.303 					"/>
					<polygon fill="#929497" points="55.131,81.125 64.757,81.125 64.757,71.786 70.646,71.786 70.646,81.125 80.169,81.125 
						80.169,66.014 55.131,66.014 					"/>
				</g>
				<g>
					<polygon fill="#929497" points="67.889,54.391 52.749,64.539 83.002,64.539 					"/>
					<polygon fill="#929497" points="55.366,81.36 64.993,81.36 64.993,72.022 70.881,72.022 70.881,81.36 80.405,81.36 
						80.405,66.249 55.366,66.249 					"/>
				</g>
				<g>
					<polygon fill="#929497" points="68.124,54.627 52.985,64.774 83.238,64.774 					"/>
					<polygon fill="#929497" points="55.602,81.596 65.229,81.596 65.229,72.257 71.117,72.257 71.117,81.596 80.64,81.596 
						80.64,66.485 55.602,66.485 					"/>
				</g>
				<g>
					<polygon fill="#929497" points="68.36,54.863 53.221,65.011 83.474,65.011 					"/>
					<polygon fill="#929497" points="55.838,81.832 65.464,81.832 65.464,72.493 71.352,72.493 71.352,81.832 80.877,81.832 
						80.877,66.72 55.838,66.72 					"/>
				</g>
				<g>
					<polygon fill="#929497" points="68.596,55.099 53.456,65.246 83.71,65.246 					"/>
					<polygon fill="#929497" points="56.073,82.067 65.7,82.067 65.7,72.729 71.588,72.729 71.588,82.067 81.112,82.067 
						81.112,66.956 56.073,66.956 					"/>
				</g>
				<g>
					<polygon fill="#929497" points="68.832,55.334 53.692,65.482 83.945,65.482 					"/>
					<polygon fill="#929497" points="56.309,82.303 65.935,82.303 65.935,72.965 71.824,72.965 71.824,82.303 81.348,82.303 
						81.348,67.191 56.309,67.191 					"/>
				</g>
				<g>
					<polygon fill="#929497" points="69.067,55.57 53.927,65.717 84.181,65.717 					"/>
					<polygon fill="#929497" points="56.544,82.538 66.171,82.538 66.171,73.2 72.059,73.2 72.059,82.538 81.583,82.538 
						81.583,67.427 56.544,67.427 					"/>
				</g>
				<g>
					<polygon fill="#929497" points="69.303,55.805 54.163,65.953 84.416,65.953 					"/>
					<polygon fill="#929497" points="56.78,82.774 66.406,82.774 66.406,73.436 72.295,73.436 72.295,82.774 81.819,82.774 
						81.819,67.662 56.78,67.662 					"/>
				</g>
				<g>
					<polygon fill="#929497" points="69.538,56.041 54.399,66.188 84.652,66.188 					"/>
					<polygon fill="#929497" points="57.016,83.009 66.642,83.009 66.642,73.671 72.531,73.671 72.531,83.009 82.054,83.009 
						82.054,67.899 57.016,67.899 					"/>
				</g>
				<g>
					<polygon fill="#929497" points="69.774,56.276 54.634,66.424 84.887,66.424 					"/>
					<polygon fill="#929497" points="57.251,83.245 66.878,83.245 66.878,73.907 72.766,73.907 72.766,83.245 82.29,83.245 
						82.29,68.134 57.251,68.134 					"/>
				</g>
				<g>
					<polygon fill="#929497" points="70.009,56.512 54.87,66.659 85.123,66.659 					"/>
					<polygon fill="#929497" points="57.487,83.481 67.113,83.481 67.113,74.142 73.002,74.142 73.002,83.481 82.526,83.481 
						82.526,68.37 57.487,68.37 					"/>
				</g>
				<g>
					<polygon fill="#929497" points="70.245,56.748 55.106,66.896 85.359,66.896 					"/>
					<polygon fill="#929497" points="57.723,83.717 67.349,83.717 67.349,74.378 73.237,74.378 73.237,83.717 82.762,83.717 
						82.762,68.605 57.723,68.605 					"/>
				</g>
				<g>
					<polygon fill="#929497" points="70.481,56.983 55.341,67.131 85.594,67.131 					"/>
					<polygon fill="#929497" points="57.958,83.952 67.585,83.952 67.585,74.614 73.473,74.614 73.473,83.952 82.997,83.952 
						82.997,68.841 57.958,68.841 					"/>
				</g>
				<g>
					<polygon fill="#929497" points="70.716,57.219 55.577,67.367 85.83,67.367 					"/>
					<polygon fill="#929497" points="58.194,84.188 67.82,84.188 67.82,74.849 73.708,74.849 73.708,84.188 83.233,84.188 
						83.233,69.076 58.194,69.076 					"/>
				</g>
				<g>
					<polygon fill="#929497" points="70.952,57.455 55.812,67.602 86.066,67.602 					"/>
					<polygon fill="#929497" points="58.429,84.423 68.056,84.423 68.056,75.085 73.944,75.085 73.944,84.423 83.468,84.423 
						83.468,69.312 58.429,69.312 					"/>
				</g>
				<g>
					<polygon fill="#929497" points="71.188,57.69 56.048,67.838 86.301,67.838 					"/>
					<polygon fill="#929497" points="58.665,84.659 68.291,84.659 68.291,75.321 74.18,75.321 74.18,84.659 83.704,84.659 
						83.704,69.547 58.665,69.547 					"/>
				</g>
				<g>
					<polygon fill="#929497" points="71.423,57.926 56.283,68.073 86.537,68.073 					"/>
					<polygon fill="#929497" points="58.9,84.894 68.527,84.894 68.527,75.556 74.416,75.556 74.416,84.894 83.939,84.894 
						83.939,69.784 58.9,69.784 					"/>
				</g>
				<g>
					<polygon fill="#929497" points="71.659,58.161 56.519,68.309 86.772,68.309 					"/>
					<polygon fill="#929497" points="59.136,85.13 68.763,85.13 68.763,75.792 74.651,75.792 74.651,85.13 84.175,85.13 
						84.175,70.019 59.136,70.019 					"/>
				</g>
				<g>
					<polygon fill="#929497" points="71.895,58.397 56.755,68.544 87.008,68.544 					"/>
					<polygon fill="#929497" points="59.372,85.365 68.998,85.365 68.998,76.027 74.887,76.027 74.887,85.365 84.411,85.365 
						84.411,70.255 59.372,70.255 					"/>
				</g>
				<g>
					<polygon fill="#929497" points="72.13,58.633 56.991,68.781 87.244,68.781 					"/>
					<polygon fill="#929497" points="59.608,85.602 69.234,85.602 69.234,76.263 75.122,76.263 75.122,85.602 84.646,85.602 
						84.646,70.49 59.608,70.49 					"/>
				</g>
				<g>
					<polygon fill="#929497" points="72.366,58.868 57.226,69.016 87.479,69.016 					"/>
					<polygon fill="#929497" points="59.843,85.837 69.469,85.837 69.469,76.499 75.358,76.499 75.358,85.837 84.882,85.837 
						84.882,70.726 59.843,70.726 					"/>
				</g>
				<g>
					<polygon fill="#929497" points="72.601,59.104 57.462,69.252 87.715,69.252 					"/>
					<polygon fill="#929497" points="60.079,86.073 69.705,86.073 69.705,76.734 75.593,76.734 75.593,86.073 85.118,86.073 
						85.118,70.961 60.079,70.961 					"/>
				</g>
				<g>
					<polygon fill="#929497" points="72.837,59.339 57.697,69.487 87.95,69.487 					"/>
					<polygon fill="#929497" points="60.314,86.308 69.941,86.308 69.941,76.97 75.829,76.97 75.829,86.308 85.353,86.308 
						85.353,71.197 60.314,71.197 					"/>
				</g>
				<g>
					<polygon fill="#929497" points="73.073,59.575 57.933,69.723 88.186,69.723 					"/>
					<polygon fill="#929497" points="60.55,86.544 70.176,86.544 70.176,77.205 76.064,77.205 76.064,86.544 85.589,86.544 
						85.589,71.432 60.55,71.432 					"/>
				</g>
				<g>
					<polygon fill="#929497" points="73.308,59.811 58.168,69.958 88.422,69.958 					"/>
					<polygon fill="#929497" points="60.785,86.779 70.412,86.779 70.412,77.441 76.301,77.441 76.301,86.779 85.824,86.779 
						85.824,71.668 60.785,71.668 					"/>
				</g>
				<g>
					<polygon fill="#929497" points="73.544,60.046 58.404,70.194 88.657,70.194 					"/>
					<polygon fill="#929497" points="61.021,87.015 70.648,87.015 70.648,77.677 76.536,77.677 76.536,87.015 86.06,87.015 
						86.06,71.904 61.021,71.904 					"/>
				</g>
				<g>
					<polygon fill="#929497" points="73.78,60.282 58.64,70.429 88.893,70.429 					"/>
					<polygon fill="#929497" points="61.257,87.251 70.883,87.251 70.883,77.912 76.772,77.912 76.772,87.251 86.296,87.251 
						86.296,72.14 61.257,72.14 					"/>
				</g>
				<g>
					<polygon fill="#929497" points="74.015,60.518 58.876,70.665 89.129,70.665 					"/>
					<polygon fill="#929497" points="61.493,87.487 71.119,87.487 71.119,78.148 77.007,78.148 77.007,87.487 86.531,87.487 
						86.531,72.375 61.493,72.375 					"/>
				</g>
				<g>
					<polygon fill="#929497" points="74.251,60.753 59.111,70.901 89.364,70.901 					"/>
					<polygon fill="#929497" points="61.728,87.722 71.354,87.722 71.354,78.384 77.243,78.384 77.243,87.722 86.767,87.722 
						86.767,72.611 61.728,72.611 					"/>
				</g>
				<g>
					<polygon fill="#929497" points="74.486,60.989 59.347,71.137 89.6,71.137 					"/>
					<polygon fill="#929497" points="61.964,87.958 71.59,87.958 71.59,78.619 77.478,78.619 77.478,87.958 87.002,87.958 
						87.002,72.846 61.964,72.846 					"/>
				</g>
				<g>
					<polygon fill="#929497" points="74.722,61.224 59.582,71.372 89.835,71.372 					"/>
					<polygon fill="#929497" points="62.199,88.193 71.825,88.193 71.825,78.855 77.714,78.855 77.714,88.193 87.238,88.193 
						87.238,73.082 62.199,73.082 					"/>
				</g>
				<g>
					<polygon fill="#929497" points="74.957,61.46 59.818,71.608 90.071,71.608 					"/>
					<polygon fill="#929497" points="62.435,88.429 72.061,88.429 72.061,79.09 77.949,79.09 77.949,88.429 87.474,88.429 
						87.474,73.317 62.435,73.317 					"/>
				</g>
				<g>
					<polygon fill="#929497" points="75.193,61.696 60.053,71.843 90.306,71.843 					"/>
					<polygon fill="#929497" points="62.67,88.664 72.297,88.664 72.297,79.326 78.186,79.326 78.186,88.664 87.709,88.664 
						87.709,73.553 62.67,73.553 					"/>
				</g>
				<g>
					<polygon fill="#929497" points="75.429,61.931 60.289,72.079 90.542,72.079 					"/>
					<polygon fill="#929497" points="62.906,88.9 72.533,88.9 72.533,79.561 78.421,79.561 78.421,88.9 87.945,88.9 87.945,73.789 
						62.906,73.789 					"/>
				</g>
				<g>
					<polygon fill="#929497" points="75.665,62.167 60.525,72.315 90.778,72.315 					"/>
					<polygon fill="#929497" points="63.142,89.136 72.768,89.136 72.768,79.797 78.657,79.797 78.657,89.136 88.181,89.136 
						88.181,74.024 63.142,74.024 					"/>
				</g>
				<g>
					<polygon fill="#929497" points="75.9,62.403 60.761,72.55 91.014,72.55 					"/>
					<polygon fill="#929497" points="63.378,89.372 73.004,89.372 73.004,80.033 78.892,80.033 78.892,89.372 88.416,89.372 
						88.416,74.26 63.378,74.26 					"/>
				</g>
				<g>
					<polygon fill="#929497" points="76.136,62.638 60.996,72.786 91.249,72.786 					"/>
					<polygon fill="#929497" points="63.613,89.607 73.239,89.607 73.239,80.269 79.128,80.269 79.128,89.607 88.652,89.607 
						88.652,74.496 63.613,74.496 					"/>
				</g>
				<g>
					<polygon fill="#929497" points="76.371,62.874 61.232,73.021 91.485,73.021 					"/>
					<polygon fill="#929497" points="63.849,89.843 73.475,89.843 73.475,80.504 79.363,80.504 79.363,89.843 88.887,89.843 
						88.887,74.731 63.849,74.731 					"/>
				</g>
				<g>
					<polygon fill="#929497" points="76.607,63.109 61.467,73.257 91.72,73.257 					"/>
					<polygon fill="#929497" points="64.084,90.078 73.71,90.078 73.71,80.74 79.599,80.74 79.599,90.078 89.123,90.078 
						89.123,74.967 64.084,74.967 					"/>
				</g>
				<g>
					<polygon fill="#929497" points="76.842,63.345 61.703,73.493 91.956,73.493 					"/>
					<polygon fill="#929497" points="64.32,90.314 73.947,90.314 73.947,80.975 79.835,80.975 79.835,90.314 89.358,90.314 
						89.358,75.202 64.32,75.202 					"/>
				</g>
				<g>
					<polygon fill="#929497" points="77.078,63.58 61.938,73.728 92.191,73.728 					"/>
				</g>
				<g>
					<polygon fill="#929497" points="77.313,63.816 62.174,73.964 92.427,73.964 					"/>
				</g>
				<g>
					<polygon fill="#929497" points="77.55,64.052 62.41,74.2 92.663,74.2 					"/>
				</g>
				<g>
					<polygon fill="#929497" points="77.785,64.288 62.646,74.435 92.899,74.435 					"/>
				</g>
				<g>
					<polygon fill="#929497" points="78.021,64.523 62.881,74.671 93.134,74.671 					"/>
				</g>
				<g>
					<polygon fill="#929497" points="78.256,64.759 63.117,74.906 93.37,74.906 					"/>
				</g>
				<g>
					<polygon fill="#929497" points="78.492,64.994 63.352,75.142 93.605,75.142 					"/>
				</g>
				<g>
					<polygon fill="#929497" points="78.727,65.23 63.588,75.377 93.841,75.377 					"/>
				</g>
				<g>
					<polygon fill="#929497" points="78.963,65.465 63.823,75.613 94.076,75.613 					"/>
				</g>
				<g>
					<polygon fill="#929497" points="79.198,65.701 64.059,75.849 94.312,75.849 					"/>
				</g>
				<g>
					<polygon fill="#929497" points="79.435,65.937 64.295,76.085 94.548,76.085 					"/>
				</g>
				<g>
					<polygon fill="#929497" points="79.67,66.173 64.53,76.32 94.784,76.32 					"/>
				</g>
				<g>
					<polygon fill="#929497" points="79.906,66.408 64.766,76.556 95.019,76.556 					"/>
				</g>
				<g>
					<polygon fill="#929497" points="80.141,66.644 65.002,76.791 95.255,76.791 					"/>
				</g>
				<g>
					<polygon fill="#929497" points="80.377,66.879 65.237,77.027 95.49,77.027 					"/>
				</g>
				<g>
					<polygon fill="#929497" points="80.612,67.115 65.473,77.262 95.726,77.262 					"/>
				</g>
				<g>
					<polygon fill="#929497" points="80.848,67.35 65.708,77.498 95.961,77.498 					"/>
				</g>
				<g>
					<polygon fill="#929497" points="81.084,67.586 65.944,77.733 96.197,77.733 					"/>
				</g>
			</g>
		</g>
		<g>
			<defs>
				<path id="SVGID_5_" d="M68.144,15.728H22.84c-3.922,0-7.112,3.19-7.112,7.111v45.305c0,3.922,3.19,7.112,7.112,7.112h45.304
					c3.922,0,7.112-3.19,7.112-7.112V22.839C75.256,18.918,72.066,15.728,68.144,15.728z"/>
			</defs>
			<clipPath id="SVGID_6_">
				<use xlink:href="#SVGID_5_"  overflow="visible"/>
			</clipPath>
			<line clip-path="url(#SVGID_6_)" fill="none" x1="81.08" y1="86.999" x2="45.502" y2="51.421"/>
		</g>
	</g>
	<g>
		<polygon fill="#EDEEEB" points="30.365,42.155 45.505,32.008 60.619,42.155 		"/>
		<polygon fill="#EDEEEB" points="32.982,43.866 58.021,43.866 58.021,58.976 48.498,58.976 48.498,49.638 42.609,49.638 
			42.609,58.976 32.982,58.976 		"/>
	</g>
</g>
</svg>
