<?xml version="1.0" encoding="utf-8"?>
<!-- Generator: Adobe Illustrator 17.0.0, SVG Export Plug-In . SVG Version: 6.00 Build 0)  -->
<!DOCTYPE svg PUBLIC "-//W3C//DTD SVG 1.1//EN" "http://www.w3.org/Graphics/SVG/1.1/DTD/svg11.dtd">
<svg version="1.1" id="Capa_1" xmlns="http://www.w3.org/2000/svg" xmlns:xlink="http://www.w3.org/1999/xlink" x="0px" y="0px"
	 width="56.693px" height="56.693px" viewBox="17.146 17.146 56.693 56.693" enable-background="new 17.146 17.146 56.693 56.693"
	 xml:space="preserve">
<g id="Background">
</g>
<path fill="#76C472" d="M67.065,17.146H23.919c-3.735,0-6.773,3.038-6.773,6.773v43.147c0,3.735,3.038,6.773,6.773,6.773h43.147
	c3.735,0,6.773-3.038,6.773-6.773V23.918C73.838,20.184,70.8,17.146,67.065,17.146z"/>
<g>
	<g>
		<defs>
			<path id="SVGID_1_" d="M67.065,17.146H23.919c-3.735,0-6.773,3.038-6.773,6.773v43.147c0,3.735,3.038,6.773,6.773,6.773h43.147
				c3.735,0,6.773-3.038,6.773-6.773V23.918C73.838,20.184,70.8,17.146,67.065,17.146z"/>
		</defs>
		<clipPath id="SVGID_2_">
			<use xlink:href="#SVGID_1_"  overflow="visible"/>
		</clipPath>
		<g opacity="0.65" clip-path="url(#SVGID_2_)">
			<g>
				<polygon fill="#939598" points="34.277,36.59 45.394,47.708 56.514,36.59 				"/>
				<polygon fill="#939598" points="45.428,50.573 45.395,50.537 45.361,50.573 32.221,37.433 32.221,54.384 58.561,54.383 
					58.561,37.44 				"/>
			</g>
			<g>
				<polygon fill="#939598" points="34.465,36.778 45.583,47.897 56.702,36.778 				"/>
				<polygon fill="#939598" points="45.617,50.761 45.584,50.726 45.549,50.761 32.41,37.621 32.41,54.573 58.749,54.571 
					58.75,37.629 				"/>
			</g>
			<g>
				<polygon fill="#939598" points="34.654,36.967 45.772,48.084 56.891,36.967 				"/>
				<polygon fill="#939598" points="45.806,50.949 45.772,50.914 45.738,50.95 32.599,37.81 32.599,54.761 58.938,54.76 
					58.938,37.818 				"/>
			</g>
			<g>
				<polygon fill="#939598" points="34.842,37.155 45.96,48.273 57.08,37.155 				"/>
				<polygon fill="#939598" points="45.994,51.138 45.961,51.102 45.926,51.139 32.787,37.998 32.787,54.95 59.127,54.948 
					59.127,38.006 				"/>
			</g>
			<g>
				<polygon fill="#939598" points="35.031,37.344 46.148,48.462 57.267,37.344 				"/>
				<polygon fill="#939598" points="46.183,51.326 46.149,51.291 46.114,51.326 32.975,38.187 32.975,55.138 59.314,55.137 
					59.314,38.194 				"/>
			</g>
			<g>
				<polygon fill="#939598" points="35.22,37.532 46.338,48.651 57.457,37.532 				"/>
				<polygon fill="#939598" points="46.371,51.514 46.338,51.479 46.303,51.515 33.164,38.375 33.164,55.327 59.503,55.325 
					59.503,38.383 				"/>
			</g>
			<g>
				<polygon fill="#939598" points="35.408,37.721 46.524,48.838 57.644,37.721 				"/>
				<polygon fill="#939598" points="46.56,51.703 46.526,51.668 46.492,51.703 33.352,38.564 33.352,55.515 59.691,55.514 
					59.691,38.571 				"/>
			</g>
			<g>
				<polygon fill="#939598" points="35.597,37.909 46.714,49.027 57.833,37.909 				"/>
				<polygon fill="#939598" points="46.749,51.892 46.714,51.856 46.68,51.892 33.541,38.752 33.541,55.704 59.88,55.703 
					59.88,38.76 				"/>
			</g>
			<g>
				<polygon fill="#939598" points="35.785,38.098 46.903,49.215 58.022,38.097 				"/>
				<polygon fill="#939598" points="46.938,52.08 46.903,52.045 46.868,52.08 33.729,38.941 33.729,55.892 60.069,55.891 
					60.069,38.947 				"/>
			</g>
			<g>
				<polygon fill="#939598" points="35.973,38.286 47.091,49.404 58.21,38.286 				"/>
				<polygon fill="#939598" points="47.125,52.268 47.091,52.233 47.057,52.269 33.918,39.129 33.918,56.08 60.257,56.079 
					60.257,39.136 				"/>
			</g>
			<g>
				<polygon fill="#939598" points="36.163,38.474 47.279,49.592 58.399,38.474 				"/>
				<polygon fill="#939598" points="47.313,52.457 47.279,52.422 47.245,52.457 34.107,39.318 34.107,56.269 60.445,56.267 
					60.445,39.325 				"/>
			</g>
			<g>
				<polygon fill="#939598" points="36.35,38.663 47.468,49.78 58.587,38.662 				"/>
				<polygon fill="#939598" points="47.502,52.645 47.468,52.61 47.434,52.646 34.295,39.506 34.295,56.457 60.634,56.456 
					60.634,39.513 				"/>
			</g>
			<g>
				<polygon fill="#939598" points="36.539,38.851 47.657,49.97 58.776,38.852 				"/>
				<polygon fill="#939598" points="47.691,52.834 47.657,52.799 47.622,52.834 34.482,39.695 34.482,56.646 60.822,56.645 
					60.822,39.701 				"/>
			</g>
			<g>
				<polygon fill="#939598" points="36.727,39.04 47.845,50.157 58.964,39.04 				"/>
				<polygon fill="#939598" points="47.879,53.022 47.845,52.987 47.811,53.022 34.672,39.883 34.671,56.834 61.011,56.833 
					61.011,39.89 				"/>
			</g>
			<g>
				<polygon fill="#939598" points="36.916,39.228 48.032,50.346 59.152,39.228 				"/>
				<polygon fill="#939598" points="48.067,53.211 48.034,53.176 47.999,53.211 34.86,40.071 34.86,57.023 61.199,57.021 
					61.199,40.079 				"/>
			</g>
			<g>
				<polygon fill="#939598" points="37.104,39.417 48.221,50.535 59.341,39.417 				"/>
				<polygon fill="#939598" points="48.256,53.4 48.222,53.364 48.188,53.4 35.048,40.26 35.048,57.211 61.388,57.21 61.388,40.267 
									"/>
			</g>
			<g>
				<polygon fill="#939598" points="37.293,39.605 48.41,50.723 59.53,39.605 				"/>
				<polygon fill="#939598" points="48.444,53.587 48.41,53.553 48.376,53.588 35.237,40.448 35.237,57.4 61.576,57.399 
					61.576,40.455 				"/>
			</g>
			<g>
				<polygon fill="#939598" points="37.481,39.794 48.599,50.911 59.717,39.794 				"/>
				<polygon fill="#939598" points="48.632,53.776 48.599,53.741 48.565,53.776 35.426,40.637 35.426,57.588 61.764,57.587 
					61.764,40.644 				"/>
			</g>
			<g>
				<polygon fill="#939598" points="37.669,39.982 48.787,51.099 59.906,39.981 				"/>
				<polygon fill="#939598" points="48.821,53.964 48.787,53.93 48.753,53.965 35.614,40.825 35.614,57.777 61.953,57.775 
					61.953,40.833 				"/>
			</g>
			<g>
				<polygon fill="#939598" points="37.858,40.17 48.976,51.288 60.095,40.17 				"/>
				<polygon fill="#939598" points="49.01,54.153 48.976,54.118 48.942,54.154 35.803,41.014 35.802,57.965 62.141,57.964 
					62.141,41.021 				"/>
			</g>
			<g>
				<polygon fill="#939598" points="38.046,40.359 49.164,51.477 60.283,40.359 				"/>
				<polygon fill="#939598" points="49.198,54.341 49.164,54.306 49.129,54.341 35.99,41.202 35.99,58.154 62.33,58.153 
					62.33,41.209 				"/>
			</g>
			<g>
				<polygon fill="#939598" points="38.236,40.548 49.353,51.665 60.472,40.548 				"/>
				<polygon fill="#939598" points="49.387,54.53 49.353,54.495 49.319,54.53 36.18,41.39 36.179,58.342 62.518,58.34 
					62.518,41.398 				"/>
			</g>
			<g>
				<polygon fill="#939598" points="38.423,40.736 49.541,51.853 60.66,40.735 				"/>
				<polygon fill="#939598" points="49.576,54.718 49.541,54.683 49.507,54.719 36.368,41.579 36.368,58.53 62.707,58.529 
					62.707,41.586 				"/>
			</g>
			<g>
				<polygon fill="#939598" points="38.612,40.924 49.729,52.042 60.849,40.924 				"/>
				<polygon fill="#939598" points="49.763,54.907 49.73,54.872 49.695,54.908 36.556,41.767 36.556,58.719 62.896,58.718 
					62.896,41.775 				"/>
			</g>
			<g>
				<polygon fill="#939598" points="38.8,41.113 49.918,52.231 61.037,41.112 				"/>
				<polygon fill="#939598" points="49.952,55.095 49.918,55.06 49.884,55.095 36.745,41.955 36.745,58.907 63.084,58.906 
					63.084,41.963 				"/>
			</g>
			<g>
				<polygon fill="#939598" points="38.989,41.301 50.106,52.418 61.225,41.301 				"/>
				<polygon fill="#939598" points="50.14,55.284 50.106,55.249 50.072,55.284 36.934,42.144 36.934,59.095 63.272,59.094 
					63.272,42.152 				"/>
			</g>
			<g>
				<polygon fill="#939598" points="39.177,41.49 50.295,52.607 61.414,41.489 				"/>
				<polygon fill="#939598" points="50.329,55.472 50.295,55.437 50.261,55.473 37.122,42.333 37.121,59.284 63.461,59.283 
					63.461,42.341 				"/>
			</g>
			<g>
				<polygon fill="#939598" points="39.366,41.678 50.484,52.796 61.603,41.678 				"/>
				<polygon fill="#939598" points="50.518,55.661 50.484,55.626 50.449,55.661 37.311,42.522 37.309,59.473 63.649,59.471 
					63.649,42.528 				"/>
			</g>
			<g>
				<polygon fill="#939598" points="39.554,41.866 50.671,52.985 61.791,41.866 				"/>
				<polygon fill="#939598" points="50.706,55.849 50.671,55.814 50.637,55.849 37.498,42.709 37.498,59.66 63.837,59.66 
					63.838,42.717 				"/>
			</g>
			<g>
				<polygon fill="#939598" points="39.743,42.056 50.859,53.173 61.979,42.055 				"/>
				<polygon fill="#939598" points="50.894,56.038 50.86,56.003 50.826,56.038 37.687,42.898 37.687,59.849 64.026,59.848 
					64.026,42.906 				"/>
			</g>
			<g>
				<polygon fill="#939598" points="39.931,42.243 51.048,53.361 62.168,42.243 				"/>
				<polygon fill="#939598" points="51.083,56.226 51.048,56.191 51.014,56.226 37.876,43.086 37.876,60.038 64.215,60.037 
					64.215,43.094 				"/>
			</g>
			<g>
				<polygon fill="#939598" points="40.12,42.432 51.237,53.55 62.357,42.432 				"/>
				<polygon fill="#939598" points="51.272,56.414 51.237,56.38 51.203,56.414 38.064,43.275 38.063,60.227 64.403,60.225 
					64.403,43.282 				"/>
			</g>
			<g>
				<polygon fill="#939598" points="40.308,42.621 51.426,53.738 62.544,42.62 				"/>
				<polygon fill="#939598" points="51.46,56.603 51.426,56.568 51.392,56.603 38.253,43.463 38.252,60.414 64.592,60.414 
					64.592,43.471 				"/>
			</g>
			<g>
				<polygon fill="#939598" points="40.497,42.809 51.613,53.926 62.733,42.809 				"/>
				<polygon fill="#939598" points="51.648,56.791 51.614,56.756 51.58,56.792 38.441,43.652 38.441,60.603 64.78,60.602 
					64.78,43.659 				"/>
			</g>
			<g>
				<polygon fill="#939598" points="40.684,42.996 51.802,54.115 62.922,42.997 				"/>
				<polygon fill="#939598" points="51.836,56.98 51.803,56.945 51.768,56.981 38.63,43.84 38.629,60.792 64.968,60.791 
					64.968,43.848 				"/>
			</g>
			<g>
				<polygon fill="#939598" points="40.873,43.185 51.991,54.303 63.11,43.185 				"/>
				<polygon fill="#939598" points="52.025,57.168 51.991,57.133 51.957,57.168 38.818,44.029 38.817,60.981 65.157,60.979 
					65.157,44.036 				"/>
			</g>
			<g>
				<polygon fill="#939598" points="41.062,43.374 52.179,54.492 63.299,43.374 				"/>
				<polygon fill="#939598" points="52.213,57.357 52.179,57.322 52.145,57.357 39.006,44.217 39.006,61.168 65.345,61.168 
					65.345,44.225 				"/>
			</g>
			<g>
				<polygon fill="#939598" points="41.25,43.563 52.367,54.68 63.487,43.563 				"/>
				<polygon fill="#939598" points="52.402,57.545 52.368,57.51 52.334,57.545 39.195,44.405 39.194,61.357 65.534,61.356 
					65.534,44.413 				"/>
			</g>
			<g>
				<polygon fill="#939598" points="41.439,43.751 52.556,54.869 63.675,43.75 				"/>
				<polygon fill="#939598" points="52.59,57.734 52.556,57.699 52.522,57.734 39.383,44.594 39.383,61.546 65.722,61.545 
					65.722,44.602 				"/>
			</g>
			<g>
				<polygon fill="#939598" points="41.627,43.939 52.744,55.057 63.864,43.939 				"/>
				<polygon fill="#939598" points="52.779,57.922 52.744,57.887 52.71,57.922 39.571,44.782 39.571,61.734 65.91,61.733 
					65.911,44.79 				"/>
			</g>
			<g>
				<polygon fill="#939598" points="41.816,44.128 52.933,55.246 64.052,44.128 				"/>
				<polygon fill="#939598" points="52.967,58.111 52.933,58.076 52.9,58.111 39.759,44.97 39.759,61.922 66.099,61.922 
					66.099,44.979 				"/>
			</g>
			<g>
				<polygon fill="#939598" points="42.004,44.316 53.121,55.434 64.241,44.316 				"/>
				<polygon fill="#939598" points="53.156,58.299 53.121,58.264 53.088,58.299 39.948,45.159 39.948,62.111 66.288,62.11 
					66.288,45.167 				"/>
			</g>
			<g>
				<polygon fill="#939598" points="42.192,44.504 53.31,55.623 64.43,44.504 				"/>
				<polygon fill="#939598" points="53.345,58.488 53.31,58.453 53.276,58.488 40.136,45.348 40.136,62.299 66.476,62.298 
					66.476,45.356 				"/>
			</g>
			<g>
				<polygon fill="#939598" points="42.381,44.693 53.498,55.811 64.618,44.693 				"/>
				<polygon fill="#939598" points="53.533,58.676 53.498,58.641 53.465,58.676 40.325,45.536 40.325,62.488 66.665,62.487 
					66.665,45.544 				"/>
			</g>
			<g>
				<polygon fill="#939598" points="42.57,44.882 53.687,55.999 64.806,44.882 				"/>
				<polygon fill="#939598" points="53.721,58.864 53.687,58.829 53.653,58.865 40.514,45.724 40.514,62.676 66.853,62.675 
					66.853,45.733 				"/>
			</g>
			<g>
				<polygon fill="#939598" points="42.758,45.07 53.875,56.188 64.995,45.07 				"/>
				<polygon fill="#939598" points="53.91,59.053 53.875,59.017 53.842,59.053 40.703,45.913 40.702,62.864 67.042,62.864 
					67.042,45.921 				"/>
			</g>
			<g>
				<polygon fill="#939598" points="42.947,45.258 54.064,56.376 65.183,45.258 				"/>
				<polygon fill="#939598" points="54.098,59.242 54.064,59.206 54.03,59.242 40.891,46.102 40.89,63.053 67.23,63.052 
					67.23,46.109 				"/>
			</g>
			<g>
				<polygon fill="#939598" points="43.134,45.447 54.253,56.565 65.372,45.447 				"/>
				<polygon fill="#939598" points="54.287,59.43 54.253,59.395 54.218,59.43 41.079,46.29 41.079,63.241 67.417,63.241 
					67.419,46.298 				"/>
			</g>
			<g>
				<polygon fill="#939598" points="43.324,45.636 54.44,56.753 65.56,45.636 				"/>
				<polygon fill="#939598" points="54.475,59.618 54.441,59.583 54.407,59.618 41.268,46.478 41.267,63.429 67.607,63.429 
					67.607,46.486 				"/>
			</g>
			<g>
				<polygon fill="#939598" points="43.511,45.823 54.629,56.942 65.749,45.823 				"/>
				<polygon fill="#939598" points="54.664,59.807 54.629,59.771 54.596,59.807 41.457,46.667 41.456,63.618 67.796,63.618 
					67.796,46.675 				"/>
			</g>
			<g>
				<polygon fill="#939598" points="43.7,46.012 54.817,57.13 65.937,46.012 				"/>
				<polygon fill="#939598" points="54.852,59.995 54.817,59.96 54.783,59.995 41.644,46.856 41.644,63.807 67.983,63.806 
					67.983,46.863 				"/>
			</g>
			<g>
				<polygon fill="#939598" points="43.889,46.201 55.006,57.319 66.126,46.2 				"/>
				<polygon fill="#939598" points="55.04,60.183 55.006,60.149 54.972,60.184 41.832,47.044 41.832,63.995 68.173,63.995 
					68.172,47.052 				"/>
			</g>
			<g>
				<polygon fill="#939598" points="44.078,46.389 55.194,57.507 66.313,46.389 				"/>
				<polygon fill="#939598" points="55.229,60.372 55.194,60.336 55.161,60.372 42.021,47.232 42.021,64.183 68.36,64.183 
					68.36,47.24 				"/>
			</g>
			<g>
				<polygon fill="#939598" points="44.265,46.577 55.383,57.696 66.502,46.577 				"/>
				<polygon fill="#939598" points="55.417,60.561 55.383,60.525 55.35,60.561 42.21,47.421 42.209,64.372 68.549,64.372 
					68.549,47.429 				"/>
			</g>
			<g>
				<polygon fill="#939598" points="44.455,46.766 55.571,57.884 66.691,46.766 				"/>
				<polygon fill="#939598" points="55.606,60.749 55.571,60.714 55.538,60.749 42.398,47.609 42.398,64.56 68.738,64.56 
					68.738,47.617 				"/>
			</g>
			<g>
				<polygon fill="#939598" points="44.643,46.954 55.76,58.073 66.879,46.955 				"/>
				<polygon fill="#939598" points="55.794,60.938 55.76,60.903 55.725,60.938 42.586,47.798 42.586,64.749 68.926,64.749 
					68.926,47.805 				"/>
			</g>
			<g>
				<polygon fill="#939598" points="44.831,47.143 55.948,58.261 67.068,47.143 				"/>
				<polygon fill="#939598" points="55.982,61.126 55.948,61.09 55.914,61.126 42.775,47.986 42.775,64.937 69.115,64.937 
					69.115,47.994 				"/>
			</g>
			<g>
				<polygon fill="#939598" points="45.02,47.331 56.137,58.45 67.257,47.331 				"/>
				<polygon fill="#939598" points="56.171,61.315 56.137,61.279 56.103,61.315 42.964,48.174 42.964,65.126 69.303,65.125 
					69.303,48.183 				"/>
			</g>
			<g>
				<polygon fill="#939598" points="45.208,47.52 56.325,58.638 67.445,47.52 				"/>
				<polygon fill="#939598" points="56.36,61.503 56.325,61.468 56.29,61.503 43.152,48.363 43.152,65.314 69.491,65.314 
					69.491,48.371 				"/>
			</g>
			<g>
				<polygon fill="#939598" points="45.397,47.708 56.514,58.827 67.633,47.708 				"/>
				<polygon fill="#939598" points="56.548,61.691 56.514,61.656 56.48,61.692 43.34,48.551 43.34,65.503 69.68,65.502 69.68,48.56 
									"/>
			</g>
			<g>
				<polygon fill="#939598" points="45.585,47.897 56.702,59.015 67.821,47.897 				"/>
				<polygon fill="#939598" points="56.737,61.879 56.702,61.844 56.669,61.88 43.53,48.74 43.529,65.691 69.868,65.69 
					69.868,48.748 				"/>
			</g>
			<g>
				<polygon fill="#939598" points="45.772,48.085 56.89,59.204 68.01,48.085 				"/>
				<polygon fill="#939598" points="56.925,62.068 56.891,62.033 56.856,62.069 43.717,48.928 43.717,65.879 70.057,65.879 
					70.057,48.937 				"/>
			</g>
			<g>
				<polygon fill="#939598" points="45.961,48.274 57.079,59.392 68.199,48.274 				"/>
				<polygon fill="#939598" points="57.114,62.256 57.079,62.222 57.045,62.257 43.906,49.117 43.906,66.068 70.245,66.068 
					70.245,49.125 				"/>
			</g>
			<g>
				<polygon fill="#939598" points="46.15,48.462 57.267,59.58 68.387,48.462 				"/>
				<polygon fill="#939598" points="57.302,62.445 57.267,62.41 57.233,62.445 44.094,49.305 44.094,66.256 70.434,66.255 
					70.434,49.313 				"/>
			</g>
			<g>
				<polygon fill="#939598" points="46.339,48.651 57.456,59.769 68.575,48.651 				"/>
				<polygon fill="#939598" points="57.491,62.633 57.456,62.598 57.423,62.634 44.283,49.494 44.283,66.445 70.622,66.444 
					70.622,49.502 				"/>
			</g>
			<g>
				<polygon fill="#939598" points="46.527,48.839 57.644,59.957 68.764,48.839 				"/>
				<polygon fill="#939598" points="57.679,62.822 57.644,62.787 57.61,62.823 44.471,49.682 44.471,66.633 70.81,66.633 
					70.81,49.69 				"/>
			</g>
			<g>
				<polygon fill="#939598" points="46.716,49.028 57.833,60.146 68.953,49.028 				"/>
				<polygon fill="#939598" points="57.868,63.01 57.833,62.975 57.799,63.01 44.66,49.871 44.66,66.822 70.999,66.821 
					70.999,49.878 				"/>
			</g>
			<g>
				<polygon fill="#939598" points="46.903,49.216 58.022,60.334 69.14,49.216 				"/>
				<polygon fill="#939598" points="58.056,63.199 58.022,63.165 57.988,63.2 44.848,50.059 44.848,67.01 71.187,67.01 
					71.187,50.067 				"/>
			</g>
			<g>
				<polygon fill="#939598" points="47.092,49.404 58.21,60.523 69.329,49.404 				"/>
				<polygon fill="#939598" points="58.244,63.387 58.21,63.352 58.177,63.388 45.037,50.248 45.037,67.199 71.376,67.198 
					71.376,50.256 				"/>
			</g>
			<g>
				<polygon fill="#939598" points="47.28,49.593 58.398,60.711 69.518,49.593 				"/>
				<polygon fill="#939598" points="58.432,63.576 58.398,63.54 58.364,63.576 45.225,50.436 45.225,67.387 71.563,67.387 
					71.564,50.443 				"/>
			</g>
			<g>
				<polygon fill="#939598" points="47.469,49.781 58.587,60.9 69.707,49.781 				"/>
				<polygon fill="#939598" points="58.621,63.764 58.587,63.729 58.552,63.764 45.413,50.625 45.413,67.576 71.754,67.575 
					71.753,50.632 				"/>
			</g>
			<g>
				<polygon fill="#939598" points="47.658,49.97 58.775,61.088 69.895,49.97 				"/>
				<polygon fill="#939598" points="58.81,63.953 58.775,63.918 58.741,63.953 45.602,50.813 45.602,67.764 71.941,67.763 
					71.941,50.82 				"/>
			</g>
			<g>
				<polygon fill="#939598" points="47.846,50.158 58.963,61.276 70.082,50.158 				"/>
				<polygon fill="#939598" points="58.998,64.141 58.964,64.106 58.93,64.142 45.791,51.002 45.79,67.953 72.13,67.952 
					72.13,51.009 				"/>
			</g>
			<g>
				<polygon fill="#939598" points="48.035,50.347 59.152,61.465 70.271,50.347 				"/>
				<polygon fill="#939598" points="59.187,64.33 59.152,64.294 59.118,64.33 45.978,51.19 45.978,68.141 72.318,68.141 
					72.318,51.197 				"/>
			</g>
			<g>
				<polygon fill="#939598" points="48.223,50.535 59.341,61.654 70.46,50.535 				"/>
				<polygon fill="#939598" points="59.375,64.518 59.341,64.483 59.306,64.518 46.167,51.378 46.167,68.33 72.507,68.329 
					72.507,51.386 				"/>
			</g>
			<g>
				<polygon fill="#939598" points="48.411,50.724 59.529,61.841 70.648,50.724 				"/>
				<polygon fill="#939598" points="59.564,64.706 59.529,64.671 59.495,64.707 46.356,51.567 46.356,68.518 72.695,68.517 
					72.695,51.575 				"/>
			</g>
			<g>
				<polygon fill="#939598" points="48.6,50.912 59.717,62.03 70.837,50.912 				"/>
				<polygon fill="#939598" points="59.752,64.895 59.717,64.859 59.684,64.895 46.544,51.755 46.544,68.706 72.883,68.706 
					72.883,51.763 				"/>
			</g>
			<g>
				<polygon fill="#939598" points="48.788,51.101 59.906,62.219 71.026,51.101 				"/>
				<polygon fill="#939598" points="59.941,65.084 59.906,65.048 59.871,65.084 46.733,51.944 46.733,68.895 73.071,68.894 
					73.072,51.951 				"/>
			</g>
			<g>
				<polygon fill="#939598" points="48.977,51.289 60.095,62.408 71.213,51.289 				"/>
				<polygon fill="#939598" points="60.129,65.272 60.095,65.237 60.061,65.272 46.921,52.132 46.921,69.084 73.261,69.084 
					73.261,52.14 				"/>
			</g>
			<g>
				<polygon fill="#939598" points="49.166,51.478 60.283,62.595 71.403,51.478 				"/>
				<polygon fill="#939598" points="60.318,65.46 60.283,65.425 60.249,65.46 47.11,52.32 47.11,69.272 73.448,69.27 73.448,52.328 
									"/>
			</g>
			<g>
				<polygon fill="#939598" points="49.353,51.666 60.47,62.784 71.59,51.666 				"/>
				<polygon fill="#939598" points="60.505,65.649 60.471,65.613 60.437,65.649 47.298,52.509 47.298,69.46 73.637,69.46 
					73.637,52.517 				"/>
			</g>
			<g>
				<polygon fill="#939598" points="49.543,51.855 60.66,62.972 71.779,51.854 				"/>
				<polygon fill="#939598" points="60.694,65.837 60.66,65.802 60.625,65.838 47.486,52.698 47.486,69.649 73.826,69.648 
					73.826,52.705 				"/>
			</g>
			<g>
				<polygon fill="#939598" points="49.732,52.043 60.849,63.161 71.967,52.043 				"/>
				<polygon fill="#939598" points="60.883,66.025 60.849,65.991 60.814,66.025 47.675,52.886 47.675,69.837 74.015,69.837 
					74.015,52.894 				"/>
			</g>
			<g>
				<polygon fill="#939598" points="49.919,52.232 61.036,63.349 72.156,52.232 				"/>
				<polygon fill="#939598" points="61.071,66.214 61.037,66.179 61.003,66.215 47.864,53.075 47.863,70.026 74.203,70.025 
					74.203,53.083 				"/>
			</g>
			<g>
				<polygon fill="#939598" points="50.107,52.42 61.225,63.538 72.345,52.42 				"/>
				<polygon fill="#939598" points="61.259,66.402 61.225,66.367 61.191,66.403 48.052,53.263 48.052,70.214 74.391,70.214 
					74.391,53.271 				"/>
			</g>
			<g>
				<polygon fill="#939598" points="50.296,52.608 61.414,63.727 72.534,52.609 				"/>
				<polygon fill="#939598" points="61.448,66.591 61.414,66.556 61.379,66.591 48.24,53.452 48.24,70.403 74.579,70.402 
					74.579,53.458 				"/>
			</g>
			<g>
				<polygon fill="#939598" points="50.484,52.797 61.602,63.915 72.721,52.797 				"/>
				<polygon fill="#939598" points="61.636,66.779 61.602,66.745 61.568,66.779 48.428,53.64 48.428,70.591 74.768,70.59 
					74.768,53.648 				"/>
			</g>
			<g>
				<polygon fill="#939598" points="50.673,52.986 61.791,64.104 72.909,52.986 				"/>
				<polygon fill="#939598" points="61.825,66.968 61.79,66.933 61.757,66.968 48.617,53.828 48.617,70.779 74.956,70.779 
					74.956,53.836 				"/>
			</g>
			<g>
				<polygon fill="#939598" points="50.861,53.173 61.979,64.292 73.098,53.173 				"/>
				<polygon fill="#939598" points="62.014,67.156 61.979,67.121 61.945,67.157 48.806,54.017 48.806,70.968 75.145,70.967 
					75.145,54.025 				"/>
			</g>
			<g>
				<polygon fill="#939598" points="51.049,53.362 62.167,64.48 73.287,53.362 				"/>
				<polygon fill="#939598" points="62.203,67.345 62.167,67.31 62.134,67.345 48.994,54.206 48.994,71.157 75.334,71.156 
					75.334,54.213 				"/>
			</g>
			<g>
				<polygon fill="#939598" points="51.238,53.551 62.356,64.669 73.475,53.551 				"/>
				<polygon fill="#939598" points="62.391,67.533 62.356,67.498 62.322,67.533 49.183,54.393 49.183,71.345 75.522,71.344 
					75.522,54.401 				"/>
			</g>
			<g>
				<polygon fill="#939598" points="51.426,53.739 62.544,64.857 73.663,53.739 				"/>
				<polygon fill="#939598" points="62.578,67.721 62.544,67.687 62.511,67.722 49.371,54.582 49.371,71.533 75.71,71.532 
					75.71,54.59 				"/>
			</g>
			<g>
				<polygon fill="#939598" points="51.615,53.927 62.733,65.046 73.852,53.927 				"/>
				<polygon fill="#939598" points="62.767,67.91 62.733,67.875 62.699,67.911 49.56,54.77 49.56,71.722 75.898,71.721 
					75.899,54.779 				"/>
			</g>
			<g>
				<polygon fill="#939598" points="51.804,54.116 62.922,65.235 74.041,54.116 				"/>
				<polygon fill="#939598" points="62.956,68.098 62.922,68.063 62.887,68.098 49.748,54.959 49.748,71.91 76.087,71.91 
					76.087,54.966 				"/>
			</g>
			<g>
				<polygon fill="#939598" points="51.992,54.304 63.11,65.423 74.229,54.305 				"/>
				<polygon fill="#939598" points="63.144,68.287 63.11,68.252 63.076,68.287 49.937,55.147 49.936,72.098 76.276,72.097 
					76.276,55.155 				"/>
			</g>
			<g>
				<polygon fill="#939598" points="52.181,54.493 63.299,65.611 74.418,54.493 				"/>
				<polygon fill="#939598" points="63.333,68.476 63.297,68.44 63.264,68.476 50.125,55.336 50.125,72.287 76.464,72.286 
					76.464,55.343 				"/>
			</g>
			<g>
				<polygon fill="#939598" points="52.369,54.681 63.486,65.799 74.606,54.681 				"/>
				<polygon fill="#939598" points="63.522,68.664 63.486,68.629 63.452,68.664 50.313,55.525 50.313,72.476 76.652,72.474 
					76.652,55.532 				"/>
			</g>
			<g>
				<polygon fill="#939598" points="52.557,54.869 63.675,65.988 74.795,54.87 				"/>
				<polygon fill="#939598" points="63.71,68.852 63.675,68.818 63.641,68.852 50.501,55.713 50.501,72.665 76.841,72.664 
					76.841,55.72 				"/>
			</g>
			<g>
				<polygon fill="#939598" points="52.746,55.059 63.864,66.177 74.982,55.059 				"/>
				<polygon fill="#939598" points="63.898,69.041 63.864,69.006 63.829,69.041 50.69,55.901 50.69,72.852 77.029,72.851 
					77.029,55.909 				"/>
			</g>
			<g>
				<polygon fill="#939598" points="52.935,55.246 64.052,66.364 75.171,55.246 				"/>
				<polygon fill="#939598" points="64.086,69.229 64.052,69.194 64.018,69.23 50.879,56.09 50.879,73.041 77.218,73.04 
					77.218,56.098 				"/>
			</g>
			<g>
				<polygon fill="#939598" points="53.123,55.435 64.241,66.553 75.359,55.435 				"/>
				<polygon fill="#939598" points="64.275,69.418 64.241,69.383 64.206,69.418 51.066,56.279 51.066,73.23 77.406,73.229 
					77.406,56.286 				"/>
			</g>
			<g>
				<polygon fill="#939598" points="53.312,55.624 64.43,66.742 75.549,55.624 				"/>
				<polygon fill="#939598" points="64.463,69.606 64.429,69.571 64.395,69.606 51.255,56.466 51.255,73.418 77.595,73.417 
					77.595,56.474 				"/>
			</g>
			<g>
				<polygon fill="#939598" points="53.5,55.812 64.617,66.93 75.736,55.813 				"/>
				<polygon fill="#939598" points="64.651,69.794 64.617,69.76 64.583,69.795 51.444,56.655 51.444,73.606 77.783,73.605 
					77.783,56.663 				"/>
			</g>
			<g>
				<polygon fill="#939598" points="53.688,56 64.806,67.119 75.925,56.001 				"/>
				<polygon fill="#939598" points="64.841,69.983 64.806,69.948 64.772,69.983 51.633,56.843 51.633,73.795 77.972,73.794 
					77.972,56.851 				"/>
			</g>
			<g>
				<polygon fill="#939598" points="53.877,56.189 64.995,67.307 76.114,56.189 				"/>
				<polygon fill="#939598" points="65.03,70.172 64.994,70.137 64.96,70.172 51.821,57.032 51.821,73.983 78.16,73.982 
					78.16,57.039 				"/>
			</g>
			<g>
				<polygon fill="#939598" points="54.065,56.377 65.183,67.496 76.302,56.378 				"/>
				<polygon fill="#939598" points="65.216,70.36 65.183,70.325 65.149,70.36 52.01,57.22 52.008,74.172 78.349,74.171 
					78.349,57.228 				"/>
			</g>
			<g>
				<polygon fill="#939598" points="54.254,56.566 65.372,67.684 76.491,56.566 				"/>
				<polygon fill="#939598" points="65.405,70.548 65.372,70.513 65.337,70.548 52.197,57.408 52.197,74.359 78.537,74.359 
					78.537,57.416 				"/>
			</g>
			<g>
				<polygon fill="#939598" points="54.441,56.754 65.56,67.872 76.679,56.754 				"/>
				<polygon fill="#939598" points="65.594,70.737 65.56,70.702 65.526,70.737 52.386,57.597 52.386,74.548 78.725,74.548 
					78.725,57.606 				"/>
			</g>
			<g>
				<polygon fill="#939598" points="54.63,56.943 65.749,68.061 76.867,56.943 				"/>
				<polygon fill="#939598" points="65.783,70.925 65.749,70.891 65.714,70.925 52.574,57.786 52.574,74.737 78.914,74.736 
					78.914,57.793 				"/>
			</g>
			<g>
				<polygon fill="#939598" points="54.819,57.132 65.937,68.25 77.056,57.132 				"/>
				<polygon fill="#939598" points="65.971,71.114 65.936,71.079 65.903,71.114 52.763,57.973 52.763,74.925 79.102,74.925 
					79.102,57.982 				"/>
			</g>
			<g>
				<polygon fill="#939598" points="55.007,57.32 66.124,68.437 77.244,57.32 				"/>
				<polygon fill="#939598" points="66.159,71.302 66.124,71.267 66.091,71.302 52.952,58.162 52.952,75.113 79.291,75.113 
					79.291,58.171 				"/>
			</g>
			<g>
				<polygon fill="#939598" points="55.196,57.507 66.313,68.627 77.433,57.509 				"/>
				<polygon fill="#939598" points="66.349,71.491 66.313,71.456 66.28,71.491 53.14,58.351 53.14,75.302 79.479,75.302 
					79.479,58.359 				"/>
			</g>
			<g>
				<polygon fill="#939598" points="55.384,57.696 66.502,68.815 77.622,57.697 				"/>
				<polygon fill="#939598" points="66.537,71.68 66.502,71.644 66.468,71.68 53.328,58.54 53.328,75.491 79.668,75.49 
					79.668,58.547 				"/>
			</g>
			<g>
				<polygon fill="#939598" points="55.572,57.885 66.69,69.003 77.809,57.885 				"/>
				<polygon fill="#939598" points="66.724,71.868 66.69,71.833 66.657,71.868 53.516,58.728 53.516,75.679 79.856,75.679 
					79.856,58.736 				"/>
			</g>
			<g>
				<polygon fill="#939598" points="55.762,58.074 66.879,69.191 77.998,58.074 				"/>
				<polygon fill="#939598" points="66.914,72.056 66.878,72.021 66.845,72.056 53.705,58.916 53.705,75.867 80.045,75.867 
					80.045,58.924 				"/>
			</g>
			<g>
				<polygon fill="#939598" points="55.949,58.261 67.068,69.38 78.187,58.261 				"/>
				<polygon fill="#939598" points="67.102,72.245 67.067,72.21 67.033,72.245 53.894,59.105 53.894,76.056 80.233,76.055 
					80.233,59.113 				"/>
			</g>
			<g>
				<polygon fill="#939598" points="56.138,58.45 67.256,69.569 78.375,58.45 				"/>
				<polygon fill="#939598" points="67.29,72.433 67.256,72.398 67.222,72.433 54.082,59.294 54.082,76.245 80.422,76.244 
					80.422,59.301 				"/>
			</g>
			<g>
				<polygon fill="#939598" points="56.327,58.639 67.445,69.757 78.563,58.639 				"/>
				<polygon fill="#939598" points="67.478,72.622 67.444,72.587 67.41,72.622 54.271,59.481 54.271,76.432 80.61,76.432 
					80.61,59.489 				"/>
			</g>
			<g>
				<polygon fill="#939598" points="56.515,58.828 67.632,69.945 78.752,58.828 				"/>
				<polygon fill="#939598" points="67.667,72.81 67.633,72.775 67.6,72.81 54.46,59.67 54.46,76.621 80.799,76.621 80.799,59.679 
									"/>
			</g>
			<g>
				<polygon fill="#939598" points="56.703,59.015 67.821,70.134 78.941,59.016 				"/>
				<polygon fill="#939598" points="67.856,72.999 67.821,72.964 67.787,72.999 54.647,59.859 54.647,76.81 80.987,76.809 
					80.987,59.867 				"/>
			</g>
			<g>
				<polygon fill="#939598" points="56.892,59.204 68.01,70.323 79.129,59.204 				"/>
				<polygon fill="#939598" points="68.044,73.187 68.009,73.152 67.976,73.187 54.836,60.048 54.836,76.998 81.176,76.998 
					81.176,60.055 				"/>
			</g>
			<g>
				<polygon fill="#939598" points="57.081,59.393 68.198,70.511 79.317,59.393 				"/>
				<polygon fill="#939598" points="68.232,73.375 68.198,73.341 68.164,73.375 55.024,60.235 55.024,77.186 81.364,77.186 
					81.364,60.243 				"/>
			</g>
			<g>
				<polygon fill="#939598" points="57.269,59.581 68.386,70.699 79.506,59.582 				"/>
				<polygon fill="#939598" points="68.421,73.564 68.386,73.529 68.353,73.564 55.213,60.424 55.213,77.375 81.553,77.375 
					81.553,60.432 				"/>
			</g>
			<g>
				<polygon fill="#939598" points="57.458,59.769 68.575,70.887 79.695,59.769 				"/>
				<polygon fill="#939598" points="68.61,73.752 68.574,73.717 68.541,73.752 55.402,60.612 55.402,77.563 81.741,77.563 
					81.741,60.62 				"/>
			</g>
			<g>
				<polygon fill="#939598" points="57.646,59.958 68.763,71.076 79.882,59.958 				"/>
				<polygon fill="#939598" points="68.798,73.94 68.763,73.906 68.729,73.941 55.589,60.801 55.589,77.752 81.929,77.752 
					81.929,60.809 				"/>
			</g>
			<g>
				<polygon fill="#939598" points="57.835,60.146 68.952,71.265 80.071,60.147 				"/>
				<polygon fill="#939598" points="68.986,74.129 68.952,74.095 68.918,74.129 55.778,60.989 55.778,77.94 82.118,77.94 
					82.118,60.997 				"/>
			</g>
			<g>
				<polygon fill="#939598" points="58.023,60.335 69.14,71.453 80.26,60.335 				"/>
				<polygon fill="#939598" points="69.175,74.318 69.14,74.282 69.107,74.318 55.967,61.178 55.966,78.129 82.306,78.129 
					82.306,61.186 				"/>
			</g>
			<g>
				<polygon fill="#939598" points="58.21,60.523 69.329,71.641 80.448,60.523 				"/>
				<polygon fill="#939598" points="69.363,74.506 69.329,74.471 69.295,74.506 56.155,61.366 56.155,78.318 82.495,78.317 
					82.495,61.374 				"/>
			</g>
			<g>
				<polygon fill="#939598" points="58.399,60.712 69.518,71.83 80.637,60.712 				"/>
				<polygon fill="#939598" points="69.551,74.695 69.517,74.66 69.483,74.695 56.343,61.555 56.343,78.506 82.683,78.506 
					82.683,61.563 				"/>
			</g>
			<g>
				<polygon fill="#939598" points="58.588,60.9 69.706,72.018 80.825,60.901 				"/>
				<polygon fill="#939598" points="69.74,74.883 69.707,74.848 69.672,74.883 56.532,61.743 56.532,78.694 82.871,78.694 
					82.871,61.751 				"/>
			</g>
			<g>
				<polygon fill="#939598" points="58.777,61.088 69.894,72.207 81.014,61.089 				"/>
				<polygon fill="#939598" points="69.929,75.072 69.894,75.037 69.861,75.072 56.721,61.932 56.72,78.883 83.06,78.882 
					83.06,61.94 				"/>
			</g>
			<g>
				<polygon fill="#939598" points="58.965,61.277 70.082,72.395 81.202,61.277 				"/>
				<polygon fill="#939598" points="70.117,75.26 70.082,75.225 70.048,75.26 56.909,62.12 56.909,79.071 83.249,79.071 
					83.249,62.128 				"/>
			</g>
			<g>
				<polygon fill="#939598" points="59.154,61.465 70.271,72.584 81.391,61.466 				"/>
				<polygon fill="#939598" points="70.305,75.448 70.271,75.413 70.238,75.448 57.097,62.308 57.097,79.259 83.437,79.259 
					83.437,62.317 				"/>
			</g>
			<g>
				<polygon fill="#939598" points="59.342,61.654 70.46,72.772 81.579,61.655 				"/>
				<polygon fill="#939598" points="70.494,75.637 70.46,75.601 70.426,75.637 57.286,62.497 57.286,79.448 83.626,79.448 
					83.626,62.505 				"/>
			</g>
			<g>
				<polygon fill="#939598" points="59.53,61.842 70.648,72.96 81.768,61.842 				"/>
				<polygon fill="#939598" points="70.682,75.826 70.648,75.79 70.614,75.826 57.474,62.685 57.474,79.636 83.814,79.636 
					83.814,62.693 				"/>
			</g>
			<g>
				<polygon fill="#939598" points="59.719,62.031 70.836,73.149 81.956,62.031 				"/>
				<polygon fill="#939598" points="70.871,76.014 70.836,75.979 70.803,76.014 57.663,62.874 57.663,79.825 84.003,79.825 
					84.003,62.882 				"/>
			</g>
			<g>
				<polygon fill="#939598" points="59.907,62.219 71.025,73.338 82.144,62.22 				"/>
				<polygon fill="#939598" points="71.059,76.202 71.024,76.167 70.991,76.202 57.851,63.062 57.851,80.014 84.191,80.013 
					84.191,63.07 				"/>
			</g>
			<g>
				<polygon fill="#939598" points="60.095,62.408 71.213,73.526 82.332,62.408 				"/>
				<polygon fill="#939598" points="71.247,76.391 71.213,76.356 71.179,76.391 58.039,63.251 58.039,80.202 84.379,80.201 
					84.378,63.259 				"/>
			</g>
			<g>
				<polygon fill="#939598" points="60.283,62.596 71.401,73.714 82.521,62.596 				"/>
				<polygon fill="#939598" points="71.437,76.58 71.401,76.544 71.368,76.58 58.228,63.439 58.229,80.39 84.568,80.39 
					84.568,63.447 				"/>
			</g>
			<g>
				<polygon fill="#939598" points="60.473,62.785 71.59,73.903 82.71,62.785 				"/>
				<polygon fill="#939598" points="71.626,76.768 71.59,76.732 71.556,76.768 58.416,63.628 58.416,80.579 84.756,80.579 
					84.756,63.635 				"/>
			</g>
			<g>
				<polygon fill="#939598" points="60.661,62.973 71.779,74.091 82.898,62.973 				"/>
				<polygon fill="#939598" points="71.813,76.956 71.779,76.922 71.745,76.956 58.605,63.816 58.605,80.767 84.945,80.767 
					84.945,63.824 				"/>
			</g>
			<g>
				<polygon fill="#939598" points="60.849,63.161 71.967,74.28 83.087,63.162 				"/>
				<polygon fill="#939598" points="72.002,77.145 71.967,77.109 71.934,77.145 58.793,64.005 58.793,80.956 85.133,80.955 
					85.133,64.013 				"/>
			</g>
			<g>
				<polygon fill="#939598" points="61.038,63.35 72.156,74.468 83.275,63.35 				"/>
				<polygon fill="#939598" points="72.19,77.333 72.155,77.297 72.122,77.333 58.982,64.193 58.982,81.144 85.321,81.144 
					85.321,64.201 				"/>
			</g>
			<g>
				<polygon fill="#939598" points="61.226,63.538 72.344,74.657 83.464,63.538 				"/>
				<polygon fill="#939598" points="72.379,77.521 72.345,77.486 72.311,77.522 59.17,64.382 59.17,81.333 85.51,81.332 
					85.51,64.389 				"/>
			</g>
			<g>
				<polygon fill="#939598" points="61.415,63.727 72.532,74.845 83.652,63.728 				"/>
				<polygon fill="#939598" points="72.567,77.71 72.532,77.675 72.499,77.71 59.359,64.57 59.359,81.521 85.699,81.521 
					85.699,64.578 				"/>
			</g>
			<g>
				<polygon fill="#939598" points="61.604,63.916 72.721,75.034 83.84,63.916 				"/>
				<polygon fill="#939598" points="72.755,77.899 72.721,77.863 72.687,77.899 59.547,64.759 59.547,81.709 85.886,81.709 
					85.886,64.767 				"/>
			</g>
			<g>
				<polygon fill="#939598" points="61.792,64.104 72.909,75.222 84.029,64.104 				"/>
				<polygon fill="#939598" points="72.944,78.087 72.909,78.052 72.875,78.087 59.736,64.947 59.736,81.898 86.075,81.898 
					86.075,64.955 				"/>
			</g>
			<g>
				<polygon fill="#939598" points="61.98,64.292 73.098,75.411 84.218,64.292 				"/>
				<polygon fill="#939598" points="73.132,78.275 73.098,78.24 73.064,78.275 59.924,65.135 59.924,82.087 86.264,82.087 
					86.264,65.143 				"/>
			</g>
			<g>
				<polygon fill="#939598" points="62.169,64.481 73.286,75.599 84.405,64.481 				"/>
				<polygon fill="#939598" points="73.321,78.463 73.286,78.429 73.253,78.464 60.113,65.323 60.113,82.275 86.453,82.274 
					86.452,65.332 				"/>
			</g>
			<g>
				<polygon fill="#939598" points="62.357,64.669 73.475,75.788 84.594,64.67 				"/>
				<polygon fill="#939598" points="73.509,78.652 73.475,78.617 73.442,78.652 60.301,65.512 60.301,82.464 86.641,82.463 
					86.641,65.521 				"/>
			</g>
			<g>
				<polygon fill="#939598" points="62.545,64.858 73.663,75.976 84.783,64.858 				"/>
				<polygon fill="#939598" points="73.698,78.84 73.663,78.805 73.628,78.84 60.49,65.701 60.49,82.652 86.828,82.652 
					86.83,65.709 				"/>
			</g>
			<g>
				<polygon fill="#939598" points="62.734,65.046 73.852,76.165 84.972,65.046 				"/>
				<polygon fill="#939598" points="73.887,79.028 73.852,78.994 73.819,79.029 60.678,65.889 60.677,82.841 87.018,82.841 
					87.018,65.898 				"/>
			</g>
			<g>
				<polygon fill="#939598" points="62.923,65.235 74.04,76.353 85.16,65.235 				"/>
				<polygon fill="#939598" points="74.075,79.217 74.04,79.182 74.006,79.217 60.867,66.078 60.866,83.029 87.207,83.028 
					87.207,66.086 				"/>
			</g>
			<g>
				<polygon fill="#939598" points="63.111,65.423 74.229,76.541 85.348,65.423 				"/>
				<polygon fill="#939598" points="74.263,79.406 74.229,79.37 74.195,79.406 61.055,66.266 61.055,83.217 87.394,83.217 
					87.394,66.274 				"/>
			</g>
			<g>
				<polygon fill="#939598" points="63.299,65.612 74.417,76.73 85.537,65.612 				"/>
				<polygon fill="#939598" points="74.452,79.594 74.417,79.559 74.383,79.594 61.244,66.455 61.244,83.406 87.583,83.406 
					87.583,66.462 				"/>
			</g>
			<g>
				<polygon fill="#939598" points="63.487,65.8 74.606,76.918 85.725,65.8 				"/>
				<polygon fill="#939598" points="74.64,79.782 74.606,79.747 74.572,79.782 61.432,66.643 61.432,83.594 87.772,83.594 
					87.772,66.651 				"/>
			</g>
			<g>
				<polygon fill="#939598" points="63.676,65.989 74.795,77.107 85.913,65.989 				"/>
				<polygon fill="#939598" points="74.829,79.971 74.794,79.936 74.76,79.971 61.621,66.831 61.621,83.782 87.959,83.782 
					87.959,66.839 				"/>
			</g>
			<g>
				<polygon fill="#939598" points="63.865,66.177 74.982,77.295 86.102,66.177 				"/>
				<polygon fill="#939598" points="75.017,80.16 74.982,80.124 74.949,80.16 61.809,67.02 61.809,83.971 88.148,83.97 
					88.148,67.028 				"/>
			</g>
			<g>
				<polygon fill="#939598" points="64.053,66.365 75.171,77.484 86.291,66.366 				"/>
				<polygon fill="#939598" points="75.206,80.349 75.171,80.313 75.137,80.349 61.997,67.209 61.997,84.16 88.336,84.159 
					88.337,67.215 				"/>
			</g>
			<g>
				<polygon fill="#939598" points="64.241,66.554 75.359,77.672 86.478,66.554 				"/>
				<polygon fill="#939598" points="75.393,80.536 75.359,80.502 75.325,80.537 62.185,67.397 62.185,84.348 88.525,84.348 
					88.525,67.405 				"/>
			</g>
			<g>
				<polygon fill="#939598" points="64.431,66.742 75.548,77.861 86.667,66.743 				"/>
				<polygon fill="#939598" points="75.583,80.726 75.548,80.69 75.514,80.726 62.374,67.585 62.374,84.536 88.713,84.535 
					88.713,67.593 				"/>
			</g>
			<g>
				<polygon fill="#939598" points="64.619,66.93 75.736,78.049 86.856,66.93 				"/>
				<polygon fill="#939598" points="75.77,80.914 75.736,80.878 75.702,80.914 62.562,67.774 62.562,84.725 88.902,84.724 
					88.902,67.781 				"/>
			</g>
			<g>
				<polygon fill="#939598" points="64.806,67.119 75.924,78.238 87.043,67.119 				"/>
				<polygon fill="#939598" points="75.959,81.102 75.925,81.067 75.89,81.103 62.75,67.962 62.75,84.913 89.091,84.913 
					89.09,67.97 				"/>
			</g>
			<g>
				<polygon fill="#939598" points="64.995,67.308 76.114,78.426 87.232,67.308 				"/>
				<polygon fill="#939598" points="76.148,81.291 76.113,81.257 76.079,81.291 62.939,68.15 62.939,85.102 89.28,85.102 
					89.28,68.159 				"/>
			</g>
			<g>
				<polygon fill="#939598" points="65.184,67.496 76.302,78.614 87.421,67.496 				"/>
				<polygon fill="#939598" points="76.336,81.479 76.302,81.443 76.267,81.479 63.128,68.339 63.128,85.29 89.467,85.29 
					89.467,68.346 				"/>
			</g>
			<g>
				<polygon fill="#939598" points="65.372,67.684 76.49,78.803 87.609,67.685 				"/>
				<polygon fill="#939598" points="76.525,81.667 76.49,81.632 76.457,81.667 63.316,68.528 63.316,85.479 89.656,85.479 
					89.656,68.536 				"/>
			</g>
			<g>
				<polygon fill="#939598" points="65.56,67.873 76.679,78.991 87.798,67.873 				"/>
				<polygon fill="#939598" points="76.713,81.856 76.679,81.82 76.644,81.856 63.504,68.716 63.504,85.668 89.845,85.667 
					89.845,68.724 				"/>
			</g>
			<g>
				<polygon fill="#939598" points="65.749,68.062 76.867,79.179 87.986,68.062 				"/>
				<polygon fill="#939598" points="76.901,82.044 76.867,82.009 76.833,82.044 63.693,68.904 63.693,85.856 90.033,85.856 
					90.033,68.913 				"/>
			</g>
			<g>
				<polygon fill="#939598" points="65.938,68.25 77.056,79.368 88.175,68.25 				"/>
				<polygon fill="#939598" points="77.09,82.232 77.055,82.197 77.022,82.232 63.882,69.093 63.882,86.044 90.221,86.043 
					90.221,69.101 				"/>
			</g>
			<g>
				<polygon fill="#939598" points="66.126,68.438 77.244,79.556 88.364,68.438 				"/>
				<polygon fill="#939598" points="77.279,82.421 77.243,82.386 77.211,82.421 64.071,69.282 64.071,86.233 90.41,86.231 
					90.41,69.289 				"/>
			</g>
			<g>
				<polygon fill="#939598" points="66.314,68.627 77.432,79.745 88.551,68.627 				"/>
				<polygon fill="#939598" points="77.467,82.609 77.432,82.574 77.398,82.61 64.258,69.47 64.258,86.421 90.598,86.421 
					90.598,69.478 				"/>
			</g>
			<g>
				<polygon fill="#939598" points="66.503,68.816 77.621,79.934 88.74,68.816 				"/>
				<polygon fill="#939598" points="77.656,82.798 77.621,82.763 77.587,82.798 64.447,69.658 64.447,86.609 90.787,86.609 
					90.787,69.667 				"/>
			</g>
			<g>
				<polygon fill="#939598" points="66.692,69.004 77.809,80.122 88.928,69.004 				"/>
				<polygon fill="#939598" points="77.844,82.986 77.808,82.951 77.775,82.986 64.636,69.846 64.636,86.798 90.975,86.797 
					90.974,69.854 				"/>
			</g>
			<g>
				<polygon fill="#939598" points="66.88,69.192 77.998,80.311 89.117,69.193 				"/>
				<polygon fill="#939598" points="78.033,83.175 77.998,83.14 77.964,83.175 64.825,70.035 64.825,86.986 91.163,86.986 
					91.163,70.043 				"/>
			</g>
			<g>
				<polygon fill="#939598" points="67.068,69.381 78.187,80.499 89.306,69.381 				"/>
				<polygon fill="#939598" points="78.221,83.364 78.187,83.329 78.152,83.364 65.012,70.224 65.012,87.175 91.352,87.175 
					91.352,70.232 				"/>
			</g>
			<g>
				<polygon fill="#939598" points="67.257,69.569 78.375,80.688 89.494,69.569 				"/>
				<polygon fill="#939598" points="78.409,83.552 78.375,83.517 78.34,83.552 65.201,70.411 65.201,87.363 91.54,87.362 
					91.54,70.419 				"/>
			</g>
			<g>
				<polygon fill="#939598" points="67.445,69.758 78.563,80.876 89.682,69.758 				"/>
				<polygon fill="#939598" points="78.598,83.74 78.563,83.705 78.53,83.74 65.389,70.6 65.389,87.551 91.729,87.551 
					91.729,70.608 				"/>
			</g>
			<g>
				<polygon fill="#939598" points="67.634,69.946 78.752,81.065 89.871,69.947 				"/>
				<polygon fill="#939598" points="78.787,83.93 78.752,83.894 78.717,83.93 65.578,70.789 65.578,87.74 91.917,87.74 
					91.917,70.797 				"/>
			</g>
			<g>
				<polygon fill="#939598" points="67.822,70.134 78.94,81.252 90.059,70.135 				"/>
				<polygon fill="#939598" points="78.975,84.117 78.94,84.082 78.906,84.117 65.766,70.978 65.766,87.928 92.106,87.928 
					92.106,70.985 				"/>
			</g>
			<g>
				<polygon fill="#939598" points="68.011,70.323 79.129,81.442 90.247,70.324 				"/>
				<polygon fill="#939598" points="79.164,84.305 79.129,84.271 79.095,84.305 65.954,71.165 65.954,88.116 92.294,88.116 
					92.294,71.174 				"/>
			</g>
			<g>
				<polygon fill="#939598" points="68.199,70.512 79.317,81.629 90.436,70.512 				"/>
				<polygon fill="#939598" points="79.352,84.494 79.316,84.459 79.283,84.494 66.143,71.354 66.143,88.305 92.482,88.305 
					92.482,71.362 				"/>
			</g>
			<g>
				<polygon fill="#939598" points="68.387,70.7 79.505,81.818 90.624,70.7 				"/>
				<polygon fill="#939598" points="79.54,84.683 79.505,84.648 79.471,84.683 66.332,71.543 66.332,88.494 92.671,88.494 
					92.671,71.551 				"/>
			</g>
			<g>
				<polygon fill="#939598" points="68.576,70.888 79.694,82.007 90.813,70.889 				"/>
				<polygon fill="#939598" points="79.729,84.871 79.694,84.837 79.66,84.871 66.52,71.732 66.52,88.683 92.86,88.683 
					92.86,71.739 				"/>
			</g>
			<g>
				<polygon fill="#939598" points="68.764,71.076 79.883,82.195 91.001,71.077 				"/>
				<polygon fill="#939598" points="79.916,85.059 79.882,85.024 79.848,85.059 66.709,71.919 66.709,88.871 93.048,88.87 
					93.048,71.927 				"/>
			</g>
			<g>
				<polygon fill="#939598" points="68.953,71.265 80.071,82.383 91.19,71.265 				"/>
				<polygon fill="#939598" points="80.106,85.248 80.07,85.213 80.037,85.248 66.896,72.108 66.898,89.059 93.236,89.059 
					93.236,72.116 				"/>
			</g>
			<g>
				<polygon fill="#939598" points="69.141,71.453 80.26,82.573 91.379,71.454 				"/>
				<polygon fill="#939598" points="80.294,85.437 80.259,85.402 80.225,85.437 67.085,72.297 67.085,89.248 93.425,89.248 
					93.425,72.304 				"/>
			</g>
			<g>
				<polygon fill="#939598" points="69.33,71.642 80.447,82.76 91.568,71.642 				"/>
				<polygon fill="#939598" points="80.482,85.624 80.447,85.59 80.413,85.624 67.273,72.485 67.273,89.436 93.613,89.435 
					93.613,72.493 				"/>
			</g>
			<g>
				<polygon fill="#939598" points="69.518,71.831 80.637,82.948 91.755,71.831 				"/>
				<polygon fill="#939598" points="80.671,85.813 80.636,85.778 80.602,85.813 67.462,72.673 67.462,89.624 93.802,89.624 
					93.802,72.681 				"/>
			</g>
			<g>
				<polygon fill="#939598" points="69.707,72.019 80.825,83.137 91.944,72.019 				"/>
				<polygon fill="#939598" points="80.86,86.002 80.824,85.967 80.791,86.002 67.651,72.862 67.651,89.813 93.99,89.813 
					93.99,72.87 				"/>
			</g>
			<g>
				<polygon fill="#939598" points="69.895,72.207 81.013,83.326 92.132,72.208 				"/>
				<polygon fill="#939598" points="81.048,86.19 81.013,86.155 80.979,86.19 67.839,73.05 67.839,90.001 94.179,90.001 
					94.179,73.058 				"/>
			</g>
			<g>
				<polygon fill="#939598" points="70.084,72.396 81.202,83.515 92.321,72.397 				"/>
				<polygon fill="#939598" points="81.236,86.379 81.202,86.344 81.167,86.379 68.027,73.238 68.027,90.19 94.367,90.189 
					94.367,73.246 				"/>
			</g>
			<g>
				<polygon fill="#939598" points="70.272,72.584 81.391,83.703 92.509,72.585 				"/>
				<polygon fill="#939598" points="81.425,86.567 81.391,86.532 81.356,86.567 68.216,73.427 68.216,90.378 94.556,90.378 
					94.556,73.435 				"/>
			</g>
			<g>
				<polygon fill="#939598" points="70.461,72.772 81.579,83.891 92.697,72.773 				"/>
				<polygon fill="#939598" points="81.614,86.756 81.578,86.721 81.545,86.756 68.405,73.615 68.405,90.566 94.744,90.566 
					94.744,73.624 				"/>
			</g>
			<g>
				<polygon fill="#939598" points="70.649,72.961 81.768,84.08 92.886,72.962 				"/>
				<polygon fill="#939598" points="81.802,86.945 81.767,86.909 81.733,86.945 68.592,73.804 68.592,90.755 94.933,90.755 
					94.933,73.812 				"/>
			</g>
			<g>
				<polygon fill="#939598" points="70.837,73.149 81.956,84.268 93.074,73.15 				"/>
			</g>
			<g>
				<polygon fill="#939598" points="71.026,73.338 82.144,84.456 93.263,73.339 				"/>
			</g>
			<g>
				<polygon fill="#939598" points="71.214,73.526 82.333,84.646 93.451,73.527 				"/>
			</g>
			<g>
				<polygon fill="#939598" points="71.402,73.715 82.52,84.834 93.64,73.716 				"/>
			</g>
		</g>
	</g>
</g>
<g>
	<polygon fill="#EEEFEC" points="34.277,36.59 45.395,47.708 56.514,36.59 	"/>
	<polygon fill="#EEEFEC" points="45.43,50.573 45.395,50.537 45.361,50.573 32.221,37.433 32.221,54.384 58.561,54.384 
		58.561,37.441 	"/>
</g>
</svg>
