<?xml version="1.0" encoding="utf-8"?>
<!-- Generator: Adobe Illustrator 17.0.0, SVG Export Plug-In . SVG Version: 6.00 Build 0)  -->
<!DOCTYPE svg PUBLIC "-//W3C//DTD SVG 1.1//EN" "http://www.w3.org/Graphics/SVG/1.1/DTD/svg11.dtd">
<svg version="1.1" id="Capa_1" xmlns="http://www.w3.org/2000/svg" xmlns:xlink="http://www.w3.org/1999/xlink" x="0px" y="0px"
	 width="59.528px" height="59.528px" viewBox="15.729 15.728 59.528 59.528" enable-background="new 15.729 15.728 59.528 59.528"
	 xml:space="preserve">
<g id="Background">
</g>
<g>
	<path fill="#7ABC73" d="M68.144,15.729H22.84c-3.922,0-7.112,3.19-7.112,7.111v45.304c0,3.922,3.19,7.112,7.112,7.112h45.304
		c3.922,0,7.112-3.19,7.112-7.112V22.84C75.256,18.919,72.065,15.729,68.144,15.729z"/>
	<g>
		<g>
			<g>
				<defs>
					<path id="SVGID_1_" d="M68.144,15.729H22.84c-3.922,0-7.112,3.19-7.112,7.111v45.304c0,3.922,3.19,7.112,7.112,7.112h45.304
						c3.922,0,7.112-3.19,7.112-7.112V22.84C75.256,18.919,72.065,15.729,68.144,15.729z"/>
				</defs>
				<clipPath id="SVGID_2_">
					<use xlink:href="#SVGID_1_"  overflow="visible"/>
				</clipPath>
				<g opacity="0.65" clip-path="url(#SVGID_2_)">
					<g>
						<polygon fill="#929497" points="48.627,60.669 49.144,60.669 56.647,53.167 56.647,52.649 48.627,52.649 						"/>
						<path fill="#929497" d="M53.513,37.162H39.039v-2.213h14.473V37.162z M35.628,31.354V60.67h11.524v-9.496h9.496l-0.001-19.821
							C56.647,31.354,35.628,31.354,35.628,31.354z M53.513,47.947H39.039v-2.212h14.473V47.947z M53.513,44.352H39.039V42.14
							h14.473V44.352z M53.513,40.757H39.039v-2.213h14.473V40.757z"/>
					</g>
					<g>
						<polygon fill="#929497" points="48.839,60.882 49.357,60.882 56.86,53.379 56.86,52.862 48.839,52.862 						"/>
						<path fill="#929497" d="M53.725,37.374H39.252v-2.213h14.473C53.725,35.161,53.725,37.374,53.725,37.374z M35.841,31.565
							v29.317h11.523v-9.496h9.496V31.565H35.841z M53.726,48.159H39.252v-2.212h14.473L53.726,48.159z M53.725,44.564H39.252
							v-2.212h14.473C53.725,42.352,53.725,44.564,53.725,44.564z M53.725,40.969H39.252v-2.213h14.473
							C53.725,38.756,53.725,40.969,53.725,40.969z"/>
					</g>
					<g>
						<polygon fill="#929497" points="49.052,61.095 49.569,61.095 57.072,53.591 57.072,53.074 49.051,53.074 						"/>
						<path fill="#929497" d="M53.937,37.586l-14.473-0.001v-2.212h14.473V37.586z M36.053,31.777v29.317h11.524v-9.496h9.496
							V31.777H36.053z M53.938,48.371l-14.474,0.001v-2.213h14.474V48.371z M53.937,44.776H39.464v-2.212h14.473V44.776z
							 M53.937,41.181H39.464v-2.213h14.473V41.181z"/>
					</g>
					<g>
						<polygon fill="#929497" points="49.264,61.307 49.781,61.307 57.284,53.803 57.284,53.286 49.264,53.286 						"/>
						<path fill="#929497" d="M54.149,37.798H39.676v-2.213H54.15L54.149,37.798z M36.266,31.99l-0.001,29.316h11.524V51.81h9.496
							V31.99H36.266z M54.151,48.584l-14.474,0.001v-2.213H54.15L54.151,48.584z M54.15,44.989H39.676v-2.212H54.15V44.989z
							 M54.15,41.394H39.676v-2.213H54.15V41.394z"/>
					</g>
					<g>
						<polygon fill="#929497" points="49.477,61.519 49.994,61.519 57.497,54.016 57.496,53.498 49.477,53.498 						"/>
						<path fill="#929497" d="M54.362,38.011H39.888v-2.213h14.473L54.362,38.011L54.362,38.011z M36.478,32.203l-0.001,29.317
							h11.524l-0.001-9.496h9.497l-0.001-19.821H36.478z M54.363,48.797H39.888v-2.212h14.473L54.363,48.797z M54.362,45.202H39.888
							v-2.213h14.473L54.362,45.202L54.362,45.202z M54.362,41.606H39.888v-2.213h14.473L54.362,41.606L54.362,41.606z"/>
					</g>
					<g>
						<polygon fill="#929497" points="49.689,61.731 50.206,61.731 57.709,54.228 57.708,53.71 49.689,53.71 						"/>
						<path fill="#929497" d="M54.575,38.223l-14.473-0.001v-2.212h14.473V38.223z M36.69,32.415L36.69,61.731h11.524l-0.001-9.496
							h9.496l-0.001-19.821C57.708,32.415,36.69,32.415,36.69,32.415z M54.575,49.009H40.1v-2.213h14.473L54.575,49.009z
							 M54.575,45.413H40.101v-2.213h14.473V45.413z M54.575,41.818H40.101v-2.213h14.473V41.818z"/>
					</g>
					<g>
						<polygon fill="#929497" points="49.901,61.943 50.418,61.943 57.921,54.44 57.921,53.923 49.901,53.923 						"/>
						<path fill="#929497" d="M54.787,38.435l-14.473-0.001v-2.212h14.473L54.787,38.435z M36.902,32.627v29.317h11.524v-9.496
							h9.496V32.627H36.902z M54.787,49.221l-14.474,0.001v-2.213h14.473L54.787,49.221z M54.787,45.625H40.313v-2.213h14.473
							C54.787,43.413,54.787,45.625,54.787,45.625z M54.787,42.03H40.313v-2.213h14.473C54.787,39.818,54.787,42.03,54.787,42.03z"
							/>
					</g>
					<g>
						<polygon fill="#929497" points="50.113,62.156 50.631,62.156 58.134,54.653 58.133,54.135 50.113,54.135 						"/>
						<path fill="#929497" d="M54.999,38.648l-14.473-0.001v-2.213h14.473C54.999,36.434,54.999,38.648,54.999,38.648z
							 M37.115,32.839l-0.001,29.316h11.523v-9.496h9.496v-19.82C58.134,32.839,37.115,32.839,37.115,32.839z M54.999,49.433
							l-14.474,0.001v-2.213h14.473L54.999,49.433z M54.999,45.838H40.525v-2.212h14.473C54.999,43.626,54.999,45.838,54.999,45.838
							z M54.999,42.242H40.525V40.03h14.473C54.999,40.03,54.999,42.242,54.999,42.242z"/>
					</g>
					<g>
						<polygon fill="#929497" points="50.325,62.368 50.843,62.368 58.346,54.865 58.346,54.347 50.325,54.347 						"/>
						<path fill="#929497" d="M55.211,38.859H40.738v-2.213h14.473V38.859z M37.327,33.051l-0.001,29.317l11.524-0.001l-0.001-9.495
							h9.496l-0.001-19.821C58.345,33.051,37.327,33.051,37.327,33.051z M55.212,49.646H40.738v-2.213h14.474V49.646z
							 M55.211,46.051H40.738v-2.213h14.473V46.051z M55.211,42.455H40.738v-2.212h14.473V42.455z"/>
					</g>
					<g>
						<polygon fill="#929497" points="50.538,62.58 51.055,62.58 58.558,55.078 58.558,54.559 50.538,54.559 						"/>
						<path fill="#929497" d="M55.423,39.072L40.95,39.072V36.86h14.473L55.423,39.072z M37.539,33.264L37.538,62.58l11.524-0.001
							l-0.001-9.495h9.496l-0.001-19.821L37.539,33.264L37.539,33.264z M55.424,49.858H40.95l0.001-2.212h14.473V49.858z
							 M55.424,46.263H40.95V44.05h14.473C55.424,44.05,55.424,46.263,55.424,46.263z M55.424,42.668H40.95v-2.213h14.473
							C55.424,40.455,55.424,42.668,55.424,42.668z"/>
					</g>
					<g>
						<polygon fill="#929497" points="50.75,62.793 51.267,62.793 58.77,55.289 58.77,54.772 50.75,54.772 						"/>
						<path fill="#929497" d="M55.636,39.284H41.162v-2.213h14.473L55.636,39.284z M37.752,33.476l-0.001,29.317h11.524v-9.496
							h9.496L58.77,33.476C58.77,33.476,37.752,33.476,37.752,33.476z M55.636,50.07H41.162v-2.212h14.473L55.636,50.07z
							 M55.636,46.475H41.162v-2.213h14.473C55.636,44.262,55.636,46.475,55.636,46.475z M55.636,42.88H41.162v-2.213h14.473
							C55.636,40.667,55.636,42.88,55.636,42.88z"/>
					</g>
					<g>
						<polygon fill="#929497" points="50.962,63.005 51.48,63.005 58.983,55.501 58.982,54.984 50.962,54.984 						"/>
						<path fill="#929497" d="M55.848,39.496H41.375v-2.213h14.473L55.848,39.496z M37.964,33.689v29.317l11.524-0.001v-9.495h9.496
							l-0.001-19.821C58.983,33.689,37.964,33.689,37.964,33.689z M55.848,50.282H41.374V48.07h14.473L55.848,50.282z
							 M55.848,46.687H41.375v-2.213h14.473V46.687z M55.848,43.092H41.375v-2.212h14.473V43.092z"/>
					</g>
					<g>
						<polygon fill="#929497" points="51.175,63.217 51.692,63.217 59.195,55.714 59.195,55.196 51.174,55.197 						"/>
						<path fill="#929497" d="M56.06,39.709l-14.473-0.001v-2.213h14.474L56.06,39.709z M38.176,33.901l-0.001,29.317H49.7v-9.496
							h9.495V33.901H38.176z M56.061,50.495H41.586v-2.213H56.06L56.061,50.495L56.061,50.495z M56.061,46.899H41.587v-2.213h14.474
							C56.061,44.687,56.061,46.899,56.061,46.899z M56.061,43.304H41.587v-2.212h14.474C56.061,41.091,56.061,43.304,56.061,43.304
							z"/>
					</g>
					<g>
						<polygon fill="#929497" points="51.387,63.429 51.905,63.429 59.408,55.926 59.407,55.408 51.386,55.409 						"/>
						<path fill="#929497" d="M56.272,39.922l-14.473-0.001v-2.213h14.474L56.272,39.922z M38.389,34.113L38.388,63.43h11.524
							l-0.001-9.496h9.496V34.113H38.389z M56.273,50.707H41.799v-2.212h14.474V50.707z M56.273,47.112H41.799v-2.213h14.474V47.112
							z M56.273,43.517H41.799v-2.213h14.474V43.517z"/>
					</g>
					<g>
						<polygon fill="#929497" points="51.6,63.642 52.117,63.642 59.62,56.139 59.619,55.621 51.599,55.621 						"/>
						<path fill="#929497" d="M56.484,40.134H42.012v-2.213h14.473L56.484,40.134z M38.601,34.326L38.6,63.642l11.524-0.001v-9.495
							h9.496L59.62,34.326C59.62,34.326,38.601,34.326,38.601,34.326z M56.486,50.92H42.012v-2.213h14.474V50.92z M56.485,47.325
							H42.012v-2.213h14.473V47.325z M56.485,43.729H42.012v-2.212h14.473V43.729z"/>
					</g>
					<g>
						<polygon fill="#929497" points="51.811,63.854 52.328,63.854 59.832,56.351 59.832,55.833 51.811,55.833 						"/>
						<path fill="#929497" d="M56.697,40.346l-14.473-0.001v-2.213h14.474L56.697,40.346z M38.813,34.538v29.317h11.523v-9.496
							h9.495V34.538H38.813z M56.698,51.132H42.223v-2.213h14.474C56.698,48.919,56.698,51.132,56.698,51.132z M56.698,47.537
							H42.223v-2.213h14.474C56.698,45.324,56.698,47.537,56.698,47.537z M56.698,43.941H42.223v-2.212h14.474
							C56.698,41.729,56.698,43.941,56.698,43.941z"/>
					</g>
					<g>
						<polygon fill="#929497" points="52.024,64.066 52.541,64.066 60.044,56.563 60.043,56.045 52.024,56.046 						"/>
						<path fill="#929497" d="M56.91,40.558l-14.473-0.001v-2.213H56.91V40.558z M39.025,34.75l-0.001,29.317h11.524l-0.001-9.496
							h9.496V34.75H39.025z M56.91,51.344H42.436v-2.213H56.91V51.344z M56.91,47.749H42.436v-2.213H56.91V47.749z M56.91,44.153
							H42.436v-2.212H56.91V44.153z"/>
					</g>
					<g>
						<polygon fill="#929497" points="52.236,64.279 52.753,64.279 60.257,56.776 60.256,56.258 52.236,56.258 						"/>
						<path fill="#929497" d="M57.122,40.77H42.649v-2.213h14.473L57.122,40.77z M39.238,34.962l-0.001,29.317l11.524-0.001v-9.495
							h9.496l-0.001-19.821C60.257,34.962,39.238,34.962,39.238,34.962z M57.122,51.557H42.648v-2.213h14.474
							C57.122,49.344,57.122,51.557,57.122,51.557z M57.122,47.962H42.649v-2.213h14.473C57.122,45.749,57.122,47.962,57.122,47.962
							z M57.122,44.366H42.649v-2.212h14.473C57.122,42.154,57.122,44.366,57.122,44.366z"/>
					</g>
					<g>
						<polygon fill="#929497" points="52.449,64.491 52.966,64.491 60.469,56.988 60.468,56.47 52.448,56.47 						"/>
						<path fill="#929497" d="M57.334,40.983l-14.473-0.001V38.77h14.473C57.334,38.77,57.334,40.983,57.334,40.983z M39.45,35.175
							L39.449,64.49h11.524v-9.495h9.496l-0.001-19.82C60.469,35.175,39.45,35.175,39.45,35.175z M57.335,51.768H42.861v-2.212
							h14.473L57.335,51.768z M57.334,48.173H42.861v-2.212h14.473C57.334,45.961,57.334,48.173,57.334,48.173z M57.334,44.578
							H42.861v-2.213h14.473C57.334,42.365,57.334,44.578,57.334,44.578z"/>
					</g>
					<g>
						<polygon fill="#929497" points="52.661,64.703 53.178,64.703 60.681,57.2 60.681,56.682 52.66,56.682 						"/>
						<path fill="#929497" d="M57.546,41.195l-14.473-0.001v-2.213h14.473L57.546,41.195z M39.662,35.387v29.316h11.524v-9.495
							h9.496V35.387H39.662z M57.547,51.98l-14.474,0.001v-2.213h14.473L57.547,51.98z M57.547,48.386H43.073v-2.213h14.473
							L57.547,48.386L57.547,48.386z M57.547,44.79H43.073v-2.213h14.473L57.547,44.79L57.547,44.79z"/>
					</g>
					<g>
						<polygon fill="#929497" points="52.873,64.916 53.39,64.916 60.893,57.413 60.893,56.895 52.873,56.895 						"/>
						<path fill="#929497" d="M57.759,41.407H43.285v-2.213h14.473V41.407z M39.875,35.599v29.317h11.523l-0.001-9.496h9.496
							l-0.001-19.821H39.875z M57.759,52.193H43.285v-2.212h14.473L57.759,52.193z M57.759,48.598H43.285v-2.212h14.473V48.598z
							 M57.759,45.003H43.285V42.79h14.473V45.003z"/>
					</g>
					<g>
						<polygon fill="#929497" points="53.085,65.128 53.602,65.128 61.105,57.625 61.105,57.107 53.085,57.107 						"/>
						<path fill="#929497" d="M57.971,41.619l-14.474-0.001v-2.212H57.97L57.971,41.619L57.971,41.619z M40.087,35.811v29.317
							h11.524v-9.496h9.495V35.811H40.087z M57.971,52.406H43.497l0.001-2.213h14.473L57.971,52.406z M57.971,48.81H43.497v-2.212
							h14.473V48.81z M57.971,45.214H43.497v-2.212h14.473V45.214z"/>
					</g>
					<g>
						<polygon fill="#929497" points="53.297,65.34 53.815,65.34 61.318,57.837 61.317,57.319 53.297,57.319 						"/>
						<path fill="#929497" d="M58.183,41.831H43.71v-2.213h14.473V41.831z M40.299,36.024L40.299,65.34h11.524v-9.496h9.496v-19.82
							H40.299z M58.184,52.618L43.71,52.618v-2.213h14.473L58.184,52.618z M58.183,49.022H43.71V46.81h14.473V49.022z
							 M58.183,45.427H43.71v-2.213h14.473V45.427z"/>
					</g>
					<g>
						<polygon fill="#929497" points="53.51,65.552 54.028,65.552 61.53,58.05 61.529,57.531 53.509,57.532 						"/>
						<path fill="#929497" d="M58.395,42.045H43.922v-2.213h14.473V42.045z M40.511,36.236l-0.001,29.317h11.524v-9.496h9.496
							L61.53,36.236H40.511z M58.396,52.83H43.922v-2.212h14.474V52.83z M58.395,49.235H43.922v-2.212h14.473V49.235z M58.395,45.64
							H43.922v-2.213h14.473V45.64z"/>
					</g>
					<g>
						<polygon fill="#929497" points="53.722,65.765 54.24,65.765 61.743,58.261 61.742,57.744 53.722,57.744 						"/>
						<path fill="#929497" d="M58.608,42.257l-14.473-0.001v-2.212h14.473V42.257z M40.724,36.448l-0.001,29.317h11.524
							l-0.001-9.496h9.496V36.448H40.724z M58.609,53.042H44.135v-2.213h14.473L58.609,53.042z M58.608,49.447H44.135v-2.213h14.473
							V49.447z M58.608,45.851H44.135v-2.212h14.473V45.851z"/>
					</g>
					<g>
						<polygon fill="#929497" points="53.935,65.977 54.452,65.977 61.955,58.474 61.955,57.956 53.934,57.956 						"/>
						<path fill="#929497" d="M58.82,42.469l-14.473-0.001v-2.212H58.82V42.469z M40.936,36.661v29.316h11.523v-9.496l9.495,0.001
							V36.66L40.936,36.661z M58.821,53.254H44.347v-2.212H58.82L58.821,53.254z M58.82,49.659H44.347v-2.213H58.82V49.659z
							 M58.82,46.064H44.347v-2.213H58.82V46.064z"/>
					</g>
					<g>
						<polygon fill="#929497" points="54.147,66.189 54.664,66.189 62.167,58.686 62.167,58.168 54.146,58.168 						"/>
						<path fill="#929497" d="M59.033,42.681H44.559v-2.213h14.473V42.681z M41.149,36.872v29.317h11.523v-9.496h9.496V36.872
							H41.149z M59.033,53.467l-14.474,0.001v-2.213h14.474V53.467z M59.033,49.872H44.559V47.66h14.473V49.872z M59.033,46.276
							H44.559v-2.213h14.473V46.276z"/>
					</g>
					<g>
						<polygon fill="#929497" points="54.359,66.401 54.876,66.401 62.379,58.898 62.379,58.38 54.359,58.38 						"/>
						<path fill="#929497" d="M59.245,42.893H44.771v-2.213h14.473V42.893z M41.361,37.085L41.36,66.401l11.524-0.001v-9.495
							l9.496-0.001v-19.82L41.361,37.085L41.361,37.085z M59.245,53.679H44.771v-2.213h14.473L59.245,53.679z M59.245,50.084H44.771
							v-2.212h14.473L59.245,50.084z M59.245,46.488H44.771v-2.212h14.473L59.245,46.488z"/>
					</g>
					<g>
						<polygon fill="#929497" points="54.571,66.613 55.089,66.613 62.592,59.111 62.591,58.593 54.571,58.593 						"/>
						<path fill="#929497" d="M59.457,43.106l-14.473-0.001v-2.212h14.473L59.457,43.106z M41.573,37.298v29.316h11.523v-9.496
							h9.496V37.297L41.573,37.298z M59.457,53.891H44.983v-2.212h14.473L59.457,53.891z M59.457,50.296H44.984v-2.213h14.473
							V50.296z M59.457,46.701H44.984v-2.213h14.473V46.701z"/>
					</g>
					<g>
						<polygon fill="#929497" points="54.784,66.826 55.301,66.826 62.804,59.323 62.804,58.805 54.783,58.805 						"/>
						<path fill="#929497" d="M59.669,43.318H45.196v-2.213h14.473V43.318z M41.785,37.509l-0.001,29.317h11.524V57.33h9.496V37.509
							H41.785z M59.67,54.103H45.196v-2.212h14.473L59.67,54.103z M59.669,50.508H45.196v-2.213h14.473V50.508z M59.669,46.913
							H45.196V44.7h14.473V46.913z"/>
					</g>
					<g>
						<polygon fill="#929497" points="54.996,67.039 55.513,67.039 63.016,59.535 63.016,59.017 54.996,59.017 						"/>
						<path fill="#929497" d="M59.882,43.53l-14.474-0.001v-2.212h14.473L59.882,43.53L59.882,43.53z M41.997,37.722v29.317
							l11.523-0.001v-9.495l9.495-0.001v-19.82H41.997z M59.882,54.316H45.408v-2.213h14.473L59.882,54.316z M59.882,50.72H45.408
							v-2.212h14.473L59.882,50.72L59.882,50.72z M59.882,47.125H45.408v-2.212h14.473L59.882,47.125L59.882,47.125z"/>
					</g>
					<g>
						<polygon fill="#929497" points="55.208,67.251 55.725,67.251 63.228,59.748 63.228,59.23 55.208,59.23 						"/>
						<path fill="#929497" d="M60.093,43.743L45.62,43.742v-2.213h14.473L60.093,43.743z M42.21,37.934l-0.001,29.317h11.523v-9.496
							h9.496V37.934H42.21z M60.095,54.529H45.62v-2.213h14.473L60.095,54.529z M60.094,50.933H45.62v-2.213h14.473V50.933z
							 M60.094,47.338H45.62v-2.212h14.473V47.338z"/>
					</g>
					<g>
						<polygon fill="#929497" points="55.421,67.463 55.938,67.463 63.441,59.96 63.44,59.441 55.421,59.442 						"/>
						<path fill="#929497" d="M60.306,43.955l-14.473-0.001v-2.213h14.474L60.306,43.955z M42.422,38.147l-0.001,29.317h11.524
							v-9.496h9.496V38.147H42.422z M60.306,54.741H45.832v-2.212h14.474V54.741z M60.306,51.145H45.832v-2.213h14.474V51.145z
							 M60.306,47.55H45.832v-2.213h14.474V47.55z"/>
					</g>
					<g>
						<polygon fill="#929497" points="55.633,67.675 56.15,67.675 63.653,60.172 63.652,59.655 55.632,59.655 						"/>
						<path fill="#929497" d="M60.518,44.167H46.045v-2.213h14.473V44.167z M42.634,38.359l-0.001,29.317l11.524-0.001V58.18
							l9.496-0.001l-0.001-19.82H42.634z M60.519,54.953H46.045v-2.213h14.473L60.519,54.953z M60.518,51.357H46.045v-2.212h14.473
							V51.357z M60.518,47.762H46.045V45.55h14.473V47.762z"/>
					</g>
					<g>
						<polygon fill="#929497" points="55.845,67.888 56.362,67.888 63.865,60.384 63.865,59.867 55.844,59.867 						"/>
						<path fill="#929497" d="M60.73,44.379H46.258v-2.213h14.473L60.73,44.379z M42.846,38.571v29.317l11.523-0.001v-9.495h9.496
							V38.571H42.846z M60.731,55.165H46.257l0.001-2.213h14.473V55.165z M60.73,51.57H46.258v-2.213h14.473L60.73,51.57
							L60.73,51.57z M60.73,47.974H46.258v-2.212h14.473L60.73,47.974L60.73,47.974z"/>
					</g>
					<g>
						<polygon fill="#929497" points="56.058,68.1 56.575,68.1 64.078,60.597 64.077,60.079 56.057,60.079 						"/>
						<path fill="#929497" d="M60.942,44.592l-14.473-0.001v-2.213h14.473V44.592z M43.058,38.783v29.316h11.523v-9.495h9.496
							V38.783H43.058z M60.943,55.377H46.469v-2.212h14.474V55.377z M60.943,51.782H46.47v-2.213h14.473V51.782z M60.943,48.186
							H46.47v-2.212h14.473V48.186z"/>
					</g>
					<g>
						<polygon fill="#929497" points="56.27,68.312 56.787,68.312 64.29,60.809 64.29,60.291 56.269,60.291 						"/>
						<path fill="#929497" d="M61.155,44.804H46.682v-2.213h14.473L61.155,44.804z M43.271,38.996v29.317l11.524-0.001v-9.495h9.496
							V38.996H43.271z M61.156,55.59H46.682v-2.213h14.474V55.59z M61.156,51.995H46.682v-2.213h14.473V51.995z M61.156,48.399
							H46.682v-2.212h14.473V48.399z"/>
					</g>
					<g>
						<polygon fill="#929497" points="56.482,68.524 56.999,68.524 64.502,61.021 64.502,60.504 56.482,60.504 						"/>
						<path fill="#929497" d="M61.368,45.016l-14.473-0.001v-2.212h14.473V45.016z M43.484,39.209l-0.001,29.316h11.524
							l-0.001-9.496h9.496v-19.82H43.484z M61.368,55.802H46.894V53.59h14.473L61.368,55.802z M61.368,52.207H46.894v-2.212h14.473
							L61.368,52.207z M61.368,48.611H46.894v-2.213h14.473L61.368,48.611z"/>
					</g>
					<g>
						<polygon fill="#929497" points="56.694,68.737 57.212,68.737 64.715,61.233 64.714,60.716 56.694,60.716 						"/>
						<path fill="#929497" d="M61.58,45.229l-14.473-0.001v-2.213H61.58L61.58,45.229z M43.696,39.421l-0.001,29.316h11.524v-9.495
							h9.496V39.421H43.696z M61.58,56.014l-14.474,0.001v-2.213H61.58V56.014z M61.58,52.419H47.106v-2.212H61.58L61.58,52.419
							L61.58,52.419z M61.58,48.823H47.106v-2.213H61.58L61.58,48.823L61.58,48.823z"/>
					</g>
					<g>
						<polygon fill="#929497" points="56.906,68.949 57.424,68.949 64.927,61.446 64.926,60.928 56.906,60.929 						"/>
						<path fill="#929497" d="M61.792,45.441H47.319v-2.213h14.473V45.441z M43.908,39.632l-0.001,29.317h11.524v-9.496h9.496
							l-0.001-19.821C64.927,39.632,43.908,39.632,43.908,39.632z M61.793,56.226H47.319v-2.212h14.474V56.226z M61.792,52.631
							H47.319v-2.212h14.473V52.631z M61.792,49.036H47.319v-2.213h14.473V49.036z"/>
					</g>
					<g>
						<polygon fill="#929497" points="57.119,69.162 57.636,69.162 65.139,61.658 65.139,61.141 57.118,61.141 						"/>
						<path fill="#929497" d="M62.004,45.653L47.53,45.652V43.44h14.474V45.653z M44.12,39.844v29.317h11.524v-9.496h9.495V39.844
							H44.12z M62.005,56.439H47.53l0.001-2.213h14.473L62.005,56.439z M62.004,52.844H47.531v-2.213h14.473V52.844z M62.004,49.247
							H47.531v-2.212h14.473V49.247z"/>
					</g>
					<g>
						<polygon fill="#929497" points="57.331,69.374 57.848,69.374 65.351,61.87 65.351,61.352 57.331,61.352 						"/>
						<path fill="#929497" d="M62.216,45.866H47.743v-2.213h14.474L62.216,45.866z M44.333,40.057l-0.001,29.316h11.524v-9.496
							l9.496,0.001V40.057H44.333z M62.217,56.651l-14.474,0.001v-2.213h14.474V56.651z M62.217,53.056H47.743v-2.212h14.474
							L62.217,53.056L62.217,53.056z M62.217,49.461H47.743v-2.213h14.474L62.217,49.461L62.217,49.461z"/>
					</g>
					<g>
						<polygon fill="#929497" points="57.544,69.586 58.061,69.586 65.564,62.083 65.563,61.565 57.544,61.566 						"/>
						<path fill="#929497" d="M62.429,46.078l-14.473-0.001v-2.213h14.473V46.078z M44.545,40.27l-0.001,29.317h11.524l-0.001-9.496
							h9.497L65.563,40.27H44.545z M62.43,56.864H47.955v-2.212H62.43V56.864z M62.429,53.268H47.955v-2.213h14.473V53.268z
							 M62.429,49.673H47.955v-2.213h14.473V49.673z"/>
					</g>
					<g>
						<polygon fill="#929497" points="57.756,69.798 58.273,69.798 65.776,62.295 65.775,61.777 57.756,61.777 						"/>
						<path fill="#929497" d="M62.642,46.29L48.168,46.29v-2.212h14.473V46.29z M44.757,40.482l-0.001,29.317h11.524l-0.001-9.496
							h9.496V40.482H44.757z M62.642,57.076H48.167l0.001-2.213h14.473L62.642,57.076z M62.642,53.48H48.168v-2.213h14.473V53.48z
							 M62.642,49.885H48.168v-2.212h14.473V49.885z"/>
					</g>
					<g>
						<polygon fill="#929497" points="57.968,70.01 58.485,70.01 65.988,62.507 65.988,61.99 57.968,61.99 						"/>
						<path fill="#929497" d="M62.854,46.502L48.38,46.502v-2.212h14.473V46.502z M44.969,40.694V70.01h11.523v-9.496l9.495,0.001
							V40.694L44.969,40.694z M62.854,57.288H48.38v-2.212h14.473L62.854,57.288z M62.854,53.692H48.38V51.48h14.473V53.692z
							 M62.854,50.097H48.38v-2.213h14.473V50.097z"/>
					</g>
					<g>
						<polygon fill="#929497" points="58.18,70.223 58.698,70.223 66.201,62.72 66.2,62.202 58.18,62.202 						"/>
						<path fill="#929497" d="M63.066,46.714H48.592v-2.213h14.473L63.066,46.714L63.066,46.714z M45.182,40.906l-0.001,29.317
							h11.523v-9.496h9.496V40.906H45.182z M63.066,57.5l-14.474,0.001v-2.213h14.473L63.066,57.5L63.066,57.5z M63.066,53.905
							H48.592v-2.212h14.473L63.066,53.905L63.066,53.905z M63.066,50.309H48.592v-2.213h14.473L63.066,50.309L63.066,50.309z"/>
					</g>
					<g>
						<polygon fill="#929497" points="58.392,70.435 58.91,70.435 66.413,62.931 66.413,62.414 58.392,62.414 						"/>
						<path fill="#929497" d="M63.278,46.926H48.805v-2.213h14.473V46.926z M45.394,41.119l-0.001,29.317l11.524-0.001V60.94
							l9.496-0.001l-0.001-19.82H45.394z M63.279,57.713H48.805V55.5h14.473L63.279,57.713z M63.279,54.117H48.805v-2.212h14.473
							L63.279,54.117z M63.279,50.522H48.805V48.31h14.473L63.279,50.522z"/>
					</g>
					<g>
						<polygon fill="#929497" points="58.605,70.647 59.122,70.647 66.625,63.145 66.625,62.627 58.605,62.627 						"/>
						<path fill="#929497" d="M63.49,47.139l-14.473-0.001v-2.212h14.474L63.49,47.139z M45.607,41.332v29.316H57.13v-9.496h9.495
							V41.331L45.607,41.332z M63.491,57.925H49.017v-2.213h14.474V57.925z M63.491,54.33H49.017v-2.213h14.474V54.33z
							 M63.491,50.735H49.017v-2.213h14.474V50.735z"/>
					</g>
					<g>
						<polygon fill="#929497" points="58.817,70.859 59.334,70.859 66.837,63.356 66.837,62.838 58.817,62.839 						"/>
						<path fill="#929497" d="M63.703,47.351l-14.473-0.001v-2.212h14.473V47.351z M45.819,41.544v29.316h11.523v-9.496h9.496
							V41.543L45.819,41.544z M63.703,58.137H49.229v-2.212h14.474C63.703,55.925,63.703,58.137,63.703,58.137z M63.703,54.542
							H49.229v-2.213h14.473V54.542z M63.703,50.947H49.229v-2.213h14.473V50.947z"/>
					</g>
					<g>
						<polygon fill="#929497" points="59.029,71.072 59.547,71.072 67.049,63.568 67.049,63.051 59.029,63.051 						"/>
						<path fill="#929497" d="M63.915,47.564l-14.473-0.001v-2.212h14.473V47.564z M46.031,41.756v29.317h11.524l-0.001-9.496h9.496
							l-0.001-19.821H46.031z M63.915,58.35H49.441v-2.213h14.473L63.915,58.35z M63.915,54.754H49.441v-2.213h14.473L63.915,54.754
							z M63.915,51.159H49.441v-2.212h14.473L63.915,51.159z"/>
					</g>
					<g>
						<polygon fill="#929497" points="59.241,71.284 59.759,71.284 67.262,63.781 67.262,63.264 59.241,63.264 						"/>
						<path fill="#929497" d="M64.127,47.776l-14.473-0.001v-2.213h14.473V47.776z M46.243,41.968v29.317h11.523l-0.001-9.496h9.496
							V41.968H46.243z M64.127,58.562H49.654v-2.213h14.473V58.562z M64.127,54.967H49.654v-2.213h14.473V54.967z M64.127,51.37
							H49.654v-2.212h14.473V51.37z"/>
					</g>
					<g>
						<polygon fill="#929497" points="59.454,71.496 59.972,71.496 67.475,63.994 67.474,63.476 59.454,63.476 						"/>
						<path fill="#929497" d="M64.339,47.989l-14.473-0.001v-2.213H64.34L64.339,47.989z M46.455,42.18l-0.001,29.317h11.524v-9.496
							h9.496V42.18H46.455z M64.34,58.774H49.866v-2.212H64.34V58.774z M64.34,55.179H49.866v-2.213H64.34V55.179z M64.34,51.584
							H49.866v-2.213H64.34V51.584z"/>
					</g>
					<g>
						<polygon fill="#929497" points="59.667,71.709 60.183,71.709 67.687,64.206 67.686,63.688 59.666,63.688 						"/>
						<path fill="#929497" d="M64.552,48.201H50.079v-2.213h14.473V48.201z M46.668,42.393l-0.001,29.317l11.524-0.001l-0.001-9.495
							l9.496-0.001l-0.001-19.82C67.686,42.393,46.668,42.393,46.668,42.393z M64.553,58.987H50.079v-2.213h14.473L64.553,58.987z
							 M64.552,55.391H50.079v-2.212h14.473V55.391z M64.552,51.796H50.079v-2.212h14.473V51.796z"/>
					</g>
					<g>
						<polygon fill="#929497" points="59.879,71.921 60.395,71.921 67.899,64.418 67.898,63.9 59.878,63.9 						"/>
						<path fill="#929497" d="M64.765,48.413L50.29,48.412l0.001-2.212h14.473V48.413z M46.88,42.605L46.88,71.921h11.524
							l-0.001-9.495l9.496-0.001l-0.001-19.82C67.898,42.605,46.88,42.605,46.88,42.605z M64.765,59.198H50.29v-2.213h14.474
							L64.765,59.198z M64.765,55.604H50.29l0.001-2.213h14.473V55.604z M64.765,52.008H50.29l0.001-2.213h14.473V52.008z"/>
					</g>
					<g>
						<polygon fill="#929497" points="60.091,72.133 60.608,72.133 68.111,64.63 68.11,64.112 60.091,64.113 						"/>
						<path fill="#929497" d="M64.977,48.625l-14.473-0.001v-2.213h14.473V48.625z M47.092,42.817v29.317h11.523v-9.496h9.495
							V42.817H47.092z M64.977,59.411H50.503v-2.213h14.474L64.977,59.411L64.977,59.411z M64.977,55.816H50.503v-2.212h14.473
							V55.816z M64.977,52.22H50.503v-2.212h14.473V52.22z"/>
					</g>
					<g>
						<polygon fill="#929497" points="60.303,72.346 60.82,72.346 68.324,64.842 68.323,64.325 60.303,64.325 						"/>
						<path fill="#929497" d="M65.189,48.837l-14.474-0.001v-2.212h14.473L65.189,48.837L65.189,48.837z M47.304,43.029v29.317
							l11.524-0.001V62.85l9.496-0.001l-0.001-19.821C68.324,43.029,47.304,43.029,47.304,43.029z M65.189,59.624H50.715v-2.213
							h14.473L65.189,59.624z M65.189,56.028H50.715v-2.212h14.473L65.189,56.028z M65.189,52.433H50.715v-2.212h14.473
							L65.189,52.433z"/>
					</g>
					<g>
						<polygon fill="#929497" points="60.515,72.558 61.033,72.558 68.536,65.055 68.535,64.537 60.515,64.537 						"/>
						<path fill="#929497" d="M65.401,49.05l-14.473-0.001v-2.212h14.474L65.401,49.05z M47.517,43.242l-0.001,29.315h11.524
							l-0.001-9.496h9.496l-0.001-19.82L47.517,43.242L47.517,43.242z M65.402,59.835H50.927v-2.213h14.474L65.402,59.835z
							 M65.401,56.24H50.928v-2.212h14.474L65.401,56.24L65.401,56.24z M65.401,52.645H50.928v-2.213h14.474L65.401,52.645
							L65.401,52.645z"/>
					</g>
					<g>
						<polygon fill="#929497" points="60.728,72.771 61.245,72.771 68.748,65.267 68.748,64.749 60.727,64.749 						"/>
						<path fill="#929497" d="M65.613,49.262L51.14,49.262v-2.213h14.473V49.262z M47.729,43.454v29.317l11.523-0.001v-9.496
							l9.495,0.001V43.454H47.729z M65.614,60.047L51.14,60.048v-2.213h14.474L65.614,60.047L65.614,60.047z M65.614,56.453H51.14
							V54.24h14.473V56.453z M65.614,52.857H51.14v-2.213h14.473V52.857z"/>
					</g>
					<g>
						<polygon fill="#929497" points="60.94,72.983 61.457,72.983 68.96,65.48 68.96,64.962 60.94,64.962 						"/>
						<path fill="#929497" d="M65.826,49.474l-14.473-0.001v-2.212h14.473V49.474z M47.941,43.667v29.316h11.523v-9.496h9.495
							V43.666L47.941,43.667z M65.826,60.26H51.352v-2.213h14.473L65.826,60.26z M65.826,56.665H51.352v-2.212h14.473V56.665z
							 M65.826,53.07H51.352v-2.213h14.473V53.07z"/>
					</g>
					<g>
						<polygon fill="#929497" points="61.152,73.195 61.669,73.195 69.172,65.692 69.172,65.174 61.152,65.174 						"/>
						<path fill="#929497" d="M66.038,49.686l-14.474-0.001v-2.212h14.473L66.038,49.686L66.038,49.686z M48.154,43.878v29.317
							h11.524l-0.001-9.496h9.495V43.878H48.154z M66.038,60.473H51.564V58.26h14.474L66.038,60.473z M66.038,56.877H51.564v-2.213
							h14.473L66.038,56.877L66.038,56.877z M66.038,53.281H51.564v-2.212h14.473L66.038,53.281L66.038,53.281z"/>
					</g>
					<g>
						<polygon fill="#929497" points="61.364,73.407 61.882,73.407 69.385,65.904 69.385,65.386 61.364,65.386 						"/>
						<path fill="#929497" d="M66.25,49.898H51.777v-2.213H66.25L66.25,49.898z M48.366,44.091v29.317l11.523-0.001v-9.496
							l9.496,0.001V44.091L48.366,44.091z M66.25,60.684l-14.474,0.001v-2.213H66.25V60.684z M66.25,57.089H51.777v-2.212H66.25
							V57.089z M66.25,53.494H51.777v-2.213H66.25V53.494z"/>
					</g>
					<g>
						<polygon fill="#929497" points="61.577,73.619 62.095,73.619 69.597,66.116 69.596,65.599 61.576,65.599 						"/>
						<path fill="#929497" d="M66.462,50.111H51.989v-2.213h14.473V50.111z M48.578,44.303V73.62h11.523v-9.496h9.495V44.303H48.578
							z M66.463,60.897H51.989v-2.213h14.473L66.463,60.897z M66.463,57.301H51.989v-2.212h14.473L66.463,57.301z M66.463,53.706
							H51.989v-2.212h14.473L66.463,53.706z"/>
					</g>
					<g>
						<polygon fill="#929497" points="61.789,73.832 62.307,73.832 69.81,66.328 69.809,65.811 61.789,65.811 						"/>
						<path fill="#929497" d="M66.675,50.324l-14.473-0.001v-2.212h14.473V50.324z M48.791,44.515L48.79,73.832l11.524-0.001
							l-0.001-9.495h9.496l-0.001-19.821H48.791z M66.676,61.109H52.201l0.001-2.213h14.473L66.676,61.109z M66.675,57.514H52.202
							v-2.213h14.473V57.514z M66.675,53.918H52.202v-2.212h14.473V53.918z"/>
					</g>
					<g>
						<polygon fill="#929497" points="62.002,74.044 62.519,74.044 70.022,66.541 70.022,66.023 62.001,66.023 						"/>
						<path fill="#929497" d="M66.887,50.536l-14.473-0.001v-2.212h14.473V50.536z M49.003,44.728v29.316h11.523l-0.001-9.496h9.496
							V44.727L49.003,44.728z M66.888,61.322H52.414V59.11h14.474V61.322z M66.887,57.726H52.414v-2.213h14.473V57.726z
							 M66.887,54.131H52.414v-2.213h14.473V54.131z"/>
					</g>
					<g>
						<polygon fill="#929497" points="62.214,74.256 62.731,74.256 70.234,66.753 70.234,66.235 62.213,66.235 						"/>
						<path fill="#929497" d="M67.1,50.748l-14.473-0.001v-2.212H67.1L67.1,50.748z M49.215,44.94v29.316h11.523V64.76h9.495V44.939
							L49.215,44.94z M67.1,61.534l-14.474,0.001v-2.213H67.1V61.534z M67.1,57.939H52.626v-2.212H67.1L67.1,57.939L67.1,57.939z
							 M67.1,54.343H52.626v-2.213H67.1L67.1,54.343L67.1,54.343z"/>
					</g>
					<g>
						<polygon fill="#929497" points="62.426,74.468 62.943,74.468 70.446,66.965 70.446,66.448 62.426,66.448 						"/>
						<path fill="#929497" d="M67.312,50.961L52.838,50.96v-2.212h14.474L67.312,50.961z M49.428,45.152l-0.001,29.317h11.524
							v-9.496h9.496l-0.001-19.821H49.428z M67.312,61.746H52.838v-2.213h14.474V61.746z M67.312,58.151H52.838v-2.213h14.474
							V58.151z M67.312,54.555H52.838v-2.212h14.474V54.555z"/>
					</g>
					<g>
						<polygon fill="#929497" points="62.638,74.68 63.156,74.68 70.659,67.178 70.658,66.66 62.638,66.66 						"/>
						<path fill="#929497" d="M67.524,51.173L53.05,51.172V48.96h14.474L67.524,51.173z M49.64,45.364v29.317h11.523v-9.496h9.496
							V45.364H49.64z M67.524,61.958H53.05v-2.213h14.474V61.958z M67.524,58.363H53.05v-2.213h14.474V58.363z M67.524,54.768H53.05
							v-2.213h14.474V54.768z"/>
					</g>
					<g>
						<polygon fill="#929497" points="62.851,74.893 63.368,74.893 70.871,67.39 70.871,66.872 62.85,66.872 						"/>
						<path fill="#929497" d="M67.736,51.385l-14.473-0.001v-2.212h14.473V51.385z M49.852,45.577v29.316h11.523v-9.496h9.496
							V45.576L49.852,45.577z M67.737,62.17H53.263v-2.212h14.474V62.17z M67.736,58.575H53.263v-2.213h14.473V58.575z
							 M67.736,54.98H53.263v-2.213h14.473V54.98z"/>
					</g>
					<g>
						<polygon fill="#929497" points="63.063,75.106 63.58,75.106 71.083,67.602 71.083,67.084 63.063,67.084 						"/>
						<path fill="#929497" d="M67.948,51.597H53.475v-2.212h14.473V51.597z M50.064,45.789v29.317h11.523l-0.001-9.496h9.495V45.789
							H50.064z M67.949,62.384H53.475v-2.213h14.473L67.949,62.384z M67.949,58.788H53.475v-2.213h14.473L67.949,58.788
							L67.949,58.788z M67.949,55.192H53.475V52.98h14.473L67.949,55.192L67.949,55.192z"/>
					</g>
					<g>
						<polygon fill="#929497" points="63.275,75.318 63.792,75.318 71.295,67.814 71.295,67.296 63.275,67.297 						"/>
						<path fill="#929497" d="M68.161,51.809H53.687v-2.213h14.473V51.809z M50.277,46.002l-0.001,29.317L61.8,75.318L61.8,65.822
							l9.496-0.001v-19.82H50.277z M68.162,62.596H53.687l0.001-2.213h14.473L68.162,62.596L68.162,62.596z M68.162,59H53.687
							v-2.213h14.473L68.162,59z M68.162,55.405H53.687v-2.212h14.473L68.162,55.405z"/>
					</g>
					<g>
						<polygon fill="#929497" points="63.487,75.53 64.005,75.53 71.508,68.027 71.507,67.51 63.487,67.51 						"/>
						<path fill="#929497" d="M68.373,52.022l-14.473-0.001v-2.213h14.474L68.373,52.022z M50.489,46.214V75.53h11.523v-9.496h9.496
							V46.214H50.489z M68.373,62.808H53.899v-2.212h14.474V62.808z M68.373,59.212H53.899V57h14.474V59.212z M68.373,55.617H53.899
							v-2.212h14.474V55.617z"/>
					</g>
					<g>
						<polygon fill="#929497" points="63.7,75.743 64.217,75.743 71.72,68.239 71.72,67.722 63.699,67.722 						"/>
						<path fill="#929497" d="M68.585,52.234H54.112v-2.213h14.473V52.234z M50.701,46.426v29.317h11.524v-9.496h9.495V46.426
							H50.701z M68.586,63.02H54.112v-2.213h14.473L68.586,63.02z M68.586,59.424H54.112v-2.212h14.473L68.586,59.424z
							 M68.586,55.829H54.112v-2.212h14.473L68.586,55.829z"/>
					</g>
					<g>
						<polygon fill="#929497" points="63.912,75.955 64.43,75.955 71.932,68.451 71.932,67.934 63.912,67.934 						"/>
						<path fill="#929497" d="M68.797,52.446l-14.473-0.001v-2.212h14.473L68.797,52.446L68.797,52.446z M50.913,46.638
							l-0.001,29.316h11.524l-0.001-9.495l9.496-0.001v-19.82H50.913z M68.798,63.232H54.324l0.001-2.213h14.474L68.798,63.232
							L68.798,63.232z M68.798,59.636H54.325v-2.212h14.473V59.636z M68.798,56.041H54.325v-2.213h14.473V56.041z"/>
					</g>
					<g>
						<polygon fill="#929497" points="64.125,76.167 64.642,76.167 72.145,68.663 72.145,68.146 64.124,68.146 						"/>
						<path fill="#929497" d="M69.01,52.659l-14.473-0.001v-2.213H69.01V52.659z M51.126,46.85v29.317h11.523v-9.496h9.496V46.85
							H51.126z M69.011,63.445H54.537v-2.213h14.474V63.445z M69.01,59.85H54.537v-2.213H69.01V59.85z M69.01,56.253H54.537v-2.212
							H69.01V56.253z"/>
					</g>
					<g>
						<polygon fill="#929497" points="64.337,76.379 64.854,76.379 72.357,68.876 72.357,68.358 64.336,68.358 						"/>
						<path fill="#929497" d="M69.223,52.871L54.749,52.87v-2.212h14.473L69.223,52.871L69.223,52.871z M51.338,47.063v29.317
							h11.523v-9.496h9.495V47.063H51.338z M69.223,63.657H54.749v-2.213h14.473L69.223,63.657z M69.223,60.062H54.749V57.85h14.473
							L69.223,60.062L69.223,60.062z M69.223,56.467H54.749v-2.212h14.473L69.223,56.467L69.223,56.467z"/>
					</g>
					<g>
						<polygon fill="#929497" points="64.549,76.591 65.066,76.591 72.569,69.088 72.569,68.571 64.549,68.571 						"/>
						<path fill="#929497" d="M69.435,53.083l-14.474-0.001v-2.212h14.473L69.435,53.083L69.435,53.083z M51.551,47.276
							L51.55,76.591h11.524l-0.001-9.496h9.496v-19.82H51.551z M69.435,63.869H54.961v-2.213h14.474V63.869z M69.435,60.274H54.961
							v-2.212h14.473L69.435,60.274z M69.435,56.678H54.961v-2.213h14.473L69.435,56.678z"/>
					</g>
					<g>
						<polygon fill="#929497" points="64.761,76.804 65.279,76.804 72.782,69.3 72.781,68.783 64.761,68.783 						"/>
						<path fill="#929497" d="M69.647,53.295H55.174v-2.213h14.473L69.647,53.295z M51.763,47.487v29.317l11.523-0.001v-9.496
							l9.496,0.001l-0.001-19.821H51.763z M69.648,64.081l-14.474,0.001v-2.213h14.473L69.648,64.081z M69.647,60.486H55.174v-2.212
							h14.473V60.486z M69.647,56.89H55.174v-2.213h14.473V56.89z"/>
					</g>
					<g>
						<polygon fill="#929497" points="64.974,77.016 65.491,77.016 72.994,69.513 72.993,68.995 64.973,68.996 						"/>
						<path fill="#929497" d="M69.859,53.508l-14.473-0.001v-2.212h14.473V53.508z M51.975,47.7v29.316h11.524V67.52h9.495V47.699
							L51.975,47.7z M69.859,64.293H55.386v-2.213h14.473V64.293z M69.859,60.698H55.386v-2.212h14.473V60.698z M69.859,57.103
							H55.386V54.89h14.473V57.103z"/>
					</g>
					<g>
						<polygon fill="#929497" points="65.186,77.228 65.703,77.228 73.206,69.725 73.206,69.208 65.185,69.208 						"/>
						<path fill="#929497" d="M70.071,53.72l-14.473-0.001v-2.212h14.473V53.72z M52.187,47.911v29.317h11.523l-0.001-9.496h9.496
							V47.911H52.187z M70.072,64.506H55.598v-2.213h14.474V64.506z M70.072,60.911H55.598v-2.213h14.473L70.072,60.911z
							 M70.072,57.315H55.598v-2.212h14.473L70.072,57.315z"/>
					</g>
					<g>
						<polygon fill="#929497" points="65.398,77.441 65.915,77.441 73.418,69.937 73.418,69.419 65.397,69.419 						"/>
						<path fill="#929497" d="M70.283,53.933L55.81,53.932V51.72h14.474L70.283,53.933z M52.4,48.125v29.317l11.523-0.001v-9.496
							l9.495,0.001V48.124L52.4,48.125z M70.284,64.718L55.81,64.719v-2.213h14.474V64.718z M70.284,61.123H55.81v-2.212h14.474
							L70.284,61.123L70.284,61.123z M70.284,57.528H55.81v-2.213h14.474L70.284,57.528L70.284,57.528z"/>
					</g>
					<g>
						<polygon fill="#929497" points="65.611,77.653 66.128,77.653 73.63,70.15 73.63,69.632 65.611,69.632 						"/>
						<path fill="#929497" d="M70.496,54.145H56.022v-2.213h14.474L70.496,54.145z M52.612,48.337v29.317l11.523-0.001l-0.001-9.496
							h9.496v-19.82H52.612z M70.497,64.93l-14.474,0.001v-2.213h14.474V64.93z M70.497,61.335H56.022v-2.212h14.474V61.335z
							 M70.497,57.74H56.022v-2.213h14.474V57.74z"/>
					</g>
					<g>
						<polygon fill="#929497" points="65.823,77.865 66.34,77.865 73.843,70.362 73.842,69.844 65.823,69.844 						"/>
						<path fill="#929497" d="M70.709,54.357l-14.473-0.001v-2.212h14.473V54.357z M52.824,48.549l-0.001,29.317h11.524v-9.496
							h9.495V48.549H52.824z M70.709,65.143H56.234V62.93h14.474L70.709,65.143z M70.709,61.547H56.235v-2.213h14.473V61.547z
							 M70.709,57.952H56.235V55.74h14.473V57.952z"/>
					</g>
					<g>
						<polygon fill="#929497" points="66.035,78.078 66.553,78.078 74.055,70.574 74.055,70.057 66.035,70.057 						"/>
						<path fill="#929497" d="M70.921,54.569H56.447v-2.213h14.473V54.569z M53.036,48.761l-0.001,29.316H64.56l-0.001-9.496h9.496
							V48.761L53.036,48.761z M70.921,65.355H56.447v-2.213h14.474V65.355z M70.921,61.759H56.447v-2.212h14.473L70.921,61.759
							L70.921,61.759z M70.921,58.164H56.447v-2.213h14.473L70.921,58.164L70.921,58.164z"/>
					</g>
					<g>
						<polygon fill="#929497" points="66.247,78.29 66.764,78.29 74.267,70.786 74.267,70.269 66.246,70.269 						"/>
						<path fill="#929497" d="M71.133,54.781L56.659,54.78l0.001-2.212h14.473V54.781z M53.248,48.973v29.316l11.523-0.001v-9.496
							h9.495V48.973H53.248z M71.133,65.567l-14.474,0.001l0.001-2.213h14.473V65.567z M71.133,61.972H56.659l0.001-2.212h14.473
							V61.972z M71.133,58.377H56.659l0.001-2.213h14.473V58.377z"/>
					</g>
					<g>
						<polygon fill="#929497" points="66.46,78.502 66.977,78.502 74.48,70.999 74.48,70.481 66.459,70.481 						"/>
						<path fill="#929497" d="M71.345,54.994H56.872v-2.213h14.473C71.345,52.781,71.345,54.994,71.345,54.994z M53.461,49.186
							L53.46,78.503h11.524v-9.496h9.495V49.186H53.461z M71.346,65.78H56.872v-2.213h14.474
							C71.346,63.567,71.346,65.78,71.346,65.78z M71.346,62.184H56.872v-2.212h14.473L71.346,62.184z M71.346,58.589H56.872v-2.212
							h14.473L71.346,58.589z"/>
					</g>
					<g>
						<polygon fill="#929497" points="66.672,78.715 67.189,78.715 74.692,71.211 74.692,70.694 66.672,70.694 						"/>
						<path fill="#929497" d="M71.558,55.206H57.084v-2.213h14.473L71.558,55.206z M53.674,49.398l-0.001,29.317l11.524-0.001
							l-0.001-9.496h9.496V49.398H53.674z M71.558,65.992H57.084v-2.213h14.474V65.992z M71.558,62.397H57.084v-2.212h14.473
							L71.558,62.397L71.558,62.397z M71.558,58.802H57.084v-2.213h14.473L71.558,58.802L71.558,58.802z"/>
					</g>
					<g>
						<polygon fill="#929497" points="66.884,78.926 67.401,78.926 74.904,71.423 74.904,70.906 66.884,70.906 						"/>
						<path fill="#929497" d="M71.77,55.418l-14.473-0.001v-2.212H71.77V55.418z M53.885,49.611v29.316h11.523l-0.001-9.496h9.495
							v-19.82H53.885z M71.77,66.204l-14.474,0.001v-2.213H71.77L71.77,66.204z M71.77,62.609H57.296v-2.212H71.77V62.609z
							 M71.77,59.014H57.296v-2.213H71.77V59.014z"/>
					</g>
					<g>
						<polygon fill="#929497" points="67.096,79.139 67.614,79.139 75.116,71.635 75.116,71.118 67.096,71.118 						"/>
						<path fill="#929497" d="M71.982,55.63H57.508v-2.212h14.473V55.63z M54.098,49.823l-0.001,29.317h11.523l-0.001-9.496h9.495
							V49.823H54.098z M71.982,66.417H57.508v-2.213h14.474V66.417z M71.982,62.821H57.508v-2.213h14.473L71.982,62.821z
							 M71.982,59.226H57.508v-2.212h14.473L71.982,59.226z"/>
					</g>
					<g>
						<polygon fill="#929497" points="67.309,79.351 67.826,79.351 75.329,71.848 75.329,71.331 67.308,71.331 						"/>
						<path fill="#929497" d="M72.194,55.843L57.72,55.842l0.001-2.212h14.473V55.843z M54.31,50.036v29.316h11.523v-9.497h9.495
							V50.035L54.31,50.036z M72.195,66.629H57.721v-2.213h14.474V66.629z M72.194,63.034H57.721l0.001-2.213h14.473L72.194,63.034
							L72.194,63.034z M72.194,59.439H57.721l0.001-2.213h14.473L72.194,59.439L72.194,59.439z"/>
					</g>
					<g>
						<polygon fill="#929497" points="67.521,79.563 68.039,79.563 75.541,72.061 75.541,71.543 67.521,71.543 						"/>
						<path fill="#929497" d="M72.406,56.056l-14.473-0.001v-2.212h14.473V56.056z M54.522,50.247v29.317h11.523v-9.496h9.495
							V50.247H54.522z M72.407,66.841l-14.474,0.001v-2.213h14.473L72.407,66.841z M72.407,63.246H57.933v-2.212h14.473
							L72.407,63.246z M72.407,59.65H57.933v-2.212h14.473L72.407,59.65z"/>
					</g>
					<g>
						<polygon fill="#929497" points="67.734,79.776 68.25,79.776 75.754,72.273 75.753,71.755 67.733,71.755 						"/>
						<path fill="#929497" d="M72.619,56.268H58.145v-2.213h14.473V56.268z M54.735,50.46l-0.001,29.317h11.524V70.28h9.495V50.46
							H54.735z M72.62,67.054H58.145v-2.213H72.62V67.054z M72.62,63.458H58.145v-2.212h14.473L72.62,63.458z M72.62,59.863H58.145
							v-2.212h14.473L72.62,59.863z"/>
					</g>
					<g>
						<polygon fill="#929497" points="67.946,79.988 68.463,79.988 75.966,72.485 75.965,71.967 67.946,71.967 						"/>
						<path fill="#929497" d="M72.832,56.48H58.357l0.001-2.213h14.473V56.48z M54.947,50.672v29.316H66.47v-9.496h9.495
							l0.001-19.821L54.947,50.672z M72.832,67.265H58.357v-2.212h14.474L72.832,67.265z M72.832,63.67H58.357l0.001-2.212h14.473
							V63.67z M72.832,60.075H58.357l0.001-2.213h14.473V60.075z"/>
					</g>
					<g>
						<polygon fill="#929497" points="68.158,80.2 68.675,80.2 76.178,72.697 76.178,72.18 68.158,72.18 						"/>
						<path fill="#929497" d="M73.044,56.692l-14.474-0.001V54.48h14.473L73.044,56.692L73.044,56.692z M55.159,50.884V80.2h11.523
							v-9.496h9.495V50.884H55.159z M73.044,67.478H58.569v-2.213h14.473L73.044,67.478z M73.044,63.883H58.569V61.67h14.473
							L73.044,63.883L73.044,63.883z M73.044,60.287H58.569v-2.212h14.473L73.044,60.287L73.044,60.287z"/>
					</g>
					<g>
						<polygon fill="#929497" points="68.37,80.412 68.887,80.412 76.39,72.909 76.39,72.392 68.37,72.392 						"/>
						<path fill="#929497" d="M73.256,56.904l-14.474-0.001l0.001-2.212h14.473V56.904z M55.371,51.097v29.316h11.523v-9.495h9.495
							V51.096L55.371,51.097z M73.256,67.69l-14.474,0.001v-2.213h14.474V67.69z M73.256,64.095H58.782l0.001-2.212h14.473V64.095z
							 M73.256,60.5H58.782l0.001-2.213h14.473V60.5z"/>
					</g>
					<g>
						<polygon fill="#929497" points="68.583,80.625 69.1,80.625 76.603,73.122 76.602,72.604 68.582,72.604 						"/>
						<path fill="#929497" d="M73.468,57.117H58.995v-2.213h14.474L73.468,57.117z M55.584,51.309l-0.001,29.317h11.524v-9.497
							h9.495V51.308L55.584,51.309z M73.468,67.902H58.994l0.001-2.213h14.474L73.468,67.902L73.468,67.902z M73.468,64.307H58.995
							v-2.212h14.474L73.468,64.307L73.468,64.307z M73.468,60.712H58.995v-2.213h14.474L73.468,60.712L73.468,60.712z"/>
					</g>
					<g>
						<polygon fill="#929497" points="68.795,80.837 69.312,80.837 76.815,73.335 76.815,72.816 68.794,72.816 						"/>
						<path fill="#929497" d="M73.68,57.329H59.207v-2.213h14.473L73.68,57.329z M55.796,51.521v29.316h11.523v-9.495h9.496V51.521
							H55.796z M73.681,68.115H59.207v-2.213h14.474V68.115z M73.68,64.52H59.207v-2.213h14.473L73.68,64.52L73.68,64.52z
							 M73.68,60.924H59.207v-2.212h14.473L73.68,60.924L73.68,60.924z"/>
					</g>
					<g>
						<polygon fill="#929497" points="69.007,81.05 69.524,81.05 77.027,73.547 77.027,73.029 69.007,73.029 						"/>
						<path fill="#929497" d="M73.892,57.541l-14.473-0.001v-2.212h14.473V57.541z M56.008,51.734V81.05h11.523v-9.496h9.495V51.733
							L56.008,51.734z M73.893,68.328H59.419v-2.213h14.474V68.328z M73.893,64.732H59.419V62.52h14.473V64.732z M73.893,61.137
							H59.419v-2.213h14.473V61.137z"/>
					</g>
					<g>
						<polygon fill="#929497" points="69.219,81.262 69.737,81.262 77.24,73.759 77.239,73.241 69.219,73.241 						"/>
						<path fill="#929497" d="M74.105,57.753l-14.473-0.001v-2.212h14.473V57.753z M56.221,51.946v29.316h11.523v-9.496h9.495
							V51.945L56.221,51.946z M74.105,68.54H59.631l0.001-2.213h14.474L74.105,68.54L74.105,68.54z M74.105,64.944H59.632v-2.213
							h14.473V64.944z M74.105,61.349H59.632v-2.213h14.473V61.349z"/>
					</g>
					<g>
						<polygon fill="#929497" points="69.431,81.474 69.95,81.474 77.452,73.971 77.452,73.453 69.431,73.453 						"/>
						<path fill="#929497" d="M74.317,57.966H59.844v-2.213h14.473V57.966z M56.433,52.158v29.316h11.523v-9.495h9.495V52.158
							H56.433z M74.318,68.752H59.844v-2.213h14.474V68.752z M74.318,65.157H59.844v-2.213h14.473L74.318,65.157z M74.318,61.561
							H59.844v-2.212h14.473L74.318,61.561z"/>
					</g>
					<g>
						<polygon fill="#929497" points="69.644,81.686 70.162,81.686 77.664,74.183 77.664,73.666 69.643,73.666 						"/>
						<path fill="#929497" d="M74.529,58.178H60.056v-2.213h14.473V58.178z M56.645,52.37v29.317h11.523v-9.496h9.495V52.37H56.645z
							 M74.53,68.963l-14.474,0.001v-2.213H74.53V68.963z M74.53,65.368H60.056v-2.212h14.473L74.53,65.368z M74.53,61.773H60.056
							V59.56h14.473L74.53,61.773z"/>
					</g>
					<g>
						<polygon fill="#929497" points="69.856,81.899 70.374,81.899 77.877,74.396 77.876,73.878 69.856,73.878 						"/>
						<path fill="#929497" d="M74.742,58.391L60.269,58.39v-2.213h14.473V58.391z M56.858,52.583l-0.001,29.316h11.524v-9.496h9.495
							V52.582L56.858,52.583z M74.743,69.176H60.269v-2.213h14.474V69.176z M74.743,65.581H60.269v-2.213h14.473L74.743,65.581z
							 M74.743,61.986H60.269v-2.213h14.473L74.743,61.986z"/>
					</g>
					<g>
						<polygon fill="#929497" points="70.069,82.111 70.586,82.111 78.089,74.608 78.089,74.09 70.069,74.09 						"/>
						<path fill="#929497" d="M74.954,58.603l-14.473-0.001l0.001-2.212h14.473L74.954,58.603z M57.07,52.795l-0.001,29.316h11.524
							l-0.001-9.496h9.496v-19.82H57.07z M74.955,69.389H60.481v-2.213h14.474V69.389z M74.955,65.793H60.481l0.001-2.212h14.473
							V65.793z M74.955,62.198H60.481l0.001-2.213h14.473V62.198z"/>
					</g>
					<g>
						<polygon fill="#929497" points="70.281,82.323 70.798,82.323 78.301,74.82 78.301,74.302 70.28,74.302 						"/>
						<path fill="#929497" d="M75.167,58.815l-14.473-0.001v-2.212h14.473V58.815z M57.282,53.007v29.317h11.523v-9.497h9.495
							V53.006L57.282,53.007z M75.167,69.601l-14.474,0.001v-2.213h14.474V69.601z M75.167,66.006H60.693v-2.213h14.473V66.006z
							 M75.167,62.41H60.693v-2.213h14.473V62.41z"/>
					</g>
					<g>
						<polygon fill="#929497" points="70.493,82.535 71.011,82.535 78.513,75.032 78.513,74.515 70.493,74.515 						"/>
						<path fill="#929497" d="M75.379,59.027H60.905v-2.213h14.474L75.379,59.027z M57.495,53.219l-0.001,29.317h11.524V73.04h9.496
							V53.219H57.495z M75.379,69.813H60.905l0.001-2.213H75.38L75.379,69.813L75.379,69.813z M75.379,66.218H60.905v-2.213h14.473
							L75.379,66.218z M75.379,62.622H60.905V60.41h14.473L75.379,62.622z"/>
					</g>
					<g>
						<polygon fill="#929497" points="70.705,82.748 71.223,82.748 78.726,75.245 78.726,74.727 70.705,74.727 						"/>
						<path fill="#929497" d="M75.591,59.24l-14.473-0.001v-2.212h14.473V59.24z M57.707,53.432l-0.001,29.316h11.524l-0.001-9.496
							h9.496V53.431L57.707,53.432z M75.592,70.025H61.117v-2.213h14.474L75.592,70.025L75.592,70.025z M75.592,66.43H61.117v-2.212
							h14.473L75.592,66.43z M75.592,62.835H61.117v-2.213h14.473L75.592,62.835z"/>
					</g>
					<g>
						<polygon fill="#929497" points="70.918,82.96 71.435,82.96 78.938,75.457 78.938,74.939 70.917,74.939 						"/>
						<path fill="#929497" d="M75.803,59.452L61.33,59.451v-2.212h14.473V59.452z M57.919,53.644L57.918,82.96h11.523v-9.496h9.495
							V53.643L57.919,53.644z M75.804,70.237H61.33v-2.213h14.474V70.237z M75.804,66.642H61.33v-2.213h14.473L75.804,66.642z
							 M75.804,63.047H61.33v-2.213h14.473L75.804,63.047z"/>
					</g>
					<g>
						<polygon fill="#929497" points="71.13,83.172 71.647,83.172 79.15,75.669 79.15,75.151 71.13,75.151 						"/>
						<path fill="#929497" d="M76.016,59.664H61.542v-2.213l14.473,0.001L76.016,59.664L76.016,59.664z M58.131,53.856v29.316
							h11.523l-0.001-9.495h9.495V53.856H58.131z M76.016,70.45H61.542l0.001-2.213h14.473V70.45z M76.016,66.855H61.542v-2.213
							h14.473L76.016,66.855L76.016,66.855z M76.016,63.259H61.542v-2.213h14.473L76.016,63.259L76.016,63.259z"/>
					</g>
					<g>
						<polygon fill="#929497" points="71.342,83.385 71.859,83.385 79.362,75.881 79.362,75.363 71.342,75.364 						"/>
						<path fill="#929497" d="M76.228,59.876l-14.473-0.001v-2.212h14.473V59.876z M58.344,54.069v29.317h11.524l-0.001-9.496h9.496
							V54.069H58.344z M76.228,70.663H61.754l0.001-2.213h14.474V70.663z M76.228,67.067H61.754v-2.213h14.473L76.228,67.067z
							 M76.228,63.472H61.754V61.26h14.473L76.228,63.472z"/>
					</g>
					<g>
						<polygon fill="#929497" points="71.554,83.597 72.072,83.597 79.574,76.094 79.574,75.577 71.554,75.577 						"/>
						<path fill="#929497" d="M76.44,60.089l-14.473-0.001v-2.213H76.44V60.089z M58.556,54.281v29.317h11.523v-9.496h9.495V54.281
							H58.556z M76.44,70.875H61.966v-2.213H76.44V70.875z M76.44,67.279H61.966v-2.213H76.44L76.44,67.279z M76.44,63.684H61.966
							v-2.212H76.44L76.44,63.684z"/>
					</g>
					<g>
						<polygon fill="#929497" points="71.766,83.809 72.284,83.809 79.787,76.306 79.787,75.789 71.766,75.789 						"/>
						<path fill="#929497" d="M76.652,60.301H62.179l0.001-2.213h14.473L76.652,60.301L76.652,60.301z M58.768,54.493v29.316h11.523
							v-9.496h9.495v-19.82H58.768z M76.653,71.087l-14.474,0.001v-2.213h14.474V71.087z M76.653,67.491H62.179l0.001-2.212h14.473
							V67.491z M76.653,63.896H62.179l0.001-2.213h14.473V63.896z"/>
					</g>
					<g>
						<polygon fill="#929497" points="71.979,84.021 72.497,84.021 79.999,76.518 79.999,76.001 71.979,76.001 						"/>
						<path fill="#929497" d="M76.864,60.513l-14.473-0.001V58.3h14.473L76.864,60.513L76.864,60.513z M58.98,54.705L58.98,84.021
							h11.524l-0.001-9.496h9.496v-19.82H58.98z M76.865,71.299H62.391l0.001-2.213h14.474L76.865,71.299L76.865,71.299z
							 M76.865,67.703H62.392v-2.212h14.473V67.703z M76.865,64.108H62.392v-2.213h14.473V64.108z"/>
					</g>
					<g>
						<polygon fill="#929497" points="72.192,84.234 72.709,84.234 80.212,76.73 80.212,76.213 72.191,76.213 						"/>
						<path fill="#929497" d="M77.077,60.726l-14.473-0.001v-2.213h14.473V60.726z M59.192,54.917v29.317h11.523v-9.496h9.495
							V54.917H59.192z M77.078,71.512H62.604v-2.213h14.474L77.078,71.512z M77.078,67.917H62.604v-2.213h14.473L77.078,67.917z
							 M77.078,64.321H62.604v-2.212h14.473L77.078,64.321z"/>
					</g>
					<g>
						<polygon fill="#929497" points="72.404,84.446 72.921,84.446 80.424,76.943 80.424,76.425 72.403,76.425 						"/>
						<path fill="#929497" d="M77.289,60.938l-14.473-0.001l0.001-2.212H77.29L77.289,60.938L77.289,60.938z M59.405,55.131v29.316
							h11.523v-9.496h9.495v-19.82H59.405z M77.29,71.724H62.816v-2.213H77.29V71.724z M77.29,68.129H62.816l0.001-2.213H77.29
							V68.129z M77.29,64.533H62.816l0.001-2.213H77.29V64.533z"/>
					</g>
					<g>
						<polygon fill="#929497" points="72.616,84.658 73.133,84.658 80.636,77.155 80.636,76.638 72.616,76.638 						"/>
						<path fill="#929497" d="M77.502,61.15L63.028,61.15v-2.212h14.473L77.502,61.15L77.502,61.15z M59.618,55.342l-0.001,29.317
							h11.524v-9.496h9.495V55.342H59.618z M77.502,71.936H63.028v-2.213h14.474V71.936z M77.502,68.341H63.028v-2.212h14.473
							L77.502,68.341z M77.502,64.745H63.028v-2.212h14.473L77.502,64.745z"/>
					</g>
					<g>
						<polygon fill="#929497" points="72.828,84.871 73.346,84.871 80.849,77.367 80.848,76.85 72.828,76.85 						"/>
						<path fill="#929497" d="M77.714,61.362H63.241V59.15h14.473L77.714,61.362z M59.83,55.554v29.317h11.523v-9.497l9.495,0.001
							V55.554H59.83z M77.715,72.148l-14.474,0.001v-2.213h14.474L77.715,72.148z M77.714,68.553H63.241v-2.212h14.473V68.553z
							 M77.714,64.957H63.241v-2.213h14.473V64.957z"/>
					</g>
					<g>
						<polygon fill="#929497" points="73.04,85.082 73.558,85.082 81.06,77.579 81.06,77.063 73.04,77.063 						"/>
						<path fill="#929497" d="M77.926,61.575l-14.473-0.001v-2.212h14.473V61.575z M60.042,55.767v29.315h11.523l-0.001-9.495h9.496
							v-19.82H60.042z M77.926,72.36H63.453v-2.213h14.473V72.36z M77.926,68.765H63.453v-2.213h14.473V68.765z M77.926,65.17
							H63.453v-2.213h14.473L77.926,65.17z"/>
					</g>
					<g>
						<polygon fill="#929497" points="73.253,85.295 73.77,85.295 81.273,77.792 81.273,77.274 73.252,77.274 						"/>
						<path fill="#929497" d="M78.138,61.786H63.665l0.001-2.212h14.473V61.786z M60.254,55.979v29.317h11.523L71.777,75.8h9.496
							V55.979H60.254z M78.139,72.573H63.665V70.36h14.473L78.139,72.573z M78.139,68.978H63.665l0.001-2.213h14.473L78.139,68.978z
							 M78.139,65.382H63.665l0.001-2.212h14.473L78.139,65.382z"/>
					</g>
					<g>
						<polygon fill="#929497" points="73.466,85.508 73.982,85.508 81.485,78.005 81.485,77.487 73.465,77.487 						"/>
						<path fill="#929497" d="M78.351,62l-14.474-0.001l0.001-2.212h14.473V62z M60.466,56.192v29.317H71.99v-9.497h9.495
							l0.001-19.821L60.466,56.192z M78.352,72.785H63.877v-2.213H78.35L78.352,72.785z M78.352,69.19H63.877l0.001-2.212h14.473
							L78.352,69.19z M78.352,65.594H63.877l0.001-2.212h14.473L78.352,65.594z"/>
					</g>
					<g>
						<polygon fill="#929497" points="73.678,85.72 74.195,85.72 81.697,78.217 81.697,77.699 73.678,77.699 						"/>
						<path fill="#929497" d="M78.563,62.212l-14.473-0.001v-2.212h14.473V62.212z M60.679,56.404V85.72h11.523l-0.001-9.496h9.496
							v-19.82H60.679z M78.564,72.997l-14.474,0.001v-2.213h14.474V72.997z M78.564,69.402H64.089V67.19h14.474V69.402z
							 M78.564,65.807H64.089v-2.213l14.473,0.001L78.564,65.807z"/>
					</g>
					<g>
						<polygon fill="#929497" points="73.89,85.932 74.407,85.932 81.91,78.429 81.909,77.912 73.89,77.912 						"/>
						<path fill="#929497" d="M78.776,62.424l-14.473-0.001v-2.212h14.473V62.424z M60.891,56.616l-0.001,29.316h11.523
							l-0.001-9.496h9.495V56.616L60.891,56.616z M78.776,73.21H64.301l0.001-2.213h14.474V73.21z M78.776,69.614H64.302v-2.212
							h14.473V69.614z M78.776,66.019H64.302v-2.212h14.473V66.019z"/>
					</g>
					<g>
						<polygon fill="#929497" points="74.102,86.144 74.62,86.144 82.122,78.641 82.122,78.124 74.102,78.124 						"/>
						<path fill="#929497" d="M78.987,62.636l-14.474-0.001l0.001-2.212h14.473V62.636z M61.103,56.828v29.316h11.524l-0.001-9.496
							h9.495l0.001-19.821L61.103,56.828z M78.988,73.422H64.514l0.001-2.213h14.474L78.988,73.422z M78.988,69.827H64.514
							l0.001-2.212h14.473V69.827z M78.988,66.231H64.514l0.001-2.213h14.473V66.231z"/>
					</g>
					<g>
						<polygon fill="#929497" points="74.314,86.356 74.831,86.356 82.334,78.853 82.334,78.336 74.313,78.336 						"/>
						<path fill="#929497" d="M79.2,62.849l-14.474-0.001v-2.212l14.473,0.001L79.2,62.849L79.2,62.849z M61.315,57.04v29.316
							h11.523v-9.495h9.495V57.04H61.315z M79.2,73.635H64.726v-2.213H79.2V73.635z M79.2,70.04H64.726v-2.213h14.473L79.2,70.04
							L79.2,70.04z M79.2,66.444H64.726v-2.212h14.473L79.2,66.444L79.2,66.444z"/>
					</g>
					<g>
						<polygon fill="#929497" points="74.527,86.569 75.044,86.569 82.547,79.066 82.547,78.548 74.526,78.548 						"/>
						<path fill="#929497" d="M79.412,63.061H64.939v-2.213h14.473V63.061z M61.528,57.253V86.57h11.523v-9.496h9.495V57.253H61.528
							z M79.413,73.847H64.938v-2.213h14.473L79.413,73.847z M79.412,70.251H64.939v-2.212h14.473V70.251z M79.413,66.656H64.939
							v-2.212h14.473L79.413,66.656z"/>
					</g>
					<g>
						<polygon fill="#929497" points="74.739,86.781 75.256,86.781 82.759,79.278 82.759,78.761 74.739,78.761 						"/>
						<path fill="#929497" d="M79.625,63.273l-14.473-0.001l0.001-2.212h14.473L79.625,63.273L79.625,63.273z M61.74,57.466v29.316
							h11.523v-9.496h9.495l0.001-19.821L61.74,57.466z M79.625,74.059H65.151v-2.213h14.473L79.625,74.059z M79.625,70.464H65.151
							l0.001-2.212h14.473V70.464z M79.625,66.869l-14.473-0.001l0.001-2.212h14.473L79.625,66.869L79.625,66.869z"/>
					</g>
					<g>
						<polygon fill="#929497" points="74.951,86.993 75.468,86.993 82.971,79.49 82.971,78.973 74.951,78.973 						"/>
						<path fill="#929497" d="M79.837,63.485l-14.473-0.001v-2.212h14.473V63.485z M61.952,57.678v29.316h11.523v-9.496l9.495,0.001
							V57.678H61.952z M79.837,74.271l-14.474,0.001v-2.213h14.473L79.837,74.271z M79.837,70.676H65.363v-2.212h14.473V70.676z
							 M79.837,67.081H65.363v-2.213l14.473,0.001V67.081z"/>
					</g>
					<g>
						<polygon fill="#929497" points="75.163,87.205 75.681,87.205 83.184,79.702 83.183,79.185 75.163,79.185 						"/>
						<path fill="#929497" d="M80.049,63.697H65.575v-2.213h14.473L80.049,63.697L80.049,63.697z M62.165,57.89v29.316h11.524V77.71
							h9.495V57.89H62.165z M80.05,74.484H65.575l0.001-2.213H80.05L80.05,74.484z M80.049,70.888H65.575v-2.212h14.473
							L80.049,70.888z M80.05,67.292H65.575V65.08h14.473L80.05,67.292z"/>
					</g>
					<g>
						<polygon fill="#929497" points="75.376,87.418 75.893,87.418 83.396,79.914 83.396,79.397 75.375,79.397 						"/>
						<path fill="#929497" d="M80.261,63.91l-14.474-0.001l0.001-2.212h14.473V63.91z M62.377,58.102v29.317H73.9v-9.496h9.495
							l0.001-19.821L62.377,58.102z M80.262,74.696H65.788v-2.213h14.474V74.696z M80.262,71.1H65.788l0.001-2.212h14.473V71.1z
							 M80.261,67.505H65.788l0.001-2.212h14.473L80.261,67.505L80.261,67.505z"/>
					</g>
					<g>
						<polygon fill="#929497" points="75.588,87.63 76.105,87.63 83.608,80.128 83.608,79.61 75.588,79.61 						"/>
						<path fill="#929497" d="M80.473,64.123l-14.474-0.001V61.91h14.473L80.473,64.123L80.473,64.123z M62.589,58.315v29.316
							h11.523v-9.496l9.495,0.001V58.314L62.589,58.315z M80.474,74.908L66,74.909v-2.213h14.474V74.908z M80.474,71.313H66V69.1
							l14.473,0.001L80.474,71.313z M80.474,67.717H66v-2.212l14.473,0.001L80.474,67.717z"/>
					</g>
					<g>
						<polygon fill="#929497" points="75.8,87.843 76.317,87.843 83.82,80.34 83.82,79.822 75.8,79.822 						"/>
						<path fill="#929497" d="M80.686,64.335H66.212l0.001-2.213h14.473L80.686,64.335C80.687,64.335,80.686,64.335,80.686,64.335z
							 M62.802,58.527v29.316h11.524v-9.495h9.495V58.527H62.802z M80.687,75.121H66.212v-2.213h14.474V75.121z M80.687,71.525
							H66.212l0.001-2.212h14.473V71.525z M80.687,67.93H66.212l0.001-2.212h14.473V67.93z"/>
					</g>
					<g>
						<polygon fill="#929497" points="76.013,88.055 76.53,88.055 84.032,80.551 84.032,80.034 76.013,80.034 						"/>
						<path fill="#929497" d="M80.898,64.547l-14.473-0.001l0.001-2.212h14.474L80.898,64.547z M63.014,58.739l-0.001,29.317h11.524
							v-9.496l9.495-0.001l0.001-19.821L63.014,58.739z M80.899,75.333H66.424l0.001-2.213h14.474L80.899,75.333L80.899,75.333z
							 M80.899,71.737H66.424l0.001-2.212h14.474L80.899,71.737L80.899,71.737z M80.899,68.142H66.424l0.001-2.213h14.474
							L80.899,68.142L80.899,68.142z"/>
					</g>
					<g>
						<polygon fill="#929497" points="76.225,88.267 76.742,88.267 84.245,80.764 84.244,80.246 76.225,80.246 						"/>
						<path fill="#929497" d="M81.111,64.759l-14.473-0.001v-2.212H81.11L81.111,64.759L81.111,64.759z M63.226,58.951v29.315
							h11.523v-9.495h9.495V58.951L63.226,58.951z M81.111,75.545H66.637v-2.213h14.473L81.111,75.545z M81.111,71.95H66.637v-2.213
							l14.473,0.001L81.111,71.95z M81.111,68.354H66.637v-2.212H81.11L81.111,68.354z"/>
					</g>
					<g>
						<polygon fill="#929497" points="76.437,88.479 76.955,88.479 84.457,80.977 84.457,80.459 76.437,80.459 						"/>
						<path fill="#929497" d="M81.323,64.972l-14.473-0.001v-2.212h14.473V64.972z M63.438,59.164V88.48h11.523v-9.495h9.496V59.163
							L63.438,59.164z M81.323,75.757H66.849l0.001-2.213h14.473V75.757z M81.323,72.162H66.849V69.95h14.473L81.323,72.162z
							 M81.323,68.566l-14.474,0.001v-2.213h14.473L81.323,68.566z"/>
					</g>
					<g>
						<polygon fill="#929497" points="76.65,88.692 77.167,88.692 84.67,81.188 84.67,80.671 76.649,80.671 						"/>
						<path fill="#929497" d="M81.535,65.184l-14.474-0.001l0.001-2.212l14.473-0.001V65.184z M63.651,59.376L63.65,88.693h11.524
							v-9.496l9.495-0.001l0.001-19.821L63.651,59.376z M81.535,75.969H67.061l0.001-2.213h14.473V75.969z M81.535,72.374H67.061
							l0.001-2.212l14.473-0.001V72.374z M81.535,68.779l-14.474-0.001l0.001-2.212h14.473V68.779z"/>
					</g>
					<g>
						<polygon fill="#929497" points="76.862,88.904 77.379,88.904 84.882,81.401 84.882,80.883 76.861,80.883 						"/>
						<path fill="#929497" d="M81.747,65.396H67.274v-2.213h14.473V65.396z M63.863,59.588v29.316h11.523v-9.495h9.495V59.588
							H63.863z M81.748,76.182H67.274v-2.213h14.474V76.182z M81.748,72.586H67.274v-2.212l14.473,0.001L81.748,72.586z
							 M81.748,68.991H67.274v-2.212h14.473L81.748,68.991z"/>
					</g>
					<g>
						<polygon fill="#929497" points="77.074,89.117 77.591,89.117 85.094,81.613 85.094,81.095 77.074,81.095 						"/>
						<path fill="#929497" d="M81.96,65.608l-14.473-0.001v-2.212H81.96V65.608z M64.075,59.801v29.316h11.523v-9.496h9.495
							L85.094,59.8L64.075,59.801z M81.96,76.395H67.486v-2.213H81.96V76.395z M81.96,72.799l-14.474,0.001v-2.212H81.96
							L81.96,72.799z M81.96,69.203l-14.474,0.001v-2.213H81.96L81.96,69.203z"/>
					</g>
					<g>
						<polygon fill="#929497" points="77.286,89.329 77.803,89.329 85.306,81.826 85.306,81.308 77.286,81.308 						"/>
						<path fill="#929497" d="M82.172,65.82L67.698,65.82v-2.212l14.474-0.001L82.172,65.82z M64.288,60.013v29.316h11.523v-9.497
							h9.495V60.012L64.288,60.013z M82.172,76.606H67.698v-2.213h14.474V76.606z M82.172,73.011H67.698v-2.213h14.474V73.011z
							 M82.172,69.416H67.698v-2.213h14.474V69.416z"/>
					</g>
					<g>
						<polygon fill="#929497" points="77.499,89.54 78.017,89.54 85.519,82.038 85.518,81.52 77.498,81.52 						"/>
						<path fill="#929497" d="M82.384,66.033L67.91,66.032l0.001-2.212h14.473V66.033z M64.5,60.225v29.316h11.523v-9.495h9.495
							l0.001-19.821H64.5z M82.385,76.819H67.911v-2.213h14.474C82.385,74.606,82.385,76.819,82.385,76.819z M82.385,73.223H67.911
							l0.001-2.212h14.473V73.223z M82.385,69.628H67.911l0.001-2.212h14.473V69.628z"/>
					</g>
					<g>
						<polygon fill="#929497" points="77.711,89.753 78.228,89.753 85.732,82.25 85.731,81.733 77.71,81.733 						"/>
						<path fill="#929497" d="M82.597,66.245H68.123v-2.213h14.474V66.245z M64.712,60.437v29.317h11.523v-9.496h9.495V60.437
							H64.712z M82.597,77.03l-14.474,0.001v-2.213h14.474V77.03z M82.597,73.435H68.123v-2.212h14.474V73.435z M82.597,69.84
							H68.123v-2.213h14.474V69.84z"/>
					</g>
					<g>
						<polygon fill="#929497" points="77.923,89.966 78.441,89.966 85.944,82.463 85.943,81.945 77.923,81.945 						"/>
						<path fill="#929497" d="M82.808,66.458l-14.473-0.001v-2.213h14.473L82.808,66.458z M64.924,60.649v29.317h11.523V80.47h9.495
							V60.649H64.924z M82.809,77.243H68.335V75.03h14.474V77.243z M82.809,73.648H68.336v-2.213h14.473V73.648z M82.809,70.052
							H68.336V67.84l14.473-0.001V70.052z"/>
					</g>
					<g>
						<polygon fill="#929497" points="78.136,90.178 78.653,90.178 86.156,82.674 86.156,82.157 78.136,82.157 						"/>
						<path fill="#929497" d="M83.022,66.67l-14.474-0.001v-2.212h14.473L83.022,66.67L83.022,66.67z M65.138,60.862l-0.001,29.316
							h11.524l-0.001-9.496h9.495v-19.82H65.138z M83.022,77.456H68.548v-2.213l14.474-0.001
							C83.022,75.242,83.022,77.456,83.022,77.456z M83.022,73.861H68.548v-2.212h14.473L83.022,73.861z M83.022,70.265H68.548
							v-2.213h14.473L83.022,70.265z"/>
					</g>
					<g>
						<polygon fill="#929497" points="78.348,90.39 78.865,90.39 86.368,82.887 86.368,82.369 78.347,82.369 						"/>
						<path fill="#929497" d="M83.234,66.882L68.76,66.882V64.67h14.473V66.882z M65.349,61.074V90.39h11.523v-9.495h9.495V61.074
							L65.349,61.074z M83.234,77.668H68.76l-0.001-2.213h14.474L83.234,77.668z M83.234,74.073H68.76V71.86h14.473L83.234,74.073z
							 M83.234,70.477L68.76,70.477v-2.213h14.473L83.234,70.477z"/>
					</g>
					<g>
						<polygon fill="#929497" points="78.56,90.602 79.077,90.602 86.58,83.1 86.58,82.582 78.56,82.582 						"/>
						<path fill="#929497" d="M83.446,67.094H68.972v-2.213h14.474L83.446,67.094z M65.561,61.286l-0.001,29.317h11.524v-9.496
							h9.495V61.286L65.561,61.286z M83.446,77.88H68.971v-2.213h14.474V77.88z M83.446,74.285H68.972v-2.213h14.474L83.446,74.285
							L83.446,74.285z M83.446,70.689H68.972v-2.212l14.474-0.001L83.446,70.689L83.446,70.689z"/>
					</g>
					<g>
						<polygon fill="#929497" points="78.772,90.815 79.29,90.815 86.793,83.311 86.793,82.794 78.772,82.794 						"/>
						<path fill="#929497" d="M83.658,67.306H69.184l0.001-2.212h14.473V67.306z M65.774,61.498l-0.001,29.317h11.524v-9.496h9.495
							V61.498H65.774z M83.659,78.092H69.184V75.88l14.474-0.001L83.659,78.092L83.659,78.092z M83.659,74.497H69.184l0.001-2.212
							h14.473L83.659,74.497z M83.659,70.901H69.184l0.001-2.212h14.473L83.659,70.901z"/>
					</g>
					<g>
						<polygon fill="#929497" points="78.985,91.027 79.502,91.027 87.005,83.524 87.005,83.006 78.984,83.006 						"/>
						<path fill="#929497" d="M83.87,67.518H69.397v-2.212H83.87V67.518z M65.985,61.711v29.316h11.523v-9.496h9.495V61.71
							L65.985,61.711z M83.871,78.305H69.397v-2.213h14.474V78.305z M83.871,74.709H69.397v-2.213H83.87L83.871,74.709z
							 M83.871,71.113l-14.474,0.001v-2.213H83.87L83.871,71.113z"/>
					</g>
					<g>
						<polygon fill="#929497" points="79.197,91.239 79.714,91.239 87.217,83.736 87.217,83.218 79.197,83.218 						"/>
						<path fill="#929497" d="M84.083,67.731H69.609v-2.213h14.473V67.731z M66.198,61.923v29.316h11.523v-9.496h9.495v-19.82
							H66.198z M84.083,78.517H69.609v-2.213h14.475L84.083,78.517z M84.083,74.922H69.609V72.71h14.473V74.922z M84.083,71.327
							H69.609v-2.213l14.473,0.001V71.327z"/>
					</g>
					<g>
						<polygon fill="#929497" points="79.409,91.452 79.927,91.452 87.429,83.949 87.429,83.43 79.409,83.43 						"/>
						<path fill="#929497" d="M84.295,67.943l-14.474-0.001l0.001-2.212h14.473V67.943z M66.411,62.136L66.41,91.452h11.524v-9.496
							h9.495l0.001-19.821H66.411z M84.295,78.73H69.821v-2.213h14.474V78.73z M84.295,75.134H69.821l0.001-2.212h14.473
							L84.295,75.134z M84.295,71.539H69.821l0.001-2.212h14.473L84.295,71.539z"/>
					</g>
					<g>
						<polygon fill="#929497" points="79.621,91.664 80.139,91.664 87.641,84.161 87.641,83.644 79.621,83.644 						"/>
						<path fill="#929497" d="M84.507,68.155H70.033v-2.213h14.473V68.155z M66.623,62.348v29.317h11.523v-9.496h9.495V62.348
							H66.623z M84.507,78.942H70.033v-2.213h14.474V78.942z M84.507,75.346l-14.474,0.001v-2.213h14.473L84.507,75.346z
							 M84.507,71.751H70.033v-2.212h14.473L84.507,71.751z"/>
					</g>
					<g>
						<polygon fill="#929497" points="79.833,91.876 80.351,91.876 87.854,84.373 87.854,83.855 79.833,83.855 						"/>
						<path fill="#929497" d="M84.719,68.368H70.246v-2.213h14.473C84.719,66.155,84.719,68.368,84.719,68.368z M66.835,62.56
							v29.316h11.523V82.38h9.495V62.56H66.835z M84.72,79.154H70.246v-2.213H84.72C84.72,76.941,84.72,79.154,84.72,79.154z
							 M84.72,75.558H70.246v-2.212h14.473L84.72,75.558z M84.72,71.963H70.246v-2.213l14.473,0.001L84.72,71.963z"/>
					</g>
					<g>
						<polygon fill="#929497" points="80.046,92.088 80.564,92.088 88.066,84.585 88.066,84.068 80.046,84.068 						"/>
						<path fill="#929497" d="M84.932,68.58l-14.474-0.001l0.001-2.212h14.473V68.58z M67.047,62.772l-0.001,29.316h11.524v-9.496
							h9.495l0.001-19.82H67.047z M84.933,79.366H70.458l0.001-2.213l14.474-0.001V79.366z M84.933,75.77H70.458l0.001-2.212h14.473
							L84.933,75.77z M84.933,72.175H70.458l0.001-2.213h14.473L84.933,72.175z"/>
					</g>
					<g>
						<polygon fill="#929497" points="80.259,92.301 80.776,92.301 88.279,84.797 88.279,84.28 80.258,84.28 						"/>
						<path fill="#929497" d="M85.144,68.792H70.671v-2.213h14.473V68.792z M67.259,62.985v29.317h11.523v-9.496h9.495l0.001-19.821
							H67.259z M85.145,79.579H70.671v-2.213h14.474V79.579z M85.145,75.983l-14.474,0.001v-2.213h14.473L85.145,75.983z
							 M85.145,72.388H70.671v-2.212h14.473L85.145,72.388z"/>
					</g>
					<g>
						<polygon fill="#929497" points="80.471,92.513 80.988,92.513 88.491,85.01 88.491,84.493 80.471,84.492 						"/>
						<path fill="#929497" d="M85.356,69.005l-14.473-0.001v-2.212h14.473C85.356,66.793,85.356,69.005,85.356,69.005z
							 M67.472,63.197v29.316h11.523v-9.496h9.496v-19.82H67.472z M85.357,79.791H70.882v-2.213h14.475
							C85.357,77.578,85.357,79.791,85.357,79.791z M85.357,76.196H70.883v-2.213l14.473,0.001L85.357,76.196z M85.357,72.6H70.883
							v-2.213h14.473L85.357,72.6z"/>
					</g>
					<g>
						<polygon fill="#929497" points="80.683,92.725 81.2,92.725 88.703,85.222 88.703,84.705 80.683,84.705 						"/>
						<path fill="#929497" d="M85.569,69.217H71.095l0.001-2.212h14.473V69.217z M67.685,63.409v29.316h11.523V83.23h9.495
							l0.001-19.821L67.685,63.409z M85.569,80.003H71.095v-2.213h14.474L85.569,80.003L85.569,80.003z M85.569,76.408H71.095
							l0.001-2.212h14.473L85.569,76.408z M85.569,72.812H71.095l0.001-2.212h14.473L85.569,72.812z"/>
					</g>
					<g>
						<polygon fill="#929497" points="80.895,92.938 81.413,92.938 88.915,85.434 88.915,84.917 80.895,84.917 						"/>
						<path fill="#929497" d="M85.781,69.429H71.307v-2.213h14.474V69.429z M67.897,63.621v29.317H79.42v-9.496h9.495l0.001-19.821
							H67.897z M85.781,80.215H71.307v-2.213h14.474V80.215z M85.781,76.62H71.307v-2.212h14.474V76.62z M85.781,73.024H71.307
							v-2.213h14.474V73.024z"/>
					</g>
					<g>
						<polygon fill="#929497" points="81.107,93.149 81.625,93.149 89.128,85.647 89.128,85.129 81.107,85.129 						"/>
						<path fill="#929497" d="M85.993,69.641L71.52,69.641v-2.212h14.473V69.641z M68.109,63.833v29.316h11.523v-9.496h9.495v-19.82
							H68.109z M85.993,80.427H71.519v-2.213h14.474V80.427z M85.993,76.832H71.52V74.62h14.473V76.832z M85.993,73.236H71.52
							v-2.213l14.473,0.001V73.236z"/>
					</g>
					<g>
						<polygon fill="#929497" points="81.32,93.362 81.837,93.362 89.34,85.858 89.34,85.341 81.319,85.341 						"/>
						<path fill="#929497" d="M86.205,69.854l-14.473-0.001l0.001-2.211h14.473L86.205,69.854L86.205,69.854z M68.321,64.047v29.316
							h11.523l-0.001-9.496h9.495V64.046L68.321,64.047z M86.206,80.64H71.732v-2.213h14.474V80.64z M86.206,77.045H71.732
							l0.001-2.213h14.473V77.045z M86.206,73.449H71.732l0.001-2.212h14.473V73.449z"/>
					</g>
					<g>
						<polygon fill="#929497" points="81.533,93.574 82.049,93.574 89.552,86.071 89.552,85.553 81.532,85.554 						"/>
						<path fill="#929497" d="M86.418,70.067l-14.474-0.001l0.001-2.212h14.473V70.067z M68.533,64.259v29.316h11.523l-0.001-9.495
							l9.495-0.001l0.001-19.821L68.533,64.259z M86.419,80.852l-14.475,0.001v-2.213h14.474L86.419,80.852z M86.419,77.257H71.944
							l0.001-2.212h14.473L86.419,77.257z M86.419,73.661l-14.475,0.001l0.001-2.212h14.473L86.419,73.661z"/>
					</g>
					<g>
						<polygon fill="#929497" points="81.745,93.787 82.261,93.787 89.764,86.284 89.764,85.767 81.744,85.766 						"/>
						<path fill="#929497" d="M86.631,70.279H72.156l0.001-2.212h14.473V70.279z M68.746,64.471v29.316h11.523v-9.496h9.495v-19.82
							H68.746z M86.631,81.064H72.156v-2.212h14.474V81.064z M86.631,77.469H72.156v-2.213H86.63L86.631,77.469L86.631,77.469z
							 M86.631,73.874H72.156v-2.212H86.63L86.631,73.874L86.631,73.874z"/>
					</g>
					<g>
						<polygon fill="#929497" points="81.957,93.999 82.474,93.999 89.976,86.496 89.976,85.978 81.957,85.978 						"/>
						<path fill="#929497" d="M86.842,70.49H72.368l0.001-2.212h14.473V70.49z M68.958,64.683v29.316h11.523l-0.001-9.496h9.495
							l0.001-19.821L68.958,64.683z M86.843,81.277H72.368l0.001-2.213h14.474V81.277z M86.843,77.681H72.368l0.001-2.212h14.473
							L86.843,77.681z M86.843,74.086H72.368l0.001-2.212h14.473L86.843,74.086z"/>
					</g>
					<g>
						<polygon fill="#929497" points="82.169,94.211 82.686,94.211 90.19,86.708 90.189,86.19 82.168,86.191 						"/>
						<path fill="#929497" d="M87.055,70.703l-14.474-0.001l0.001-2.212h14.473V70.703z M69.17,64.895v29.316h11.523v-9.496h9.495
							l0.001-19.821L69.17,64.895z M87.056,81.489H72.581v-2.213h14.474L87.056,81.489z M87.055,77.894H72.581l0.001-2.212h14.473
							C87.055,75.682,87.055,77.894,87.055,77.894z M87.055,74.298H72.581l0.001-2.213h14.473
							C87.055,72.086,87.055,74.298,87.055,74.298z"/>
					</g>
					<g>
						<polygon fill="#929497" points="82.381,94.423 82.899,94.423 90.401,86.92 90.401,86.403 82.381,86.403 						"/>
						<path fill="#929497" d="M87.267,70.916H72.793l0.001-2.213h14.473V70.916z M69.382,65.108v29.316h11.523v-9.496h9.495v-19.82
							H69.382z M87.267,81.701H72.793v-2.213h14.475L87.267,81.701z M87.267,78.106H72.794v-2.212h14.473V78.106z M87.267,74.511
							H72.794v-2.213l14.473,0.001V74.511z"/>
					</g>
					<g>
						<polygon fill="#929497" points="82.594,94.636 83.111,94.636 90.614,87.133 90.614,86.615 82.594,86.615 						"/>
						<path fill="#929497" d="M87.479,71.128l-14.474-0.001l0.001-2.211h14.473V71.128z M69.595,65.321v29.316h11.523v-9.496h9.495
							V65.32L69.595,65.321z M87.48,81.914H73.006V79.7H87.48V81.914z M87.48,78.319H73.006l0.001-2.213H87.48V78.319z
							 M87.48,74.723H73.006l0.001-2.212H87.48V74.723z"/>
					</g>
					<g>
						<polygon fill="#929497" points="82.806,94.848 83.323,94.848 90.826,87.345 90.826,86.827 82.806,86.828 						"/>
						<path fill="#929497" d="M87.692,71.34l-14.474-0.001l0.001-2.212h14.473V71.34z M69.807,65.532v29.317H81.33v-9.496
							l9.495-0.001l0.001-19.82H69.807z M87.692,82.125l-14.475,0.001v-2.213h14.474L87.692,82.125z M87.692,78.531H73.218
							l0.001-2.213h14.473C87.692,76.318,87.692,78.531,87.692,78.531z M87.692,74.935H73.218l0.001-2.212h14.473
							C87.692,72.723,87.692,74.935,87.692,74.935z"/>
					</g>
					<g>
						<polygon fill="#929497" points="83.018,95.06 83.536,95.06 91.038,87.557 91.038,87.04 83.018,87.039 						"/>
						<path fill="#929497" d="M87.904,71.552H73.43V69.34h14.473V71.552z M70.02,65.745V95.06h11.523v-9.496h9.495v-19.82H70.02z
							 M87.904,82.338H73.43v-2.213h14.474V82.338z M87.904,78.743H73.43v-2.212h14.473L87.904,78.743z M87.904,75.147H73.43v-2.212
							h14.473L87.904,75.147z"/>
					</g>
					<g>
						<polygon fill="#929497" points="83.23,95.272 83.748,95.272 91.251,87.769 91.251,87.252 83.23,87.252 						"/>
						<path fill="#929497" d="M88.116,71.764l-14.473-0.001v-2.212h14.473V71.764z M70.232,65.957v29.316h11.523v-9.496h9.495
							l0.001-19.82H70.232z M88.117,82.55H73.643v-2.213h14.474V82.55z M88.117,78.955H73.643v-2.212h14.473L88.117,78.955z
							 M88.117,75.36H73.643v-2.212h14.473L88.117,75.36z"/>
					</g>
					<g>
						<polygon fill="#929497" points="83.443,95.485 83.96,95.485 91.463,87.981 91.463,87.465 83.442,87.465 						"/>
						<path fill="#929497" d="M88.328,71.977l-14.473-0.001l0.001-2.212h14.473L88.328,71.977z M70.444,66.169v29.317h11.523V85.99
							l9.495-0.001l0.001-19.821L70.444,66.169z M88.329,82.762l-14.474,0.001V80.55h14.474V82.762z M88.328,79.168H73.854v-2.213
							h14.473L88.328,79.168L88.328,79.168z M88.328,75.572H73.854l0.001-2.213h14.473C88.328,73.359,88.328,75.572,88.328,75.572z"
							/>
					</g>
					<g>
						<polygon fill="#929497" points="83.655,95.697 84.172,95.697 91.675,88.194 91.675,87.677 83.655,87.677 						"/>
						<path fill="#929497" d="M88.541,72.19l-14.474-0.001v-2.212H88.54L88.541,72.19L88.541,72.19z M70.656,66.382v29.316h11.523
							v-9.496l9.495,0.001l0.001-19.821L70.656,66.382z M88.541,82.975H74.067v-2.213h14.474V82.975z M88.541,79.38H74.067
							l0.001-2.213l14.473,0.001V79.38z M88.541,75.784H74.067v-2.212H88.54L88.541,75.784z"/>
					</g>
					<g>
						<polygon fill="#929497" points="83.867,95.91 84.385,95.91 91.887,88.407 91.887,87.889 83.867,87.889 						"/>
						<path fill="#929497" d="M88.753,72.402l-14.474-0.001v-2.212h14.473L88.753,72.402L88.753,72.402z M70.868,66.594V95.91
							h11.523v-9.496h9.495l0.001-19.821L70.868,66.594z M88.754,83.187H74.279v-2.213h14.474V83.187z M88.754,79.592H74.279V77.38
							h14.473L88.754,79.592z M88.754,75.996H74.279v-2.212h14.473L88.754,75.996z"/>
					</g>
					<g>
						<polygon fill="#929497" points="84.08,96.122 84.597,96.122 92.099,88.618 92.099,88.101 84.079,88.101 						"/>
						<path fill="#929497" d="M88.965,72.614l-14.473-0.001v-2.212h14.473V72.614z M71.081,66.806v29.317h11.523v-9.496l9.495-0.001
							L92.1,66.805L71.081,66.806z M88.966,83.4L74.491,83.4v-2.213h14.474L88.966,83.4z M88.966,79.804H74.491l0.001-2.212
							l14.474-0.001L88.966,79.804L88.966,79.804z M88.966,76.209H74.491l0.001-2.213h14.473V76.209z"/>
					</g>
					<g>
						<polygon fill="#929497" points="84.292,96.334 84.81,96.334 92.312,88.831 92.312,88.314 84.292,88.313 						"/>
						<path fill="#929497" d="M89.178,72.826l-14.473-0.001v-2.211h14.473V72.826z M71.293,67.019v29.315h11.523v-9.495h9.495
							l0.001-19.821L71.293,67.019z M89.178,83.612H74.704v-2.213h14.474V83.612z M89.178,80.017H74.704v-2.213h14.473
							L89.178,80.017z M89.178,76.421l-14.474,0.001v-2.213h14.473L89.178,76.421z"/>
					</g>
					<g>
						<polygon fill="#929497" points="84.504,96.546 85.022,96.546 92.524,89.044 92.524,88.526 84.504,88.526 						"/>
						<path fill="#929497" d="M89.39,73.038l-14.473-0.001l0.001-2.212H89.39L89.39,73.038L89.39,73.038z M71.505,67.231v29.316
							h11.523v-9.496h9.495V67.23L71.505,67.231z M89.39,83.824H74.916l0.001-2.213h14.474L89.39,83.824L89.39,83.824z
							 M89.39,80.229H74.916l0.001-2.213H89.39V80.229z M89.39,76.633H74.916l0.001-2.212H89.39V76.633z"/>
					</g>
					<g>
						<polygon fill="#929497" points="84.716,96.759 85.234,96.759 92.737,89.255 92.737,88.738 84.716,88.738 						"/>
						<path fill="#929497" d="M89.602,73.251L75.129,73.25l0.001-2.213h14.473L89.602,73.251z M71.718,67.443L71.717,96.76
							l11.523-0.001v-9.495l9.495-0.001l0.001-19.821L71.718,67.443z M89.603,84.036H75.129v-2.213l14.474,0.001V84.036z
							 M89.603,80.441L75.129,80.44v-2.211l14.474-0.001V80.441z M89.603,76.846l-14.474-0.001l0.001-2.212h14.473V76.846z"/>
					</g>
					<g>
						<polygon fill="#929497" points="84.929,96.971 85.446,96.971 92.949,89.468 92.949,88.951 84.929,88.95 						"/>
						<path fill="#929497" d="M89.815,73.463H75.341l0.001-2.213h14.473V73.463z M71.93,67.656l0.001,29.315h11.523v-9.496
							l9.495,0.001l0.001-19.821L71.93,67.656z M89.815,84.248H75.341l-0.001-2.213h14.474V84.248z M89.815,80.653H75.341v-2.212
							h14.473V80.653z M89.815,77.058H75.341l0.001-2.212h14.473V77.058z"/>
					</g>
					<g>
						<polygon fill="#929497" points="85.141,97.184 85.658,97.184 93.161,89.68 93.161,89.162 85.141,89.162 						"/>
						<path fill="#929497" d="M90.027,73.675l-14.474-0.001v-2.212h14.473L90.027,73.675L90.027,73.675z M72.142,67.867v29.317
							h11.523v-9.496h9.495l0.001-19.821H72.142z M90.027,84.462H75.553v-2.213h14.474L90.027,84.462L90.027,84.462z M90.027,80.866
							H75.553v-2.212h14.473L90.027,80.866z M90.027,77.27H75.553v-2.213h14.473L90.027,77.27z"/>
					</g>
					<g>
						<polygon fill="#929497" points="85.353,97.396 85.87,97.396 93.373,89.892 93.373,89.375 85.353,89.375 						"/>
						<path fill="#929497" d="M90.239,73.888l-14.473-0.001l0.001-2.212h14.473L90.239,73.888z M72.355,68.08v29.316h11.523V87.9
							h9.495l0.001-19.821L72.355,68.08z M90.239,84.673H75.765V82.46h14.474V84.673z M90.239,81.078l-14.474-0.001l0.001-2.212
							h14.473V81.078z M90.239,77.483l-14.474-0.001l0.001-2.212h14.473V77.483z"/>
					</g>
					<g>
						<polygon fill="#929497" points="85.566,97.607 86.083,97.607 93.585,90.105 93.585,89.588 85.565,89.588 						"/>
						<path fill="#929497" d="M90.451,74.1l-14.474-0.001l0.001-2.212h14.473V74.1z M72.567,68.292v29.316H84.09l-0.001-9.496h9.496
							v-19.82H72.567z M90.452,84.885H75.977v-2.213h14.475V84.885z M90.452,81.29H75.977l0.001-2.212h14.473L90.452,81.29z
							 M90.452,77.695H75.977l0.001-2.213h14.473L90.452,77.695z"/>
					</g>
					<g>
						<polygon fill="#929497" points="85.778,97.821 86.295,97.821 93.798,90.317 93.798,89.8 85.777,89.8 						"/>
						<path fill="#929497" d="M90.664,74.312L76.19,74.311v-2.212h14.474V74.312z M72.779,68.504v29.317h11.523v-9.496h9.495V68.504
							L72.779,68.504z M90.664,85.098H76.19v-2.213h14.474V85.098z M90.664,81.502H76.19V79.29h14.474V81.502z M90.664,77.907H76.19
							v-2.212h14.474V77.907z"/>
					</g>
					<g>
						<polygon fill="#929497" points="85.99,98.033 86.508,98.033 94.011,90.529 94.011,90.012 85.99,90.012 						"/>
						<path fill="#929497" d="M90.875,74.524l-14.473-0.001v-2.212h14.474L90.875,74.524z M72.991,68.716l-0.001,29.317h11.523
							v-9.497h9.495l0.001-19.82H72.991z M90.877,85.309H76.402v-2.213l14.474,0.001L90.877,85.309z M90.876,81.715l-14.474-0.001
							l0.001-2.212h14.474L90.876,81.715L90.876,81.715z M90.876,78.119H76.403v-2.213h14.474L90.876,78.119L90.876,78.119z"/>
					</g>
					<g>
						<polygon fill="#929497" points="86.203,98.245 86.72,98.245 94.223,90.741 94.223,90.224 86.203,90.224 						"/>
						<path fill="#929497" d="M91.089,74.736H76.615v-2.212h14.473L91.089,74.736L91.089,74.736z M73.204,68.929v29.316h11.524
							v-9.496h9.495l0.001-19.821L73.204,68.929z M91.089,85.523H76.615v-2.213h14.475V85.523z M91.089,81.928H76.615v-2.213h14.473
							L91.089,81.928z M91.089,78.332H76.615V76.12h14.473L91.089,78.332z"/>
					</g>
					<g>
						<polygon fill="#929497" points="86.415,98.457 86.932,98.457 94.434,90.953 94.434,90.437 86.415,90.437 						"/>
						<path fill="#929497" d="M91.301,74.949H76.826v-2.212H91.3L91.301,74.949L91.301,74.949z M73.416,69.141v29.316h11.523v-9.496
							h9.495V69.141L73.416,69.141z M91.301,85.735H76.826v-2.213h14.474L91.301,85.735L91.301,85.735z M91.301,82.14H76.826v-2.212
							H91.3L91.301,82.14z M91.301,78.544H76.826v-2.213H91.3L91.301,78.544z"/>
					</g>
					<g>
						<polygon fill="#929497" points="86.627,98.669 87.144,98.669 94.647,91.166 94.647,90.649 86.627,90.649 						"/>
						<path fill="#929497" d="M91.513,75.161l-14.473-0.001v-2.212h14.473V75.161z M73.628,69.353V98.67h11.523v-9.497h9.495
							l0.001-19.821L73.628,69.353z M91.513,85.947H77.038v-2.213l14.474,0.001L91.513,85.947z M91.513,82.352l-14.474-0.001
							l0.001-2.212h14.473V82.352z M91.513,78.756l-14.473-0.001v-2.212h14.473V78.756z"/>
					</g>
					<g>
						<polygon fill="#929497" points="86.839,98.882 87.357,98.882 94.859,91.378 94.859,90.861 86.839,90.861 						"/>
						<path fill="#929497" d="M91.725,75.373H77.251l0.001-2.213h14.473V75.373z M73.84,69.565v29.317h11.523l-0.001-9.496h9.495
							V69.565H73.84z M91.725,86.159H77.251v-2.213h14.474V86.159z M91.725,82.563H77.251l0.001-2.212h14.473V82.563z
							 M91.725,78.968H77.251l0.001-2.212h14.473V78.968z"/>
					</g>
					<g>
						<polygon fill="#929497" points="87.052,99.094 87.569,99.094 95.072,91.591 95.072,91.073 87.051,91.073 						"/>
						<path fill="#929497" d="M91.937,75.585H77.464v-2.213h14.474L91.937,75.585L91.937,75.585z M74.053,69.778v29.316h11.523
							v-9.496h9.495V69.777L74.053,69.778z M91.938,86.372H77.464v-2.213h14.474V86.372z M91.938,82.776H77.464v-2.212h14.474
							V82.776z M91.938,79.18H77.464v-2.212h14.474V79.18z"/>
					</g>
					<g>
						<polygon fill="#929497" points="87.264,99.306 87.781,99.306 95.284,91.802 95.284,91.285 87.263,91.285 						"/>
						<path fill="#929497" d="M92.15,75.798H77.676l0.001-2.213H92.15V75.798z M74.265,69.991v29.316h11.523l-0.001-9.496h9.496
							v-19.82H74.265z M92.15,86.584H77.676v-2.213H92.15V86.584z M92.15,82.989H77.676l0.001-2.213H92.15V82.989z M92.15,79.394
							H77.676l0.001-2.212H92.15V79.394z"/>
					</g>
					<g>
						<polygon fill="#929497" points="87.476,99.518 87.993,99.518 95.496,92.016 95.496,91.497 87.476,91.497 						"/>
						<path fill="#929497" d="M92.362,76.01L77.888,76.01l0.001-2.212h14.473V76.01z M74.477,70.203v29.316H86v-9.495h9.495V70.203
							H74.477z M92.362,86.797H77.888v-2.213h14.475C92.362,84.583,92.362,86.797,92.362,86.797z M92.362,83.201H77.888l0.001-2.212
							h14.473L92.362,83.201z M92.362,79.606H77.888l0.001-2.212h14.473L92.362,79.606z"/>
					</g>
					<g>
						<polygon fill="#929497" points="87.688,99.732 88.205,99.732 95.709,92.228 95.709,91.711 87.688,91.711 						"/>
						<path fill="#929497" d="M92.574,76.222H78.1V74.01h14.473L92.574,76.222L92.574,76.222z M74.69,70.415v29.317h11.523v-9.497
							h9.495l0.001-19.821H74.69z M92.574,87.009H78.1v-2.213h14.475L92.574,87.009z M92.574,83.413H78.1v-2.213h14.473
							L92.574,83.413z M92.574,79.817L78.1,79.818v-2.212h14.473L92.574,79.817z"/>
					</g>
					<g>
						<polygon fill="#929497" points="87.901,99.943 88.418,99.943 95.921,92.44 95.921,91.923 87.9,91.923 						"/>
						<path fill="#929497" d="M92.786,76.434H78.313v-2.212h14.473V76.434z M74.902,70.627v29.317h11.523l-0.001-9.496h9.496V70.627
							H74.902z M92.787,87.221H78.313v-2.213h14.474V87.221z M92.787,83.625H78.313v-2.212h14.473L92.787,83.625z M92.787,80.03
							H78.313v-2.212h14.473L92.787,80.03z"/>
					</g>
					<g>
						<polygon fill="#929497" points="88.113,100.156 88.631,100.156 96.133,92.652 96.133,92.135 88.113,92.135 						"/>
						<path fill="#929497" d="M92.999,76.647l-14.474-0.001l0.001-2.212h14.473C92.999,74.434,92.999,76.647,92.999,76.647z
							 M75.114,70.839v29.317h11.523v-9.497h9.495v-19.82H75.114z M92.999,87.433H78.525V85.22H93L92.999,87.433L92.999,87.433z
							 M92.999,83.837H78.525l0.001-2.212h14.473L92.999,83.837z M92.999,80.242H78.525l0.001-2.213h14.473L92.999,80.242z"/>
					</g>
					<g>
						<polygon fill="#929497" points="88.326,100.368 88.843,100.368 96.346,92.864 96.346,92.347 88.325,92.347 						"/>
						<path fill="#929497" d="M93.211,76.86l-14.473-0.001v-2.212h14.473V76.86z M75.326,71.052v29.317H86.85v-9.496h9.495V71.052
							H75.326z M93.212,87.646H78.738v-2.213h14.474V87.646z M93.212,84.05H78.738v-2.212h14.473L93.212,84.05z M93.212,80.454
							l-14.474,0.001v-2.213h14.473L93.212,80.454z"/>
					</g>
					<g>
						<polygon fill="#929497" points="88.538,100.58 89.055,100.58 96.558,93.077 96.558,92.56 88.537,92.56 						"/>
						<path fill="#929497" d="M93.423,77.072l-14.474-0.001l0.001-2.211h14.473V77.072z M75.539,71.264v29.317h11.523v-9.496h9.495
							V71.264H75.539z M93.424,87.858H78.95l-0.001-2.213h14.475V87.858z M93.424,84.262H78.949l0.001-2.212h14.473L93.424,84.262z
							 M93.424,80.667H78.949l0.001-2.212h14.473L93.424,80.667z"/>
					</g>
					<g>
						<polygon fill="#929497" points="88.75,100.792 89.267,100.792 96.77,93.289 96.77,92.772 88.75,92.772 						"/>
						<path fill="#929497" d="M93.636,77.284l-14.474-0.001l0.001-2.212h14.473V77.284z M75.752,71.476v29.316h11.523v-9.496h9.495
							l0.001-19.821L75.752,71.476z M93.636,88.07H79.162v-2.213h14.475V88.07z M93.636,84.475H79.162l0.001-2.213h14.473
							L93.636,84.475z M93.636,80.879H79.162l0.001-2.211h14.473L93.636,80.879z"/>
					</g>
					<g>
						<polygon fill="#929497" points="88.962,101.005 89.48,101.005 96.982,93.501 96.982,92.984 88.962,92.984 						"/>
						<path fill="#929497" d="M93.848,77.496l-14.474-0.001v-2.212h14.474V77.496z M75.964,71.688v29.317h11.523v-9.496h9.495
							V71.688H75.964z M93.848,88.283H79.374V86.07h14.475L93.848,88.283z M93.848,84.686l-14.474,0.001v-2.212h14.474V84.686z
							 M93.848,81.091l-14.474,0.001v-2.212h14.474V81.091z"/>
					</g>
					<g>
						<polygon fill="#929497" points="89.174,101.216 89.692,101.216 97.195,93.713 97.195,93.196 89.174,93.196 						"/>
						<path fill="#929497" d="M94.06,77.708H79.586l0.001-2.212H94.06V77.708z M76.175,71.901v29.315h11.523V91.72h9.495
							l0.001-19.82L76.175,71.901z M94.061,88.494H79.587l-0.001-2.213h14.475V88.494z M94.061,84.899H79.586l0.001-2.212H94.06
							L94.061,84.899z M94.061,81.304H79.586l0.001-2.212H94.06L94.061,81.304z"/>
					</g>
					<g>
						<polygon fill="#929497" points="89.387,101.429 89.904,101.429 97.407,93.926 97.407,93.408 89.387,93.408 						"/>
						<path fill="#929497" d="M94.273,77.922l-14.474-0.001l0.001-2.212h14.473V77.922z M76.388,72.114v29.316h11.523v-9.496h9.495
							V72.113L76.388,72.114z M94.274,88.707H79.799v-2.213h14.475V88.707z M94.274,85.112H79.799l0.001-2.213h14.473L94.274,85.112
							z M94.274,81.516H79.799l0.001-2.212h14.473L94.274,81.516z"/>
					</g>
					<g>
						<polygon fill="#929497" points="89.6,101.642 90.116,101.642 97.619,94.138 97.619,93.62 89.599,93.621 						"/>
						<path fill="#929497" d="M94.485,78.133H80.011l0.001-2.213h14.473V78.133z M76.601,72.326v29.317h11.523v-9.497h9.495
							l0.001-19.821L76.601,72.326z M94.486,88.919H80.011v-2.213h14.475V88.919z M94.486,85.323H80.011l0.001-2.212h14.473
							L94.486,85.323z M94.486,81.728H80.011l0.001-2.212h14.473L94.486,81.728z"/>
					</g>
					<g>
						<polygon fill="#929497" points="89.812,101.854 90.328,101.854 97.831,94.351 97.831,93.833 89.811,93.833 						"/>
						<path fill="#929497" d="M94.698,78.346l-14.474-0.001v-2.212h14.474V78.346z M76.813,72.538v29.316h11.523v-9.497h9.495
							l0.001-19.82L76.813,72.538z M94.698,89.131H80.223v-2.213h14.474V89.131z M94.698,85.536H80.223v-2.212h14.474V85.536z
							 M94.698,81.94H80.223v-2.211h14.474V81.94z"/>
					</g>
					<g>
						<polygon fill="#929497" points="90.024,102.066 90.541,102.066 98.044,94.563 98.044,94.045 90.023,94.045 						"/>
						<path fill="#929497" d="M94.909,78.557H80.435l0.001-2.213h14.473V78.557z M77.025,72.75v29.316h11.523V92.57h9.495V72.75
							L77.025,72.75z M94.91,89.344H80.435v-2.213h14.474L94.91,89.344L94.91,89.344z M94.91,85.748H80.435l0.001-2.212h14.473
							L94.91,85.748z M94.91,82.153H80.435l0.001-2.212h14.473L94.91,82.153z"/>
					</g>
					<g>
						<polygon fill="#929497" points="90.236,102.278 90.753,102.278 98.256,94.775 98.256,94.258 90.235,94.258 						"/>
						<path fill="#929497" d="M95.122,78.769l-14.473-0.001v-2.212h14.473V78.769z M77.237,72.962l-0.001,29.316H88.76v-9.496h9.495
							l0.001-19.821L77.237,72.962z M95.122,89.556H80.648v-2.213h14.474V89.556z M95.122,85.96H80.648v-2.212h14.473L95.122,85.96z
							 M95.122,82.365H80.648v-2.213h14.473L95.122,82.365z"/>
					</g>
					<g>
						<polygon fill="#929497" points="90.449,102.49 90.966,102.49 98.468,94.987 98.468,94.47 90.448,94.47 						"/>
						<path fill="#929497" d="M95.334,78.983L80.86,78.982l0.001-2.212h14.473C95.334,76.77,95.334,78.983,95.334,78.983z
							 M77.449,73.175v29.316h11.523v-9.496h9.495v-19.82H77.449z M95.334,89.768H80.86v-2.213h14.475L95.334,89.768L95.334,89.768z
							 M95.334,86.173H80.86l0.001-2.213h14.473V86.173z M95.334,82.577H80.86l0.001-2.212h14.473V82.577z"/>
					</g>
					<g>
						<polygon fill="#929497" points="90.661,102.703 91.178,102.703 98.681,95.2 98.681,94.682 90.66,94.682 						"/>
						<path fill="#929497" d="M95.547,79.195H81.072l0.001-2.213h14.473L95.547,79.195L95.547,79.195z M77.662,73.388v29.316h11.523
							v-9.496h9.495V73.387L77.662,73.388z M95.547,89.981H81.072v-2.213h14.475V89.981z M95.547,86.385H81.072l0.001-2.212h14.473
							L95.547,86.385z M95.547,82.79H81.072l0.001-2.212h14.473L95.547,82.79z"/>
					</g>
					<g>
						<polygon fill="#929497" points="90.873,102.916 91.39,102.916 98.893,95.412 98.893,94.895 90.873,94.895 						"/>
						<path fill="#929497" d="M95.759,79.407l-14.474-0.001l0.001-2.212h14.473V79.407z M77.874,73.599v29.317h11.523v-9.497h9.495
							l0.001-19.82C98.893,73.599,77.874,73.599,77.874,73.599z M95.759,90.192H81.285v-2.213h14.474V90.192z M95.759,86.597H81.285
							l0.001-2.212h14.473V86.597z M95.759,83.002H81.285l0.001-2.213h14.473V83.002z"/>
					</g>
					<g>
						<polygon fill="#929497" points="91.085,103.127 91.603,103.127 99.105,95.624 99.105,95.107 91.085,95.107 						"/>
						<path fill="#929497" d="M95.971,79.619l-14.474-0.001l0.001-2.212h14.473V79.619z M78.087,73.812v29.316H89.61v-9.496h9.495
							V73.811L78.087,73.812z M95.971,90.405H81.497v-2.213h14.474V90.405z M95.971,86.809H81.497l0.001-2.212h14.473V86.809z
							 M95.971,83.214H81.497l0.001-2.212h14.473V83.214z"/>
					</g>
					<g>
						<polygon fill="#929497" points="91.297,103.34 91.815,103.34 99.318,95.836 99.318,95.319 91.297,95.319 						"/>
						<path fill="#929497" d="M96.183,79.831H81.709l0.001-2.212h14.473V79.831z M78.299,74.024v29.317h11.523v-9.497h9.495
							l0.001-19.82H78.299z M96.184,90.617H81.709v-2.213h14.475V90.617z M96.184,87.022H81.709l0.001-2.212h14.473L96.184,87.022z
							 M96.184,83.427H81.709l0.001-2.213h14.473L96.184,83.427z"/>
					</g>
				</g>
			</g>
		</g>
	</g>
	<g>
		<polygon fill="#EDEEEB" points="48.627,60.669 49.144,60.669 56.647,53.167 56.647,52.65 48.627,52.65 		"/>
		<path fill="#EDEEEB" d="M35.628,31.354v29.316h11.523v-9.495h9.495V31.354H35.628z M53.513,47.947H39.039v-2.213h14.473V47.947z
			 M53.513,44.352H39.039V42.14h14.473V44.352z M53.513,40.757H39.039v-2.213h14.473V40.757z M53.513,37.162H39.039v-2.213h14.473
			V37.162z"/>
	</g>
</g>
</svg>
