<?xml version="1.0" encoding="utf-8"?>

<!DOCTYPE svg PUBLIC "-//W3C//DTD SVG 1.1//EN" "http://www.w3.org/Graphics/SVG/1.1/DTD/svg11.dtd">
<svg version="1.1" xmlns="http://www.w3.org/2000/svg" xmlns:xlink="http://www.w3.org/1999/xlink" x="0px" y="0px"
	 width="198.425px" height="198.425px" viewBox="0 0 198.425 198.425" enable-background="new 0 0 198.425 198.425"
	 xml:space="preserve">
<g id="frame01">
</g>
<g id="frame02">
	<g>
		<g>
			<path fill="#242021" d="M43.984,78.224c-0.326-1.01-0.506-2.084-0.506-3.2c0-5.816,4.782-10.53,10.68-10.53
				c4.226,0,7.867,2.426,9.599,5.936c1.496-0.398,3.006-0.761,4.531-1.086c-2.274-5.494-7.74-9.369-14.13-9.369
				c-8.429,0-15.263,6.738-15.263,15.049c0,1.936,0.384,3.781,1.06,5.481C41.277,79.712,42.62,78.952,43.984,78.224z"/>
			<path fill="#242021" d="M59.449,71.69c-1.117-1.719-3.067-2.862-5.291-2.862c-3.471,0-6.284,2.774-6.284,6.196
				c0,0.405,0.042,0.799,0.117,1.183C51.684,74.459,55.51,72.947,59.449,71.69z"/>
			<g>
				<path fill="#242021" d="M154.442,78.224c0.326-1.01,0.506-2.084,0.506-3.2c0-5.816-4.782-10.53-10.68-10.53
					c-4.226,0-7.867,2.426-9.599,5.936c-1.496-0.398-3.006-0.761-4.531-1.086c2.274-5.494,7.74-9.369,14.13-9.369
					c8.429,0,15.263,6.738,15.263,15.049c0,1.936-0.384,3.781-1.06,5.481C157.148,79.712,155.805,78.952,154.442,78.224z"/>
				<path fill="#242021" d="M138.976,71.69c1.117-1.719,3.067-2.862,5.291-2.862c3.471,0,6.284,2.774,6.284,6.196
					c0,0.405-0.042,0.799-0.117,1.183C146.741,74.459,142.916,72.947,138.976,71.69z"/>
			</g>
		</g>
		<g>
			<g>
				<path d="M107.51,18.33c-7.782-0.984-50.13,12.415-54.009,15.26s44.895,35.851,50.019,37.287
					c5.124,1.436,52.158-25.343,53.995-28.866C159.353,38.488,117.876,19.64,107.51,18.33z"/>
				<path d="M72.851,54.421c0,0,24.923,18.637,30.606,19.592c5.683,0.955,26.948-10.338,31.4-13.837c0,0-1.462,19.25-1.633,21.504
					c-0.402,5.289-62.72,1.343-62.259-4.727C71.295,72.617,72.851,54.421,72.851,54.421z"/>
			</g>
			<path fill="#6AA842" d="M107.813,38.715c-2.959-0.022-5.894,1.01-8.82,1.52c-3.599,0.627-7.25,0.974-10.88,1.365
				c-7.384,0.794-14.641,1.762-21.689,4.19c-0.388,0.134-0.733,0.664-0.725,1.068c0.127,6.237-1.275,12.296-2.607,18.367
				c-1.031-0.067-2.171-0.056-2.906,0.703c-0.297,0.307-0.296,0.748,0.053,1.018c0.485,0.375,1.03,0.479,1.597,0.533
				c-3.902,4.959-4.727,10.694-0.598,16.356c0.468,0.642,1.304,0.241,1.48-0.377c0.243-0.115,0.408-0.346,0.504-0.643
				c1.427-1.23,1.904-3.945,2.264-5.541c0.572-2.533,1.013-6.148,0.293-9.016c0.283,0.059,0.568,0.108,0.858,0.123
				c1.163,0.062,1.751-1.476,0.763-2.154c-0.531-0.365-1.147-0.577-1.787-0.714c0.254-1.238,0.511-2.476,0.778-3.722
				c0.569-2.651,1.054-5.309,1.457-7.99c0.264-1.757,0.384-3.528,0.467-5.301c0.058-1.258,4.945-2.056,5.887-2.279
				c6.492-1.539,13.242-1.957,19.851-2.744c4.322-0.514,11.231-0.406,14.009-4.237C108.205,39.042,108.067,38.717,107.813,38.715z"
				/>
		</g>
		<g>
			<g>
				<path d="M88.793,100.473c-4.364-5.005-9.149-6.179-17.07-4.437c-7.994,1.76-14.485,5.757-21.25,13.293
					c-6.674,7.517-11.111,14.136-13.77,23.359c-1.907,9.406-1.283,16.557,1.467,21.892c1.467,0.715,3.044,1.467,4.822,2.805
					c3.062,2.328,4.125,3.979,4.639,4.639c15.438,5.244,28.053-7.957,33.81-16.483c6.472-9.571,9.534-15.42,10.909-24.514
					C93.688,112.134,93.156,105.387,88.793,100.473z M81.11,125.188c-0.843,5.244-3.08,10.176-6.711,14.796
					c-3.887,4.932-8.251,7.976-13.073,9.131c-4.804,1.137-8.452-0.018-10.928-3.484c-2.347-3.245-2.989-7.554-1.98-12.89
					c1.027-5.372,3.41-10.286,7.096-14.723c3.832-4.547,8.086-7.334,12.798-8.397c4.675-1.045,8.196,0.018,10.598,3.172
					C81.22,115.801,81.972,119.926,81.11,125.188z"/>
				<path d="M75.475,125.928c0.506-3.123,0.066-5.564-1.31-7.34c-1.417-1.876-3.505-2.5-6.276-1.879
					c-2.781,0.624-5.303,2.276-7.575,4.975c-2.185,2.626-3.588,5.528-4.197,8.709c-0.605,3.161-0.22,5.713,1.167,7.637
					c1.465,2.048,3.628,2.737,6.473,2.062c2.859-0.679,5.441-2.487,7.736-5.405C73.65,131.952,74.973,129.031,75.475,125.928z"/>
			</g>
			<g>
				<path d="M106.076,121.026c1.375,9.094,4.437,14.943,10.909,24.514c5.757,8.526,18.372,21.727,33.81,16.483
					c0.513-0.66,1.577-2.31,4.639-4.639c1.778-1.339,3.355-2.09,4.822-2.805c2.75-5.335,3.374-12.486,1.467-21.892
					c-2.659-9.223-7.096-15.841-13.77-23.359c-6.766-7.536-13.256-11.533-21.25-13.293c-7.921-1.742-12.706-0.568-17.07,4.437
					C105.269,105.387,104.737,112.134,106.076,121.026z M119.515,112.794c2.402-3.154,5.922-4.217,10.598-3.172
					c4.712,1.063,8.966,3.85,12.798,8.397c3.685,4.437,6.069,9.351,7.096,14.723c1.008,5.335,0.367,9.644-1.98,12.89
					c-2.475,3.465-6.124,4.62-10.928,3.484c-4.822-1.155-9.186-4.199-13.073-9.131c-3.63-4.62-5.867-9.553-6.711-14.796
					C116.453,119.926,117.205,115.801,119.515,112.794z"/>
				<path d="M126.931,134.688c2.295,2.918,4.877,4.726,7.736,5.405c2.846,0.676,5.008-0.014,6.473-2.062
					c1.388-1.925,1.773-4.476,1.167-7.637c-0.609-3.181-2.012-6.083-4.197-8.709c-2.272-2.699-4.794-4.351-7.575-4.975
					c-2.771-0.621-4.859,0.003-6.276,1.879c-1.376,1.775-1.815,4.217-1.31,7.34C123.452,129.031,124.775,131.952,126.931,134.688z"
					/>
			</g>
		</g>
		<ellipse fill="#242021" cx="97.935" cy="169.066" rx="23.947" ry="11.08"/>
		<g>
			<path fill="#242021" d="M43.984,78.224c-0.326-1.01-0.506-2.084-0.506-3.2c0-5.816,4.782-10.53,10.68-10.53
				c4.226,0,7.867,2.426,9.599,5.936c1.496-0.398,3.006-0.761,4.531-1.086c-2.274-5.494-7.74-9.369-14.13-9.369
				c-8.429,0-15.263,6.738-15.263,15.049c0,1.936,0.384,3.781,1.06,5.481C41.277,79.712,42.62,78.952,43.984,78.224z"/>
			<path fill="#242021" d="M59.449,71.69c-1.117-1.719-3.067-2.862-5.291-2.862c-3.471,0-6.284,2.774-6.284,6.196
				c0,0.405,0.042,0.799,0.117,1.183C51.684,74.459,55.51,72.947,59.449,71.69z"/>
			<g>
				<path fill="#242021" d="M154.442,78.224c0.326-1.01,0.506-2.084,0.506-3.2c0-5.816-4.782-10.53-10.68-10.53
					c-4.226,0-7.867,2.426-9.599,5.936c-1.496-0.398-3.006-0.761-4.531-1.086c2.274-5.494,7.74-9.369,14.13-9.369
					c8.429,0,15.263,6.738,15.263,15.049c0,1.936-0.384,3.781-1.06,5.481C157.148,79.712,155.805,78.952,154.442,78.224z"/>
				<path fill="#242021" d="M138.976,71.69c1.117-1.719,3.067-2.862,5.291-2.862c3.471,0,6.284,2.774,6.284,6.196
					c0,0.405-0.042,0.799-0.117,1.183C146.741,74.459,142.916,72.947,138.976,71.69z"/>
			</g>
		</g>
		<g>
			<g>
				<path d="M107.51,18.33c-7.782-0.984-50.13,12.415-54.009,15.26s44.895,35.851,50.019,37.287
					c5.124,1.436,52.158-25.343,53.995-28.866C159.353,38.488,117.876,19.64,107.51,18.33z"/>
				<path d="M72.851,54.421c0,0,24.923,18.637,30.606,19.592c5.683,0.955,26.948-10.338,31.4-13.837c0,0-1.462,19.25-1.633,21.504
					c-0.402,5.289-62.72,1.343-62.259-4.727C71.295,72.617,72.851,54.421,72.851,54.421z"/>
			</g>
			<path fill="#6AA842" d="M107.813,38.715c-2.959-0.022-5.894,1.01-8.82,1.52c-3.599,0.627-7.25,0.974-10.88,1.365
				c-7.384,0.794-14.641,1.762-21.689,4.19c-0.388,0.134-0.733,0.664-0.725,1.068c0.127,6.237-1.275,12.296-2.607,18.367
				c-1.031-0.067-2.171-0.056-2.906,0.703c-0.297,0.307-0.296,0.748,0.053,1.018c0.485,0.375,1.03,0.479,1.597,0.533
				c-3.902,4.959-4.727,10.694-0.598,16.356c0.468,0.642,1.304,0.241,1.48-0.377c0.243-0.115,0.408-0.346,0.504-0.643
				c1.427-1.23,1.904-3.945,2.264-5.541c0.572-2.533,1.013-6.148,0.293-9.016c0.283,0.059,0.568,0.108,0.858,0.123
				c1.163,0.062,1.751-1.476,0.763-2.154c-0.531-0.365-1.147-0.577-1.787-0.714c0.254-1.238,0.511-2.476,0.778-3.722
				c0.569-2.651,1.054-5.309,1.457-7.99c0.264-1.757,0.384-3.528,0.467-5.301c0.058-1.258,4.945-2.056,5.887-2.279
				c6.492-1.539,13.242-1.957,19.851-2.744c4.322-0.514,11.231-0.406,14.009-4.237C108.205,39.042,108.067,38.717,107.813,38.715z"
				/>
		</g>
		<g>
			<g>
				<path d="M88.793,100.473c-4.364-5.005-9.149-6.179-17.07-4.437c-7.994,1.76-14.485,5.757-21.25,13.293
					c-6.674,7.517-11.111,14.136-13.77,23.359c-1.907,9.406-1.283,16.557,1.467,21.892c1.467,0.715,3.044,1.467,4.822,2.805
					c3.062,2.328,4.125,3.979,4.639,4.639c15.438,5.244,28.053-7.957,33.81-16.483c6.472-9.571,9.534-15.42,10.909-24.514
					C93.688,112.134,93.156,105.387,88.793,100.473z M81.11,125.188c-0.843,5.244-3.08,10.176-6.711,14.796
					c-3.887,4.932-8.251,7.976-13.073,9.131c-4.804,1.137-8.452-0.018-10.928-3.484c-2.347-3.245-2.989-7.554-1.98-12.89
					c1.027-5.372,3.41-10.286,7.096-14.723c3.832-4.547,8.086-7.334,12.798-8.397c4.675-1.045,8.196,0.018,10.598,3.172
					C81.22,115.801,81.972,119.926,81.11,125.188z"/>
				<path d="M75.475,125.928c0.506-3.123,0.066-5.564-1.31-7.34c-1.417-1.876-3.505-2.5-6.276-1.879
					c-2.781,0.624-5.303,2.276-7.575,4.975c-2.185,2.626-3.588,5.528-4.197,8.709c-0.605,3.161-0.22,5.713,1.167,7.637
					c1.465,2.048,3.628,2.737,6.473,2.062c2.859-0.679,5.441-2.487,7.736-5.405C73.65,131.952,74.973,129.031,75.475,125.928z"/>
			</g>
			<g>
				<path d="M106.076,121.026c1.375,9.094,4.437,14.943,10.909,24.514c5.757,8.526,18.372,21.727,33.81,16.483
					c0.513-0.66,1.577-2.31,4.639-4.639c1.778-1.339,3.355-2.09,4.822-2.805c2.75-5.335,3.374-12.486,1.467-21.892
					c-2.659-9.223-7.096-15.841-13.77-23.359c-6.766-7.536-13.256-11.533-21.25-13.293c-7.921-1.742-12.706-0.568-17.07,4.437
					C105.269,105.387,104.737,112.134,106.076,121.026z M119.515,112.794c2.402-3.154,5.922-4.217,10.598-3.172
					c4.712,1.063,8.966,3.85,12.798,8.397c3.685,4.437,6.069,9.351,7.096,14.723c1.008,5.335,0.367,9.644-1.98,12.89
					c-2.475,3.465-6.124,4.62-10.928,3.484c-4.822-1.155-9.186-4.199-13.073-9.131c-3.63-4.62-5.867-9.553-6.711-14.796
					C116.453,119.926,117.205,115.801,119.515,112.794z"/>
				<path d="M126.931,134.688c2.295,2.918,4.877,4.726,7.736,5.405c2.846,0.676,5.008-0.014,6.473-2.062
					c1.388-1.925,1.773-4.476,1.167-7.637c-0.609-3.181-2.012-6.083-4.197-8.709c-2.272-2.699-4.794-4.351-7.575-4.975
					c-2.771-0.621-4.859,0.003-6.276,1.879c-1.376,1.775-1.815,4.217-1.31,7.34C123.452,129.031,124.775,131.952,126.931,134.688z"
					/>
			</g>
		</g>
		<ellipse fill="#242021" cx="97.935" cy="169.066" rx="23.947" ry="11.08"/>
		<animateTransform attributeName="transform"
				attribureType="XML"
				type="rotate"
				from="0 100 100"
				to="360 100 100"
				dur="10s"
				repeatCount="indefinite"/>
	</g>
</g>
</svg>
